<svg width="150" height="24" viewBox="0 0 150 24" fill="none" xmlns="http://www.w3.org/2000/svg">
<path d="M12.312 18.24L11.352 17.328C10.872 17.648 10.376 17.88 9.864 18.024C9.352 18.184 8.744 18.264 8.04 18.264C6.968 18.264 5.984 18.032 5.088 17.568C4.192 17.088 3.416 16.4 2.76 15.504C2.184 14.72 1.736 13.816 1.416 12.792C1.096 11.768 0.936 10.736 0.936 9.696C0.936 8.688 1.096 7.68 1.416 6.672C1.752 5.648 2.208 4.736 2.784 3.936C3.456 3.04 4.232 2.36 5.112 1.896C6.008 1.416 6.976 1.176 8.016 1.176C8.688 1.176 9.288 1.248 9.816 1.392C10.36 1.536 10.832 1.76 11.232 2.064L12.192 1.2H12.624V6.72H11.832C11.832 5.168 11.52 3.992 10.896 3.192C10.272 2.392 9.36 1.992 8.16 1.992C6.656 1.992 5.544 2.624 4.824 3.888C4.12 5.152 3.768 7.088 3.768 9.696C3.768 12.288 4.128 14.232 4.848 15.528C5.584 16.808 6.688 17.448 8.16 17.448C9.392 17.448 10.328 17.04 10.968 16.224C11.624 15.392 11.952 14.192 11.952 12.624H12.744V18.24H12.312ZM25.2677 13.728C25.2677 15.072 24.8437 16.168 23.9957 17.016C23.1477 17.848 21.9797 18.264 20.4917 18.264C19.6757 18.264 18.9477 18.168 18.3077 17.976C17.6677 17.768 17.0597 17.448 16.4837 17.016L15.5237 18.24H15.1157V12.648H15.8837C15.8837 14.024 16.2997 15.168 17.1317 16.08C17.9637 16.992 19.0517 17.448 20.3957 17.448C21.4677 17.448 22.2837 17.192 22.8437 16.68C23.4037 16.152 23.6837 15.4 23.6837 14.424C23.6837 13.848 23.5797 13.36 23.3717 12.96C23.1637 12.56 22.8357 12.224 22.3877 11.952C22.1957 11.84 21.9717 11.736 21.7157 11.64C21.4597 11.528 20.7557 11.304 19.6037 10.968C17.9557 10.488 16.8117 9.848 16.1717 9.048C15.5317 8.232 15.2117 7.16 15.2117 5.832C15.2117 4.44 15.6197 3.32 16.4357 2.472C17.2677 1.608 18.3797 1.176 19.7717 1.176C20.4437 1.176 21.1077 1.288 21.7637 1.512C22.4197 1.736 22.9397 2.032 23.3237 2.4L24.1877 1.2H24.6197V6.72H23.8277C23.8277 5.424 23.4437 4.32 22.6757 3.408C21.9237 2.48 21.0197 2.016 19.9637 2.016C18.9557 2.016 18.1717 2.28 17.6117 2.808C17.0517 3.32 16.7717 4.048 16.7717 4.992C16.7717 5.552 16.8757 6.032 17.0837 6.432C17.2917 6.832 17.6197 7.176 18.0677 7.464C18.2757 7.592 18.5157 7.72 18.7877 7.848C19.0597 7.96 19.7317 8.192 20.8037 8.544C21.6837 8.832 22.3637 9.104 22.8437 9.36C23.3397 9.616 23.7477 9.92 24.0677 10.272C24.4837 10.688 24.7877 11.184 24.9797 11.76C25.1717 12.32 25.2677 12.976 25.2677 13.728ZM36.7631 18H29.2031V17.208H31.6991V2.232H30.7871C29.4911 2.232 28.6031 2.48 28.1231 2.976C27.6591 3.472 27.4271 4.384 27.4271 5.712V6.72H26.6591V1.44H39.3071V6.72H38.5391V5.712C38.5391 4.384 38.3071 3.472 37.8431 2.976C37.3791 2.48 36.4911 2.232 35.1791 2.232H34.2671V17.208H36.7631V18ZM43.7574 17.208H46.2774V18H40.7814V17.208H42.7494V2.232H40.7814V1.44H45.5574L50.1174 12.192L54.6534 1.44H59.4054V2.232H57.4374V17.208H59.4054V18H52.4694V17.208H54.8454V3.312L49.5894 15.816H49.0374L43.7574 3.288V17.208ZM74.7979 17.208V18H67.4299V17.208H69.3979V2.232H67.4299V1.44H78.7579V6.72H77.9899V5.712C77.9899 4.432 77.7099 3.536 77.1499 3.024C76.6059 2.496 75.6299 2.232 74.2219 2.232H71.9659V9.192H75.0139V7.344H75.9259V12.12H75.0139V9.96H71.9659V17.208H74.7979ZM86.0108 5.688C87.6108 5.688 88.9628 6.288 90.0668 7.488C91.1868 8.672 91.7468 10.176 91.7468 12C91.7468 13.824 91.1868 15.328 90.0668 16.512C88.9628 17.68 87.6108 18.264 86.0108 18.264C84.3628 18.264 83.0028 17.688 81.9308 16.536C80.8588 15.368 80.3228 13.856 80.3228 12C80.3228 10.128 80.8588 8.608 81.9308 7.44C83.0028 6.272 84.3628 5.688 86.0108 5.688ZM86.0108 6.504C84.9388 6.504 84.1548 6.936 83.6588 7.8C83.1628 8.664 82.9148 10.064 82.9148 12C82.9148 13.92 83.1628 15.312 83.6588 16.176C84.1548 17.04 84.9388 17.472 86.0108 17.472C87.0508 17.472 87.8348 17.016 88.3628 16.104C88.8908 15.176 89.1548 13.808 89.1548 12C89.1548 10.176 88.8908 8.808 88.3628 7.896C87.8348 6.968 87.0508 6.504 86.0108 6.504ZM98.0914 17.208H99.8914V18H93.7474V17.208H95.6194V6.744H93.7474V5.976C95.1874 5.976 96.1074 5.96 96.5074 5.928C96.9074 5.88 97.1874 5.784 97.3474 5.64L97.6834 5.856V9.288C97.8274 8.184 98.2594 7.312 98.9794 6.672C99.6994 6.016 100.619 5.688 101.739 5.688C103.131 5.688 104.171 6.088 104.859 6.888C105.563 7.688 105.915 8.888 105.915 10.488V17.208H107.763V18H101.643V17.208H103.443V10.656C103.443 9.392 103.227 8.456 102.795 7.848C102.363 7.24 101.699 6.936 100.803 6.936C99.9074 6.936 99.2274 7.288 98.7634 7.992C98.3154 8.696 98.0914 9.736 98.0914 11.112V17.208ZM113.773 18.264C112.781 18.264 112.013 18 111.469 17.472C110.925 16.928 110.653 16.152 110.653 15.144V6.744H108.493V6.216C109.645 6.216 110.589 5.784 111.325 4.92C112.061 4.04 112.445 2.96 112.477 1.68H113.053V5.976H116.821V6.744H113.125V15.288C113.125 16.024 113.237 16.56 113.461 16.896C113.701 17.232 114.069 17.4 114.565 17.4C115.173 17.4 115.605 17.12 115.861 16.56C116.133 15.984 116.269 15.056 116.269 13.776H116.989C116.989 15.424 116.733 16.584 116.221 17.256C115.725 17.928 114.909 18.264 113.773 18.264ZM119.073 18.264H118.737V13.896H119.553C119.553 15.032 119.873 15.912 120.513 16.536C121.153 17.16 122.081 17.472 123.297 17.472C124.065 17.472 124.649 17.296 125.049 16.944C125.465 16.576 125.673 16.056 125.673 15.384C125.673 15 125.585 14.672 125.409 14.4C125.249 14.128 124.993 13.896 124.641 13.704C124.465 13.608 124.249 13.52 123.993 13.44C123.753 13.36 123.297 13.232 122.625 13.056C121.217 12.72 120.233 12.256 119.673 11.664C119.113 11.056 118.833 10.248 118.833 9.24C118.833 8.168 119.161 7.312 119.817 6.672C120.489 6.016 121.393 5.688 122.529 5.688C123.073 5.688 123.585 5.768 124.065 5.928C124.561 6.088 124.969 6.304 125.289 6.576L126.225 5.688H126.561V9.96H125.769C125.769 8.856 125.497 8.008 124.953 7.416C124.425 6.824 123.657 6.528 122.649 6.528C121.929 6.528 121.361 6.704 120.945 7.056C120.545 7.408 120.345 7.888 120.345 8.496C120.345 8.88 120.433 9.208 120.609 9.48C120.785 9.736 121.057 9.96 121.425 10.152C121.585 10.232 121.769 10.312 121.977 10.392C122.201 10.456 122.697 10.592 123.465 10.8C124.889 11.168 125.873 11.664 126.417 12.288C126.961 12.896 127.233 13.712 127.233 14.736C127.233 15.856 126.897 16.728 126.225 17.352C125.553 17.96 124.617 18.264 123.417 18.264C122.793 18.264 122.225 18.192 121.713 18.048C121.201 17.904 120.673 17.664 120.129 17.328L119.073 18.264Z" fill="#0E008B"/>
<path d="M150 2.59965V2H134.627V3.1993H147.697L134 18.7785L135.254 20L148.861 4.524V19.3898H150V3.1993V2.59965Z" fill="#0E008B"/>
</svg>
