<svg width="516" height="482" viewBox="0 0 516 482" fill="none" xmlns="http://www.w3.org/2000/svg">
<rect x="1.5" y="1.5" width="513" height="479" rx="18.5" stroke="#0E008B" stroke-width="3"/>
<path d="M170.978 301.858H257.064V151.444L170.978 301.858ZM160.099 422H61.715V404.499H91.514L255.645 113.131H209.764V95.63H445.791V199.69H428.29V183.135C428.29 158.539 422.299 140.723 410.316 129.686C398.649 118.649 379.256 113.131 352.137 113.131H323.757V240.841H378.152V205.839H398.491V298.074H378.152V258.815H323.757V404.499H370.111C393.761 404.499 410.789 398.981 421.195 387.944C431.601 376.592 436.804 357.199 436.804 329.765V316.048H454.305V422H208.345V404.499H257.064V319.359H161.045L112.799 404.499H160.099V422Z" fill="#0E008B"/>
</svg>
