<svg width="418" height="482" viewBox="0 0 418 482" fill="none" xmlns="http://www.w3.org/2000/svg">
<rect x="1.5" y="1.5" width="415" height="479" rx="18.5" stroke="#0E008B" stroke-width="3"/>
<path d="M163.939 404.499H195.157V422H62.717V404.499H99.138V201.582H62.717V183.608H99.138C99.138 143.561 109.859 112.973 131.302 91.846C152.745 70.7187 182.701 60.155 221.172 60.155C229.055 60.155 237.569 60.7856 246.714 62.047C256.174 63.3083 266.265 65.0426 276.986 67.25C287.707 66.9346 296.221 66.304 302.528 65.358C308.835 64.0967 312.934 62.52 314.826 60.628L319.556 64.885V404.499H357.396V422H223.537V404.499H254.755V81.913C250.971 80.3363 247.029 79.2327 242.93 78.602C238.831 77.9713 233.943 77.656 228.267 77.656C206.824 77.656 190.742 84.5933 180.021 98.468C169.3 112.027 163.939 132.366 163.939 159.485V183.608H223.537V201.582H163.939V404.499Z" fill="#0E008B"/>
</svg>
