<svg width="386" height="482" viewBox="0 0 386 482" fill="none" xmlns="http://www.w3.org/2000/svg">
<rect x="1.5" y="1.5" width="383" height="479" rx="18.5" stroke="#0E008B" stroke-width="3"/>
<path d="M335.422 346.793C335.422 371.074 326.277 390.782 307.988 405.918C290.014 421.054 265.733 428.622 235.146 428.622C226.001 428.622 217.172 427.991 208.658 426.73C200.459 425.469 194.31 423.892 190.211 422V401.661C193.049 403.238 197.148 404.814 202.509 406.391C208.185 407.652 213.861 408.283 219.537 408.283C235.304 408.283 246.971 403.553 254.539 394.093C262.107 384.633 265.891 369.97 265.891 350.104C265.891 337.491 263.526 326.296 258.796 316.521C254.381 306.746 244.921 295.709 230.416 283.411C218.118 273.32 210.077 264.806 206.293 257.869C202.824 250.932 201.09 243.048 201.09 234.219C201.09 228.228 202.036 222.552 203.928 217.191C206.135 211.83 210.708 204.42 217.645 194.96C227.105 181.401 233.412 169.733 236.565 159.958C239.718 149.867 241.295 138.673 241.295 126.375C241.295 110.293 238.299 98.3103 232.308 90.427C226.632 82.2283 217.803 77.9713 205.82 77.656C195.414 77.656 187.373 80.967 181.697 87.589C176.021 94.211 172.237 104.932 170.345 119.753C169.714 124.483 169.241 129.844 168.926 135.835C168.611 141.826 168.453 157.12 168.453 181.716V422H58.717V404.499H103.652V203.001H58.717V185.5H103.652V177.932C103.652 141.353 112.954 112.658 131.559 91.846C150.479 70.7187 176.652 60.155 210.077 60.155C240.349 60.155 264.472 66.304 282.446 78.602C300.735 90.9 309.88 106.824 309.88 126.375C309.88 138.988 306.411 150.498 299.474 160.904C292.537 171.31 278.82 183.608 258.323 197.798C244.448 207.258 235.461 214.511 231.362 219.556C227.578 224.286 225.686 229.174 225.686 234.219C225.686 239.58 228.051 244.625 232.781 249.355C237.826 253.77 248.705 259.919 265.418 267.802C293.483 281.046 312.087 293.659 321.232 305.642C330.692 317.309 335.422 331.026 335.422 346.793Z" fill="#0E008B"/>
</svg>
