<svg width="440" height="300" viewBox="0 0 440 300" fill="none" xmlns="http://www.w3.org/2000/svg">
<rect x="1.5" y="1.5" width="437" height="297" rx="18.5" stroke="#0E008B" stroke-width="3"/>
<path d="M160.173 34C143.373 73 131.973 110.2 124.773 146.2C117.573 182.2 113.973 221.2 113.973 263.2C118.773 235 127.773 214 140.973 200.2C154.173 186.4 170.973 179.2 192.573 179.2C224.973 179.2 252.573 194.8 274.173 224.8C289.833 246.55 299.814 271.769 304.12 300H240.719C238.825 272.31 234.377 250.921 227.373 235.6C217.773 214.6 202.773 203.8 183.573 203.8C164.373 203.8 149.973 214 139.773 234.4C130.952 251.063 126.134 272.93 124.665 300H61.8037C60.1844 273.809 55.1607 252.035 47.373 235C37.1731 214.6 23.3727 203.8 5.97266 203.8C3.92786 203.8 1.93749 203.916 0 204.145V179.418C17.7053 180.711 32.4964 187.784 44.373 200.2C57.573 214 66.5727 235 71.9727 263.2C71.3727 218.8 67.7732 178.6 60.5732 142.6C53.3732 106.6 41.973 69.9999 26.373 34L31.7734 28C34.174 29.8008 44.9735 43.0011 64.1729 68.2002C83.3728 93.4002 93.5734 107.8 94.7734 111.4C95.9734 107.8 104.973 93.4 122.973 68.2002C140.972 43.0006 151.173 29.8003 154.173 28L160.173 34Z" fill="#0E008B"/>
</svg>
