<svg width="440" height="300" viewBox="0 0 440 300" fill="none" xmlns="http://www.w3.org/2000/svg">
<rect x="1.5" y="1.5" width="437" height="297" rx="18.5" stroke="#0E008B" stroke-width="3"/>
<path d="M51.8643 0C51.1832 0.384871 50.4954 0.751828 49.7998 1.09961C73.1998 8.29959 92.9996 15.5002 110.1 22.7002C126.3 29.9002 140.699 38.0002 152.399 45.2002C165.899 55.1002 176.7 65.8997 184.8 77.5996C192.9 90.1996 201 109.1 208.2 136.1C208.2 139.7 210 146 212.7 155.899C214.5 165.799 217.2 173 219 177.5C221.7 186.5 225.3 193.7 229.8 197.3C234.3 201.8 240.6 203.6 247.8 203.6C258.6 203.6 266.7 195.499 272.1 178.399C277.5 162.199 280.2 135.2 280.2 99.2002H307.2C307.2 153.2 300 191.9 285.6 213.5C271.2 235.1 247.799 245.899 215.399 245.899C186.6 245.899 163.2 238.7 146.1 222.5C129 206.3 115.5 178.399 105.6 137.899C93.8996 91.0997 80.4001 59.5994 64.2002 43.3994C48.1204 28.213 26.7201 20.1212 0 20.002V20C0 8.95431 8.95431 3.22129e-07 20 0H51.8643ZM53.3994 206.3V236H0V206.3H53.3994Z" fill="#0E008B"/>
</svg>
