<svg width="440" height="300" viewBox="0 0 440 300" fill="none" xmlns="http://www.w3.org/2000/svg">
<rect x="1.5" y="1.5" width="437" height="297" rx="18.5" stroke="#0E008B" stroke-width="3"/>
<path d="M280 71.2998C303.4 71.2998 322.3 78.5001 337.6 92C352 106.4 360.1 125.3 360.1 148.7C360.1 168.5 354.7 182.9 345.7 193.7C335.8 204.5 322.3 209.899 306.1 209.899C288.1 209.899 274.6 205.4 263.8 194.6C253 184.7 247.6 171.2 247.6 155C247.6 141.5 251.2 129.8 259.3 120.8C267.4 111.8 278.2 106.4 292.6 102.8C289.9 101.9 287.2 101 284.5 100.1C280.9 100.1 277.3 99.2003 273.7 99.2002C257.5 99.2002 243.1 105.5 232.3 118.1C221.5 130.7 208.9 156.8 196.3 197.3C184.6 231.5 174.7 255.8 166.6 269.3C157.6 282.8 148.6 292.7 137.8 298.1C139.855 298.732 141.882 299.368 143.882 300H20C8.95431 300 5.63762e-07 291.046 0 280V82.0996H125.2V110.899H62.2002V287.3H94.5996C109 287.3 120.7 281.9 130.6 271.1C140.5 260.3 151.3 235.099 163 196.399C178.3 146 194.5 112.7 212.5 96.5C230.5 80.3 253 71.2998 280 71.2998Z" fill="#0E008B"/>
</svg>
