<svg width="595" height="423" viewBox="0 0 595 423" fill="none" xmlns="http://www.w3.org/2000/svg">
<mask id="path-1-outside-1_186_34" maskUnits="userSpaceOnUse" x="0" y="21.9219" width="595" height="402" fill="black">
<rect fill="white" y="21.9219" width="595" height="402"/>
<path d="M173.329 25.9864H200.693L296.903 212.984C297.269 212.984 297.634 212.983 298 212.983C381.387 212.983 451.4 219.884 508.04 233.685C564.396 247.667 592.714 266.618 592.996 290.536H593V389.833H592.997C592.749 399.448 564.431 407.066 508.04 412.685C451.4 418.228 381.387 420.999 298 420.999C214.614 420.999 144.6 418.228 87.9605 412.685C34.4349 407.351 6.20272 400.217 3.25977 391.283H3.00071V236.902H3C3.00013 236.884 3.00056 236.867 3.00071 236.85V161.523H3.38152C6.92927 116.958 35.1202 81.3025 87.9569 54.5578C113.66 41.7798 142.117 31.9012 173.329 24.9219V25.9864ZM298 315.699C217.761 315.699 150.501 319.111 96.2208 325.937C42.1904 332.861 15.0521 342.322 14.8037 354.318H14.5977V389.833H14.8037C15.0521 399.045 42.1904 406.31 96.2208 411.627C150.501 416.867 217.761 419.488 298 419.488C379.027 419.488 446.287 416.867 499.78 411.627C553.81 406.31 580.949 399.045 581.197 389.833H581.403V354.318H581.197C580.949 342.322 553.81 332.861 499.78 325.937C446.287 319.111 379.027 315.699 298 315.699ZM245.611 339.822C259.179 339.822 265.963 348.259 265.963 365.132V406.411H273.357V410.127H254.048V406.411H261.44V365.735C261.44 351.406 256.483 344.241 246.568 344.241C241.233 344.241 237.261 346.117 234.651 349.866C232.042 353.616 230.738 358.805 230.738 365.434V406.411H238.131V410.127H216.821V409.676L199.866 408.923V405.388L206.892 405.7V367.009C206.892 353.379 202.18 346.355 192.758 345.936C187.689 345.711 183.914 347.326 181.435 350.783C178.955 354.239 177.715 359.12 177.715 365.425V404.403L184.741 404.716V408.25L164.491 407.351V407.025L152.569 406.231V402.921L159.139 403.359V367.127C159.139 354.365 154.733 347.689 145.921 347.102C141.18 346.785 137.649 348.22 135.33 351.406C133.011 354.591 131.851 359.136 131.851 365.04V401.54L138.422 401.978V405.287L126.366 404.484V404.729L112.701 403.514V400.611L117.933 401.076V369.299C117.933 358.105 114.424 352.196 107.407 351.573C103.631 351.237 100.82 352.452 98.9736 355.217C97.1269 357.982 96.2038 361.954 96.2038 367.132V399.144L101.436 399.609V402.513L86.3544 401.172V400.866L77.675 399.902V397.272L81.7089 397.72V368.925C81.7089 358.781 79.004 353.409 73.5937 352.808C70.6828 352.484 68.5154 353.571 67.0916 356.067C65.6678 358.563 64.9554 362.157 64.9554 366.849V395.858L68.99 396.306V398.937L57.3618 397.645V397.516L51.9816 396.799V394.358L54.8002 394.734V368.02C54.8002 358.61 52.9101 353.652 49.1305 353.148C47.0971 352.877 45.583 353.907 44.5884 356.236C43.5938 358.566 43.0963 361.908 43.0963 366.262V393.174L45.9148 393.55V395.99L37.7918 394.907V394.568L33.5611 393.911V391.693L35.5997 392.01V367.734C35.5997 359.183 34.2326 354.694 31.4985 354.269C30.0275 354.04 28.9316 354.988 28.2121 357.114C27.4926 359.24 27.1334 362.281 27.1334 366.237V390.693L29.1719 391.01V393.228L23.2955 392.314V391.734L21.0262 391.331V389.426L22.0151 389.602V368.746C22.0151 361.399 21.3515 357.608 20.0254 357.372C19.3121 357.245 18.781 358.112 18.432 359.972C18.0831 361.833 17.9083 364.463 17.9083 367.861V388.872L18.8971 389.048V390.953L16.0474 390.446V388.541L17.0362 388.716V367.603C17.0362 363.552 17.2803 360.403 17.7688 358.155C18.2574 355.942 18.9674 354.918 19.898 355.083C21.7125 355.406 22.6195 359.894 22.6195 368.545V389.709L23.6084 389.885V390.144L25.3341 390.413V365.837C25.3341 361.122 25.838 357.484 26.8453 354.923C27.8526 352.403 29.3157 351.292 31.2345 351.59C34.976 352.173 36.8469 357.498 36.8469 367.568V392.204L38.8854 392.521V392.612L40.6097 392.842V365.798C40.6097 360.609 41.3061 356.613 42.6985 353.808C44.091 351.047 46.1136 349.844 48.766 350.197C53.9379 350.887 56.5237 356.772 56.5238 367.854V394.964L57.3618 395.075V395.014L61.3957 395.462V366.312C61.3957 360.719 62.393 356.422 64.3863 353.42C66.3796 350.466 69.2745 349.199 73.0713 349.621C80.4751 350.444 84.1771 356.827 84.1771 368.772V397.994L87.8961 398.406L91.5867 398.735V366.565C91.5867 360.393 92.8795 355.643 95.4649 352.316C98.0502 349.041 101.805 347.622 106.73 348.06C116.333 348.913 121.134 355.931 121.134 369.113V400.825L126.054 401.153V364.475C126.054 357.437 127.678 351.999 130.924 348.16C134.171 344.38 138.886 342.697 145.07 343.109C157.129 343.913 163.159 351.829 163.159 366.859V403.627L169.019 404.017L171.517 404.128V364.959C171.517 357.443 173.252 351.597 176.723 347.421C180.195 343.308 185.237 341.399 191.849 341.692C204.743 342.266 211.19 350.577 211.19 366.626V405.891L218.215 406.203V406.411H224.214V365.233C224.214 357.332 226.041 351.105 229.694 346.552C233.347 342.065 238.652 339.822 245.611 339.822ZM306.495 345.621C320.064 345.621 326.848 353.362 326.848 368.843V406.718H334.241V406.948H340.28V371.626C340.28 357.189 347.151 349.97 360.893 349.97C367.94 349.97 373.314 351.889 377.014 355.728C380.714 359.623 382.564 364.952 382.564 371.713V406.948H394.953V371.626C394.953 357.188 400.78 349.97 412.435 349.97C418.412 349.97 422.969 351.889 426.107 355.728C429.245 359.623 430.814 364.952 430.814 371.713V406.948H437.165V410.127H418.86V406.948H425.211V371.884C425.211 366.212 424.09 361.772 421.849 358.564C419.608 355.355 416.196 353.751 411.614 353.751C403.097 353.751 398.837 359.882 398.837 372.142V406.948H405.188V410.127H368.469V406.948H375.957V371.884C375.957 366.212 374.636 361.772 371.993 358.564C369.35 355.355 365.327 353.751 359.924 353.751C349.881 353.751 344.86 359.882 344.86 372.142V406.948H352.348V410.127H314.932V406.718H322.325V369.396C322.325 356.249 317.367 349.676 307.452 349.676C302.117 349.676 298.145 351.395 295.536 354.836C292.926 358.276 291.622 363.038 291.622 369.12V406.718H299.015V410.127H277.706V406.718H285.099V368.935C285.099 361.686 286.925 355.973 290.578 351.795C294.231 347.679 299.537 345.621 306.495 345.621ZM486.393 350.103C491.317 349.666 495.072 351.085 497.658 354.359C500.243 357.686 501.536 362.436 501.536 368.608V400.777L505.258 400.446L508.946 400.037V370.815C508.946 358.871 512.648 352.487 520.051 351.665C523.848 351.243 526.743 352.509 528.736 355.463C530.73 358.464 531.727 362.762 531.727 368.356V397.506L535.761 397.058V397.119L536.599 397.008V369.897C536.599 358.816 539.185 352.931 544.357 352.241C547.009 351.887 549.032 353.091 550.424 355.851C551.817 358.656 552.513 362.653 552.513 367.842V394.886L554.237 394.656V394.564L556.276 394.247V369.611C556.276 359.541 558.147 354.215 561.888 353.633C563.807 353.335 565.27 354.446 566.277 356.967C567.285 359.528 567.789 363.165 567.789 367.881V392.456L569.514 392.187V391.928L570.503 391.753V370.588C570.503 361.937 571.41 357.45 573.225 357.127C574.155 356.961 574.865 357.985 575.354 360.199C575.842 362.446 576.086 365.596 576.086 369.647V390.76L577.075 390.584V392.49L574.226 392.996V391.091L575.214 390.915V369.905C575.214 366.506 575.04 363.876 574.691 362.016C574.342 360.156 573.811 359.289 573.097 359.415C571.771 359.651 571.108 363.442 571.108 370.789V391.645L572.096 391.469V393.374L569.827 393.778V394.357L563.951 395.271V393.053L565.989 392.736V368.281C565.989 364.325 565.63 361.283 564.911 359.158C564.191 357.032 563.095 356.083 561.624 356.312C558.89 356.738 557.523 361.226 557.523 369.777V394.053L559.562 393.736V395.954L555.331 396.612V396.95L547.208 398.033V395.593L550.026 395.218V368.305C550.026 363.951 549.529 360.61 548.534 358.28C547.54 355.95 546.026 354.921 543.992 355.192C540.213 355.696 538.322 360.653 538.322 370.063V396.778L541.141 396.402V398.842L535.761 399.559V399.688L524.133 400.98V398.35L528.167 397.902V368.893C528.167 364.2 527.455 360.606 526.031 358.11C524.607 355.614 522.44 354.527 519.529 354.851C514.119 355.452 511.414 360.825 511.414 370.968V399.763L515.448 399.314V401.945L506.768 402.909V403.216L491.687 404.556V401.653L496.919 401.188V369.176C496.919 363.997 495.996 360.025 494.149 357.26C492.302 354.495 489.491 353.281 485.716 353.616C478.699 354.24 475.189 360.149 475.189 371.342V403.119L480.422 402.654V405.557L466.756 406.772V403.869L471.988 403.404V371.156C471.988 357.975 476.79 350.957 486.393 350.103ZM298 232.648C217.761 232.648 150.501 239.173 96.2208 252.221C42.1904 265.46 15.0521 283.547 14.8037 306.482H14.5977V341.594C27.792 334.872 52.246 329.193 87.9605 324.559C144.6 317.339 214.614 313.73 298 313.73C381.387 313.73 451.4 317.339 508.04 324.559C543.755 329.193 568.209 334.872 581.403 341.594V306.482H581.197C580.949 283.547 553.81 265.46 499.78 252.221C446.287 239.173 379.027 232.648 298 232.648ZM245.843 241.83C259.411 241.83 266.196 249.136 266.196 263.748V299.494H273.589V300.636H277.789V275.953C277.789 265.864 285.183 260.82 299.969 260.82C307.551 260.82 313.333 262.161 317.314 264.844C321.295 267.566 323.285 271.289 323.285 276.014V300.636H324.094V300.364H331.487V264.618C331.487 250.006 338.271 242.7 351.84 242.7C358.798 242.7 364.104 244.642 367.757 248.527C371.41 252.47 373.237 257.863 373.237 264.705V300.364H380.63V300.759L387.006 301.042V267.849C387.006 254.281 393.262 247.775 405.774 248.331C412.191 248.616 417.084 250.637 420.452 254.394C423.821 258.205 425.505 263.287 425.505 269.641V302.754L432.323 303.057V303.205L436.48 303.574V271.658C436.48 258.611 442.111 252.589 453.37 253.59C459.145 254.103 463.548 256.228 466.579 259.966C469.611 263.756 471.126 268.706 471.126 274.815V306.654L477.262 307.2V307.37L478.896 307.552V279.465C478.896 267.984 483.474 262.753 492.629 263.77C497.323 264.292 500.903 266.215 503.368 269.541C505.833 272.913 507.065 277.288 507.065 282.663V310.682L511.56 311.181V284.953C511.56 274.168 515.43 269.292 523.171 270.324C527.14 270.853 530.168 272.69 532.252 275.835C534.336 279.023 535.378 283.142 535.378 288.192V314.513L539.026 314.999V290.696C539.026 280.72 542.106 276.212 548.267 277.17C551.427 277.662 553.836 279.363 555.495 282.273C557.154 285.223 557.983 289.033 557.983 293.704V318.048L560.523 318.443V298.078C560.524 289.555 562.638 285.669 566.866 286.42C569.034 286.806 570.687 288.233 571.825 290.701C572.964 293.204 573.533 296.45 573.533 300.441V321.243L575.837 321.653V323.53L569.196 322.349V320.472L571.5 320.882V300.182C571.5 296.833 571.094 294.14 570.281 292.101C569.468 290.063 568.23 288.895 566.568 288.6C563.478 288.051 561.933 291.395 561.933 298.633V319.181L564.237 319.59V321.468L558.219 320.398V320.282L551.664 319.263V317.066L555.022 317.587V293.362C555.022 289.443 554.429 286.283 553.244 283.882C552.059 281.481 550.256 280.092 547.834 279.715C543.331 279.015 541.079 282.9 541.079 291.372V315.419L544.437 315.941V318.138L539.596 317.385V317.451L527.438 315.829V313.454L531.656 314.016V287.825C531.656 283.588 530.912 280.172 529.424 277.576C527.935 274.981 525.668 273.481 522.625 273.075C516.968 272.321 514.14 276.523 514.14 285.682V311.681L518.358 312.243V314.619L511.433 313.695L497.676 312.167V309.639L502.664 310.193V282.311C502.664 277.801 501.783 274.172 500.023 271.425C498.262 268.678 495.582 267.105 491.983 266.705C485.293 265.962 481.948 270.465 481.948 280.214V307.891L486.936 308.445V310.974L477.262 309.898V310.073L459.578 308.501V305.628L465.713 306.173V274.489C465.713 269.364 464.631 265.255 462.465 262.163C460.3 259.072 457.003 257.329 452.576 256.935C444.348 256.204 440.234 261.378 440.234 272.457V303.908L446.369 304.453V307.326L431.584 306.012L412.673 305.172V302.183L419.49 302.486V269.535C419.49 264.205 418.287 259.978 415.88 256.856C413.474 253.734 409.811 252.064 404.892 251.846C395.748 251.439 391.177 256.997 391.177 268.519V301.228L397.994 301.531V304.519L380.188 303.728V303.583H359.32V300.364H366.713V264.878C366.713 259.138 365.408 254.645 362.799 251.397C360.19 248.15 356.218 246.527 350.884 246.527C340.968 246.527 336.01 252.731 336.01 265.14V300.364H343.403V303.583H324.094V302.858H308.12V300.636H316.177V276.134C316.177 272.17 314.755 269.068 311.911 266.826C309.068 264.584 304.739 263.462 298.926 263.462C288.121 263.462 282.718 267.746 282.718 276.314V300.636H290.775V302.858H269.733V302.713H254.279V299.494H261.673V264.27C261.673 251.861 256.714 245.657 246.799 245.657C241.465 245.657 237.493 247.281 234.883 250.528C232.274 253.775 230.969 258.268 230.969 264.008V299.494H238.362V302.713H217.494V302.858L199.688 303.649V300.661L206.506 300.358V267.649C206.506 256.127 201.934 250.569 192.79 250.976C187.871 251.194 184.208 252.864 181.802 255.986C179.396 259.108 178.193 263.335 178.193 268.665V301.616L185.01 301.313V304.302L166.098 305.142L151.313 306.456V303.583L157.449 303.038V271.587C157.449 260.508 153.334 255.334 145.106 256.065C140.679 256.459 137.383 258.202 135.217 261.293C133.052 264.385 131.97 268.494 131.97 273.619V305.303L138.104 304.758V307.631L120.421 309.203V309.029L110.746 310.104V307.575L115.735 307.021V279.345C115.735 269.595 112.389 265.092 105.699 265.835C102.1 266.235 99.4203 267.808 97.6598 270.555C95.8993 273.302 95.0189 276.931 95.0189 281.441V309.323L100.007 308.769V311.297L86.2489 312.825L79.325 313.749V311.374L83.5429 310.812V284.812C83.5429 275.653 80.7142 271.451 75.0575 272.205C72.014 272.611 69.7475 274.111 68.2588 276.707C66.7702 279.302 66.0263 282.718 66.0263 286.955V313.147L70.2443 312.585V314.959L58.0866 316.581V316.515L53.2458 317.268V315.071L56.603 314.549V290.502C56.603 282.031 54.3513 278.145 49.8489 278.846C47.4268 279.222 45.6231 280.611 44.4383 283.012C43.2535 285.413 42.661 288.573 42.661 292.492V316.717L46.0182 316.196V318.393L39.463 319.412V319.528L33.4458 320.598V318.721L35.7497 318.311V297.763C35.7497 290.525 34.2046 287.181 31.1149 287.73C29.4527 288.026 28.2147 289.193 27.4016 291.231C26.5887 293.27 26.1821 295.964 26.182 299.312V320.012L28.486 319.602V321.48L21.8459 322.66V320.783L24.1499 320.373V299.572C24.1499 295.58 24.7189 292.334 25.8571 289.831C26.9955 287.363 28.6487 285.936 30.8169 285.551C35.0449 284.799 37.159 288.685 37.159 297.208V317.573L39.6994 317.178V292.834C39.6994 288.163 40.5287 284.353 42.1874 281.403C43.8462 278.493 46.2555 276.792 49.415 276.3C55.576 275.342 58.6564 279.851 58.6564 289.826V314.129L62.3046 313.643V287.322C62.3046 282.272 63.3464 278.153 65.4303 274.965C67.5145 271.82 70.542 269.983 74.5118 269.454C82.2526 268.422 86.123 273.298 86.123 284.083V310.311L90.6177 309.812V281.794C90.6177 276.418 91.8499 272.043 94.3146 268.672C96.7793 265.345 100.359 263.422 105.054 262.9C114.208 261.883 118.786 267.114 118.786 278.595V306.682L120.421 306.5V306.33L126.556 305.784V273.945C126.556 267.836 128.072 262.886 131.103 259.096C134.135 255.358 138.538 253.233 144.312 252.72C155.572 251.719 161.202 257.742 161.202 270.788V302.704L165.359 302.335V302.187L172.177 301.884V268.771C172.177 262.417 173.862 257.335 177.23 253.524C180.599 249.767 185.492 247.747 191.908 247.461C204.421 246.905 210.676 253.411 210.676 266.979V300.172L217.053 299.889V299.494H224.446V263.835C224.446 256.993 226.273 251.6 229.926 247.657C233.579 243.773 238.885 241.83 245.843 241.83ZM298 216.748C217.761 216.748 150.501 223.272 96.2208 236.32C50.8208 247.444 24.4087 261.992 16.9817 279.962C30.6371 268.064 54.2965 257.939 87.9605 249.587C144.6 235.785 214.614 228.884 298 228.884C381.387 228.884 451.4 235.785 508.04 249.587C541.704 257.939 565.363 268.064 579.018 279.962C571.591 261.992 545.18 247.444 499.78 236.32C446.287 223.272 379.027 216.748 298 216.748ZM223.718 130.963C174.914 135.178 132.414 143.802 96.2173 156.838C42.2104 176.374 15.0726 203.062 14.8009 236.902H14.5977V266.254C27.7919 253.403 52.2459 242.546 87.9605 233.685C137.223 221.681 196.603 214.899 266.099 213.335L223.718 130.963ZM189.887 149.267C202.251 146.788 208.433 152.333 208.433 165.901V199.094L215.17 197.743V200.731L197.575 204.26V201.271L204.312 199.921V167.212C204.312 155.689 199.794 150.835 190.759 152.646C185.898 153.621 182.278 155.854 179.901 159.346C177.523 162.838 176.335 167.249 176.335 172.58V205.531L183.071 204.18V207.168L164.392 210.914L149.775 214.502V211.629L155.838 210.141V178.69C155.838 167.611 151.772 163.069 143.641 165.066C139.267 166.14 136.01 168.389 133.87 171.813C131.731 175.238 130.661 179.513 130.661 184.638V216.322L136.723 214.834V217.707L119.249 221.997V221.822L109.69 224.385V221.856L114.619 220.536V192.859C114.619 183.11 111.314 179.121 104.703 180.892C101.147 181.845 98.4984 183.83 96.7588 186.848C95.0192 189.865 94.1497 193.629 94.1497 198.139V226.021L99.0783 224.7V227.229L85.4845 230.871L78.6419 232.859V230.484L82.8096 229.274V203.274C82.8096 194.116 80.0144 190.348 74.4247 191.971C71.4175 192.845 69.1784 194.694 67.7074 197.518C66.2365 200.342 65.5011 203.872 65.5011 208.109V234.301L69.6688 233.091V235.466L57.6563 238.956V238.89L52.8728 240.388V238.191L56.1897 237.152V213.104C56.1897 204.633 53.9651 201.094 49.5163 202.486C47.1228 203.235 45.3408 204.901 44.17 207.484C42.9993 210.068 42.4139 213.319 42.4139 217.238V241.463L45.7308 240.425V242.622L39.2535 244.649V244.766L33.3077 246.76V244.883L35.5841 244.119V223.571C35.5841 216.333 34.058 213.226 31.0052 214.25C29.3626 214.801 28.1392 216.159 27.3358 218.322C26.5324 220.486 26.1311 223.242 26.1311 226.59V247.291L28.4074 246.527V248.404L21.8459 250.605V248.728L24.1223 247.965V227.163C24.1223 223.172 24.6849 219.837 25.8097 217.16C26.9345 214.517 28.5677 212.836 30.71 212.117C34.8878 210.716 36.9771 214.276 36.9771 222.8V243.165L39.4871 242.379V218.035C39.4871 213.364 40.3064 209.426 41.9453 206.222C43.5844 203.057 45.9653 200.985 49.0873 200.008C55.1751 198.103 58.219 202.138 58.219 212.113V236.416L61.824 235.369V209.049C61.824 203.999 62.8536 199.72 64.9129 196.211C66.9722 192.746 69.963 190.443 73.8853 189.304C81.5344 187.082 85.3592 191.363 85.3592 202.148V228.377L89.8008 227.187V199.168C89.8008 193.793 91.0185 189.229 93.4539 185.479C95.8893 181.774 99.4262 179.299 104.065 178.056C113.111 175.632 117.634 180.16 117.634 191.641V219.727L119.249 219.294V219.124L125.312 217.635V185.796C125.312 179.687 126.81 174.505 129.805 170.249C132.801 166.045 137.151 163.242 142.857 161.841C153.983 159.11 159.546 164.267 159.546 177.313V209.231L163.654 208.221V208.073L170.39 206.723V173.61C170.39 167.257 172.055 161.916 175.383 157.587C178.712 153.312 183.547 150.539 189.887 149.267ZM173.256 32.8826C145.007 39.415 119.328 48.4316 96.2173 59.9328C42.3467 86.8621 15.2086 123.625 14.8023 170.221H14.5977V201.026C27.7929 182.055 52.2455 166.028 87.9569 152.948C126.197 139.191 170.534 130.081 220.965 125.612L173.256 32.8826ZM25.55 156.829C27.6374 156.129 28.6814 157.908 28.6814 162.167V172.586L29.8189 172.204V173.142L26.8481 174.139V173.201L27.9856 172.819V162.552C27.9856 158.936 27.2226 157.383 25.6972 157.895C24.8766 158.17 24.2653 158.849 23.8639 159.93C23.4625 161.011 23.2623 162.388 23.2623 164.061V174.404L24.3997 174.022V174.96L21.1211 176.06V175.122L22.2586 174.741V164.347C22.2586 162.353 22.5396 160.686 23.1016 159.349C23.6635 158.028 24.4796 157.188 25.55 156.829ZM55.2497 129.203C58.0536 128.326 59.4555 130.184 59.4556 134.778V146.019L60.9838 145.541V146.553L56.993 147.802V146.79L58.5205 146.311V135.235C58.5205 131.333 57.4962 129.703 55.4471 130.345C54.3448 130.69 53.5239 131.457 52.9846 132.647C52.4454 133.836 52.1756 135.334 52.1756 137.139V148.298L53.7038 147.82V148.831L49.2997 150.21V149.198L50.8279 148.719V137.506C50.8279 135.355 51.2047 133.541 51.9597 132.065C52.7146 130.607 53.8117 129.653 55.2497 129.203ZM110.803 96.8676C115.152 95.7022 117.326 97.8791 117.326 103.399V116.901L119.696 116.267V117.482L113.507 119.14V117.925L115.876 117.29V103.984C115.876 99.2971 114.288 97.3794 111.11 98.2309C109.4 98.6891 108.127 99.6434 107.291 101.094C106.454 102.545 106.036 104.354 106.036 106.523V119.927L108.405 119.292V120.508L101.576 122.338V121.123L103.945 120.487V107.018C103.945 104.433 104.531 102.239 105.701 100.436C106.872 98.6546 108.573 97.4653 110.803 96.8676Z"/>
</mask>
<path d="M173.329 25.9864H200.693L296.903 212.984C297.269 212.984 297.634 212.983 298 212.983C381.387 212.983 451.4 219.884 508.04 233.685C564.396 247.667 592.714 266.618 592.996 290.536H593V389.833H592.997C592.749 399.448 564.431 407.066 508.04 412.685C451.4 418.228 381.387 420.999 298 420.999C214.614 420.999 144.6 418.228 87.9605 412.685C34.4349 407.351 6.20272 400.217 3.25977 391.283H3.00071V236.902H3C3.00013 236.884 3.00056 236.867 3.00071 236.85V161.523H3.38152C6.92927 116.958 35.1202 81.3025 87.9569 54.5578C113.66 41.7798 142.117 31.9012 173.329 24.9219V25.9864ZM298 315.699C217.761 315.699 150.501 319.111 96.2208 325.937C42.1904 332.861 15.0521 342.322 14.8037 354.318H14.5977V389.833H14.8037C15.0521 399.045 42.1904 406.31 96.2208 411.627C150.501 416.867 217.761 419.488 298 419.488C379.027 419.488 446.287 416.867 499.78 411.627C553.81 406.31 580.949 399.045 581.197 389.833H581.403V354.318H581.197C580.949 342.322 553.81 332.861 499.78 325.937C446.287 319.111 379.027 315.699 298 315.699ZM245.611 339.822C259.179 339.822 265.963 348.259 265.963 365.132V406.411H273.357V410.127H254.048V406.411H261.44V365.735C261.44 351.406 256.483 344.241 246.568 344.241C241.233 344.241 237.261 346.117 234.651 349.866C232.042 353.616 230.738 358.805 230.738 365.434V406.411H238.131V410.127H216.821V409.676L199.866 408.923V405.388L206.892 405.7V367.009C206.892 353.379 202.18 346.355 192.758 345.936C187.689 345.711 183.914 347.326 181.435 350.783C178.955 354.239 177.715 359.12 177.715 365.425V404.403L184.741 404.716V408.25L164.491 407.351V407.025L152.569 406.231V402.921L159.139 403.359V367.127C159.139 354.365 154.733 347.689 145.921 347.102C141.18 346.785 137.649 348.22 135.33 351.406C133.011 354.591 131.851 359.136 131.851 365.04V401.54L138.422 401.978V405.287L126.366 404.484V404.729L112.701 403.514V400.611L117.933 401.076V369.299C117.933 358.105 114.424 352.196 107.407 351.573C103.631 351.237 100.82 352.452 98.9736 355.217C97.1269 357.982 96.2038 361.954 96.2038 367.132V399.144L101.436 399.609V402.513L86.3544 401.172V400.866L77.675 399.902V397.272L81.7089 397.72V368.925C81.7089 358.781 79.004 353.409 73.5937 352.808C70.6828 352.484 68.5154 353.571 67.0916 356.067C65.6678 358.563 64.9554 362.157 64.9554 366.849V395.858L68.99 396.306V398.937L57.3618 397.645V397.516L51.9816 396.799V394.358L54.8002 394.734V368.02C54.8002 358.61 52.9101 353.652 49.1305 353.148C47.0971 352.877 45.583 353.907 44.5884 356.236C43.5938 358.566 43.0963 361.908 43.0963 366.262V393.174L45.9148 393.55V395.99L37.7918 394.907V394.568L33.5611 393.911V391.693L35.5997 392.01V367.734C35.5997 359.183 34.2326 354.694 31.4985 354.269C30.0275 354.04 28.9316 354.988 28.2121 357.114C27.4926 359.24 27.1334 362.281 27.1334 366.237V390.693L29.1719 391.01V393.228L23.2955 392.314V391.734L21.0262 391.331V389.426L22.0151 389.602V368.746C22.0151 361.399 21.3515 357.608 20.0254 357.372C19.3121 357.245 18.781 358.112 18.432 359.972C18.0831 361.833 17.9083 364.463 17.9083 367.861V388.872L18.8971 389.048V390.953L16.0474 390.446V388.541L17.0362 388.716V367.603C17.0362 363.552 17.2803 360.403 17.7688 358.155C18.2574 355.942 18.9674 354.918 19.898 355.083C21.7125 355.406 22.6195 359.894 22.6195 368.545V389.709L23.6084 389.885V390.144L25.3341 390.413V365.837C25.3341 361.122 25.838 357.484 26.8453 354.923C27.8526 352.403 29.3157 351.292 31.2345 351.59C34.976 352.173 36.8469 357.498 36.8469 367.568V392.204L38.8854 392.521V392.612L40.6097 392.842V365.798C40.6097 360.609 41.3061 356.613 42.6985 353.808C44.091 351.047 46.1136 349.844 48.766 350.197C53.9379 350.887 56.5237 356.772 56.5238 367.854V394.964L57.3618 395.075V395.014L61.3957 395.462V366.312C61.3957 360.719 62.393 356.422 64.3863 353.42C66.3796 350.466 69.2745 349.199 73.0713 349.621C80.4751 350.444 84.1771 356.827 84.1771 368.772V397.994L87.8961 398.406L91.5867 398.735V366.565C91.5867 360.393 92.8795 355.643 95.4649 352.316C98.0502 349.041 101.805 347.622 106.73 348.06C116.333 348.913 121.134 355.931 121.134 369.113V400.825L126.054 401.153V364.475C126.054 357.437 127.678 351.999 130.924 348.16C134.171 344.38 138.886 342.697 145.07 343.109C157.129 343.913 163.159 351.829 163.159 366.859V403.627L169.019 404.017L171.517 404.128V364.959C171.517 357.443 173.252 351.597 176.723 347.421C180.195 343.308 185.237 341.399 191.849 341.692C204.743 342.266 211.19 350.577 211.19 366.626V405.891L218.215 406.203V406.411H224.214V365.233C224.214 357.332 226.041 351.105 229.694 346.552C233.347 342.065 238.652 339.822 245.611 339.822ZM306.495 345.621C320.064 345.621 326.848 353.362 326.848 368.843V406.718H334.241V406.948H340.28V371.626C340.28 357.189 347.151 349.97 360.893 349.97C367.94 349.97 373.314 351.889 377.014 355.728C380.714 359.623 382.564 364.952 382.564 371.713V406.948H394.953V371.626C394.953 357.188 400.78 349.97 412.435 349.97C418.412 349.97 422.969 351.889 426.107 355.728C429.245 359.623 430.814 364.952 430.814 371.713V406.948H437.165V410.127H418.86V406.948H425.211V371.884C425.211 366.212 424.09 361.772 421.849 358.564C419.608 355.355 416.196 353.751 411.614 353.751C403.097 353.751 398.837 359.882 398.837 372.142V406.948H405.188V410.127H368.469V406.948H375.957V371.884C375.957 366.212 374.636 361.772 371.993 358.564C369.35 355.355 365.327 353.751 359.924 353.751C349.881 353.751 344.86 359.882 344.86 372.142V406.948H352.348V410.127H314.932V406.718H322.325V369.396C322.325 356.249 317.367 349.676 307.452 349.676C302.117 349.676 298.145 351.395 295.536 354.836C292.926 358.276 291.622 363.038 291.622 369.12V406.718H299.015V410.127H277.706V406.718H285.099V368.935C285.099 361.686 286.925 355.973 290.578 351.795C294.231 347.679 299.537 345.621 306.495 345.621ZM486.393 350.103C491.317 349.666 495.072 351.085 497.658 354.359C500.243 357.686 501.536 362.436 501.536 368.608V400.777L505.258 400.446L508.946 400.037V370.815C508.946 358.871 512.648 352.487 520.051 351.665C523.848 351.243 526.743 352.509 528.736 355.463C530.73 358.464 531.727 362.762 531.727 368.356V397.506L535.761 397.058V397.119L536.599 397.008V369.897C536.599 358.816 539.185 352.931 544.357 352.241C547.009 351.887 549.032 353.091 550.424 355.851C551.817 358.656 552.513 362.653 552.513 367.842V394.886L554.237 394.656V394.564L556.276 394.247V369.611C556.276 359.541 558.147 354.215 561.888 353.633C563.807 353.335 565.27 354.446 566.277 356.967C567.285 359.528 567.789 363.165 567.789 367.881V392.456L569.514 392.187V391.928L570.503 391.753V370.588C570.503 361.937 571.41 357.45 573.225 357.127C574.155 356.961 574.865 357.985 575.354 360.199C575.842 362.446 576.086 365.596 576.086 369.647V390.76L577.075 390.584V392.49L574.226 392.996V391.091L575.214 390.915V369.905C575.214 366.506 575.04 363.876 574.691 362.016C574.342 360.156 573.811 359.289 573.097 359.415C571.771 359.651 571.108 363.442 571.108 370.789V391.645L572.096 391.469V393.374L569.827 393.778V394.357L563.951 395.271V393.053L565.989 392.736V368.281C565.989 364.325 565.63 361.283 564.911 359.158C564.191 357.032 563.095 356.083 561.624 356.312C558.89 356.738 557.523 361.226 557.523 369.777V394.053L559.562 393.736V395.954L555.331 396.612V396.95L547.208 398.033V395.593L550.026 395.218V368.305C550.026 363.951 549.529 360.61 548.534 358.28C547.54 355.95 546.026 354.921 543.992 355.192C540.213 355.696 538.322 360.653 538.322 370.063V396.778L541.141 396.402V398.842L535.761 399.559V399.688L524.133 400.98V398.35L528.167 397.902V368.893C528.167 364.2 527.455 360.606 526.031 358.11C524.607 355.614 522.44 354.527 519.529 354.851C514.119 355.452 511.414 360.825 511.414 370.968V399.763L515.448 399.314V401.945L506.768 402.909V403.216L491.687 404.556V401.653L496.919 401.188V369.176C496.919 363.997 495.996 360.025 494.149 357.26C492.302 354.495 489.491 353.281 485.716 353.616C478.699 354.24 475.189 360.149 475.189 371.342V403.119L480.422 402.654V405.557L466.756 406.772V403.869L471.988 403.404V371.156C471.988 357.975 476.79 350.957 486.393 350.103ZM298 232.648C217.761 232.648 150.501 239.173 96.2208 252.221C42.1904 265.46 15.0521 283.547 14.8037 306.482H14.5977V341.594C27.792 334.872 52.246 329.193 87.9605 324.559C144.6 317.339 214.614 313.73 298 313.73C381.387 313.73 451.4 317.339 508.04 324.559C543.755 329.193 568.209 334.872 581.403 341.594V306.482H581.197C580.949 283.547 553.81 265.46 499.78 252.221C446.287 239.173 379.027 232.648 298 232.648ZM245.843 241.83C259.411 241.83 266.196 249.136 266.196 263.748V299.494H273.589V300.636H277.789V275.953C277.789 265.864 285.183 260.82 299.969 260.82C307.551 260.82 313.333 262.161 317.314 264.844C321.295 267.566 323.285 271.289 323.285 276.014V300.636H324.094V300.364H331.487V264.618C331.487 250.006 338.271 242.7 351.84 242.7C358.798 242.7 364.104 244.642 367.757 248.527C371.41 252.47 373.237 257.863 373.237 264.705V300.364H380.63V300.759L387.006 301.042V267.849C387.006 254.281 393.262 247.775 405.774 248.331C412.191 248.616 417.084 250.637 420.452 254.394C423.821 258.205 425.505 263.287 425.505 269.641V302.754L432.323 303.057V303.205L436.48 303.574V271.658C436.48 258.611 442.111 252.589 453.37 253.59C459.145 254.103 463.548 256.228 466.579 259.966C469.611 263.756 471.126 268.706 471.126 274.815V306.654L477.262 307.2V307.37L478.896 307.552V279.465C478.896 267.984 483.474 262.753 492.629 263.77C497.323 264.292 500.903 266.215 503.368 269.541C505.833 272.913 507.065 277.288 507.065 282.663V310.682L511.56 311.181V284.953C511.56 274.168 515.43 269.292 523.171 270.324C527.14 270.853 530.168 272.69 532.252 275.835C534.336 279.023 535.378 283.142 535.378 288.192V314.513L539.026 314.999V290.696C539.026 280.72 542.106 276.212 548.267 277.17C551.427 277.662 553.836 279.363 555.495 282.273C557.154 285.223 557.983 289.033 557.983 293.704V318.048L560.523 318.443V298.078C560.524 289.555 562.638 285.669 566.866 286.42C569.034 286.806 570.687 288.233 571.825 290.701C572.964 293.204 573.533 296.45 573.533 300.441V321.243L575.837 321.653V323.53L569.196 322.349V320.472L571.5 320.882V300.182C571.5 296.833 571.094 294.14 570.281 292.101C569.468 290.063 568.23 288.895 566.568 288.6C563.478 288.051 561.933 291.395 561.933 298.633V319.181L564.237 319.59V321.468L558.219 320.398V320.282L551.664 319.263V317.066L555.022 317.587V293.362C555.022 289.443 554.429 286.283 553.244 283.882C552.059 281.481 550.256 280.092 547.834 279.715C543.331 279.015 541.079 282.9 541.079 291.372V315.419L544.437 315.941V318.138L539.596 317.385V317.451L527.438 315.829V313.454L531.656 314.016V287.825C531.656 283.588 530.912 280.172 529.424 277.576C527.935 274.981 525.668 273.481 522.625 273.075C516.968 272.321 514.14 276.523 514.14 285.682V311.681L518.358 312.243V314.619L511.433 313.695L497.676 312.167V309.639L502.664 310.193V282.311C502.664 277.801 501.783 274.172 500.023 271.425C498.262 268.678 495.582 267.105 491.983 266.705C485.293 265.962 481.948 270.465 481.948 280.214V307.891L486.936 308.445V310.974L477.262 309.898V310.073L459.578 308.501V305.628L465.713 306.173V274.489C465.713 269.364 464.631 265.255 462.465 262.163C460.3 259.072 457.003 257.329 452.576 256.935C444.348 256.204 440.234 261.378 440.234 272.457V303.908L446.369 304.453V307.326L431.584 306.012L412.673 305.172V302.183L419.49 302.486V269.535C419.49 264.205 418.287 259.978 415.88 256.856C413.474 253.734 409.811 252.064 404.892 251.846C395.748 251.439 391.177 256.997 391.177 268.519V301.228L397.994 301.531V304.519L380.188 303.728V303.583H359.32V300.364H366.713V264.878C366.713 259.138 365.408 254.645 362.799 251.397C360.19 248.15 356.218 246.527 350.884 246.527C340.968 246.527 336.01 252.731 336.01 265.14V300.364H343.403V303.583H324.094V302.858H308.12V300.636H316.177V276.134C316.177 272.17 314.755 269.068 311.911 266.826C309.068 264.584 304.739 263.462 298.926 263.462C288.121 263.462 282.718 267.746 282.718 276.314V300.636H290.775V302.858H269.733V302.713H254.279V299.494H261.673V264.27C261.673 251.861 256.714 245.657 246.799 245.657C241.465 245.657 237.493 247.281 234.883 250.528C232.274 253.775 230.969 258.268 230.969 264.008V299.494H238.362V302.713H217.494V302.858L199.688 303.649V300.661L206.506 300.358V267.649C206.506 256.127 201.934 250.569 192.79 250.976C187.871 251.194 184.208 252.864 181.802 255.986C179.396 259.108 178.193 263.335 178.193 268.665V301.616L185.01 301.313V304.302L166.098 305.142L151.313 306.456V303.583L157.449 303.038V271.587C157.449 260.508 153.334 255.334 145.106 256.065C140.679 256.459 137.383 258.202 135.217 261.293C133.052 264.385 131.97 268.494 131.97 273.619V305.303L138.104 304.758V307.631L120.421 309.203V309.029L110.746 310.104V307.575L115.735 307.021V279.345C115.735 269.595 112.389 265.092 105.699 265.835C102.1 266.235 99.4203 267.808 97.6598 270.555C95.8993 273.302 95.0189 276.931 95.0189 281.441V309.323L100.007 308.769V311.297L86.2489 312.825L79.325 313.749V311.374L83.5429 310.812V284.812C83.5429 275.653 80.7142 271.451 75.0575 272.205C72.014 272.611 69.7475 274.111 68.2588 276.707C66.7702 279.302 66.0263 282.718 66.0263 286.955V313.147L70.2443 312.585V314.959L58.0866 316.581V316.515L53.2458 317.268V315.071L56.603 314.549V290.502C56.603 282.031 54.3513 278.145 49.8489 278.846C47.4268 279.222 45.6231 280.611 44.4383 283.012C43.2535 285.413 42.661 288.573 42.661 292.492V316.717L46.0182 316.196V318.393L39.463 319.412V319.528L33.4458 320.598V318.721L35.7497 318.311V297.763C35.7497 290.525 34.2046 287.181 31.1149 287.73C29.4527 288.026 28.2147 289.193 27.4016 291.231C26.5887 293.27 26.1821 295.964 26.182 299.312V320.012L28.486 319.602V321.48L21.8459 322.66V320.783L24.1499 320.373V299.572C24.1499 295.58 24.7189 292.334 25.8571 289.831C26.9955 287.363 28.6487 285.936 30.8169 285.551C35.0449 284.799 37.159 288.685 37.159 297.208V317.573L39.6994 317.178V292.834C39.6994 288.163 40.5287 284.353 42.1874 281.403C43.8462 278.493 46.2555 276.792 49.415 276.3C55.576 275.342 58.6564 279.851 58.6564 289.826V314.129L62.3046 313.643V287.322C62.3046 282.272 63.3464 278.153 65.4303 274.965C67.5145 271.82 70.542 269.983 74.5118 269.454C82.2526 268.422 86.123 273.298 86.123 284.083V310.311L90.6177 309.812V281.794C90.6177 276.418 91.8499 272.043 94.3146 268.672C96.7793 265.345 100.359 263.422 105.054 262.9C114.208 261.883 118.786 267.114 118.786 278.595V306.682L120.421 306.5V306.33L126.556 305.784V273.945C126.556 267.836 128.072 262.886 131.103 259.096C134.135 255.358 138.538 253.233 144.312 252.72C155.572 251.719 161.202 257.742 161.202 270.788V302.704L165.359 302.335V302.187L172.177 301.884V268.771C172.177 262.417 173.862 257.335 177.23 253.524C180.599 249.767 185.492 247.747 191.908 247.461C204.421 246.905 210.676 253.411 210.676 266.979V300.172L217.053 299.889V299.494H224.446V263.835C224.446 256.993 226.273 251.6 229.926 247.657C233.579 243.773 238.885 241.83 245.843 241.83ZM298 216.748C217.761 216.748 150.501 223.272 96.2208 236.32C50.8208 247.444 24.4087 261.992 16.9817 279.962C30.6371 268.064 54.2965 257.939 87.9605 249.587C144.6 235.785 214.614 228.884 298 228.884C381.387 228.884 451.4 235.785 508.04 249.587C541.704 257.939 565.363 268.064 579.018 279.962C571.591 261.992 545.18 247.444 499.78 236.32C446.287 223.272 379.027 216.748 298 216.748ZM223.718 130.963C174.914 135.178 132.414 143.802 96.2173 156.838C42.2104 176.374 15.0726 203.062 14.8009 236.902H14.5977V266.254C27.7919 253.403 52.2459 242.546 87.9605 233.685C137.223 221.681 196.603 214.899 266.099 213.335L223.718 130.963ZM189.887 149.267C202.251 146.788 208.433 152.333 208.433 165.901V199.094L215.17 197.743V200.731L197.575 204.26V201.271L204.312 199.921V167.212C204.312 155.689 199.794 150.835 190.759 152.646C185.898 153.621 182.278 155.854 179.901 159.346C177.523 162.838 176.335 167.249 176.335 172.58V205.531L183.071 204.18V207.168L164.392 210.914L149.775 214.502V211.629L155.838 210.141V178.69C155.838 167.611 151.772 163.069 143.641 165.066C139.267 166.14 136.01 168.389 133.87 171.813C131.731 175.238 130.661 179.513 130.661 184.638V216.322L136.723 214.834V217.707L119.249 221.997V221.822L109.69 224.385V221.856L114.619 220.536V192.859C114.619 183.11 111.314 179.121 104.703 180.892C101.147 181.845 98.4984 183.83 96.7588 186.848C95.0192 189.865 94.1497 193.629 94.1497 198.139V226.021L99.0783 224.7V227.229L85.4845 230.871L78.6419 232.859V230.484L82.8096 229.274V203.274C82.8096 194.116 80.0144 190.348 74.4247 191.971C71.4175 192.845 69.1784 194.694 67.7074 197.518C66.2365 200.342 65.5011 203.872 65.5011 208.109V234.301L69.6688 233.091V235.466L57.6563 238.956V238.89L52.8728 240.388V238.191L56.1897 237.152V213.104C56.1897 204.633 53.9651 201.094 49.5163 202.486C47.1228 203.235 45.3408 204.901 44.17 207.484C42.9993 210.068 42.4139 213.319 42.4139 217.238V241.463L45.7308 240.425V242.622L39.2535 244.649V244.766L33.3077 246.76V244.883L35.5841 244.119V223.571C35.5841 216.333 34.058 213.226 31.0052 214.25C29.3626 214.801 28.1392 216.159 27.3358 218.322C26.5324 220.486 26.1311 223.242 26.1311 226.59V247.291L28.4074 246.527V248.404L21.8459 250.605V248.728L24.1223 247.965V227.163C24.1223 223.172 24.6849 219.837 25.8097 217.16C26.9345 214.517 28.5677 212.836 30.71 212.117C34.8878 210.716 36.9771 214.276 36.9771 222.8V243.165L39.4871 242.379V218.035C39.4871 213.364 40.3064 209.426 41.9453 206.222C43.5844 203.057 45.9653 200.985 49.0873 200.008C55.1751 198.103 58.219 202.138 58.219 212.113V236.416L61.824 235.369V209.049C61.824 203.999 62.8536 199.72 64.9129 196.211C66.9722 192.746 69.963 190.443 73.8853 189.304C81.5344 187.082 85.3592 191.363 85.3592 202.148V228.377L89.8008 227.187V199.168C89.8008 193.793 91.0185 189.229 93.4539 185.479C95.8893 181.774 99.4262 179.299 104.065 178.056C113.111 175.632 117.634 180.16 117.634 191.641V219.727L119.249 219.294V219.124L125.312 217.635V185.796C125.312 179.687 126.81 174.505 129.805 170.249C132.801 166.045 137.151 163.242 142.857 161.841C153.983 159.11 159.546 164.267 159.546 177.313V209.231L163.654 208.221V208.073L170.39 206.723V173.61C170.39 167.257 172.055 161.916 175.383 157.587C178.712 153.312 183.547 150.539 189.887 149.267ZM173.256 32.8826C145.007 39.415 119.328 48.4316 96.2173 59.9328C42.3467 86.8621 15.2086 123.625 14.8023 170.221H14.5977V201.026C27.7929 182.055 52.2455 166.028 87.9569 152.948C126.197 139.191 170.534 130.081 220.965 125.612L173.256 32.8826ZM25.55 156.829C27.6374 156.129 28.6814 157.908 28.6814 162.167V172.586L29.8189 172.204V173.142L26.8481 174.139V173.201L27.9856 172.819V162.552C27.9856 158.936 27.2226 157.383 25.6972 157.895C24.8766 158.17 24.2653 158.849 23.8639 159.93C23.4625 161.011 23.2623 162.388 23.2623 164.061V174.404L24.3997 174.022V174.96L21.1211 176.06V175.122L22.2586 174.741V164.347C22.2586 162.353 22.5396 160.686 23.1016 159.349C23.6635 158.028 24.4796 157.188 25.55 156.829ZM55.2497 129.203C58.0536 128.326 59.4555 130.184 59.4556 134.778V146.019L60.9838 145.541V146.553L56.993 147.802V146.79L58.5205 146.311V135.235C58.5205 131.333 57.4962 129.703 55.4471 130.345C54.3448 130.69 53.5239 131.457 52.9846 132.647C52.4454 133.836 52.1756 135.334 52.1756 137.139V148.298L53.7038 147.82V148.831L49.2997 150.21V149.198L50.8279 148.719V137.506C50.8279 135.355 51.2047 133.541 51.9597 132.065C52.7146 130.607 53.8117 129.653 55.2497 129.203ZM110.803 96.8676C115.152 95.7022 117.326 97.8791 117.326 103.399V116.901L119.696 116.267V117.482L113.507 119.14V117.925L115.876 117.29V103.984C115.876 99.2971 114.288 97.3794 111.11 98.2309C109.4 98.6891 108.127 99.6434 107.291 101.094C106.454 102.545 106.036 104.354 106.036 106.523V119.927L108.405 119.292V120.508L101.576 122.338V121.123L103.945 120.487V107.018C103.945 104.433 104.531 102.239 105.701 100.436C106.872 98.6546 108.573 97.4653 110.803 96.8676Z" fill="white"/>
<path d="M173.329 25.9864H200.693L296.903 212.984C297.269 212.984 297.634 212.983 298 212.983C381.387 212.983 451.4 219.884 508.04 233.685C564.396 247.667 592.714 266.618 592.996 290.536H593V389.833H592.997C592.749 399.448 564.431 407.066 508.04 412.685C451.4 418.228 381.387 420.999 298 420.999C214.614 420.999 144.6 418.228 87.9605 412.685C34.4349 407.351 6.20272 400.217 3.25977 391.283H3.00071V236.902H3C3.00013 236.884 3.00056 236.867 3.00071 236.85V161.523H3.38152C6.92927 116.958 35.1202 81.3025 87.9569 54.5578C113.66 41.7798 142.117 31.9012 173.329 24.9219V25.9864ZM298 315.699C217.761 315.699 150.501 319.111 96.2208 325.937C42.1904 332.861 15.0521 342.322 14.8037 354.318H14.5977V389.833H14.8037C15.0521 399.045 42.1904 406.31 96.2208 411.627C150.501 416.867 217.761 419.488 298 419.488C379.027 419.488 446.287 416.867 499.78 411.627C553.81 406.31 580.949 399.045 581.197 389.833H581.403V354.318H581.197C580.949 342.322 553.81 332.861 499.78 325.937C446.287 319.111 379.027 315.699 298 315.699ZM245.611 339.822C259.179 339.822 265.963 348.259 265.963 365.132V406.411H273.357V410.127H254.048V406.411H261.44V365.735C261.44 351.406 256.483 344.241 246.568 344.241C241.233 344.241 237.261 346.117 234.651 349.866C232.042 353.616 230.738 358.805 230.738 365.434V406.411H238.131V410.127H216.821V409.676L199.866 408.923V405.388L206.892 405.7V367.009C206.892 353.379 202.18 346.355 192.758 345.936C187.689 345.711 183.914 347.326 181.435 350.783C178.955 354.239 177.715 359.12 177.715 365.425V404.403L184.741 404.716V408.25L164.491 407.351V407.025L152.569 406.231V402.921L159.139 403.359V367.127C159.139 354.365 154.733 347.689 145.921 347.102C141.18 346.785 137.649 348.22 135.33 351.406C133.011 354.591 131.851 359.136 131.851 365.04V401.54L138.422 401.978V405.287L126.366 404.484V404.729L112.701 403.514V400.611L117.933 401.076V369.299C117.933 358.105 114.424 352.196 107.407 351.573C103.631 351.237 100.82 352.452 98.9736 355.217C97.1269 357.982 96.2038 361.954 96.2038 367.132V399.144L101.436 399.609V402.513L86.3544 401.172V400.866L77.675 399.902V397.272L81.7089 397.72V368.925C81.7089 358.781 79.004 353.409 73.5937 352.808C70.6828 352.484 68.5154 353.571 67.0916 356.067C65.6678 358.563 64.9554 362.157 64.9554 366.849V395.858L68.99 396.306V398.937L57.3618 397.645V397.516L51.9816 396.799V394.358L54.8002 394.734V368.02C54.8002 358.61 52.9101 353.652 49.1305 353.148C47.0971 352.877 45.583 353.907 44.5884 356.236C43.5938 358.566 43.0963 361.908 43.0963 366.262V393.174L45.9148 393.55V395.99L37.7918 394.907V394.568L33.5611 393.911V391.693L35.5997 392.01V367.734C35.5997 359.183 34.2326 354.694 31.4985 354.269C30.0275 354.04 28.9316 354.988 28.2121 357.114C27.4926 359.24 27.1334 362.281 27.1334 366.237V390.693L29.1719 391.01V393.228L23.2955 392.314V391.734L21.0262 391.331V389.426L22.0151 389.602V368.746C22.0151 361.399 21.3515 357.608 20.0254 357.372C19.3121 357.245 18.781 358.112 18.432 359.972C18.0831 361.833 17.9083 364.463 17.9083 367.861V388.872L18.8971 389.048V390.953L16.0474 390.446V388.541L17.0362 388.716V367.603C17.0362 363.552 17.2803 360.403 17.7688 358.155C18.2574 355.942 18.9674 354.918 19.898 355.083C21.7125 355.406 22.6195 359.894 22.6195 368.545V389.709L23.6084 389.885V390.144L25.3341 390.413V365.837C25.3341 361.122 25.838 357.484 26.8453 354.923C27.8526 352.403 29.3157 351.292 31.2345 351.59C34.976 352.173 36.8469 357.498 36.8469 367.568V392.204L38.8854 392.521V392.612L40.6097 392.842V365.798C40.6097 360.609 41.3061 356.613 42.6985 353.808C44.091 351.047 46.1136 349.844 48.766 350.197C53.9379 350.887 56.5237 356.772 56.5238 367.854V394.964L57.3618 395.075V395.014L61.3957 395.462V366.312C61.3957 360.719 62.393 356.422 64.3863 353.42C66.3796 350.466 69.2745 349.199 73.0713 349.621C80.4751 350.444 84.1771 356.827 84.1771 368.772V397.994L87.8961 398.406L91.5867 398.735V366.565C91.5867 360.393 92.8795 355.643 95.4649 352.316C98.0502 349.041 101.805 347.622 106.73 348.06C116.333 348.913 121.134 355.931 121.134 369.113V400.825L126.054 401.153V364.475C126.054 357.437 127.678 351.999 130.924 348.16C134.171 344.38 138.886 342.697 145.07 343.109C157.129 343.913 163.159 351.829 163.159 366.859V403.627L169.019 404.017L171.517 404.128V364.959C171.517 357.443 173.252 351.597 176.723 347.421C180.195 343.308 185.237 341.399 191.849 341.692C204.743 342.266 211.19 350.577 211.19 366.626V405.891L218.215 406.203V406.411H224.214V365.233C224.214 357.332 226.041 351.105 229.694 346.552C233.347 342.065 238.652 339.822 245.611 339.822ZM306.495 345.621C320.064 345.621 326.848 353.362 326.848 368.843V406.718H334.241V406.948H340.28V371.626C340.28 357.189 347.151 349.97 360.893 349.97C367.94 349.97 373.314 351.889 377.014 355.728C380.714 359.623 382.564 364.952 382.564 371.713V406.948H394.953V371.626C394.953 357.188 400.78 349.97 412.435 349.97C418.412 349.97 422.969 351.889 426.107 355.728C429.245 359.623 430.814 364.952 430.814 371.713V406.948H437.165V410.127H418.86V406.948H425.211V371.884C425.211 366.212 424.09 361.772 421.849 358.564C419.608 355.355 416.196 353.751 411.614 353.751C403.097 353.751 398.837 359.882 398.837 372.142V406.948H405.188V410.127H368.469V406.948H375.957V371.884C375.957 366.212 374.636 361.772 371.993 358.564C369.35 355.355 365.327 353.751 359.924 353.751C349.881 353.751 344.86 359.882 344.86 372.142V406.948H352.348V410.127H314.932V406.718H322.325V369.396C322.325 356.249 317.367 349.676 307.452 349.676C302.117 349.676 298.145 351.395 295.536 354.836C292.926 358.276 291.622 363.038 291.622 369.12V406.718H299.015V410.127H277.706V406.718H285.099V368.935C285.099 361.686 286.925 355.973 290.578 351.795C294.231 347.679 299.537 345.621 306.495 345.621ZM486.393 350.103C491.317 349.666 495.072 351.085 497.658 354.359C500.243 357.686 501.536 362.436 501.536 368.608V400.777L505.258 400.446L508.946 400.037V370.815C508.946 358.871 512.648 352.487 520.051 351.665C523.848 351.243 526.743 352.509 528.736 355.463C530.73 358.464 531.727 362.762 531.727 368.356V397.506L535.761 397.058V397.119L536.599 397.008V369.897C536.599 358.816 539.185 352.931 544.357 352.241C547.009 351.887 549.032 353.091 550.424 355.851C551.817 358.656 552.513 362.653 552.513 367.842V394.886L554.237 394.656V394.564L556.276 394.247V369.611C556.276 359.541 558.147 354.215 561.888 353.633C563.807 353.335 565.27 354.446 566.277 356.967C567.285 359.528 567.789 363.165 567.789 367.881V392.456L569.514 392.187V391.928L570.503 391.753V370.588C570.503 361.937 571.41 357.45 573.225 357.127C574.155 356.961 574.865 357.985 575.354 360.199C575.842 362.446 576.086 365.596 576.086 369.647V390.76L577.075 390.584V392.49L574.226 392.996V391.091L575.214 390.915V369.905C575.214 366.506 575.04 363.876 574.691 362.016C574.342 360.156 573.811 359.289 573.097 359.415C571.771 359.651 571.108 363.442 571.108 370.789V391.645L572.096 391.469V393.374L569.827 393.778V394.357L563.951 395.271V393.053L565.989 392.736V368.281C565.989 364.325 565.63 361.283 564.911 359.158C564.191 357.032 563.095 356.083 561.624 356.312C558.89 356.738 557.523 361.226 557.523 369.777V394.053L559.562 393.736V395.954L555.331 396.612V396.95L547.208 398.033V395.593L550.026 395.218V368.305C550.026 363.951 549.529 360.61 548.534 358.28C547.54 355.95 546.026 354.921 543.992 355.192C540.213 355.696 538.322 360.653 538.322 370.063V396.778L541.141 396.402V398.842L535.761 399.559V399.688L524.133 400.98V398.35L528.167 397.902V368.893C528.167 364.2 527.455 360.606 526.031 358.11C524.607 355.614 522.44 354.527 519.529 354.851C514.119 355.452 511.414 360.825 511.414 370.968V399.763L515.448 399.314V401.945L506.768 402.909V403.216L491.687 404.556V401.653L496.919 401.188V369.176C496.919 363.997 495.996 360.025 494.149 357.26C492.302 354.495 489.491 353.281 485.716 353.616C478.699 354.24 475.189 360.149 475.189 371.342V403.119L480.422 402.654V405.557L466.756 406.772V403.869L471.988 403.404V371.156C471.988 357.975 476.79 350.957 486.393 350.103ZM298 232.648C217.761 232.648 150.501 239.173 96.2208 252.221C42.1904 265.46 15.0521 283.547 14.8037 306.482H14.5977V341.594C27.792 334.872 52.246 329.193 87.9605 324.559C144.6 317.339 214.614 313.73 298 313.73C381.387 313.73 451.4 317.339 508.04 324.559C543.755 329.193 568.209 334.872 581.403 341.594V306.482H581.197C580.949 283.547 553.81 265.46 499.78 252.221C446.287 239.173 379.027 232.648 298 232.648ZM245.843 241.83C259.411 241.83 266.196 249.136 266.196 263.748V299.494H273.589V300.636H277.789V275.953C277.789 265.864 285.183 260.82 299.969 260.82C307.551 260.82 313.333 262.161 317.314 264.844C321.295 267.566 323.285 271.289 323.285 276.014V300.636H324.094V300.364H331.487V264.618C331.487 250.006 338.271 242.7 351.84 242.7C358.798 242.7 364.104 244.642 367.757 248.527C371.41 252.47 373.237 257.863 373.237 264.705V300.364H380.63V300.759L387.006 301.042V267.849C387.006 254.281 393.262 247.775 405.774 248.331C412.191 248.616 417.084 250.637 420.452 254.394C423.821 258.205 425.505 263.287 425.505 269.641V302.754L432.323 303.057V303.205L436.48 303.574V271.658C436.48 258.611 442.111 252.589 453.37 253.59C459.145 254.103 463.548 256.228 466.579 259.966C469.611 263.756 471.126 268.706 471.126 274.815V306.654L477.262 307.2V307.37L478.896 307.552V279.465C478.896 267.984 483.474 262.753 492.629 263.77C497.323 264.292 500.903 266.215 503.368 269.541C505.833 272.913 507.065 277.288 507.065 282.663V310.682L511.56 311.181V284.953C511.56 274.168 515.43 269.292 523.171 270.324C527.14 270.853 530.168 272.69 532.252 275.835C534.336 279.023 535.378 283.142 535.378 288.192V314.513L539.026 314.999V290.696C539.026 280.72 542.106 276.212 548.267 277.17C551.427 277.662 553.836 279.363 555.495 282.273C557.154 285.223 557.983 289.033 557.983 293.704V318.048L560.523 318.443V298.078C560.524 289.555 562.638 285.669 566.866 286.42C569.034 286.806 570.687 288.233 571.825 290.701C572.964 293.204 573.533 296.45 573.533 300.441V321.243L575.837 321.653V323.53L569.196 322.349V320.472L571.5 320.882V300.182C571.5 296.833 571.094 294.14 570.281 292.101C569.468 290.063 568.23 288.895 566.568 288.6C563.478 288.051 561.933 291.395 561.933 298.633V319.181L564.237 319.59V321.468L558.219 320.398V320.282L551.664 319.263V317.066L555.022 317.587V293.362C555.022 289.443 554.429 286.283 553.244 283.882C552.059 281.481 550.256 280.092 547.834 279.715C543.331 279.015 541.079 282.9 541.079 291.372V315.419L544.437 315.941V318.138L539.596 317.385V317.451L527.438 315.829V313.454L531.656 314.016V287.825C531.656 283.588 530.912 280.172 529.424 277.576C527.935 274.981 525.668 273.481 522.625 273.075C516.968 272.321 514.14 276.523 514.14 285.682V311.681L518.358 312.243V314.619L511.433 313.695L497.676 312.167V309.639L502.664 310.193V282.311C502.664 277.801 501.783 274.172 500.023 271.425C498.262 268.678 495.582 267.105 491.983 266.705C485.293 265.962 481.948 270.465 481.948 280.214V307.891L486.936 308.445V310.974L477.262 309.898V310.073L459.578 308.501V305.628L465.713 306.173V274.489C465.713 269.364 464.631 265.255 462.465 262.163C460.3 259.072 457.003 257.329 452.576 256.935C444.348 256.204 440.234 261.378 440.234 272.457V303.908L446.369 304.453V307.326L431.584 306.012L412.673 305.172V302.183L419.49 302.486V269.535C419.49 264.205 418.287 259.978 415.88 256.856C413.474 253.734 409.811 252.064 404.892 251.846C395.748 251.439 391.177 256.997 391.177 268.519V301.228L397.994 301.531V304.519L380.188 303.728V303.583H359.32V300.364H366.713V264.878C366.713 259.138 365.408 254.645 362.799 251.397C360.19 248.15 356.218 246.527 350.884 246.527C340.968 246.527 336.01 252.731 336.01 265.14V300.364H343.403V303.583H324.094V302.858H308.12V300.636H316.177V276.134C316.177 272.17 314.755 269.068 311.911 266.826C309.068 264.584 304.739 263.462 298.926 263.462C288.121 263.462 282.718 267.746 282.718 276.314V300.636H290.775V302.858H269.733V302.713H254.279V299.494H261.673V264.27C261.673 251.861 256.714 245.657 246.799 245.657C241.465 245.657 237.493 247.281 234.883 250.528C232.274 253.775 230.969 258.268 230.969 264.008V299.494H238.362V302.713H217.494V302.858L199.688 303.649V300.661L206.506 300.358V267.649C206.506 256.127 201.934 250.569 192.79 250.976C187.871 251.194 184.208 252.864 181.802 255.986C179.396 259.108 178.193 263.335 178.193 268.665V301.616L185.01 301.313V304.302L166.098 305.142L151.313 306.456V303.583L157.449 303.038V271.587C157.449 260.508 153.334 255.334 145.106 256.065C140.679 256.459 137.383 258.202 135.217 261.293C133.052 264.385 131.97 268.494 131.97 273.619V305.303L138.104 304.758V307.631L120.421 309.203V309.029L110.746 310.104V307.575L115.735 307.021V279.345C115.735 269.595 112.389 265.092 105.699 265.835C102.1 266.235 99.4203 267.808 97.6598 270.555C95.8993 273.302 95.0189 276.931 95.0189 281.441V309.323L100.007 308.769V311.297L86.2489 312.825L79.325 313.749V311.374L83.5429 310.812V284.812C83.5429 275.653 80.7142 271.451 75.0575 272.205C72.014 272.611 69.7475 274.111 68.2588 276.707C66.7702 279.302 66.0263 282.718 66.0263 286.955V313.147L70.2443 312.585V314.959L58.0866 316.581V316.515L53.2458 317.268V315.071L56.603 314.549V290.502C56.603 282.031 54.3513 278.145 49.8489 278.846C47.4268 279.222 45.6231 280.611 44.4383 283.012C43.2535 285.413 42.661 288.573 42.661 292.492V316.717L46.0182 316.196V318.393L39.463 319.412V319.528L33.4458 320.598V318.721L35.7497 318.311V297.763C35.7497 290.525 34.2046 287.181 31.1149 287.73C29.4527 288.026 28.2147 289.193 27.4016 291.231C26.5887 293.27 26.1821 295.964 26.182 299.312V320.012L28.486 319.602V321.48L21.8459 322.66V320.783L24.1499 320.373V299.572C24.1499 295.58 24.7189 292.334 25.8571 289.831C26.9955 287.363 28.6487 285.936 30.8169 285.551C35.0449 284.799 37.159 288.685 37.159 297.208V317.573L39.6994 317.178V292.834C39.6994 288.163 40.5287 284.353 42.1874 281.403C43.8462 278.493 46.2555 276.792 49.415 276.3C55.576 275.342 58.6564 279.851 58.6564 289.826V314.129L62.3046 313.643V287.322C62.3046 282.272 63.3464 278.153 65.4303 274.965C67.5145 271.82 70.542 269.983 74.5118 269.454C82.2526 268.422 86.123 273.298 86.123 284.083V310.311L90.6177 309.812V281.794C90.6177 276.418 91.8499 272.043 94.3146 268.672C96.7793 265.345 100.359 263.422 105.054 262.9C114.208 261.883 118.786 267.114 118.786 278.595V306.682L120.421 306.5V306.33L126.556 305.784V273.945C126.556 267.836 128.072 262.886 131.103 259.096C134.135 255.358 138.538 253.233 144.312 252.72C155.572 251.719 161.202 257.742 161.202 270.788V302.704L165.359 302.335V302.187L172.177 301.884V268.771C172.177 262.417 173.862 257.335 177.23 253.524C180.599 249.767 185.492 247.747 191.908 247.461C204.421 246.905 210.676 253.411 210.676 266.979V300.172L217.053 299.889V299.494H224.446V263.835C224.446 256.993 226.273 251.6 229.926 247.657C233.579 243.773 238.885 241.83 245.843 241.83ZM298 216.748C217.761 216.748 150.501 223.272 96.2208 236.32C50.8208 247.444 24.4087 261.992 16.9817 279.962C30.6371 268.064 54.2965 257.939 87.9605 249.587C144.6 235.785 214.614 228.884 298 228.884C381.387 228.884 451.4 235.785 508.04 249.587C541.704 257.939 565.363 268.064 579.018 279.962C571.591 261.992 545.18 247.444 499.78 236.32C446.287 223.272 379.027 216.748 298 216.748ZM223.718 130.963C174.914 135.178 132.414 143.802 96.2173 156.838C42.2104 176.374 15.0726 203.062 14.8009 236.902H14.5977V266.254C27.7919 253.403 52.2459 242.546 87.9605 233.685C137.223 221.681 196.603 214.899 266.099 213.335L223.718 130.963ZM189.887 149.267C202.251 146.788 208.433 152.333 208.433 165.901V199.094L215.17 197.743V200.731L197.575 204.26V201.271L204.312 199.921V167.212C204.312 155.689 199.794 150.835 190.759 152.646C185.898 153.621 182.278 155.854 179.901 159.346C177.523 162.838 176.335 167.249 176.335 172.58V205.531L183.071 204.18V207.168L164.392 210.914L149.775 214.502V211.629L155.838 210.141V178.69C155.838 167.611 151.772 163.069 143.641 165.066C139.267 166.14 136.01 168.389 133.87 171.813C131.731 175.238 130.661 179.513 130.661 184.638V216.322L136.723 214.834V217.707L119.249 221.997V221.822L109.69 224.385V221.856L114.619 220.536V192.859C114.619 183.11 111.314 179.121 104.703 180.892C101.147 181.845 98.4984 183.83 96.7588 186.848C95.0192 189.865 94.1497 193.629 94.1497 198.139V226.021L99.0783 224.7V227.229L85.4845 230.871L78.6419 232.859V230.484L82.8096 229.274V203.274C82.8096 194.116 80.0144 190.348 74.4247 191.971C71.4175 192.845 69.1784 194.694 67.7074 197.518C66.2365 200.342 65.5011 203.872 65.5011 208.109V234.301L69.6688 233.091V235.466L57.6563 238.956V238.89L52.8728 240.388V238.191L56.1897 237.152V213.104C56.1897 204.633 53.9651 201.094 49.5163 202.486C47.1228 203.235 45.3408 204.901 44.17 207.484C42.9993 210.068 42.4139 213.319 42.4139 217.238V241.463L45.7308 240.425V242.622L39.2535 244.649V244.766L33.3077 246.76V244.883L35.5841 244.119V223.571C35.5841 216.333 34.058 213.226 31.0052 214.25C29.3626 214.801 28.1392 216.159 27.3358 218.322C26.5324 220.486 26.1311 223.242 26.1311 226.59V247.291L28.4074 246.527V248.404L21.8459 250.605V248.728L24.1223 247.965V227.163C24.1223 223.172 24.6849 219.837 25.8097 217.16C26.9345 214.517 28.5677 212.836 30.71 212.117C34.8878 210.716 36.9771 214.276 36.9771 222.8V243.165L39.4871 242.379V218.035C39.4871 213.364 40.3064 209.426 41.9453 206.222C43.5844 203.057 45.9653 200.985 49.0873 200.008C55.1751 198.103 58.219 202.138 58.219 212.113V236.416L61.824 235.369V209.049C61.824 203.999 62.8536 199.72 64.9129 196.211C66.9722 192.746 69.963 190.443 73.8853 189.304C81.5344 187.082 85.3592 191.363 85.3592 202.148V228.377L89.8008 227.187V199.168C89.8008 193.793 91.0185 189.229 93.4539 185.479C95.8893 181.774 99.4262 179.299 104.065 178.056C113.111 175.632 117.634 180.16 117.634 191.641V219.727L119.249 219.294V219.124L125.312 217.635V185.796C125.312 179.687 126.81 174.505 129.805 170.249C132.801 166.045 137.151 163.242 142.857 161.841C153.983 159.11 159.546 164.267 159.546 177.313V209.231L163.654 208.221V208.073L170.39 206.723V173.61C170.39 167.257 172.055 161.916 175.383 157.587C178.712 153.312 183.547 150.539 189.887 149.267ZM173.256 32.8826C145.007 39.415 119.328 48.4316 96.2173 59.9328C42.3467 86.8621 15.2086 123.625 14.8023 170.221H14.5977V201.026C27.7929 182.055 52.2455 166.028 87.9569 152.948C126.197 139.191 170.534 130.081 220.965 125.612L173.256 32.8826ZM25.55 156.829C27.6374 156.129 28.6814 157.908 28.6814 162.167V172.586L29.8189 172.204V173.142L26.8481 174.139V173.201L27.9856 172.819V162.552C27.9856 158.936 27.2226 157.383 25.6972 157.895C24.8766 158.17 24.2653 158.849 23.8639 159.93C23.4625 161.011 23.2623 162.388 23.2623 164.061V174.404L24.3997 174.022V174.96L21.1211 176.06V175.122L22.2586 174.741V164.347C22.2586 162.353 22.5396 160.686 23.1016 159.349C23.6635 158.028 24.4796 157.188 25.55 156.829ZM55.2497 129.203C58.0536 128.326 59.4555 130.184 59.4556 134.778V146.019L60.9838 145.541V146.553L56.993 147.802V146.79L58.5205 146.311V135.235C58.5205 131.333 57.4962 129.703 55.4471 130.345C54.3448 130.69 53.5239 131.457 52.9846 132.647C52.4454 133.836 52.1756 135.334 52.1756 137.139V148.298L53.7038 147.82V148.831L49.2997 150.21V149.198L50.8279 148.719V137.506C50.8279 135.355 51.2047 133.541 51.9597 132.065C52.7146 130.607 53.8117 129.653 55.2497 129.203ZM110.803 96.8676C115.152 95.7022 117.326 97.8791 117.326 103.399V116.901L119.696 116.267V117.482L113.507 119.14V117.925L115.876 117.29V103.984C115.876 99.2971 114.288 97.3794 111.11 98.2309C109.4 98.6891 108.127 99.6434 107.291 101.094C106.454 102.545 106.036 104.354 106.036 106.523V119.927L108.405 119.292V120.508L101.576 122.338V121.123L103.945 120.487V107.018C103.945 104.433 104.531 102.239 105.701 100.436C106.872 98.6546 108.573 97.4653 110.803 96.8676Z" stroke="white" stroke-width="4" mask="url(#path-1-outside-1_186_34)"/>
<mask id="path-2-outside-2_186_34" maskUnits="userSpaceOnUse" x="219.705" y="0.078125" width="200" height="216" fill="black">
<rect fill="white" x="219.705" y="0.078125" width="200" height="216"/>
<path d="M326.346 121.52L346.014 172.545L346.255 173.177C351.239 186.397 350.589 196.911 343.919 204.455C337.276 211.966 329.044 215.527 319.28 215.089C309.126 215.084 300.899 211.546 294.678 204.452L294.662 204.433C288.334 196.765 287.998 185.83 293.231 171.906L293.232 171.905L312.249 121.52H326.346ZM312.81 122.329L293.991 172.19L293.751 172.835C288.814 186.333 289.326 196.695 295.288 203.919C301.345 210.826 309.349 214.28 319.3 214.28C328.817 214.712 336.821 211.257 343.31 203.919C349.698 196.695 350.427 186.543 345.497 173.463L345.257 172.837L325.789 122.329H312.81ZM388.214 117.645L388.221 117.646L388.226 117.647C398.295 119.394 405.851 123.127 410.771 128.93C415.624 134.652 417.695 140.48 416.799 146.375C416.358 152.064 415.039 157.33 412.837 162.164L412.809 162.224L412.773 162.278C409.256 167.542 405.067 171.727 400.204 174.815C395.231 177.973 389.169 178.841 382.098 177.518L382.073 177.514L382.05 177.507C374.905 175.725 368.063 170.845 361.509 162.998L326.739 121.757L334.465 109.142L388.214 117.645ZM311.855 121.102L277.098 163.636L277.067 163.674L277.031 163.708C265.735 174.546 255.52 179.324 246.459 177.516L246.44 177.512L246.421 177.507C237.559 175.297 230.898 169.985 226.469 161.629C220.683 154.481 219.61 145.992 223.142 136.299L223.148 136.284L223.154 136.269C227.192 126.42 236.802 120.053 251.646 117.004L251.663 117L251.679 116.998L304.133 108.492L311.855 121.102ZM327.735 121.682L362.13 162.477C368.619 170.247 375.325 174.996 382.247 176.723C388.952 177.977 394.643 177.206 399.319 174.41L399.769 174.132C404.528 171.11 408.637 167.009 412.098 161.829C414.261 157.08 415.56 151.9 415.992 146.289C416.831 140.852 415.03 135.415 410.59 129.978L410.152 129.452C405.393 123.84 398.038 120.171 388.087 118.444L334.874 110.026L327.735 121.682ZM251.809 117.797L251.124 117.941C236.811 121.015 227.737 127.227 223.904 136.576L223.594 137.462C220.516 146.584 221.701 154.49 227.149 161.181C231.475 169.383 237.965 174.564 246.617 176.723C255 178.395 264.6 174.194 275.418 164.118L276.469 163.124L310.863 121.034L303.725 109.379L251.809 117.797ZM237.746 41.9997C242.745 38.8252 249.045 38.1925 256.538 39.9517C263.884 41.6764 270.944 46.5157 277.731 54.345L278.387 55.1117L278.393 55.118L278.398 55.1236L311.848 96.3551L304.792 108.324L252.338 99.8188C237.032 97.6358 227.181 91.2617 223.146 80.5239C219.194 70.0095 220.006 61.2712 225.838 54.5126C228.922 49.259 232.891 45.0826 237.746 41.9997ZM382.061 39.9517C389.535 38.197 395.821 38.8224 400.814 41.976C406.136 44.6391 410.35 48.6304 413.448 53.93L413.476 53.9766L413.496 54.0264C415.687 59.2727 417.217 64.9489 418.092 71.0512L418.168 71.6068C418.859 77.3495 416.528 83.0115 411.396 88.5588C406.038 94.3508 397.838 98.0729 386.919 99.8164L334.456 108.324L327.4 96.3551L360.85 55.1236C367.408 46.8373 374.473 41.7333 382.061 39.9517ZM256.352 40.7398C248.997 39.0131 242.941 39.6609 238.182 42.6827L237.738 42.9688C233.18 45.9615 229.434 49.9669 226.5 54.9853C220.876 61.4606 220.011 69.8789 223.904 80.2393C227.798 90.5999 237.316 96.8596 252.458 99.0181L304.374 107.436L310.863 96.4278L277.767 55.6334C271.061 47.6876 264.153 42.7801 257.041 40.9113L256.352 40.7398ZM400.418 42.6827C395.659 39.6608 389.601 39.013 382.247 40.7398L381.558 40.9113C374.46 42.7802 367.767 47.6877 361.481 55.6334L328.385 96.4278L334.874 107.436L386.79 99.0181C397.267 97.3453 405.106 93.8493 410.305 88.5304L410.8 88.0103C415.992 82.3983 418.155 76.7857 417.29 71.1737C416.479 65.5077 415.097 60.2212 413.145 55.3141L412.748 54.3379C409.719 49.1577 405.609 45.2728 400.418 42.6827ZM319.3 1.07812C329.491 1.07816 337.728 5.07144 343.938 13.0305C350.711 20.7112 351.022 32.0953 345.366 46.8563L345.365 46.8594L326.345 95.9424H312.903L293.884 46.8642C288.218 32.5099 288.332 21.15 294.648 13.0463C300.86 5.07674 309.101 1.07812 319.3 1.07812ZM319.3 1.88755C309.349 1.88755 301.345 5.77308 295.288 13.5435L295.009 13.9095C289.226 21.6581 289.103 32.5445 294.639 46.5677L313.459 95.133H325.789L344.609 46.5677C350.233 31.8903 349.8 20.8823 343.31 13.5435C337.443 6.01586 329.748 2.13381 320.226 1.89861L319.3 1.88755Z"/>
</mask>
<path d="M326.346 121.52L346.014 172.545L346.255 173.177C351.239 186.397 350.589 196.911 343.919 204.455C337.276 211.966 329.044 215.527 319.28 215.089C309.126 215.084 300.899 211.546 294.678 204.452L294.662 204.433C288.334 196.765 287.998 185.83 293.231 171.906L293.232 171.905L312.249 121.52H326.346ZM312.81 122.329L293.991 172.19L293.751 172.835C288.814 186.333 289.326 196.695 295.288 203.919C301.345 210.826 309.349 214.28 319.3 214.28C328.817 214.712 336.821 211.257 343.31 203.919C349.698 196.695 350.427 186.543 345.497 173.463L345.257 172.837L325.789 122.329H312.81ZM388.214 117.645L388.221 117.646L388.226 117.647C398.295 119.394 405.851 123.127 410.771 128.93C415.624 134.652 417.695 140.48 416.799 146.375C416.358 152.064 415.039 157.33 412.837 162.164L412.809 162.224L412.773 162.278C409.256 167.542 405.067 171.727 400.204 174.815C395.231 177.973 389.169 178.841 382.098 177.518L382.073 177.514L382.05 177.507C374.905 175.725 368.063 170.845 361.509 162.998L326.739 121.757L334.465 109.142L388.214 117.645ZM311.855 121.102L277.098 163.636L277.067 163.674L277.031 163.708C265.735 174.546 255.52 179.324 246.459 177.516L246.44 177.512L246.421 177.507C237.559 175.297 230.898 169.985 226.469 161.629C220.683 154.481 219.61 145.992 223.142 136.299L223.148 136.284L223.154 136.269C227.192 126.42 236.802 120.053 251.646 117.004L251.663 117L251.679 116.998L304.133 108.492L311.855 121.102ZM327.735 121.682L362.13 162.477C368.619 170.247 375.325 174.996 382.247 176.723C388.952 177.977 394.643 177.206 399.319 174.41L399.769 174.132C404.528 171.11 408.637 167.009 412.098 161.829C414.261 157.08 415.56 151.9 415.992 146.289C416.831 140.852 415.03 135.415 410.59 129.978L410.152 129.452C405.393 123.84 398.038 120.171 388.087 118.444L334.874 110.026L327.735 121.682ZM251.809 117.797L251.124 117.941C236.811 121.015 227.737 127.227 223.904 136.576L223.594 137.462C220.516 146.584 221.701 154.49 227.149 161.181C231.475 169.383 237.965 174.564 246.617 176.723C255 178.395 264.6 174.194 275.418 164.118L276.469 163.124L310.863 121.034L303.725 109.379L251.809 117.797ZM237.746 41.9997C242.745 38.8252 249.045 38.1925 256.538 39.9517C263.884 41.6764 270.944 46.5157 277.731 54.345L278.387 55.1117L278.393 55.118L278.398 55.1236L311.848 96.3551L304.792 108.324L252.338 99.8188C237.032 97.6358 227.181 91.2617 223.146 80.5239C219.194 70.0095 220.006 61.2712 225.838 54.5126C228.922 49.259 232.891 45.0826 237.746 41.9997ZM382.061 39.9517C389.535 38.197 395.821 38.8224 400.814 41.976C406.136 44.6391 410.35 48.6304 413.448 53.93L413.476 53.9766L413.496 54.0264C415.687 59.2727 417.217 64.9489 418.092 71.0512L418.168 71.6068C418.859 77.3495 416.528 83.0115 411.396 88.5588C406.038 94.3508 397.838 98.0729 386.919 99.8164L334.456 108.324L327.4 96.3551L360.85 55.1236C367.408 46.8373 374.473 41.7333 382.061 39.9517ZM256.352 40.7398C248.997 39.0131 242.941 39.6609 238.182 42.6827L237.738 42.9688C233.18 45.9615 229.434 49.9669 226.5 54.9853C220.876 61.4606 220.011 69.8789 223.904 80.2393C227.798 90.5999 237.316 96.8596 252.458 99.0181L304.374 107.436L310.863 96.4278L277.767 55.6334C271.061 47.6876 264.153 42.7801 257.041 40.9113L256.352 40.7398ZM400.418 42.6827C395.659 39.6608 389.601 39.013 382.247 40.7398L381.558 40.9113C374.46 42.7802 367.767 47.6877 361.481 55.6334L328.385 96.4278L334.874 107.436L386.79 99.0181C397.267 97.3453 405.106 93.8493 410.305 88.5304L410.8 88.0103C415.992 82.3983 418.155 76.7857 417.29 71.1737C416.479 65.5077 415.097 60.2212 413.145 55.3141L412.748 54.3379C409.719 49.1577 405.609 45.2728 400.418 42.6827ZM319.3 1.07812C329.491 1.07816 337.728 5.07144 343.938 13.0305C350.711 20.7112 351.022 32.0953 345.366 46.8563L345.365 46.8594L326.345 95.9424H312.903L293.884 46.8642C288.218 32.5099 288.332 21.15 294.648 13.0463C300.86 5.07674 309.101 1.07812 319.3 1.07812ZM319.3 1.88755C309.349 1.88755 301.345 5.77308 295.288 13.5435L295.009 13.9095C289.226 21.6581 289.103 32.5445 294.639 46.5677L313.459 95.133H325.789L344.609 46.5677C350.233 31.8903 349.8 20.8823 343.31 13.5435C337.443 6.01586 329.748 2.13381 320.226 1.89861L319.3 1.88755Z" fill="white"/>
<path d="M326.346 121.52L346.014 172.545L346.255 173.177C351.239 186.397 350.589 196.911 343.919 204.455C337.276 211.966 329.044 215.527 319.28 215.089C309.126 215.084 300.899 211.546 294.678 204.452L294.662 204.433C288.334 196.765 287.998 185.83 293.231 171.906L293.232 171.905L312.249 121.52H326.346ZM312.81 122.329L293.991 172.19L293.751 172.835C288.814 186.333 289.326 196.695 295.288 203.919C301.345 210.826 309.349 214.28 319.3 214.28C328.817 214.712 336.821 211.257 343.31 203.919C349.698 196.695 350.427 186.543 345.497 173.463L345.257 172.837L325.789 122.329H312.81ZM388.214 117.645L388.221 117.646L388.226 117.647C398.295 119.394 405.851 123.127 410.771 128.93C415.624 134.652 417.695 140.48 416.799 146.375C416.358 152.064 415.039 157.33 412.837 162.164L412.809 162.224L412.773 162.278C409.256 167.542 405.067 171.727 400.204 174.815C395.231 177.973 389.169 178.841 382.098 177.518L382.073 177.514L382.05 177.507C374.905 175.725 368.063 170.845 361.509 162.998L326.739 121.757L334.465 109.142L388.214 117.645ZM311.855 121.102L277.098 163.636L277.067 163.674L277.031 163.708C265.735 174.546 255.52 179.324 246.459 177.516L246.44 177.512L246.421 177.507C237.559 175.297 230.898 169.985 226.469 161.629C220.683 154.481 219.61 145.992 223.142 136.299L223.148 136.284L223.154 136.269C227.192 126.42 236.802 120.053 251.646 117.004L251.663 117L251.679 116.998L304.133 108.492L311.855 121.102ZM327.735 121.682L362.13 162.477C368.619 170.247 375.325 174.996 382.247 176.723C388.952 177.977 394.643 177.206 399.319 174.41L399.769 174.132C404.528 171.11 408.637 167.009 412.098 161.829C414.261 157.08 415.56 151.9 415.992 146.289C416.831 140.852 415.03 135.415 410.59 129.978L410.152 129.452C405.393 123.84 398.038 120.171 388.087 118.444L334.874 110.026L327.735 121.682ZM251.809 117.797L251.124 117.941C236.811 121.015 227.737 127.227 223.904 136.576L223.594 137.462C220.516 146.584 221.701 154.49 227.149 161.181C231.475 169.383 237.965 174.564 246.617 176.723C255 178.395 264.6 174.194 275.418 164.118L276.469 163.124L310.863 121.034L303.725 109.379L251.809 117.797ZM237.746 41.9997C242.745 38.8252 249.045 38.1925 256.538 39.9517C263.884 41.6764 270.944 46.5157 277.731 54.345L278.387 55.1117L278.393 55.118L278.398 55.1236L311.848 96.3551L304.792 108.324L252.338 99.8188C237.032 97.6358 227.181 91.2617 223.146 80.5239C219.194 70.0095 220.006 61.2712 225.838 54.5126C228.922 49.259 232.891 45.0826 237.746 41.9997ZM382.061 39.9517C389.535 38.197 395.821 38.8224 400.814 41.976C406.136 44.6391 410.35 48.6304 413.448 53.93L413.476 53.9766L413.496 54.0264C415.687 59.2727 417.217 64.9489 418.092 71.0512L418.168 71.6068C418.859 77.3495 416.528 83.0115 411.396 88.5588C406.038 94.3508 397.838 98.0729 386.919 99.8164L334.456 108.324L327.4 96.3551L360.85 55.1236C367.408 46.8373 374.473 41.7333 382.061 39.9517ZM256.352 40.7398C248.997 39.0131 242.941 39.6609 238.182 42.6827L237.738 42.9688C233.18 45.9615 229.434 49.9669 226.5 54.9853C220.876 61.4606 220.011 69.8789 223.904 80.2393C227.798 90.5999 237.316 96.8596 252.458 99.0181L304.374 107.436L310.863 96.4278L277.767 55.6334C271.061 47.6876 264.153 42.7801 257.041 40.9113L256.352 40.7398ZM400.418 42.6827C395.659 39.6608 389.601 39.013 382.247 40.7398L381.558 40.9113C374.46 42.7802 367.767 47.6877 361.481 55.6334L328.385 96.4278L334.874 107.436L386.79 99.0181C397.267 97.3453 405.106 93.8493 410.305 88.5304L410.8 88.0103C415.992 82.3983 418.155 76.7857 417.29 71.1737C416.479 65.5077 415.097 60.2212 413.145 55.3141L412.748 54.3379C409.719 49.1577 405.609 45.2728 400.418 42.6827ZM319.3 1.07812C329.491 1.07816 337.728 5.07144 343.938 13.0305C350.711 20.7112 351.022 32.0953 345.366 46.8563L345.365 46.8594L326.345 95.9424H312.903L293.884 46.8642C288.218 32.5099 288.332 21.15 294.648 13.0463C300.86 5.07674 309.101 1.07812 319.3 1.07812ZM319.3 1.88755C309.349 1.88755 301.345 5.77308 295.288 13.5435L295.009 13.9095C289.226 21.6581 289.103 32.5445 294.639 46.5677L313.459 95.133H325.789L344.609 46.5677C350.233 31.8903 349.8 20.8823 343.31 13.5435C337.443 6.01586 329.748 2.13381 320.226 1.89861L319.3 1.88755Z" stroke="white" stroke-width="1.82946" mask="url(#path-2-outside-2_186_34)"/>
</svg>
