<svg width="595" height="423" viewBox="0 0 595 423" fill="none" xmlns="http://www.w3.org/2000/svg">
<path d="M319.3 0.163086C329.762 0.163181 338.26 4.27789 344.645 12.4492C351.73 20.5065 351.912 32.2965 346.24 47.1279L346.238 47.1367L346.218 47.1904L328.03 94.125L360.14 54.5469C366.775 46.1652 374.001 40.9049 381.853 39.0615C389.463 37.2747 396.009 37.8753 401.267 41.1797C406.73 43.924 411.058 48.0328 414.233 53.4629H414.234L414.262 53.5088L414.296 53.5664L414.321 53.627L414.342 53.6768H414.341C416.424 58.667 417.916 64.0333 418.823 69.7695L418.997 70.9219L418.998 70.9268L419.074 71.4824L419.076 71.498C419.809 77.5923 417.313 83.509 412.067 89.1797C406.521 95.1749 398.1 98.9565 387.064 100.719L337.689 108.726L388.357 116.741H388.356L388.369 116.743L388.383 116.745C398.584 118.515 406.366 122.32 411.469 128.338C416.428 134.186 418.64 140.257 417.708 146.473C417.257 152.25 415.916 157.612 413.67 162.543L413.668 162.547L413.64 162.607L413.608 162.676L413.566 162.737L413.53 162.791C409.951 168.147 405.675 172.424 400.694 175.587C395.486 178.894 389.182 179.769 381.952 178.421L381.879 178.409L381.83 178.396L381.808 178.39V178.389C374.419 176.539 367.43 171.514 360.81 163.588L328.997 125.855L346.867 172.216L346.868 172.218L347.109 172.85L347.111 172.854C352.154 186.231 351.593 197.156 344.604 205.061C342.288 207.679 339.779 209.831 337.082 211.516C403.619 213.374 460.771 220.109 508.514 231.742L508.521 231.744C536.789 238.757 558.217 247.059 572.658 256.723C586.37 265.899 594.028 276.487 594.911 288.536H595V391.833H594.668C593.851 394.416 591.582 396.573 588.581 398.383C584.773 400.68 579.237 402.766 572.092 404.688C557.771 408.541 536.462 411.862 508.238 414.675H508.235C451.509 420.227 381.425 422.999 298 422.999C214.575 422.999 144.492 420.227 87.7656 414.675H87.7617C60.9683 412.005 40.4124 408.877 26.1514 405.273C19.0289 403.474 13.3848 401.533 9.29297 399.424C5.91721 397.684 3.29881 395.679 1.96582 393.283H1.00098V238.901H0.984375L1 236.886C1.00011 236.872 1.00084 236.858 1.00098 236.85V159.523H1.5498C5.79388 114.906 34.5432 79.353 87.0537 52.7734L87.0605 52.7705L87.0664 52.7666C112.929 39.9093 141.542 29.9803 172.893 22.9697L175.329 22.4248V23.9863H201.913L202.471 25.0713L220.988 61.0635C221.865 58.5198 223.226 56.1543 225.09 53.9795C228.237 48.6415 232.292 44.3795 237.256 41.2275C242.526 37.881 249.099 37.2659 256.747 39.0615C264.105 40.7891 271.107 45.5193 277.778 53.0117L278.423 53.7461L278.427 53.75L279.074 54.5088H279.075L279.081 54.5146L279.087 54.5225L279.092 54.5273L279.1 54.5371L279.108 54.5469L311.218 94.127L293.033 47.2002L292.515 45.8506C287.325 31.9914 287.523 20.7002 293.927 12.4844C300.314 4.28982 308.823 0.163086 319.3 0.163086ZM298 317.699C217.811 317.699 150.642 321.109 96.4736 327.92L96.4746 327.921C69.4983 331.378 49.3712 335.454 36.002 340.114C29.3082 342.448 24.4396 344.884 21.2656 347.371C18.095 349.855 16.8487 352.193 16.8037 354.359L16.791 354.961C16.865 354.832 16.9413 354.706 17.0234 354.588C17.6152 353.734 18.6225 352.953 19.9736 353.077L20.248 353.114C21.5329 353.343 22.3447 354.265 22.8291 355.121C23.3149 355.98 23.6482 357.066 23.8926 358.266C24.1563 356.742 24.5166 355.38 24.9844 354.191L24.9883 354.182C25.5665 352.735 26.3616 351.463 27.4883 350.607C28.6793 349.703 30.0801 349.387 31.542 349.614C34.4653 350.069 36.2839 352.377 37.3311 355.358C38.0333 357.358 38.4743 359.867 38.6895 362.846C38.9136 358.851 39.6211 355.51 40.9072 352.919L40.9131 352.907C41.728 351.292 42.8113 349.965 44.2373 349.116C45.6879 348.253 47.322 347.987 49.0303 348.215C52.476 348.674 54.9168 350.914 56.415 354.324C57.8724 357.641 58.5234 362.208 58.5234 367.854V393.131L59.3955 393.228V366.312C59.3955 360.527 60.4192 355.778 62.7197 352.313L62.7246 352.308L62.7285 352.302C63.9093 350.552 65.4131 349.226 67.251 348.422C69.0806 347.622 71.1179 347.392 73.292 347.634C77.6176 348.114 80.9579 350.276 83.1309 354.022C85.2361 357.653 86.1767 362.643 86.1768 368.771V396.202L88.1113 396.417L89.5869 396.548V366.564C89.587 360.147 90.9267 354.897 93.8857 351.089L93.8906 351.083L93.8955 351.076C96.9811 347.168 101.455 345.583 106.907 346.067C112.214 346.539 116.398 348.762 119.184 352.834C121.906 356.812 123.134 362.325 123.134 369.113V398.953L124.055 399.015V364.475C124.055 357.152 125.743 351.189 129.397 346.868L129.407 346.856C133.164 342.483 138.561 340.671 145.203 341.113C151.674 341.545 156.788 343.922 160.228 348.438C163.612 352.882 165.158 359.118 165.158 366.858V401.756L169.108 402.019L169.517 402.036V364.959C169.517 357.155 171.319 350.795 175.186 346.143L175.195 346.131C179.159 341.435 184.864 339.38 191.938 339.694C198.825 340 204.271 342.407 207.935 347.13C211.54 351.778 213.189 358.379 213.189 366.626V403.978L218.304 404.205L220.215 404.29V404.411H222.214V365.232C222.214 357.037 224.11 350.315 228.134 345.3L228.139 345.294L228.143 345.289C232.253 340.241 238.186 337.822 245.61 337.822C252.832 337.822 258.568 340.089 262.434 344.896C266.232 349.62 267.964 356.48 267.964 365.132V404.411H275.356V412.128H252.048V404.411H259.44V365.734C259.44 358.739 258.219 353.848 256.077 350.753C254.028 347.792 250.974 346.241 246.567 346.241C241.761 346.241 238.462 347.892 236.293 351.009C234.001 354.303 232.737 359.038 232.737 365.434V404.411H240.131V412.128H214.821V411.589L199.777 410.921L197.866 410.836V403.297L199.954 403.39L204.892 403.608V367.009C204.892 360.37 203.734 355.67 201.697 352.633C199.74 349.715 196.83 348.119 192.669 347.935C188.124 347.733 185.065 349.153 183.06 351.948C180.916 354.937 179.715 359.347 179.715 365.425V402.49L184.83 402.718L186.741 402.803V410.341L184.652 410.248L164.402 409.349L162.491 409.264V408.896L152.436 408.227L150.568 408.103V400.783L152.702 400.925L157.139 401.221V367.128C157.139 360.925 156.059 356.52 154.165 353.65C152.346 350.894 149.645 349.354 145.788 349.097C141.7 348.824 138.95 349.996 137.121 352.352L136.947 352.583C134.974 355.294 133.852 359.359 133.852 365.04V399.668L138.556 399.982L140.422 400.106V407.425L138.289 407.283L128.366 406.621V406.915L126.189 406.721L112.524 405.507L110.701 405.345V398.426L112.878 398.619L115.934 398.89V369.299C115.934 363.859 115.072 360.001 113.582 357.493C112.165 355.108 110.117 353.821 107.229 353.564C104.059 353.283 102.013 354.268 100.637 356.328C99.1007 358.628 98.2041 362.146 98.2041 367.133V397.313L101.613 397.617L103.437 397.779V404.698L101.259 404.505L86.1777 403.164L84.3545 403.002V402.655L77.4541 401.89L75.6748 401.692V395.037L77.8955 395.284L79.709 395.484V368.925C79.709 363.978 79.0404 360.465 77.8936 358.188C76.8075 356.031 75.3263 355.013 73.373 354.796C72.2207 354.668 71.3531 354.831 70.6807 355.168C70.0112 355.504 69.3822 356.088 68.8291 357.058C67.6539 359.118 66.9551 362.308 66.9551 366.85V394.067L69.2109 394.318L70.9902 394.516V401.172L68.7695 400.925L57.1406 399.633L55.3623 399.436V399.268L51.7178 398.782L49.9814 398.551V392.074L52.2461 392.376L52.7998 392.449V368.021C52.7998 363.4 52.3292 360.096 51.5137 357.957C50.7141 355.86 49.7547 355.249 48.8662 355.131C48.274 355.052 47.8952 355.167 47.5947 355.371C47.2538 355.603 46.8303 356.079 46.4277 357.021C45.5891 358.986 45.0967 362.012 45.0967 366.262V391.423L46.1787 391.567L47.915 391.799V398.274L45.6504 397.973L37.5273 396.89L35.792 396.658V396.281L33.2539 395.887L31.5615 395.624V389.357L33.5996 389.675V367.734C33.5996 363.522 33.258 360.497 32.6611 358.537C32.0358 356.484 31.3658 356.272 31.1904 356.245V356.244C31.074 356.226 31.0211 356.239 31.0059 356.243C30.9928 356.247 30.9534 356.259 30.8828 356.32C30.7131 356.467 30.4093 356.86 30.1064 357.755C29.4908 359.574 29.1338 362.359 29.1338 366.237V388.979L29.4795 389.034L31.1719 389.298V395.562L28.8643 395.204L22.9883 394.29L21.2959 394.027V393.409L20.8975 393.339V393.34L18.6758 392.944C19.2825 393.487 20.0641 394.062 21.0625 394.663C24.2486 396.58 29.1427 398.46 35.8613 400.259C49.2681 403.847 69.4275 406.98 96.4121 409.636C150.606 414.868 217.798 417.487 298 417.487C376.46 417.487 441.968 415.03 494.538 410.119L499.585 409.636C526.571 406.98 546.732 403.848 560.14 400.259C566.457 398.568 571.16 396.804 574.348 395.006L572.226 395.384V395.383L571.827 395.453V396.069L570.135 396.333L564.259 397.247L561.951 397.606V391.34L563.644 391.077L563.989 391.022V368.28C563.989 364.403 563.632 361.618 563.017 359.799C562.714 358.904 562.41 358.511 562.24 358.364C562.169 358.303 562.13 358.291 562.117 358.287C562.11 358.285 562.093 358.281 562.063 358.279L561.932 358.288C561.756 358.315 561.087 358.528 560.462 360.58C559.865 362.54 559.523 365.565 559.523 369.776V391.718L561.562 391.401V397.667L559.869 397.93L557.331 398.324V398.701L555.595 398.933L547.472 400.016L545.208 400.317V393.841L546.944 393.61L548.026 393.466V368.305C548.026 364.055 547.534 361.03 546.695 359.065C546.293 358.122 545.869 357.646 545.528 357.414C545.228 357.21 544.849 357.095 544.257 357.174C543.368 357.292 542.408 357.903 541.608 360C540.793 362.139 540.322 365.443 540.322 370.063V394.492L540.877 394.419L543.141 394.117V400.594L541.405 400.824L537.761 401.31V401.479L535.981 401.676L524.354 402.968L522.133 403.215V396.56L523.912 396.361L526.167 396.111V368.893C526.167 364.351 525.469 361.161 524.294 359.101C523.741 358.131 523.111 357.547 522.441 357.211C521.769 356.874 520.902 356.71 519.75 356.838C517.797 357.055 516.315 358.073 515.229 360.23C514.082 362.508 513.414 366.022 513.414 370.968V397.527L515.227 397.326L517.447 397.079V403.735L515.668 403.933L508.769 404.699V405.046L506.945 405.208L491.863 406.549L489.687 406.742V399.823L491.51 399.661L494.919 399.357V369.176C494.919 364.189 494.022 360.671 492.486 358.371C491.111 356.311 489.064 355.327 485.894 355.608C483.006 355.865 480.958 357.152 479.541 359.537C478.052 362.045 477.189 365.903 477.189 371.343V400.933L480.244 400.662L482.422 400.469V407.387L480.599 407.549L466.934 408.765L464.756 408.958V402.039L466.579 401.877L469.988 401.573V371.156C469.988 364.369 471.217 358.856 473.938 354.878C476.724 350.806 480.909 348.583 486.216 348.111C491.498 347.642 495.862 349.115 498.935 352.761L499.228 353.12L499.237 353.132C502.196 356.94 503.536 362.191 503.536 368.608V398.591L505.04 398.457L506.945 398.246V370.815C506.945 364.687 507.887 359.697 509.992 356.066C512.165 352.32 515.505 350.157 519.83 349.677C522.004 349.435 524.041 349.666 525.871 350.466C527.594 351.219 529.024 352.431 530.169 354.021L530.395 354.344L530.398 354.351L530.402 354.356C532.703 357.821 533.727 362.57 533.727 368.355V395.271L534.599 395.175V369.897C534.599 364.252 535.25 359.684 536.707 356.367C538.205 352.957 540.647 350.718 544.093 350.259C545.801 350.031 547.435 350.296 548.886 351.159C550.223 351.955 551.258 353.171 552.054 354.651L552.21 354.951L552.216 354.962C553.502 357.553 554.21 360.896 554.434 364.893C554.649 361.913 555.089 359.402 555.792 357.401C556.839 354.42 558.658 352.112 561.581 351.657C563.043 351.43 564.444 351.746 565.635 352.65C566.62 353.399 567.352 354.466 567.907 355.69L568.135 356.225L568.139 356.234C568.606 357.424 568.966 358.786 569.229 360.31C569.474 359.11 569.807 358.024 570.293 357.165C570.777 356.309 571.59 355.387 572.875 355.158C574.365 354.894 575.468 355.721 576.099 356.632C576.677 357.467 577.045 358.581 577.307 359.768L577.309 359.774C577.842 362.228 578.087 365.544 578.087 369.646V388.373L579.075 388.198V390.51C579.153 390.252 579.191 390.008 579.197 389.779L579.25 387.833H579.403V356.318H579.238L579.197 354.359C579.152 352.193 577.906 349.855 574.735 347.371C571.561 344.884 566.692 342.448 559.998 340.114C546.629 335.454 526.502 331.378 499.525 327.921V327.92C446.147 321.109 378.979 317.699 298 317.699ZM306.495 343.621C313.661 343.621 319.38 345.677 323.264 350.108C327.103 354.489 328.848 360.854 328.848 368.843V404.718H336.241V404.948H338.279V371.626C338.279 364.123 340.064 358.124 343.984 354.005C347.923 349.867 353.687 347.97 360.893 347.97C368.07 347.97 373.893 349.871 378.057 353.939L378.454 354.34L378.46 354.345L378.465 354.351C382.603 358.708 384.563 364.579 384.563 371.713V404.948H392.953V371.626C392.953 364.19 394.445 358.243 397.768 354.128C401.156 349.931 406.173 347.97 412.436 347.97C418.675 347.97 423.734 349.934 427.313 354.056L427.655 354.462L427.66 354.468L427.665 354.473C431.176 358.831 432.814 364.656 432.814 371.713V404.948H439.165V412.128H416.86V404.948H423.211V371.884C423.211 366.446 422.132 362.462 420.209 359.709C418.409 357.133 415.67 355.751 411.613 355.751C407.903 355.751 405.372 357.045 403.674 359.49C401.884 362.067 400.837 366.182 400.837 372.143V404.948H407.188V412.128H366.469V404.948H373.957V371.884C373.957 366.507 372.705 362.574 370.449 359.835C368.294 357.219 364.922 355.751 359.924 355.751C355.328 355.751 352.206 357.134 350.173 359.616C348.078 362.174 346.86 366.235 346.86 372.143V404.948H354.348V412.128H312.933V404.718H320.325V369.396C320.325 363.017 319.112 358.598 317.01 355.811C314.988 353.13 311.926 351.676 307.452 351.676C302.579 351.676 299.271 353.22 297.129 356.044C294.872 359.02 293.622 363.3 293.622 369.12V404.718H301.016V412.128H275.705V404.718H283.099V368.936C283.099 361.354 285.013 355.12 289.072 350.479L289.077 350.473L289.082 350.468C293.21 345.816 299.127 343.621 306.495 343.621ZM573.171 367.248C573.129 368.302 573.107 369.481 573.107 370.789V389.257L573.215 389.237V369.905C573.215 368.95 573.198 368.064 573.171 367.248ZM19.9512 365.212C19.9238 366.026 19.9082 366.908 19.9082 367.861V387.195L20.0146 387.214V368.745C20.0146 367.441 19.9924 366.264 19.9512 365.212ZM345.125 367.592C345.157 367.339 345.191 367.09 345.229 366.845C345.253 366.683 345.279 366.523 345.306 366.364L345.305 366.363C345.237 366.763 345.177 367.173 345.125 367.592ZM54.7773 366.309C54.7685 365.976 54.7563 365.651 54.7422 365.331C54.7564 365.651 54.7685 365.976 54.7773 366.309ZM54.7266 365.017C54.7169 364.824 54.706 364.635 54.6943 364.447C54.706 364.635 54.7169 364.824 54.7266 365.017ZM345.802 364.096C345.723 364.383 345.65 364.677 345.581 364.977L345.688 364.532C345.724 364.386 345.763 364.24 345.802 364.097V364.096ZM224.3 362.348C224.278 362.699 224.261 363.054 224.247 363.412C224.261 363.054 224.278 362.699 224.3 362.349V362.348ZM54.6719 364.107C54.656 363.879 54.639 363.655 54.6201 363.434C54.639 363.655 54.656 363.879 54.6719 364.107ZM27.1973 363.531C27.1919 363.642 27.1863 363.753 27.1816 363.865C27.1864 363.753 27.1918 363.642 27.1973 363.531ZM265.903 362.465C265.92 362.831 265.935 363.201 265.944 363.575C265.935 363.201 265.92 362.831 265.903 362.465ZM54.2461 360.503C54.3199 360.917 54.3863 361.349 54.4453 361.798C54.4748 362.022 54.5025 362.251 54.5283 362.484C54.5591 362.762 54.5868 363.047 54.6123 363.337C54.5225 362.315 54.4009 361.37 54.2461 360.502V360.503ZM346.443 362.152C346.421 362.21 346.399 362.267 346.377 362.325C346.399 362.267 346.421 362.21 346.443 362.152ZM500.99 362.265H500.991C500.961 362.105 500.929 361.947 500.896 361.79H500.896C500.928 361.947 500.96 362.105 500.99 362.265ZM41.2705 358.173C41.1236 358.895 41.0013 359.658 40.9033 360.464C41.0013 359.659 41.1236 358.895 41.2705 358.174V358.173ZM265.888 362.129C265.887 362.108 265.886 362.088 265.885 362.067C265.878 361.942 265.87 361.818 265.862 361.694C265.871 361.838 265.88 361.983 265.888 362.129ZM265.85 361.502C265.841 361.372 265.833 361.242 265.823 361.113C265.833 361.242 265.841 361.372 265.85 361.502ZM265.8 360.8C265.795 360.736 265.79 360.672 265.785 360.608C265.782 360.567 265.777 360.526 265.773 360.485C265.782 360.59 265.791 360.695 265.8 360.8ZM53.8701 358.781C53.9635 359.136 54.0505 359.507 54.1299 359.895L54.0029 359.312C53.9607 359.131 53.9157 358.954 53.8701 358.781ZM265.688 359.593C265.681 359.533 265.675 359.473 265.668 359.413C265.675 359.473 265.681 359.533 265.688 359.593ZM158.438 359.284C158.435 359.27 158.433 359.255 158.43 359.24C158.433 359.255 158.435 359.27 158.438 359.284ZM53.8457 358.69C53.8075 358.548 53.7681 358.409 53.7275 358.272C53.768 358.409 53.8075 358.548 53.8457 358.69ZM158.264 358.49C158.259 358.468 158.253 358.447 158.248 358.425C158.253 358.447 158.259 358.468 158.264 358.49ZM158.096 357.821C158.08 357.764 158.066 357.706 158.051 357.649C158.066 357.706 158.08 357.764 158.096 357.821ZM548.137 357.468V357.467C548.072 357.352 548.005 357.241 547.937 357.135C548.005 357.242 548.072 357.352 548.137 357.468ZM66.5908 357.054C66.5689 357.102 66.5498 357.153 66.5283 357.202C66.5544 357.142 66.5787 357.082 66.6055 357.022L66.5908 357.054ZM547.885 357.057C547.827 356.969 547.769 356.885 547.709 356.804C547.769 356.885 547.827 356.969 547.885 357.057ZM426.872 356.753C426.83 356.692 426.787 356.631 426.744 356.57C426.787 356.631 426.83 356.692 426.872 356.753ZM524.824 356.503C524.88 356.559 524.936 356.616 524.99 356.675V356.674C524.856 356.529 524.716 356.394 524.573 356.267C524.658 356.343 524.742 356.421 524.824 356.503ZM561.128 356.439C561.087 356.454 561.048 356.473 561.008 356.49C561.066 356.466 561.125 356.443 561.185 356.422L561.128 356.439ZM561.896 356.283L562.158 356.282C562.244 356.286 562.329 356.294 562.412 356.308C562.246 356.281 562.074 356.273 561.896 356.283ZM524.546 356.242C524.465 356.171 524.383 356.101 524.299 356.035C524.383 356.101 524.465 356.171 524.546 356.242ZM426.107 355.728C426.225 355.874 426.34 356.023 426.453 356.173C426.434 356.148 426.417 356.122 426.397 356.097C426.302 355.972 426.205 355.849 426.107 355.728ZM295.062 355.496C294.932 355.688 294.806 355.883 294.684 356.082C294.808 355.879 294.937 355.68 295.069 355.485L295.062 355.496ZM351.66 355.73V355.731V355.73ZM33.3096 355.371C33.2909 355.348 33.2718 355.327 33.2529 355.305C33.2718 355.327 33.2909 355.349 33.3096 355.371ZM264.691 354.06C264.744 354.257 264.796 354.457 264.846 354.658C264.796 354.456 264.744 354.256 264.691 354.059V354.06ZM33.1299 355.168C33.109 355.146 33.0885 355.124 33.0674 355.103C33.0885 355.124 33.109 355.146 33.1299 355.168ZM32.8916 354.937C32.9006 354.944 32.909 354.953 32.918 354.961C32.84 354.891 32.7611 354.825 32.6797 354.766L32.8916 354.937ZM31.2266 354.239H31.2275H31.2266ZM407.934 354.199L407.933 354.2C408.045 354.17 408.158 354.142 408.272 354.115L408.273 354.114C408.159 354.141 408.046 354.169 407.934 354.199ZM296.213 354.019C296.174 354.062 296.134 354.106 296.096 354.15C296.134 354.106 296.174 354.062 296.213 354.019ZM581.187 354.037L581.166 353.758C581.163 353.728 581.159 353.698 581.156 353.668C581.169 353.791 581.18 353.914 581.187 354.037ZM296.562 353.645C296.519 353.689 296.477 353.734 296.435 353.779C296.477 353.734 296.519 353.689 296.562 353.645ZM487.737 353.591C487.951 353.606 488.16 353.628 488.366 353.655H488.367C488.161 353.628 487.952 353.606 487.738 353.591H487.737ZM47.376 353.275C47.2692 353.309 47.1642 353.348 47.0615 353.392H47.0625C47.1652 353.348 47.2702 353.309 47.377 353.275H47.376ZM297 353.22C296.957 353.26 296.912 353.298 296.869 353.339C296.912 353.298 296.957 353.26 297 353.22ZM48.7559 353.113C48.8787 353.12 49.004 353.132 49.1309 353.148C49.0035 353.131 48.8782 353.119 48.7549 353.112C48.6935 353.109 48.6326 353.107 48.5723 353.106C48.633 353.107 48.6941 353.11 48.7559 353.113ZM297.371 352.889C297.324 352.929 297.277 352.97 297.23 353.011C297.277 352.97 297.324 352.929 297.371 352.889ZM79.8389 352.893L79.6191 352.662C79.5886 352.631 79.5572 352.601 79.5264 352.57C79.6322 352.675 79.7367 352.782 79.8389 352.893ZM297.81 352.533C297.739 352.588 297.669 352.643 297.6 352.699C297.669 352.643 297.739 352.588 297.81 352.533ZM79.1641 352.228C79.2677 352.321 79.3693 352.417 79.4697 352.515C79.4445 352.49 79.42 352.465 79.3945 352.44C79.3186 352.368 79.2418 352.296 79.1641 352.227V352.228ZM298.228 352.223C298.184 352.253 298.141 352.284 298.099 352.315C298.141 352.284 298.184 352.253 298.228 352.223ZM298.632 351.949C298.598 351.971 298.565 351.993 298.531 352.016C298.565 351.993 298.598 351.971 298.632 351.949ZM518.846 351.855C519.018 351.82 519.192 351.787 519.368 351.758L519.373 351.757C519.195 351.786 519.019 351.82 518.846 351.855ZM180.984 351.447C180.943 351.513 180.903 351.58 180.862 351.646C180.905 351.577 180.947 351.506 180.991 351.438L180.984 351.447ZM97.042 350.67C96.9749 350.727 96.9097 350.787 96.8438 350.846C96.9232 350.775 97.0032 350.705 97.084 350.636L97.042 350.67ZM111.625 349.19C111.747 349.24 111.868 349.29 111.987 349.343C111.748 349.238 111.504 349.139 111.256 349.046L111.625 349.19ZM110.781 348.879C110.613 348.823 110.443 348.769 110.271 348.718C110.443 348.769 110.613 348.823 110.781 348.879ZM109.103 348.418C109.48 348.5 109.849 348.594 110.209 348.699C110.175 348.689 110.14 348.679 110.105 348.669C109.974 348.632 109.842 348.595 109.708 348.561C109.514 348.511 109.318 348.464 109.119 348.421L109.103 348.418ZM185.098 347.481C185.001 347.535 184.907 347.59 184.812 347.646C185.015 347.526 185.221 347.412 185.433 347.304L185.098 347.481ZM132.21 346.841C132.097 346.943 131.986 347.047 131.876 347.152L132.211 346.841C132.324 346.739 132.438 346.64 132.554 346.542L132.21 346.841ZM581.403 341.594C581.199 341.49 580.992 341.386 580.782 341.282L580.776 341.279L581.403 341.594ZM298 234.648C217.856 234.648 150.765 241.166 96.6885 254.166C69.7671 260.763 49.7383 268.526 36.4531 277.38C23.184 286.223 16.918 295.95 16.8037 306.504L16.7822 308.481H16.5977V338.427C30.634 332.148 54.4157 326.895 87.7031 322.575L87.708 322.574C144.46 315.341 214.564 311.73 298 311.729C381.436 311.729 451.541 315.341 508.293 322.574L508.298 322.575L511.613 323.013C543.169 327.248 565.838 332.359 579.403 338.427V308.481H579.219L579.197 306.504C579.139 301.125 577.482 295.961 574.114 291.019C575.085 293.659 575.532 296.823 575.532 300.441V319.566L576.187 319.684L577.837 319.978V325.917L575.486 325.499L568.847 324.318L567.196 324.025V318.085L569.5 318.494V300.182C569.5 296.968 569.106 294.554 568.423 292.842C567.779 291.228 566.995 290.708 566.218 290.569C565.842 290.502 565.673 290.571 565.573 290.631C565.44 290.711 565.185 290.934 564.907 291.535C564.325 292.796 563.933 295.077 563.933 298.633V317.505L564.586 317.621L566.236 317.914V323.855L563.887 323.438L557.869 322.367L556.22 322.074V321.994L551.357 321.239L549.664 320.976V314.731L551.972 315.09L553.021 315.252V293.362C553.021 289.619 552.451 286.795 551.45 284.767V284.766C550.523 282.887 549.238 281.958 547.526 281.691C546.708 281.564 546.141 281.666 545.731 281.859C545.324 282.052 544.9 282.415 544.499 283.107C543.646 284.579 543.079 287.227 543.079 291.372V313.706L544.744 313.965L546.437 314.228V320.474L544.129 320.114L541.596 319.72V319.735L539.331 319.434L527.174 317.812L525.438 317.58V311.17L527.702 311.472L529.656 311.731V287.825C529.656 283.8 528.946 280.763 527.688 278.571C526.519 276.533 524.806 275.384 522.36 275.058C521.207 274.904 520.334 275.02 519.666 275.291C519.013 275.557 518.429 276.02 517.92 276.777C516.844 278.375 516.14 281.221 516.14 285.682V309.93L518.622 310.261L520.357 310.492V316.903L518.093 316.602L511.168 315.678H511.167L497.455 314.154L495.676 313.957V307.404L497.896 307.651L500.664 307.958V282.311C500.664 278.042 499.828 274.828 498.339 272.504C496.943 270.326 494.837 269.035 491.763 268.693C488.958 268.382 487.22 269.16 486.062 270.718C484.775 272.451 483.947 275.487 483.947 280.215V306.101L487.157 306.458L488.937 306.655V313.208L486.716 312.961L479.262 312.133V312.258L477.085 312.064L459.401 310.493L457.578 310.331V303.442L459.755 303.636L463.713 303.987V274.489C463.713 269.63 462.686 265.965 460.827 263.311C459.062 260.79 456.354 259.279 452.399 258.928C448.765 258.605 446.417 259.584 444.885 261.512C443.244 263.575 442.234 267.09 442.234 272.457V302.077L446.546 302.461L448.369 302.623V309.512L446.192 309.318L431.449 308.007L412.584 307.17L410.673 307.085V300.093L412.762 300.186L417.489 300.396V269.535C417.489 264.492 416.351 260.744 414.296 258.077C412.337 255.535 409.294 254.043 404.804 253.844C400.672 253.66 397.93 254.816 396.15 256.979C394.29 259.241 393.177 262.96 393.177 268.519V299.314L398.083 299.533L399.994 299.617V306.61L397.905 306.518L380.1 305.726L378.188 305.641V305.583H357.32V298.364H364.713V264.878C364.713 259.423 363.473 255.429 361.24 252.65C359.113 250.003 355.797 248.527 350.884 248.527C346.368 248.527 343.298 249.918 341.291 252.429C339.216 255.026 338.01 259.149 338.01 265.14V298.364H345.403V305.583H322.094V304.858H306.12V298.636H314.177V276.134C314.177 272.717 312.985 270.22 310.673 268.396C308.34 266.557 304.543 265.462 298.926 265.462C293.734 265.462 290.21 266.5 288.013 268.242C285.904 269.914 284.718 272.477 284.718 276.313V298.636H292.774V304.858H267.732V304.713H252.279V297.494H259.673V264.27C259.673 258.279 258.467 254.155 256.392 251.559C254.385 249.047 251.314 247.657 246.799 247.657C241.886 247.657 238.57 249.133 236.442 251.78C234.21 254.559 232.969 258.554 232.969 264.009V297.494H240.362V304.713H219.494V304.771L217.583 304.855L199.777 305.647L197.688 305.74V298.748L199.6 298.663L204.506 298.444V267.648C204.506 262.09 203.392 258.37 201.532 256.109C199.752 253.946 197.01 252.79 192.879 252.974C188.389 253.173 185.345 254.665 183.386 257.207C181.33 259.874 180.192 263.622 180.192 268.665V299.525L184.921 299.315L187.01 299.223V306.215L185.099 306.3L166.231 307.137L151.49 308.448L149.313 308.643V301.753L151.136 301.591L155.448 301.207V271.587C155.448 266.221 154.438 262.706 152.798 260.643C151.265 258.715 148.918 257.735 145.283 258.058C141.329 258.409 138.621 259.92 136.855 262.44C134.997 265.094 133.97 268.76 133.97 273.619V303.117L137.928 302.766L140.104 302.572V309.461L138.281 309.623L120.598 311.195L118.421 311.389V311.263L110.967 312.092L108.746 312.338V305.785L110.525 305.588L113.735 305.23V279.345C113.735 274.617 112.908 271.581 111.62 269.848C110.463 268.29 108.724 267.512 105.92 267.823C102.846 268.165 100.74 269.456 99.3438 271.634C97.8544 273.958 97.0186 277.173 97.0186 281.441V307.088L99.7861 306.781L102.007 306.534V313.087L100.228 313.285L86.4697 314.813L79.5898 315.731L77.3252 316.033V309.622L79.0605 309.391L81.543 309.06V284.812C81.5429 280.352 80.838 277.506 79.7627 275.908C79.2532 275.151 78.67 274.687 78.0166 274.422C77.3483 274.15 76.4754 274.034 75.3223 274.188C72.8769 274.514 71.1636 275.663 69.9941 277.702C68.7369 279.894 68.0264 282.93 68.0264 286.955V310.862L69.9805 310.603L72.2441 310.301V316.71L70.5088 316.941L58.3506 318.563L56.0869 318.865V318.85L53.5537 319.244L51.2461 319.604V313.357L52.9385 313.095L54.6035 312.836V290.502C54.6035 286.357 54.0363 283.709 53.1836 282.237C52.7824 281.545 52.3577 281.181 51.9502 280.989C51.5403 280.796 50.9748 280.695 50.1562 280.822V280.821C48.4438 281.088 47.159 282.017 46.2314 283.896C45.2306 285.925 44.6611 288.749 44.6611 292.492V314.382L45.7109 314.22L48.0186 313.861V320.105L46.3252 320.369L41.4629 321.125V321.204L39.8135 321.497L33.7959 322.567L31.4453 322.985V317.044L33.0957 316.751L33.75 316.635V297.763C33.75 294.207 33.358 291.926 32.7754 290.665C32.4978 290.064 32.2429 289.841 32.1094 289.761C32.0099 289.701 31.8409 289.632 31.4648 289.699C30.687 289.838 29.9036 290.358 29.2598 291.973C28.5768 293.685 28.1817 296.098 28.1816 299.312V317.625L30.4863 317.216V323.155L28.8359 323.448L22.1963 324.629L19.8457 325.047V319.107L21.4961 318.814L22.1494 318.697V299.571C22.1495 295.414 22.7396 291.855 24.0371 289.003L24.041 288.994C25.3809 286.089 27.5007 284.108 30.4668 283.581C31.8521 283.335 33.2261 283.445 34.4775 284.063C35.7233 284.679 36.6543 285.703 37.3301 286.945C37.5694 287.385 37.7814 287.863 37.9697 288.377C38.356 285.364 39.1645 282.699 40.4443 280.423L40.4502 280.412C42.394 277.002 45.3138 274.914 49.1074 274.324C50.9046 274.045 52.6201 274.142 54.1758 274.739C55.7489 275.344 57.0225 276.409 57.9971 277.835C59.2508 279.67 60.009 282.105 60.3789 285.027C60.657 280.694 61.7469 276.944 63.7559 273.871L63.7627 273.86C66.1874 270.201 69.7452 268.072 74.2471 267.472C78.6101 266.89 82.2993 267.959 84.7871 271.094C87.1443 274.064 88.123 278.537 88.123 284.083V308.076L88.6172 308.021V281.794C88.6172 276.116 89.9215 271.293 92.7002 267.491L92.708 267.48C95.5519 263.643 99.6717 261.486 104.833 260.912C109.828 260.357 114.004 261.482 116.858 264.744C119.617 267.897 120.786 272.664 120.786 278.595V304.289L124.557 303.954V273.944C124.557 267.502 126.159 262.075 129.541 257.847L129.55 257.837C132.99 253.594 137.94 251.278 144.135 250.728C150.135 250.194 155.063 251.507 158.44 255.12C161.756 258.667 163.202 264.041 163.202 270.788V300.519L163.359 300.504V300.273L165.271 300.188L170.177 299.97V268.771C170.177 262.056 171.965 256.461 175.731 252.2L175.736 252.194L175.741 252.189C179.56 247.93 185.02 245.765 191.819 245.463C198.418 245.17 203.763 246.728 207.426 250.537C211.057 254.313 212.677 259.934 212.677 266.979V298.081L215.054 297.976V297.494H222.446V263.835C222.446 256.632 224.377 250.703 228.459 246.298L228.464 246.293L228.469 246.287C232.606 241.888 238.51 239.83 245.843 239.83C252.975 239.83 258.681 241.757 262.573 245.948C266.439 250.112 268.195 256.169 268.195 263.748V297.494H275.589V298.636H275.789V275.953C275.789 270.346 277.888 265.898 282.207 262.951C286.389 260.098 292.411 258.82 299.969 258.82C307.494 258.82 313.588 260.101 318.009 262.908L318.432 263.186L318.443 263.192C322.955 266.278 325.285 270.613 325.285 276.014V298.364H329.487V264.618C329.487 257.039 331.243 250.982 335.109 246.818C339.002 242.627 344.708 240.7 351.84 240.7C358.944 240.7 364.706 242.631 368.82 246.752L369.214 247.157L369.219 247.163L369.224 247.168C373.305 251.573 375.236 257.502 375.236 264.705V298.364H382.63V298.845L385.006 298.95V267.849C385.006 260.803 386.626 255.183 390.257 251.407C393.92 247.598 399.264 246.04 405.863 246.333C412.45 246.626 417.779 248.667 421.578 252.666L421.941 253.06L421.951 253.069C425.718 257.33 427.506 262.926 427.506 269.641V300.84L432.412 301.059L434.323 301.144V301.374L434.48 301.389V271.658C434.48 264.911 435.927 259.537 439.242 255.99C442.62 252.377 447.547 251.064 453.548 251.598C459.549 252.131 464.381 254.321 467.806 258.314L468.133 258.706L468.142 258.717H468.141C471.523 262.945 473.126 268.372 473.126 274.814V304.823L476.896 305.158V279.465C476.897 273.534 478.065 268.768 480.824 265.614C483.678 262.353 487.855 261.227 492.85 261.782C498.011 262.356 502.131 264.513 504.975 268.351L504.982 268.361C507.761 272.163 509.064 276.985 509.064 282.663V308.892L509.56 308.946V284.952C509.56 279.406 510.538 274.933 512.896 271.963C515.383 268.829 519.072 267.759 523.435 268.341H523.436C527.937 268.941 531.494 271.071 533.919 274.73L533.926 274.741C535.935 277.814 537.024 281.563 537.303 285.896C537.673 282.974 538.432 280.539 539.686 278.704C540.66 277.278 541.934 276.214 543.507 275.609C545.062 275.012 546.778 274.915 548.575 275.194C552.369 275.785 555.289 277.872 557.232 281.282L557.238 281.292C558.518 283.567 559.325 286.232 559.712 289.244C559.9 288.731 560.114 288.255 560.353 287.815C561.028 286.573 561.959 285.549 563.205 284.934C564.457 284.315 565.831 284.205 567.216 284.451C567.871 284.568 568.485 284.754 569.058 285.007C566.423 282.396 563.259 279.854 559.548 277.38C546.261 268.525 526.229 260.761 499.304 254.164V254.163C446.02 241.166 378.933 234.648 298 234.648ZM506.335 326.808C505.005 326.625 503.658 326.442 502.293 326.263L502.273 326.261C503.645 326.441 504.999 326.624 506.335 326.808ZM220.997 316.872C220.398 316.891 219.799 316.911 219.201 316.931C219.799 316.911 220.398 316.891 220.997 316.872ZM226.578 316.698C226.141 316.711 225.704 316.725 225.268 316.738C225.992 316.716 226.717 316.695 227.443 316.674L226.578 316.698ZM313.479 313.772C316.032 313.787 318.572 313.803 321.1 313.824C316.045 313.782 310.938 313.754 305.778 313.74L313.479 313.772ZM581.187 305.945L581.166 305.41C581.16 305.282 581.151 305.154 581.144 305.025C581.162 305.331 581.178 305.638 581.187 305.945ZM24.2559 296.718H24.2568H24.2559ZM86.0234 281.259C86.0666 281.847 86.0967 282.457 86.1113 283.089L86.0781 282.13C86.0639 281.834 86.0444 281.544 86.0234 281.259ZM552.771 283.029V283.028C552.689 282.897 552.604 282.771 552.518 282.647C552.604 282.771 552.689 282.898 552.771 283.029ZM552.468 282.579C552.401 282.486 552.333 282.394 552.264 282.305C552.333 282.394 552.401 282.486 552.468 282.579ZM552.182 282.202C552.119 282.124 552.055 282.048 551.99 281.974C552.055 282.048 552.119 282.124 552.182 282.202ZM551.888 281.859C551.83 281.796 551.771 281.734 551.711 281.673C551.771 281.734 551.83 281.796 551.888 281.859ZM551.601 281.562C551.535 281.498 551.467 281.435 551.399 281.374C551.467 281.435 551.535 281.498 551.601 281.562ZM551.301 281.285C551.223 281.218 551.143 281.152 551.062 281.089C551.143 281.152 551.223 281.217 551.301 281.285ZM90.6621 280.064C90.65 280.297 90.6399 280.531 90.6328 280.768C90.64 280.531 90.6499 280.297 90.6621 280.064ZM549.534 280.188C549.666 280.244 549.796 280.302 549.923 280.365L549.534 280.188C549.402 280.132 549.268 280.081 549.131 280.034L549.534 280.188ZM545.888 279.723C545.424 279.812 544.995 279.97 544.599 280.196C544.894 280.028 545.207 279.898 545.539 279.806C545.653 279.774 545.77 279.747 545.889 279.724L545.888 279.723ZM90.6748 279.825C90.6717 279.876 90.6698 279.927 90.667 279.979C90.6751 279.833 90.6843 279.689 90.6943 279.545C90.6879 279.638 90.6804 279.731 90.6748 279.825ZM541.79 279.234C541.771 279.257 541.753 279.281 541.733 279.305C541.805 279.218 541.876 279.133 541.95 279.052L541.79 279.234ZM90.7705 278.652C90.7525 278.832 90.7355 279.013 90.7207 279.195C90.7356 279.013 90.7524 278.832 90.7705 278.652ZM50.667 278.768C50.4031 278.776 50.1301 278.802 49.8486 278.846C49.9892 278.824 50.1275 278.807 50.2637 278.794C50.4 278.781 50.5341 278.773 50.666 278.769L50.667 278.768ZM90.7939 278.41C90.7884 278.461 90.7846 278.512 90.7793 278.563C90.8019 278.346 90.8263 278.131 90.8535 277.917C90.8327 278.08 90.812 278.245 90.7939 278.41ZM67.7354 277.718C67.7068 277.779 67.6812 277.842 67.6533 277.904C67.6861 277.831 67.7172 277.758 67.751 277.686L67.7354 277.718ZM547.421 277.071C547.525 277.079 547.631 277.09 547.737 277.102C547.631 277.09 547.525 277.079 547.421 277.071ZM546.102 277.066C546.024 277.072 545.948 277.08 545.872 277.088C546.031 277.071 546.192 277.059 546.356 277.052L546.102 277.066ZM77.8857 272.291C77.8494 272.283 77.813 272.274 77.7764 272.267C77.813 272.274 77.8494 272.283 77.8857 272.291ZM504.702 271.693C504.492 271.29 504.268 270.896 504.029 270.516C503.959 270.404 503.888 270.294 503.815 270.185V270.186C504.135 270.669 504.43 271.172 504.702 271.693ZM298 218.747C217.856 218.747 150.765 225.265 96.6885 238.265C74.0805 243.805 56.3171 250.17 43.3262 257.325C34.9164 261.957 28.5963 266.872 24.2402 272.032C38.6901 262.606 59.8289 254.505 87.4785 247.646L87.4873 247.644C144.333 233.792 214.516 226.885 298 226.885C381.484 226.885 451.668 233.792 508.514 247.644L508.521 247.646C536.17 254.505 557.308 262.605 571.758 272.031C567.402 266.872 561.083 261.957 552.674 257.325C539.682 250.17 521.917 243.803 499.306 238.263C446.022 225.265 378.934 218.747 298 218.747ZM97.8271 270.301C97.7757 270.376 97.7258 270.454 97.6758 270.531C97.781 270.368 97.8892 270.209 98.001 270.054L97.8271 270.301ZM520.77 270.196C520.554 270.204 520.343 270.219 520.135 270.238C520.239 270.228 520.343 270.221 520.449 270.214C520.607 270.203 520.767 270.197 520.93 270.192C520.876 270.194 520.823 270.194 520.77 270.196ZM520.933 270.191C521.096 270.187 521.261 270.187 521.428 270.189C521.261 270.187 521.096 270.188 520.933 270.191ZM503.134 269.233L502.908 268.952L502.899 268.942C502.979 269.038 503.057 269.135 503.134 269.233ZM99.3633 268.516C99.2209 268.646 99.0824 268.781 98.9473 268.921L99.1533 268.715C99.2226 268.647 99.2922 268.581 99.3633 268.516ZM49.0303 268.065C48.7471 268.2 48.4662 268.336 48.1865 268.472C48.4662 268.336 48.7471 268.2 49.0303 268.065ZM50.2549 267.491C49.9973 267.611 49.7411 267.73 49.4863 267.851C49.7411 267.73 49.9973 267.611 50.2549 267.491ZM51.5176 266.912C51.233 267.041 50.9502 267.17 50.6689 267.3C50.9502 267.17 51.233 267.041 51.5176 266.912ZM54.2803 265.69C53.4326 266.055 52.5987 266.423 51.7783 266.793C52.5987 266.423 53.4326 266.055 54.2803 265.69ZM440.864 265.851C440.909 265.649 440.956 265.45 441.006 265.255C441.102 264.874 441.208 264.506 441.322 264.151C441.36 264.033 441.4 263.916 441.439 263.801C441.217 264.44 441.025 265.123 440.864 265.851ZM55.21 265.294C54.9898 265.387 54.7711 265.482 54.5527 265.575C54.8605 265.443 55.1701 265.312 55.4814 265.181L55.21 265.294ZM419.204 265.3L419.138 264.861C419.129 264.81 419.12 264.76 419.111 264.709C419.144 264.904 419.176 265.101 419.204 265.3ZM366.713 264.878C366.713 264.656 366.711 264.437 366.707 264.219C366.711 264.437 366.713 264.656 366.713 264.878ZM485.163 264.754C485.141 264.765 485.118 264.776 485.096 264.787C485.095 264.788 485.093 264.787 485.092 264.788C485.115 264.776 485.139 264.766 485.163 264.754ZM485.949 264.411C485.805 264.467 485.663 264.526 485.522 264.587C485.662 264.525 485.805 264.467 485.949 264.411ZM210.562 263.929C210.575 264.099 210.588 264.271 210.599 264.444C210.575 264.073 210.546 263.708 210.512 263.35L210.562 263.929ZM366.7 263.97C366.697 263.84 366.694 263.71 366.689 263.581C366.694 263.71 366.697 263.84 366.7 263.97ZM366.68 263.359C366.675 263.24 366.669 263.121 366.663 263.003C366.669 263.121 366.675 263.24 366.68 263.359ZM468.351 262.62C468.437 262.777 468.521 262.936 468.604 263.097C468.591 263.073 468.581 263.049 468.568 263.025C468.497 262.889 468.425 262.753 468.351 262.619V262.62ZM366.646 262.713C366.639 262.593 366.631 262.473 366.622 262.354C366.631 262.473 366.639 262.593 366.646 262.713ZM366.603 262.104C366.596 262.028 366.59 261.951 366.583 261.875C366.59 261.951 366.596 262.028 366.603 262.104ZM222.555 133.074C174.441 137.319 132.563 145.873 96.8965 158.718L96.8975 158.719C43.0673 178.191 17.0617 204.416 16.8008 236.918L16.7852 238.901H16.5977V261.758C24.8173 254.862 36.2645 248.617 50.873 242.989V236.721L52.2754 236.282L54.1895 235.682V213.104C54.1895 208.93 53.6207 206.421 52.8281 205.16C52.472 204.594 52.127 204.368 51.8232 204.271C51.4933 204.164 50.9597 204.13 50.1133 204.395C48.3381 204.95 46.9609 206.171 45.9912 208.311C44.9741 210.555 44.4141 213.502 44.4141 217.238V238.741L45.1328 238.517L47.7305 237.703V244.092L46.3281 244.531L41.2539 246.118V246.205L39.8896 246.662L33.9434 248.656L31.3076 249.54V243.444L32.6719 242.986L33.584 242.68V223.571C33.584 219.995 33.1916 217.808 32.6445 216.694C32.3913 216.179 32.1982 216.085 32.1807 216.077C32.1684 216.072 32.1403 216.06 32.0723 216.06C31.9964 216.059 31.8571 216.074 31.6416 216.146C30.7487 216.446 29.8787 217.22 29.2109 219.019C28.5187 220.883 28.1309 223.381 28.1309 226.59V244.51L30.4072 243.746V249.843L29.0439 250.301L22.4824 252.502L19.8457 253.386V247.29L21.21 246.832L22.1221 246.525V227.163C22.1221 222.999 22.7073 219.382 23.9658 216.386L23.9697 216.377C25.2532 213.361 27.2502 211.168 30.0742 210.221L30.3232 210.142C31.5721 209.763 32.8668 209.679 34.1035 210.105C35.4407 210.566 36.4333 211.527 37.1357 212.725C37.3491 213.088 37.5385 213.485 37.7109 213.909C38.0719 210.707 38.8768 207.831 40.165 205.312L40.1689 205.302C42.029 201.71 44.811 199.251 48.4902 198.1C50.2347 197.554 51.9445 197.374 53.5371 197.745C55.1711 198.126 56.513 199.05 57.5322 200.4C58.7514 202.017 59.4993 204.23 59.8867 206.91C60.1442 202.475 61.221 198.551 63.1885 195.199L63.1934 195.189C65.5155 191.282 68.9248 188.662 73.3271 187.383C77.5583 186.154 81.3609 186.581 83.9824 189.516C86.4087 192.232 87.3594 196.645 87.3594 202.148V225.771L87.8008 225.651V199.168C87.8008 193.485 89.0913 188.525 91.7764 184.39L91.7822 184.38C94.5102 180.23 98.4771 177.483 103.547 176.124C108.409 174.821 112.677 175.237 115.657 178.221C118.498 181.065 119.634 185.755 119.634 191.641V216.97L123.312 216.066V185.796C123.312 179.348 124.898 173.746 128.17 169.098L128.176 169.088C131.488 164.44 136.277 161.398 142.38 159.899C148.243 158.46 153.241 158.957 156.733 162.194C160.136 165.349 161.546 170.612 161.546 177.313V206.68L161.654 206.652V206.435L163.261 206.112L168.391 205.083V173.61C168.391 166.891 170.158 161.102 173.798 156.368L173.806 156.358C177.483 151.635 182.779 148.653 189.493 147.307C195.963 146.009 201.367 146.7 205.132 150.077C208.85 153.412 210.433 158.898 210.433 165.9V196.652L214.776 195.782L217.17 195.302V202.37L215.562 202.692L197.968 206.221L195.574 206.7V199.633L197.182 199.311L202.312 198.281V167.212C202.312 161.614 201.195 158.157 199.459 156.291C197.847 154.559 195.282 153.779 191.152 154.607C186.709 155.499 183.586 157.487 181.554 160.472C179.455 163.554 178.335 167.546 178.335 172.58V203.09L182.678 202.219L185.071 201.738V208.807L183.465 209.129L164.825 212.866L150.252 216.444L147.775 217.053V210.061L149.298 209.688L153.838 208.571V178.69C153.838 173.283 152.823 170.012 151.298 168.309C149.938 166.789 147.772 166.111 144.118 167.008C140.186 167.973 137.397 169.943 135.566 172.873C133.672 175.904 132.661 179.787 132.661 184.638V213.771L136.246 212.892L138.724 212.283V219.275L137.2 219.648L119.727 223.938L117.249 224.547V224.429L110.208 226.316L107.69 226.991V220.322L109.172 219.925L112.619 219V192.859C112.619 188.092 111.787 185.264 110.6 183.831C109.612 182.64 108.06 182.063 105.221 182.824C102.144 183.649 99.9491 185.318 98.4912 187.847C96.9712 190.483 96.1494 193.879 96.1494 198.14V223.414L98.5605 222.769L101.078 222.094V228.618C146.939 218.685 200.873 212.955 262.86 211.411L245.821 178.295C236.91 175.969 230.181 170.544 225.699 162.129C219.733 154.708 218.671 145.898 222.283 135.985L222.284 135.982L222.29 135.967L222.297 135.947L222.305 135.929L222.312 135.913C222.558 135.313 222.824 134.726 223.109 134.152L222.555 133.074ZM366.552 261.545C366.543 261.463 366.535 261.381 366.526 261.3C366.535 261.381 366.543 261.463 366.552 261.545ZM366.493 261.021C366.487 260.969 366.482 260.918 366.476 260.867L366.468 260.807C366.477 260.878 366.485 260.949 366.493 261.021ZM451.082 256.867C451.323 256.867 451.568 256.873 451.816 256.885C451.692 256.879 451.569 256.874 451.446 256.871L451.082 256.867ZM365.184 255.576C365.235 255.707 365.285 255.839 365.333 255.972L365.185 255.576C365.134 255.445 365.081 255.316 365.027 255.188L365.184 255.576ZM395.619 254.643C395.51 254.742 395.402 254.844 395.297 254.949C395.402 254.844 395.51 254.742 395.619 254.643ZM395.997 254.316C395.878 254.414 395.762 254.514 395.647 254.617C395.762 254.514 395.878 254.414 395.997 254.316ZM396.25 254.116C396.174 254.174 396.099 254.233 396.025 254.293C396.099 254.233 396.175 254.174 396.25 254.116ZM396.434 253.979C396.387 254.012 396.342 254.046 396.296 254.081C396.341 254.046 396.387 254.012 396.434 253.979ZM447.63 253.768C447.615 253.77 447.6 253.774 447.585 253.776C447.743 253.748 447.902 253.721 448.063 253.696L447.63 253.768ZM397.057 253.557C396.979 253.605 396.903 253.654 396.827 253.704C396.903 253.654 396.979 253.605 397.057 253.557ZM450.352 253.493C450.033 253.503 449.719 253.52 449.411 253.544H449.412C449.72 253.52 450.034 253.503 450.353 253.493H450.352ZM397.339 253.389C397.284 253.42 397.231 253.453 397.177 253.485C397.231 253.453 397.284 253.42 397.339 253.389ZM397.616 253.234C397.553 253.268 397.492 253.303 397.43 253.338C397.492 253.303 397.553 253.268 397.616 253.234ZM410.982 253.11C411.099 253.16 411.215 253.211 411.329 253.263V253.262C411.214 253.209 411.099 253.159 410.981 253.109L410.982 253.11ZM397.915 253.082C397.848 253.115 397.782 253.148 397.717 253.183C397.782 253.148 397.848 253.115 397.915 253.082ZM398.183 252.955C398.126 252.981 398.069 253.007 398.013 253.034C398.069 253.007 398.126 252.981 398.183 252.955ZM398.417 252.851C398.383 252.865 398.348 252.88 398.314 252.895C398.348 252.88 398.383 252.865 398.417 252.851ZM495.556 251.213C496.973 251.545 498.382 251.88 499.78 252.222L497.263 251.614C496.695 251.479 496.126 251.347 495.556 251.213ZM401.57 251.988C401.515 251.996 401.459 252.004 401.404 252.013C401.459 252.004 401.515 251.996 401.57 251.988ZM403.231 251.839C403.098 251.844 402.965 251.851 402.833 251.859L403.231 251.84C403.365 251.835 403.501 251.831 403.637 251.828L403.231 251.839ZM234.269 251.351C234.171 251.49 234.076 251.632 233.983 251.775C234.076 251.632 234.171 251.49 234.269 251.351ZM234.409 251.151C234.388 251.181 234.367 251.211 234.346 251.241C234.443 251.104 234.541 250.969 234.643 250.836L234.409 251.151ZM44.0869 247.923C43.2781 248.274 42.4812 248.628 41.6963 248.983L42.834 248.474C43.2485 248.29 43.666 248.106 44.0869 247.923ZM349.808 246.553C349.761 246.555 349.714 246.558 349.668 246.561C349.714 246.558 349.761 246.555 349.808 246.553ZM350.422 246.531C350.38 246.532 350.338 246.534 350.297 246.535C350.338 246.534 350.38 246.532 350.422 246.531ZM249.424 245.816L249.032 245.771C249.018 245.769 249.003 245.768 248.988 245.767C249.135 245.782 249.28 245.798 249.424 245.816ZM77.5977 193.702C76.9955 193.548 76.1509 193.552 74.9824 193.892C72.5096 194.61 70.7049 196.093 69.4814 198.441C68.2 200.901 67.501 204.092 67.501 208.109V231.638L69.1113 231.17L71.6689 230.428V236.011C73.2986 235.532 74.9566 235.06 76.6416 234.592V228.982L78.084 228.563L80.8096 227.771V203.274C80.8096 198.779 80.1003 196.11 79.1074 194.771C78.6577 194.165 78.1623 193.847 77.5977 193.702ZM36.8223 219.151C36.8041 218.959 36.784 218.771 36.7627 218.586C36.7841 218.771 36.8041 218.959 36.8223 219.151ZM36.585 217.338C36.648 217.703 36.7029 218.085 36.751 218.486C36.7279 218.293 36.7043 218.104 36.6777 217.919C36.6492 217.72 36.6186 217.527 36.5859 217.338H36.585ZM237.381 214.304C236.386 214.349 235.394 214.396 234.403 214.443C236.43 214.346 238.467 214.254 240.513 214.166L237.381 214.304ZM56.1309 210.853C56.1439 211.088 56.1544 211.329 56.1631 211.574C56.1718 211.82 56.1783 212.07 56.1826 212.325L56.1836 212.324C56.1749 211.814 56.1569 211.323 56.1309 210.852V210.853ZM294.848 172.507L294.849 172.508L294.609 173.153C289.723 186.515 290.335 196.472 295.987 203.328C299.014 206.776 302.542 209.335 306.579 211.008C315.057 211.057 323.394 211.178 331.592 211.373C335.662 209.712 339.338 207.03 342.625 203.312C348.694 196.449 349.512 186.708 344.641 173.785V173.784L344.403 173.164V173.163L325.161 123.244H313.442L294.848 172.507ZM298.122 210.983C299.032 210.983 299.94 210.985 300.847 210.986C299.244 209.963 297.728 208.783 296.301 207.444L298.122 210.983ZM54.1035 203.522L54.0781 203.49C54.0523 203.46 54.0253 203.431 53.999 203.402C54.0344 203.441 54.069 203.482 54.1035 203.522ZM53.7705 203.167C53.7186 203.118 53.6649 203.072 53.6113 203.026C53.6649 203.072 53.7186 203.118 53.7705 203.167ZM53.5732 202.993C53.5582 202.981 53.5425 202.969 53.5273 202.957C53.5425 202.969 53.5582 202.981 53.5732 202.993ZM53.3936 202.854C53.377 202.842 53.3595 202.831 53.3428 202.819C53.3595 202.831 53.377 202.842 53.3936 202.854ZM53.2139 202.732C53.1849 202.714 53.1553 202.697 53.126 202.68C53.1553 202.697 53.185 202.714 53.2139 202.732ZM53.042 202.631C53.0074 202.612 52.9726 202.593 52.9375 202.575C52.9726 202.593 53.0074 202.612 53.042 202.631ZM52.835 202.525C52.8135 202.515 52.7922 202.505 52.7705 202.495C52.7922 202.505 52.8135 202.515 52.835 202.525ZM345.496 202.453C345.543 202.387 345.591 202.322 345.637 202.255C345.723 202.129 345.809 202.002 345.893 201.874L345.892 201.873C345.764 202.068 345.631 202.261 345.496 202.453ZM347.346 199.271C347.052 199.894 346.73 200.503 346.377 201.097C346.533 200.835 346.683 200.571 346.827 200.304C347.01 199.964 347.182 199.619 347.346 199.271ZM89.9209 196.319C89.9063 196.487 89.8967 196.656 89.8848 196.826C89.8988 196.626 89.9119 196.428 89.9297 196.23L89.9209 196.319ZM348.491 196.282C348.465 196.368 348.439 196.454 348.412 196.54C348.439 196.454 348.465 196.368 348.491 196.282ZM348.746 195.373C348.762 195.31 348.78 195.247 348.796 195.184C348.833 195.033 348.869 194.882 348.903 194.729V194.729C348.854 194.945 348.801 195.16 348.746 195.373ZM84.5068 194.783C84.5858 195.058 84.6604 195.343 84.7285 195.637H84.7295C84.7015 195.516 84.6724 195.397 84.6426 195.279C84.5997 195.111 84.5535 194.945 84.5068 194.783ZM172.192 35.1865C144.675 41.6581 119.65 50.5056 97.1084 61.7236L97.1074 61.7227C43.6798 88.4315 17.1995 124.623 16.8018 170.238L16.7852 172.221H16.5977V195.063C30.7435 177.728 54.4027 163.109 87.2695 151.07L87.2803 151.066C124.964 137.51 168.487 128.46 217.829 123.889L172.192 35.1865ZM84.3652 194.318C84.3241 194.191 84.2829 194.066 84.2393 193.943C84.2829 194.066 84.3242 194.191 84.3652 194.318ZM277.806 164.213L277.807 164.214L277.776 164.251L277.739 164.296L277.698 164.336L277.662 164.37C276.863 165.136 276.067 165.872 275.276 166.58L288.907 193.072C288.117 186.886 289.33 179.685 292.375 171.584L292.444 171.398L292.445 171.396L310.048 124.758L277.806 164.213ZM349.526 188.696C349.526 188.612 349.528 188.528 349.526 188.444C349.521 188.104 349.51 187.761 349.494 187.415L349.493 187.414C349.514 187.846 349.523 188.273 349.526 188.696ZM347.098 178.3C347.419 179.433 347.693 180.542 347.919 181.626C347.996 181.995 348.067 182.361 348.133 182.724C348.177 182.967 348.218 183.209 348.257 183.449C347.988 181.793 347.601 180.077 347.098 178.3ZM111.067 181.547C111.042 181.528 111.016 181.51 110.99 181.492C111.016 181.51 111.042 181.528 111.067 181.547ZM110.473 181.174C110.452 181.163 110.432 181.151 110.411 181.141C110.432 181.151 110.452 181.163 110.473 181.174ZM108.417 180.538C108.368 180.532 108.32 180.528 108.271 180.523C108.32 180.528 108.368 180.532 108.417 180.538ZM107.997 180.5C107.943 180.497 107.888 180.494 107.833 180.492C107.888 180.494 107.943 180.497 107.997 180.5ZM107.376 180.486C107.453 180.485 107.53 180.486 107.605 180.486C107.53 180.485 107.453 180.485 107.376 180.486ZM24.9141 154.933C25.7166 154.663 26.6442 154.558 27.5713 154.878C28.5166 155.204 29.1829 155.874 29.624 156.626C30.4345 158.008 30.6816 159.986 30.6816 162.167V169.805L31.8193 169.424V174.581L30.4551 175.038L27.4844 176.035L25.0361 176.856L21.7568 177.956L19.1211 178.841V173.684L20.2588 173.301V164.347C20.2588 162.18 20.562 160.231 21.2578 158.574L21.2617 158.565C21.9824 156.872 23.162 155.521 24.9141 154.933ZM347.508 176.823C347.63 177.22 347.748 177.615 347.859 178.007L347.509 176.823C347.386 176.426 347.258 176.026 347.124 175.624L347.508 176.823ZM395.751 176.938C395.054 177.173 394.34 177.372 393.609 177.536L394.154 177.407C394.335 177.362 394.515 177.314 394.693 177.264C395.05 177.164 395.403 177.056 395.752 176.938H395.751ZM328.859 121.596L362.829 161.888L362.832 161.891C369.239 169.562 375.78 174.157 382.44 175.827C388.968 177.044 394.407 176.278 398.839 173.631L399.289 173.354C403.906 170.42 407.908 166.435 411.294 161.383C413.391 156.757 414.657 151.706 415.08 146.219L415.083 146.184L415.088 146.149C415.876 141.036 414.205 135.852 409.881 130.557V130.556L409.454 130.044L409.018 129.543C404.43 124.424 397.442 120.996 387.931 119.346V119.345L335.335 111.024L328.859 121.596ZM395.133 176.288L395.622 176.127C395.68 176.107 395.737 176.085 395.794 176.064C395.575 176.142 395.355 176.218 395.133 176.288ZM398.877 174.665C398.581 174.832 398.281 174.991 397.977 175.143L398.431 174.91C398.581 174.831 398.729 174.748 398.877 174.665ZM224.46 137.753L224.461 137.754C221.47 146.619 222.635 154.188 227.858 160.604L227.916 160.675L227.958 160.755C231.704 167.858 237.092 172.6 244.144 175.034L224.663 137.173L224.46 137.753ZM400.979 174.31C401.022 174.281 401.065 174.253 401.108 174.224C401.258 174.123 401.407 174.021 401.555 173.918H401.554C401.363 174.05 401.171 174.181 400.979 174.31ZM133.481 172.465C133.425 172.565 133.369 172.666 133.313 172.768C133.429 172.554 133.549 172.344 133.673 172.137L133.481 172.465ZM233.562 170.844C233.96 171.199 234.367 171.542 234.783 171.873V171.872C234.367 171.541 233.96 171.198 233.562 170.843V170.844ZM25.7393 160.626C25.449 161.408 25.2627 162.528 25.2627 164.062V171.623L25.9854 171.381V162.552C25.9853 161.711 25.9411 161.039 25.8643 160.519C25.8572 160.471 25.8472 160.425 25.8398 160.381C25.8065 160.453 25.7732 160.535 25.7393 160.626ZM130.244 169.657C130.213 169.698 130.181 169.739 130.149 169.78C130.181 169.739 130.213 169.698 130.244 169.657ZM130.603 169.204C130.554 169.264 130.505 169.323 130.457 169.384C130.505 169.323 130.554 169.264 130.603 169.204ZM130.945 168.793C130.913 168.83 130.882 168.869 130.85 168.906C130.882 168.869 130.913 168.83 130.945 168.793ZM410.082 164.629C409.619 165.226 409.146 165.806 408.663 166.369L409.381 165.512C409.617 165.222 409.851 164.927 410.082 164.629ZM204.298 166.151H204.299C204.291 165.833 204.277 165.52 204.262 165.212C204.277 165.52 204.29 165.833 204.298 166.151ZM204.245 164.928C204.233 164.714 204.218 164.504 204.202 164.296C204.218 164.504 204.233 164.714 204.245 164.928ZM412.105 163.252C411.88 163.572 411.653 163.889 411.423 164.201L412.106 163.252C412.332 162.931 412.554 162.606 412.773 162.277L412.105 163.252ZM251.972 118.697L251.312 118.836C251.132 118.875 250.953 118.916 250.774 118.956L274.027 164.151C274.282 163.92 274.539 163.687 274.795 163.448L275.797 162.5L309.743 120.958L303.265 110.379L251.972 118.697ZM204.179 163.996C204.172 163.924 204.166 163.853 204.159 163.782C204.166 163.853 204.172 163.924 204.179 163.996ZM362.738 163.196C362.811 163.281 362.885 163.364 362.958 163.448C362.682 163.129 362.405 162.806 362.13 162.477L362.738 163.196ZM144.877 161.422H144.878H144.877ZM226.65 160.551H226.651H226.65ZM223.563 155.247H223.564C223.469 155.017 223.378 154.785 223.291 154.553H223.29C223.377 154.785 223.468 155.017 223.563 155.247ZM200.258 154.29C200.335 154.356 200.411 154.424 200.486 154.493L200.259 154.29C200.182 154.224 200.103 154.16 200.023 154.097L200.258 154.29ZM54.6523 127.294C55.5759 127.005 56.5671 126.883 57.5439 127.11C58.5626 127.348 59.3922 127.927 60.001 128.734C61.1181 130.215 61.456 132.403 61.4561 134.778V143.298L62.9834 142.82V148.022L61.5811 148.462L57.5908 149.711L54.9932 150.524V150.523L54.3018 150.74L49.8975 152.119L47.2998 152.932V147.729L48.7021 147.289L48.8281 147.249V137.507C48.8281 135.131 49.2431 132.984 50.1787 131.154L50.1836 131.146C51.1598 129.26 52.6576 127.918 54.6523 127.294ZM191.027 149.059C190.84 149.089 190.652 149.122 190.462 149.157L191.028 149.059C191.215 149.028 191.401 148.999 191.585 148.972L191.027 149.059ZM56.0449 132.254C55.5602 132.406 55.1447 132.727 54.8066 133.473C54.4209 134.324 54.1758 135.517 54.1758 137.139V145.576L54.9932 145.32L56.3955 144.882L56.5205 144.842V135.235C56.5205 134.339 56.4614 133.634 56.3623 133.099C56.2801 132.655 56.1788 132.387 56.1045 132.237C56.0865 132.242 56.0665 132.247 56.0449 132.254ZM165.316 138.651C164.771 138.751 164.228 138.852 163.685 138.953C164.905 138.727 166.129 138.503 167.359 138.283L165.316 138.651ZM409.229 128.423C409.546 128.758 409.854 129.101 410.151 129.452L409.698 128.932C409.544 128.76 409.387 128.591 409.229 128.423ZM110.285 94.9355C112.799 94.262 115.305 94.4053 117.11 96.2129C118.777 97.8811 119.326 100.494 119.326 103.398V114.295L121.696 113.66V119.017L120.214 119.414L114.025 121.072L111.508 121.747V116.391L112.989 115.993L113.877 115.755V103.984C113.877 101.749 113.474 100.704 113.145 100.307C113.015 100.151 112.751 99.8623 111.628 100.163C110.398 100.493 109.578 101.131 109.023 102.093C108.407 103.163 108.036 104.604 108.036 106.522V117.32L110.405 116.686V122.042L108.923 122.439L102.093 124.27L99.5752 124.944V119.589L101.058 119.191L101.945 118.953V107.018C101.945 104.126 102.604 101.535 104.024 99.3467L104.03 99.3369C105.494 97.1106 107.624 95.6487 110.285 94.9355ZM305.58 108.789L305.485 108.949L312.623 120.605H326.372L333.638 108.738L326.635 96.8574H312.613L305.58 108.789ZM249.527 116.534C250.154 116.389 250.789 116.247 251.434 116.114L251.451 116.11L251.492 116.101L251.533 116.095L251.551 116.092L299.269 108.354L252.209 100.724V100.725C247.593 100.066 243.445 99.0259 239.784 97.5957L249.527 116.534ZM255.472 41.4785C248.583 39.9836 243.02 40.6944 238.672 43.4551L238.239 43.7324L238.24 43.7334C233.808 46.6436 230.157 50.5425 227.29 55.4473L227.247 55.5205L227.191 55.585C224.899 58.2243 223.426 61.2124 222.791 64.5664L237.872 93.8789C241.93 95.8754 246.827 97.2912 252.587 98.1123L252.596 98.1133L252.604 98.1152L303.902 106.433L309.752 96.5107L277.057 56.21V56.209C270.428 48.3581 263.673 43.5997 256.809 41.7959H256.808L256.143 41.6299L255.472 41.4785ZM399.927 43.4551C395.439 40.6054 389.655 39.9397 382.456 41.6299L381.791 41.7959L381.15 41.9736C374.537 43.8986 368.214 48.5981 362.198 56.2012L362.191 56.21L329.495 96.5107L335.344 106.433L386.644 98.1152H386.646C397.009 96.4606 404.637 93.0205 409.651 87.8906L410.129 87.3887C415.201 81.9058 417.195 76.5615 416.386 71.3135L416.385 71.3037C415.583 65.7033 414.218 60.487 412.295 55.6523V55.6514L411.926 54.7471C408.987 49.7415 405.018 46.0001 400.009 43.501L399.967 43.4805L399.927 43.4551ZM319.3 2.80273C309.628 2.80273 301.891 6.56018 296.01 14.1055L295.735 14.4648C290.239 21.8383 290.004 32.3343 295.49 46.2314L295.492 46.2373L314.085 94.2188H325.163L343.754 46.2402C349.335 31.6741 348.772 21.1012 342.625 14.1494L342.606 14.1279L342.589 14.1055C336.889 6.79356 329.451 3.04195 320.204 2.81348V2.8125L319.3 2.80176V2.80273ZM415.976 82.2715C415.882 82.4473 415.786 82.6232 415.687 82.7988L415.977 82.2715C416.07 82.0955 416.161 81.9193 416.249 81.7432L415.976 82.2715ZM416.713 80.7529L416.744 80.6855C416.762 80.6441 416.778 80.602 416.796 80.5605C416.769 80.6247 416.741 80.6888 416.713 80.7529ZM416.909 80.2881C416.927 80.2435 416.948 80.1999 416.966 80.1553C416.978 80.1252 416.988 80.0945 417 80.0645C416.97 80.1391 416.94 80.2135 416.909 80.2881ZM417.528 78.5635L417.683 78.0312C417.692 77.9982 417.699 77.9647 417.708 77.9316C417.652 78.1423 417.592 78.353 417.528 78.5635ZM418.253 74.6064C418.227 75.0151 418.187 75.4233 418.131 75.8311C418.187 75.4233 418.227 75.0151 418.253 74.6064ZM418.259 74.5068C418.263 74.4352 418.268 74.3637 418.271 74.292C418.276 74.1791 418.278 74.0661 418.28 73.9531C418.276 74.1378 418.269 74.3223 418.259 74.5068ZM418.282 73.8643C418.283 73.8281 418.286 73.792 418.286 73.7559C418.288 73.5772 418.286 73.3985 418.282 73.2197V73.8643ZM77.2686 70.4922C77.1088 70.5917 76.9501 70.6923 76.791 70.792C76.9961 70.6635 77.2011 70.5344 77.4072 70.4062L77.2686 70.4922ZM405.041 44.5381C405.335 44.7511 405.624 44.969 405.909 45.1924L405.479 44.8604C405.334 44.7513 405.188 44.6445 405.041 44.5381ZM389.371 39.8008C388.69 39.8107 387.994 39.8473 387.284 39.9102C387.995 39.8473 388.691 39.8107 389.372 39.8008C389.574 39.7978 389.774 39.7971 389.974 39.7988C389.774 39.7971 389.573 39.7978 389.371 39.8008ZM250.391 39.8428C250.205 39.8322 250.02 39.8242 249.837 39.8174C250.02 39.8242 250.205 39.8323 250.391 39.8428ZM170.615 33.502C169.738 33.7109 168.863 33.9228 167.99 34.1367L170.616 33.5029C171.494 33.294 172.374 33.0869 173.257 32.8828C172.374 33.087 171.493 33.2929 170.615 33.502ZM349.313 29.6797C349.316 29.6027 349.32 29.5259 349.322 29.4492C349.335 28.9964 349.338 28.5488 349.333 28.1064C349.339 28.6237 349.332 29.1481 349.313 29.6797ZM349.331 28.0498C349.328 27.7941 349.323 27.5402 349.313 27.2881H349.312C349.322 27.5402 349.328 27.7941 349.331 28.0498ZM291.354 21.6406C291.128 22.5414 290.951 23.4699 290.823 24.4258C290.951 23.4695 291.128 22.5408 291.355 21.6396C291.383 21.5292 291.412 21.4192 291.441 21.3096C291.412 21.4196 291.382 21.5298 291.354 21.6406ZM504.985 272.258L504.809 271.897C504.781 271.842 504.751 271.787 504.723 271.732C504.813 271.906 504.901 272.08 504.985 272.258ZM485.502 264.596C485.464 264.613 485.426 264.629 485.388 264.646C485.312 264.681 485.237 264.717 485.163 264.754C485.275 264.699 485.388 264.646 485.502 264.596ZM36.8799 219.836C36.8639 219.612 36.8452 219.394 36.8252 219.18C36.8453 219.394 36.8639 219.612 36.8799 219.836ZM53.9365 203.334C53.8895 203.284 53.8415 203.236 53.793 203.189C53.8415 203.236 53.8894 203.284 53.9365 203.334ZM347.622 198.665C347.634 198.639 347.643 198.611 347.654 198.585C347.624 198.656 347.593 198.728 347.562 198.799C347.581 198.754 347.603 198.71 347.622 198.665ZM348.65 195.734C348.66 195.701 348.671 195.668 348.68 195.634C348.685 195.615 348.688 195.597 348.693 195.578C348.679 195.63 348.665 195.682 348.65 195.734ZM84.4941 194.738C84.4604 194.622 84.4263 194.508 84.3906 194.396C84.4263 194.508 84.4605 194.622 84.4941 194.738ZM349.271 30.5605C349.288 30.2925 349.3 30.0262 349.311 29.7617C349.3 30.0262 349.288 30.2925 349.271 30.5605Z" fill="white"/>
</svg>
