<svg width="440" height="300" viewBox="0 0 440 300" fill="none" xmlns="http://www.w3.org/2000/svg">
<rect x="1.5" y="1.5" width="437" height="297" rx="18.5" stroke="#0E008B" stroke-width="3"/>
<path d="M231.162 0C213.03 8.73127 192.711 13 170.4 13C140.401 13 119.4 15.4003 107.4 20.2002C94.8004 25.0002 88.7998 32.2004 88.7998 42.4004C88.7999 53.2002 94.2003 60.4003 106.2 65.2002C117.6 70.0001 139.201 71.7998 170.4 71.7998C218.4 71.7999 255 80.7997 280.2 97.5996C305.4 114.4 318 139.6 318 172.6C318 207.4 304.8 234.4 279.6 253.6C253.8 273.4 218.4 283 172.8 283C126 283 89.3996 275.2 63.5996 259.6C37.1999 244 24.5996 222.399 24.5996 193.6C24.5997 176.8 31.2 161.2 45.5996 147.4C59.3996 133.6 78 124 102 118.6C83.4 116.2 69.5996 109.6 60.5996 100C50.9998 90.4 46.7998 77.7995 46.7998 61.5996C46.7999 45.3998 52.8001 31.5997 66 20.7998C79.2 9.99985 95.4002 4.00019 115.2 2.2002C113.414 1.49666 111.663 0.76255 109.945 0H231.162ZM127.8 126.4C113.4 131.2 102 139 94.2002 150.4C85.8003 162.4 82.2002 176.2 82.2002 191.8C82.2002 214 89.9998 231.4 106.8 243.4C123.6 255.4 146.4 261.4 175.2 261.4C207 261.4 231.6 255.4 249.6 242.8C267 230.2 276 212.8 276 190.6C276 169 267.6 152.8 251.4 142.6C234.6 133 208.8 127.6 172.8 127.6L127.8 126.4Z" fill="#0E008B"/>
</svg>
