<svg width="645" height="318" viewBox="0 0 645 318" fill="none" xmlns="http://www.w3.org/2000/svg">
<g clip-path="url(#clip0_528_6210)">
<rect width="645" height="318" fill="#F4F4F4"/>
<path d="M645 0H0V318H645V0Z" fill="#F4F4F4"/>
<path d="M307.819 14.6953H14.6807V303.304H307.819V14.6953Z" stroke="#D9D9D9" stroke-dasharray="6 6"/>
<path d="M629.838 15.1777H559.08V86.005H629.838V15.1777Z" stroke="#D9D9D9" stroke-width="3" stroke-dasharray="6 6"/>
<path d="M543.196 15.1777H472.438V86.005H543.196V15.1777Z" stroke="#D9D9D9" stroke-width="3" stroke-dasharray="6 6"/>
<path d="M322.5 14.4551V303.546" stroke="#D9D9D9" stroke-width="3"/>
<path d="M340.768 245.727H337.021L337.075 245.281H338.181L339.205 236.863H338.113L338.167 236.418H341.9L341.846 236.863H340.66L339.865 243.379L344.34 237.673L344.448 236.863H343.262L343.316 236.418H347.062L347.008 236.863H345.903L344.879 245.281H345.971L345.917 245.727H342.17L342.237 245.281H343.423L344.245 238.563L339.757 244.27L339.636 245.281H340.822L340.768 245.727ZM349.507 242.988C349.318 244.04 349.084 244.787 348.806 245.228C348.528 245.659 348.114 245.875 347.566 245.875C347.225 245.875 346.96 245.772 346.771 245.565C346.591 245.358 346.519 245.088 346.555 244.755C346.582 244.513 346.681 244.314 346.852 244.162C347.022 244.009 347.229 243.932 347.472 243.932C347.723 243.932 347.912 244.013 348.038 244.175C348.173 244.328 348.222 244.526 348.186 244.769C348.168 244.913 348.128 245.034 348.065 245.133C348.011 245.232 347.93 245.308 347.822 245.362C348.074 245.291 348.285 245.102 348.456 244.796C348.626 244.481 348.77 244.013 348.887 243.393C348.995 242.898 349.111 242.25 349.237 241.45C349.363 240.641 349.457 239.957 349.521 239.399H348.469L348.51 238.968H351.259L352.243 243.73L354.79 238.968H356.381L355.72 244.445C355.684 244.769 355.693 245.003 355.747 245.147C355.801 245.281 355.913 245.349 356.084 245.349C356.3 245.349 356.479 245.214 356.623 244.944C356.767 244.665 356.87 244.247 356.933 243.69H357.351C357.225 244.553 357.036 245.133 356.785 245.43C356.533 245.727 356.156 245.875 355.653 245.875C355.149 245.875 354.79 245.731 354.575 245.443C354.359 245.147 354.287 244.711 354.359 244.135L354.885 239.804L351.771 245.727H351.232L350.033 239.791C349.907 240.636 349.804 241.297 349.723 241.774C349.65 242.25 349.579 242.655 349.507 242.988ZM360.226 240.776C360.217 241.216 360.352 241.567 360.63 241.828C360.918 242.08 361.309 242.206 361.802 242.206H362.463L362.638 240.681C362.692 240.249 362.616 239.908 362.409 239.656C362.202 239.395 361.902 239.265 361.506 239.265C361.138 239.265 360.832 239.404 360.589 239.683C360.356 239.953 360.235 240.317 360.226 240.776ZM360.118 244.459C359.893 244.989 359.651 245.358 359.39 245.565C359.139 245.772 358.829 245.875 358.46 245.875C357.984 245.875 357.67 245.713 357.517 245.389C357.364 245.056 357.337 244.486 357.436 243.676H357.84C357.777 244.18 357.773 244.566 357.827 244.836C357.88 245.106 357.98 245.241 358.123 245.241C358.213 245.241 358.29 245.21 358.352 245.147C358.415 245.075 358.568 244.755 358.81 244.189C358.999 243.748 359.21 243.429 359.444 243.231C359.686 243.033 360.176 242.795 360.913 242.516C360.239 242.489 359.713 242.318 359.336 242.003C358.959 241.689 358.775 241.266 358.783 240.735C358.793 240.141 359.035 239.674 359.511 239.332C359.988 238.981 360.635 238.806 361.452 238.806C361.875 238.806 362.234 238.878 362.53 239.022C362.827 239.166 363.069 239.386 363.258 239.683L363.932 238.806H364.255L363.406 245.727H362.018L362.409 242.597C362.266 242.597 362.144 242.597 362.045 242.597L361.883 242.61C361.524 242.619 361.219 242.741 360.967 242.975C360.716 243.2 360.433 243.694 360.118 244.459Z" fill="#0E008B"/>
<path d="M340.741 267.433L339.15 270.859H341.482L340.741 267.433ZM339.123 274.637H336.172L336.226 274.192H337.088L341.28 265.193H341.765L343.733 274.192H344.649L344.595 274.637H340.552L340.606 274.192H342.196L341.576 271.291H338.948L337.601 274.192H339.191L339.123 274.637ZM351.23 270.455C351.05 271.894 350.664 272.978 350.071 273.706C349.486 274.425 348.691 274.785 347.685 274.785C346.804 274.785 346.086 274.43 345.529 273.72C344.98 273.009 344.765 272.15 344.882 271.143C344.998 270.127 345.362 269.304 345.973 268.674C346.593 268.036 347.321 267.716 348.157 267.716C348.651 267.716 349.051 267.828 349.356 268.053C349.671 268.269 349.891 268.602 350.017 269.052C350.071 267.595 349.94 266.525 349.626 265.841C349.32 265.149 348.822 264.802 348.13 264.802C347.788 264.802 347.492 264.856 347.24 264.964C346.989 265.063 346.746 265.229 346.513 265.463L346.27 265.166C346.575 264.87 346.89 264.654 347.213 264.519C347.546 264.384 347.914 264.316 348.319 264.316C349.442 264.316 350.264 264.883 350.785 266.016C351.306 267.14 351.454 268.62 351.23 270.455ZM346.324 271.143C346.189 272.177 346.238 272.968 346.472 273.517C346.715 274.066 347.133 274.34 347.726 274.34C348.246 274.34 348.673 274.075 349.006 273.544C349.347 273.005 349.572 272.263 349.68 271.318C349.796 270.293 349.729 269.515 349.478 268.984C349.235 268.445 348.817 268.175 348.224 268.175C347.685 268.175 347.262 268.408 346.957 268.876C346.661 269.335 346.45 270.091 346.324 271.143ZM354.193 271.453C354.103 272.407 354.179 273.117 354.422 273.585C354.674 274.052 355.096 274.291 355.689 274.3C356.174 274.3 356.574 274.03 356.888 273.49C357.203 272.951 357.401 272.195 357.481 271.224C357.562 270.235 357.495 269.506 357.279 269.038C357.064 268.57 356.691 268.332 356.161 268.323C355.675 268.314 355.258 268.566 354.907 269.079C354.557 269.582 354.332 270.252 354.233 271.089C354.233 271.116 354.229 271.179 354.22 271.278C354.211 271.368 354.202 271.426 354.193 271.453ZM354.921 278.01H350.877L350.931 277.564H352.063L353.209 268.31H352.09L352.144 267.878C352.791 267.878 353.281 267.869 353.613 267.851C353.955 267.824 354.166 267.784 354.247 267.73L354.435 267.864L354.193 269.686C354.355 269.083 354.647 268.606 355.069 268.256C355.492 267.896 355.981 267.716 356.538 267.716C357.365 267.716 357.994 268.031 358.425 268.66C358.865 269.29 359.04 270.14 358.95 271.21C358.852 272.253 358.511 273.112 357.926 273.787C357.351 274.462 356.668 274.794 355.878 274.785C355.411 274.776 355.006 274.682 354.665 274.502C354.332 274.322 354.081 274.066 353.91 273.733L353.452 277.564H354.975L354.921 278.01ZM362.235 274.785C361.363 274.785 360.694 274.462 360.227 273.814C359.768 273.157 359.598 272.317 359.714 271.291C359.831 270.212 360.195 269.349 360.806 268.701C361.426 268.044 362.176 267.716 363.057 267.716C363.704 267.716 364.221 267.878 364.607 268.202C364.993 268.516 365.178 268.926 365.159 269.429C365.132 270.122 364.768 270.661 364.068 271.048C363.367 271.426 362.388 271.619 361.13 271.628C361.058 272.519 361.139 273.184 361.372 273.625C361.606 274.057 361.992 274.273 362.531 274.273C363.016 274.273 363.407 274.142 363.704 273.881C364 273.621 364.243 273.18 364.432 272.559L364.849 272.654C364.652 273.391 364.342 273.931 363.919 274.273C363.497 274.614 362.936 274.785 362.235 274.785ZM362.936 268.161C362.477 268.161 362.091 268.431 361.776 268.971C361.462 269.501 361.256 270.239 361.156 271.183C362.019 271.165 362.666 271.004 363.097 270.698C363.538 270.383 363.776 269.915 363.812 269.295C363.83 268.953 363.758 268.678 363.596 268.472C363.443 268.265 363.223 268.161 362.936 268.161ZM368.497 274.785C367.572 274.785 366.862 274.462 366.368 273.814C365.883 273.157 365.698 272.317 365.815 271.291C365.941 270.203 366.314 269.335 366.934 268.687C367.563 268.04 368.331 267.716 369.239 267.716C369.813 267.716 370.29 267.865 370.667 268.161C371.045 268.449 371.229 268.836 371.22 269.322C371.211 269.609 371.116 269.843 370.937 270.023C370.766 270.203 370.537 270.293 370.25 270.293C369.989 270.293 369.786 270.225 369.643 270.091C369.499 269.946 369.427 269.753 369.427 269.51C369.427 269.25 369.499 269.029 369.643 268.849C369.796 268.67 369.989 268.562 370.223 268.526C370.115 268.4 369.98 268.305 369.818 268.242C369.657 268.179 369.472 268.148 369.266 268.148C368.727 268.148 368.282 268.413 367.931 268.944C367.59 269.474 367.365 270.235 367.258 271.224C367.158 272.168 367.235 272.914 367.487 273.463C367.747 274.003 368.165 274.273 368.74 274.273C369.189 274.273 369.571 274.12 369.886 273.814C370.209 273.508 370.438 273.09 370.573 272.559L371.018 272.654C370.82 273.373 370.51 273.908 370.088 274.259C369.674 274.61 369.144 274.785 368.497 274.785ZM374.519 274.785C373.593 274.785 372.884 274.462 372.39 273.814C371.904 273.157 371.72 272.317 371.837 271.291C371.963 270.203 372.336 269.335 372.956 268.687C373.585 268.04 374.353 267.716 375.26 267.716C375.836 267.716 376.312 267.865 376.689 268.161C377.066 268.449 377.251 268.836 377.242 269.322C377.232 269.609 377.138 269.843 376.958 270.023C376.788 270.203 376.559 270.293 376.271 270.293C376.011 270.293 375.809 270.225 375.665 270.091C375.521 269.946 375.449 269.753 375.449 269.51C375.449 269.25 375.521 269.029 375.665 268.849C375.817 268.67 376.011 268.562 376.244 268.526C376.136 268.4 376.002 268.305 375.84 268.242C375.678 268.179 375.494 268.148 375.287 268.148C374.748 268.148 374.303 268.413 373.953 268.944C373.612 269.474 373.387 270.235 373.279 271.224C373.18 272.168 373.256 272.914 373.508 273.463C373.769 274.003 374.186 274.273 374.762 274.273C375.211 274.273 375.593 274.12 375.907 273.814C376.231 273.508 376.46 273.09 376.595 272.559L377.039 272.654C376.842 273.373 376.532 273.908 376.109 274.259C375.696 274.61 375.166 274.785 374.519 274.785Z" fill="#0E008B"/>
<path d="M336.94 260.182H630.56" stroke="#D9D9D9"/>
<path d="M336.94 289.092H630.56" stroke="#D9D9D9"/>
<path d="M336.94 303.545H630.56" stroke="#D9D9D9"/>
<path d="M392.295 274.637H630.56" stroke="#D9D9D9"/>
<path d="M379.78 245.727H630.56" stroke="#D9D9D9"/>
</g>
<defs>
<clipPath id="clip0_528_6210">
<rect width="645" height="318" fill="white"/>
</clipPath>
</defs>
</svg>
