<svg width="645" height="318" viewBox="0 0 645 318" fill="none" xmlns="http://www.w3.org/2000/svg">
<g clip-path="url(#clip0_539_2)">
<path d="M645 0H0V318H645V0Z" fill="white"/>
<mask id="mask0_539_2" style="mask-type:luminance" maskUnits="userSpaceOnUse" x="14" y="14" width="617" height="290">
<path d="M630.56 14.4551H14.4404V303.546H630.56V14.4551Z" fill="white"/>
</mask>
<g mask="url(#mask0_539_2)">
<path d="M630.56 14.4551H14.4404V303.546H630.56V14.4551Z" fill="#0E008B"/>
<path d="M643.653 168.115H587.576V160.421L617.241 109.914H609.848C605.776 109.914 603.018 110.604 601.569 111.985C600.192 113.366 599.499 116.392 599.499 121.06V124.415H588.168V100.049H642.666V107.743L613.001 158.25H623.451C627.455 158.25 629.92 157.527 630.839 156.08C631.826 154.633 632.317 151.312 632.317 146.117V143.256H643.653V168.115Z" fill="white"/>
<path d="M545.103 168.115H601.179V160.421L571.514 109.914H578.903C582.979 109.914 585.738 110.604 587.182 111.985C588.563 113.366 589.251 116.392 589.251 121.06V124.415H600.587V100.049H546.089V107.743L575.75 158.25H565.305C561.295 158.25 558.835 157.527 557.916 156.08C556.929 154.633 556.433 151.312 556.433 146.117V143.256H545.103V168.115Z" fill="white"/>
<path d="M643.653 235.986H587.576V228.291L617.241 177.784H609.848C605.776 177.784 603.018 178.475 601.569 179.856C600.192 181.237 599.499 184.262 599.499 188.932V192.285H588.168V167.92H642.666V175.614L613.001 226.121H623.451C627.455 226.121 629.92 225.397 630.839 223.951C631.826 222.504 632.317 219.183 632.317 213.988V211.127H643.653V235.986Z" fill="white"/>
<path d="M545.103 235.986H601.179V228.291L571.514 177.784H578.903C582.979 177.784 585.738 178.475 587.182 179.856C588.563 181.237 589.251 184.262 589.251 188.932V192.285H600.587V167.92H546.089V175.614L575.75 226.121H565.305C561.295 226.121 558.835 225.397 557.916 223.951C556.929 222.504 556.433 219.183 556.433 213.988V211.127H545.103V235.986Z" fill="white"/>
<path d="M562.445 303.853H506.373V296.158L536.033 245.652H528.645C524.573 245.652 521.81 246.342 520.366 247.723C518.984 249.105 518.296 252.129 518.296 256.799V260.153H506.965V235.787H561.463V243.482L531.798 293.988H542.243C546.252 293.988 548.717 293.265 549.636 291.818C550.618 290.371 551.114 287.05 551.114 281.855V278.994H562.445V303.853Z" fill="white"/>
<path d="M472.57 303.853H416.495V296.158L446.158 245.652H438.767C434.694 245.652 431.935 246.342 430.489 247.723C429.11 249.105 428.42 252.129 428.42 256.799V260.153H417.087V235.787H471.584V243.482L441.921 293.988H452.367C456.375 293.988 458.838 293.265 459.758 291.818C460.744 290.371 461.236 287.05 461.236 281.855V278.994H472.57V303.853Z" fill="white"/>
<path d="M463.896 303.853H519.971V296.158L490.306 245.652H497.699C501.771 245.652 504.53 246.342 505.978 247.723C507.355 249.105 508.048 252.129 508.048 256.799V260.153H519.379V235.787H464.882V243.482L494.547 293.988H484.101C480.092 293.988 477.628 293.265 476.708 291.818C475.723 290.371 475.23 287.05 475.23 281.855V278.994H463.896V303.853Z" fill="white"/>
<path d="M374.021 303.853H430.095V296.158L400.431 245.652H407.823C411.896 245.652 414.656 246.342 416.101 247.723C417.481 249.105 418.17 252.129 418.17 256.799V260.153H429.504V235.787H375.006V243.482L404.669 293.988H394.223C390.215 293.988 387.751 293.265 386.831 291.818C385.846 290.371 385.353 287.05 385.353 281.855V278.994H374.021V303.853Z" fill="white"/>
<path d="M619.013 303.853V293.988H613.593V245.652H619.013V235.787H585.016V245.652H589.449V264.198H574.667V245.652H579.1V235.787H545.103V245.652H550.522V293.988H545.103V303.853H579.1V293.988H574.667V274.062H589.449V293.988H585.016V303.853H619.013Z" fill="white"/>
<path d="M676.172 303.853V293.988H670.752V245.652H676.172V235.787H642.175V245.652H646.608V264.198H631.826V245.652H636.259V235.787H602.262V245.652H607.682V293.988H602.262V303.853H636.259V293.988H631.826V274.062H646.608V293.988H642.175V303.853H676.172Z" fill="white"/>
<path d="M447.933 235.986V226.121H442.513V177.784H447.933V167.92H413.933V177.784H418.369V196.33H403.586V177.784H408.021V167.92H374.021V177.784H379.441V226.121H374.021V235.986H408.021V226.121H403.586V206.195H418.369V226.121H413.933V235.986H447.933Z" fill="white"/>
<path d="M505.093 235.986V226.121H499.673V177.784H505.093V167.92H471.092V177.784H475.527V196.33H460.744V177.784H465.179V167.92H431.18V177.784H436.6V226.121H431.18V235.986H465.179V226.121H460.744V206.195H475.527V226.121H471.092V235.986H505.093Z" fill="white"/>
<path d="M562.643 235.986V226.121H557.223V177.784H562.643V167.92H528.645V177.784H533.079V196.33H518.297V177.784H522.73V167.92H488.732V177.784H494.152V226.121H488.732V235.986H522.73V226.121H518.297V206.195H533.079V226.121H528.645V235.986H562.643Z" fill="white"/>
<path d="M595.657 90.3829V100.248H574.469V90.3829H579.889V42.0463H574.469V32.1816H607.681L616.057 60.0987L624.533 32.1816H658.434V42.0463H653.014V90.3829H658.434V100.248H623.941V90.3829H629.164V47.6691L615.859 91.2709H603.836L590.729 47.5705V90.3829H595.657Z" fill="white"/>
<path d="M574.763 48.4584V90.3833H579.692V100.248H546.186V90.3833H551.114V58.8166H546.186V48.9518C562.349 48.9518 571.283 48.4584 572.992 47.4722L574.763 48.4584ZM568.756 24.8822C570.527 26.5921 571.413 28.7952 571.413 31.4915C571.413 34.1878 570.527 36.358 568.756 38.0021C567.047 39.5805 564.78 40.3697 561.954 40.3697C559.196 40.3697 556.929 39.5805 555.153 38.0021C553.444 36.358 552.592 34.1878 552.592 31.4915C552.592 28.7952 553.478 26.5921 555.254 24.8822C557.025 23.1065 559.259 22.2188 561.954 22.2188C564.78 22.2188 567.047 23.1065 568.756 24.8822Z" fill="white"/>
<path d="M624.235 22.5146V32.3792H660.702V22.5146H655.773V-9.05217H660.702V-18.9168C651.701 -18.9168 645.621 -19.0154 642.468 -19.2128C639.316 -19.41 637.116 -19.8046 635.864 -20.3965L633.896 -19.41V-8.55893C632.842 -11.6498 631.037 -14.3791 628.476 -16.7466C625.848 -19.1798 622.695 -20.3965 619.013 -20.3965C615.335 -20.3965 612.476 -19.4429 610.44 -17.5357C608.336 -15.6944 607.287 -13.2282 607.287 -10.1373C607.287 -6.91483 608.173 -4.4158 609.949 -2.64017C611.658 -0.864538 613.987 0.0232802 616.943 0.0232802C619.571 0.0232802 621.742 -0.700127 623.451 -2.14694C625.155 -3.65951 626.011 -5.46802 626.011 -7.57246C626.011 -8.36163 625.848 -9.18371 625.516 -10.0386C629.92 -6.35582 632.12 0.18769 632.12 9.59198V22.5146H624.235Z" fill="white"/>
<path d="M385.556 304.028H329.239V296.293L359.031 245.525H351.608C347.517 245.525 344.745 246.219 343.294 247.607C341.908 248.996 341.215 252.036 341.215 256.73V260.101H329.833V235.609H384.567V243.344L354.775 294.112H365.266C369.291 294.112 371.766 293.385 372.69 291.931C373.679 290.476 374.174 287.138 374.174 281.915V279.04H385.556V304.028Z" fill="white"/>
<path d="M366.23 226.298L363.419 216.843L358.223 218.391L344.447 172.063L349.642 170.515L346.83 161.061L314.244 170.77L317.056 180.225L321.306 178.958L326.591 196.733L312.424 200.955L307.138 183.18L311.388 181.913L308.577 172.458L275.99 182.168L278.802 191.622L283.997 190.075L297.773 236.402L292.578 237.951L295.39 247.405L327.976 237.696L325.165 228.241L320.914 229.508L315.235 210.409L329.403 206.188L335.082 225.286L330.832 226.553L333.643 236.007L366.23 226.298Z" fill="white"/>
<path d="M310.162 254.209L303.352 247.079L299.434 250.828L266.065 215.889L269.982 212.14L263.172 205.01L238.597 228.528L245.407 235.658L248.613 232.591L261.416 245.996L250.731 256.221L237.928 242.816L241.134 239.748L234.323 232.618L209.748 256.136L216.558 263.267L220.476 259.517L253.846 294.456L249.928 298.205L256.738 305.335L281.313 281.817L274.503 274.687L271.298 277.755L257.541 263.351L268.226 253.126L281.983 267.529L278.777 270.597L285.587 277.727L310.162 254.209Z" fill="white"/>
<path d="M208.785 304.468L210.157 294.699L204.79 293.944L211.51 246.078L216.878 246.833L218.249 237.065L184.581 232.328L183.209 242.097L187.6 242.714L185.022 261.079L170.384 259.02L172.962 240.655L177.354 241.273L178.725 231.504L145.056 226.768L143.685 236.536L149.053 237.291L142.332 285.158L136.965 284.403L135.593 294.171L169.261 298.908L170.633 289.139L166.241 288.521L169.012 268.788L183.651 270.848L180.88 290.581L176.489 289.963L175.117 299.731L208.785 304.468Z" fill="white"/>
<path d="M305.172 142.137H291.694V140.21H294.004V117.468H293.735C292.246 117.468 291.116 117.969 290.346 118.971C289.576 119.973 289.191 121.451 289.191 123.404V124.02H287.266V115.54H309.6V124.02H307.675V123.404C307.675 121.451 307.29 119.973 306.519 118.971C305.749 117.969 304.607 117.468 303.092 117.468H302.861V140.21H305.172V142.137ZM319.673 142.715C318.363 146.441 317.182 148.946 316.13 150.231C315.077 151.516 313.768 152.159 312.202 152.159C310.636 152.159 309.417 151.773 308.544 151.002C307.671 150.231 307.235 149.139 307.235 147.726C307.235 146.57 307.543 145.658 308.159 144.989C308.8 144.321 309.661 143.987 310.739 143.987C311.714 143.987 312.472 144.27 313.011 144.835C313.55 145.4 313.819 146.159 313.819 147.109C313.819 147.829 313.627 148.445 313.242 148.959C312.882 149.474 312.356 149.846 311.663 150.077C311.868 150.129 311.997 150.154 312.048 150.154H312.202C312.972 150.154 313.652 149.82 314.243 149.152C314.833 148.484 315.475 147.289 316.168 145.567L316.245 145.336C316.271 145.259 316.322 145.143 316.399 144.989L316.63 144.373C316.681 144.218 316.733 144.077 316.784 143.949L308.775 124.406H306.85V122.479H318.517V124.406H316.977L320.481 133.156L323.369 124.406H321.174V122.479H327.99V124.406H326.065C324.679 128.363 323.497 131.717 322.522 134.466C321.572 137.216 320.828 139.362 320.289 140.903C320.16 141.263 320.045 141.597 319.942 141.906L319.673 142.715ZM340.04 140.017C340.862 140.017 341.439 139.503 341.773 138.475C342.107 137.447 342.274 135.623 342.274 133.002C342.274 130.252 342.107 128.325 341.773 127.22C341.465 126.089 340.926 125.524 340.156 125.524C339.411 125.524 338.859 126.038 338.5 127.066C338.166 128.068 337.999 129.674 337.999 131.884V134.852C337.999 136.676 338.153 137.999 338.461 138.822C338.795 139.618 339.321 140.017 340.04 140.017ZM337.999 149.846H342.62V151.773H327.025V149.846H329.335V124.406H327.025V122.479C328.744 122.479 330.272 122.44 331.607 122.363C332.968 122.26 334.071 122.119 334.919 121.939L336.459 122.286V128.338C336.895 126.205 337.717 124.573 338.923 123.442C340.156 122.286 341.709 121.708 343.583 121.708C345.868 121.708 347.703 122.697 349.089 124.676C350.476 126.655 351.169 129.186 351.169 132.269C351.169 135.199 350.373 137.704 348.781 139.786C347.189 141.867 345.239 142.908 342.928 142.908C341.747 142.908 340.746 142.741 339.925 142.407C339.129 142.098 338.487 141.623 337.999 140.98V149.846ZM363.636 121.708C366.845 121.708 369.528 122.723 371.684 124.753C373.866 126.783 374.957 129.353 374.957 132.462C374.957 135.469 373.866 137.961 371.684 139.94C369.502 141.919 366.819 142.908 363.636 142.908C360.427 142.908 357.731 141.893 355.549 139.863C353.393 137.833 352.315 135.263 352.315 132.154C352.315 129.147 353.406 126.655 355.588 124.676C357.77 122.697 360.452 121.708 363.636 121.708ZM365.523 125.794C365.138 124.483 364.509 123.828 363.636 123.828C362.763 123.828 362.134 124.458 361.749 125.717C361.364 126.95 361.172 129.095 361.172 132.154C361.172 135.314 361.364 137.55 361.749 138.861C362.134 140.146 362.763 140.788 363.636 140.788C364.509 140.788 365.138 140.171 365.523 138.938C365.908 137.679 366.101 135.52 366.101 132.462C366.101 129.301 365.908 127.079 365.523 125.794ZM383.85 128.261C383.85 130.111 383.94 131.383 384.119 132.076C384.299 132.745 384.645 133.079 385.159 133.079C385.672 133.079 386.019 132.745 386.199 132.076C386.378 131.383 386.468 130.111 386.468 128.261C386.468 126.359 386.378 125.087 386.199 124.444C386.045 123.776 385.698 123.442 385.159 123.442C384.645 123.442 384.299 123.776 384.119 124.444C383.94 125.113 383.85 126.385 383.85 128.261ZM385.813 136.818C388.946 136.818 391.359 137.396 393.053 138.552C394.773 139.708 395.633 141.353 395.633 143.486C395.633 146.159 394.709 148.266 392.86 149.807C391.037 151.375 388.522 152.159 385.313 152.159C381.899 152.159 379.293 151.696 377.496 150.771C375.699 149.871 374.8 148.548 374.8 146.801C374.8 145.516 375.275 144.463 376.225 143.64C377.201 142.818 378.497 142.355 380.114 142.252C378.703 142.047 377.637 141.623 376.918 140.98C376.225 140.312 375.879 139.413 375.879 138.282C375.879 137.229 376.277 136.342 377.072 135.623C377.868 134.877 378.934 134.376 380.268 134.119C378.677 133.605 377.432 132.834 376.533 131.807C375.634 130.779 375.185 129.597 375.185 128.261C375.185 126.256 376.084 124.663 377.881 123.481C379.704 122.299 382.13 121.708 385.159 121.708C386.186 121.708 387.148 121.785 388.047 121.939C388.971 122.093 389.818 122.324 390.588 122.633L395.902 122.479V124.406L393.438 124.329C394.003 124.869 394.426 125.472 394.709 126.14C394.991 126.783 395.132 127.49 395.132 128.261C395.132 130.162 394.183 131.73 392.283 132.963C390.409 134.196 388.034 134.813 385.159 134.813C383.85 134.813 382.912 134.89 382.348 135.044C381.809 135.199 381.539 135.455 381.539 135.815C381.539 136.201 381.809 136.471 382.348 136.625C382.912 136.754 384.068 136.818 385.813 136.818ZM381.193 146.57C381.193 147.7 381.642 148.574 382.54 149.191C383.439 149.807 384.684 150.116 386.276 150.116C387.867 150.116 389.151 149.782 390.126 149.114C391.102 148.445 391.59 147.61 391.59 146.608C391.59 145.58 391.191 144.861 390.396 144.45C389.626 144.039 387.931 143.769 385.313 143.64L382.04 143.486C381.706 143.948 381.475 144.411 381.347 144.874C381.244 145.336 381.193 145.901 381.193 146.57ZM406.838 140.21H411.073V142.137H395.863V140.21H398.173V124.406H395.863V122.479C397.608 122.479 399.149 122.44 400.484 122.363C401.844 122.26 402.948 122.119 403.795 121.939L405.336 122.286V128.415C405.669 126.333 406.426 124.701 407.608 123.519C408.814 122.311 410.342 121.708 412.19 121.708C413.833 121.708 415.142 122.145 416.118 123.018C417.093 123.866 417.581 125.036 417.581 126.526C417.581 128.068 417.209 129.288 416.464 130.188C415.72 131.087 414.719 131.537 413.461 131.537C412.126 131.537 411.06 131.151 410.265 130.38C409.495 129.61 409.109 128.556 409.109 127.22C409.109 126.526 409.225 125.896 409.456 125.331C409.713 124.766 410.085 124.277 410.573 123.866C410.367 123.943 410.188 124.02 410.034 124.098C409.88 124.175 409.738 124.265 409.61 124.367C408.737 125.036 408.057 126.192 407.569 127.836C407.081 129.455 406.838 131.331 406.838 133.464V140.21ZM436.599 142.908C434.904 142.908 433.556 142.497 432.555 141.674C431.554 140.826 430.925 139.593 430.668 137.974C430.232 139.516 429.398 140.724 428.165 141.597C426.959 142.471 425.483 142.908 423.737 142.908C421.889 142.908 420.4 142.458 419.27 141.559C418.14 140.634 417.576 139.4 417.576 137.858C417.576 135.983 418.359 134.518 419.925 133.464C421.491 132.41 423.814 131.781 426.895 131.575L429.667 131.383V128.492C429.667 126.95 429.334 125.794 428.666 125.023C427.998 124.252 426.985 123.866 425.624 123.866C425.239 123.866 424.867 123.905 424.507 123.982C424.174 124.034 423.827 124.123 423.467 124.252C424.289 124.586 424.892 125.048 425.277 125.639C425.688 126.205 425.893 126.911 425.893 127.759C425.893 128.864 425.56 129.738 424.892 130.38C424.251 130.997 423.326 131.306 422.12 131.306C420.964 131.306 420.053 130.984 419.386 130.342C418.718 129.7 418.385 128.839 418.385 127.759C418.385 125.909 419.373 124.445 421.35 123.365C423.326 122.26 425.868 121.708 428.974 121.708C431.901 121.708 434.186 122.273 435.828 123.404C437.497 124.535 438.331 126.102 438.331 128.106V138.436C438.331 138.951 438.395 139.323 438.524 139.554C438.678 139.786 438.922 139.901 439.256 139.901C439.641 139.901 439.936 139.593 440.141 138.976C440.372 138.334 440.488 137.434 440.488 136.278H442.413C442.413 138.616 441.951 140.312 441.027 141.366C440.128 142.394 438.652 142.908 436.599 142.908ZM426.202 136.586C426.202 137.306 426.317 137.833 426.548 138.167C426.779 138.475 427.139 138.629 427.626 138.629C428.217 138.629 428.705 138.244 429.09 137.473C429.475 136.676 429.667 135.661 429.667 134.428V133.31L428.281 133.503C427.588 133.605 427.062 133.914 426.702 134.428C426.369 134.916 426.202 135.636 426.202 136.586ZM455.434 140.017C456.256 140.017 456.834 139.503 457.167 138.475C457.501 137.447 457.668 135.623 457.668 133.002C457.668 130.252 457.501 128.325 457.167 127.22C456.859 126.089 456.32 125.524 455.55 125.524C454.806 125.524 454.254 126.038 453.894 127.066C453.561 128.068 453.394 129.674 453.394 131.884V134.852C453.394 136.676 453.548 137.999 453.856 138.822C454.19 139.618 454.716 140.017 455.434 140.017ZM453.394 149.846H458.014V151.773H442.419V149.846H444.729V124.406H442.419V122.479C444.139 122.479 445.667 122.44 447.001 122.363C448.362 122.26 449.466 122.119 450.313 121.939L451.853 122.286V128.338C452.29 126.205 453.111 124.573 454.318 123.442C455.55 122.286 457.103 121.708 458.977 121.708C461.262 121.708 463.097 122.697 464.484 124.676C465.87 126.655 466.563 129.186 466.563 132.269C466.563 135.199 465.767 137.704 464.176 139.786C462.584 141.867 460.633 142.908 458.323 142.908C457.142 142.908 456.141 142.741 455.319 142.407C454.523 142.098 453.882 141.623 453.394 140.98V149.846ZM477.923 140.21H479.463V142.137H466.948V140.21H469.259V115.348H466.948V113.42C469.156 113.42 471.055 113.382 472.647 113.305C474.265 113.202 475.509 113.061 476.382 112.881L477.923 113.228V117.352C477.923 118.611 477.871 119.871 477.769 121.13C477.666 122.363 477.512 123.532 477.307 124.637C477.923 123.687 478.77 122.967 479.848 122.479C480.952 121.965 482.263 121.708 483.774 121.708C486.161 121.708 487.933 122.324 489.088 123.558C490.243 124.791 490.821 126.667 490.821 129.186V140.21H493.131V142.137H480.618V140.21H482.157V128.415C482.157 127.438 481.979 126.693 481.618 126.179C481.285 125.639 480.798 125.37 480.156 125.37C479.437 125.37 478.885 125.703 478.5 126.372C478.115 127.014 477.923 127.952 477.923 129.186V140.21ZM504.958 142.715C503.649 146.441 502.469 148.946 501.415 150.231C500.361 151.516 499.052 152.159 497.488 152.159C495.923 152.159 494.7 151.773 493.829 151.002C492.958 150.231 492.52 149.139 492.52 147.726C492.52 146.57 492.828 145.658 493.444 144.989C494.084 144.321 494.946 143.987 496.024 143.987C497.001 143.987 497.757 144.27 498.296 144.835C498.835 145.4 499.105 146.159 499.105 147.109C499.105 147.829 498.912 148.445 498.527 148.959C498.166 149.474 497.642 149.846 496.948 150.077C497.155 150.129 497.28 150.154 497.333 150.154H497.488C498.258 150.154 498.936 149.82 499.528 149.152C500.12 148.484 500.761 147.289 501.454 145.567L501.531 145.336C501.555 145.259 501.608 145.143 501.685 144.989L501.916 144.373C501.969 144.218 502.017 144.077 502.07 143.949L494.06 124.406H492.135V122.479H503.803V124.406H502.262L505.767 133.156L508.655 124.406H506.46V122.479H513.276V124.406H511.35C509.964 128.363 508.785 131.717 507.807 134.466C506.859 137.216 506.113 139.362 505.574 140.903C505.444 141.263 505.329 141.597 505.227 141.906L504.958 142.715ZM516.072 132.732C517.637 132.732 518.883 133.246 519.807 134.274C520.732 135.276 521.194 136.471 521.194 137.858C521.194 139.22 520.732 140.402 519.807 141.405C518.883 142.407 517.637 142.908 516.072 142.908C514.479 142.908 513.223 142.42 512.298 141.443C511.398 140.466 510.951 139.271 510.951 137.858C510.951 136.419 511.398 135.212 512.298 134.235C513.223 133.233 514.479 132.732 516.072 132.732Z" fill="white"/>
<path d="M319.05 104.556H312.419L312.486 104.057H313.511L314.521 95.7463H313.497L313.565 95.2471H317.931L317.864 95.7463H316.435L315.411 104.057H316.718C317.383 104.057 317.882 103.899 318.214 103.584C318.556 103.261 318.776 102.708 318.875 101.925L318.915 101.534H319.427L319.05 104.556ZM322.754 104.745C321.811 104.745 321.079 104.412 320.557 103.746C320.045 103.081 319.847 102.222 319.964 101.17C320.09 100.09 320.49 99.2226 321.164 98.5659C321.838 97.9091 322.651 97.581 323.603 97.581C324.304 97.581 324.866 97.7473 325.288 98.0802C325.719 98.4131 325.926 98.8448 325.908 99.3753C325.89 100.077 325.526 100.621 324.816 101.008C324.106 101.385 323.109 101.583 321.824 101.601C321.77 102.456 321.856 103.09 322.08 103.504C322.305 103.917 322.678 104.124 323.199 104.124C323.666 104.124 324.048 103.989 324.345 103.719C324.65 103.44 324.888 103.009 325.059 102.424L325.585 102.505C325.387 103.252 325.05 103.814 324.574 104.192C324.106 104.56 323.5 104.745 322.754 104.745ZM323.415 98.0937C323.02 98.0937 322.687 98.35 322.417 98.8627C322.148 99.3753 321.963 100.113 321.865 101.075C322.602 101.039 323.159 100.859 323.536 100.536C323.913 100.203 324.116 99.7217 324.143 99.092C324.152 98.7774 324.093 98.5345 323.967 98.3635C323.842 98.1838 323.657 98.0937 323.415 98.0937ZM328.696 104.745C328.04 104.745 327.568 104.574 327.281 104.232C326.994 103.881 326.89 103.359 326.971 102.667L327.51 98.2691H326.432L326.499 97.8104C327.209 97.8104 327.797 97.6037 328.265 97.1898C328.741 96.7672 329.069 96.1553 329.249 95.355H329.72L329.41 97.7564H331.284L331.216 98.2691H329.356L328.777 103.018C328.723 103.396 328.736 103.679 328.817 103.868C328.898 104.048 329.051 104.138 329.276 104.138C329.554 104.138 329.77 103.994 329.922 103.706C330.084 103.409 330.215 102.928 330.313 102.262H330.812C330.677 103.216 330.452 103.868 330.138 104.219C329.824 104.569 329.343 104.745 328.696 104.745ZM332.545 98.404L333.017 94.9233H334.31L333.3 98.404H332.545ZM334.266 104.745H333.956L334.266 102.262H334.778C334.716 102.811 334.837 103.274 335.142 103.652C335.448 104.021 335.852 104.205 336.355 104.205C336.796 104.205 337.137 104.111 337.379 103.922C337.631 103.724 337.757 103.45 337.757 103.099C337.757 102.919 337.716 102.762 337.636 102.627C337.555 102.492 337.42 102.37 337.231 102.262C337.159 102.208 337.069 102.159 336.962 102.114C336.854 102.069 336.616 101.979 336.247 101.844C335.69 101.664 335.273 101.399 334.994 101.048C334.724 100.697 334.599 100.266 334.617 99.7531C334.644 99.0963 334.882 98.5702 335.331 98.1746C335.78 97.7791 336.369 97.581 337.096 97.581C337.42 97.581 337.712 97.6172 337.972 97.689C338.242 97.7607 338.467 97.8687 338.646 98.0127L339.01 97.581H339.307L339.01 99.9824H338.498C338.561 99.3888 338.467 98.9258 338.215 98.5928C337.972 98.2512 337.613 98.0802 337.137 98.0802C336.786 98.0802 336.503 98.1703 336.288 98.35C336.072 98.5297 335.964 98.7726 335.964 99.0785C335.956 99.3483 336.032 99.5733 336.193 99.7531C336.364 99.9328 336.719 100.126 337.258 100.333C337.95 100.594 338.431 100.9 338.7 101.251C338.979 101.592 339.105 102.01 339.078 102.505C339.042 103.207 338.795 103.756 338.336 104.151C337.887 104.547 337.272 104.745 336.49 104.745C336.14 104.745 335.803 104.695 335.479 104.596C335.165 104.498 334.9 104.363 334.684 104.192L334.266 104.745ZM346.233 101.682C346.161 102.501 346.228 103.13 346.435 103.571C346.651 104.012 346.988 104.232 347.446 104.232C347.886 104.232 348.245 103.967 348.524 103.436C348.803 102.896 348.978 102.127 349.05 101.129C349.113 100.221 349.05 99.5464 348.861 99.1055C348.672 98.656 348.358 98.4309 347.918 98.4309C347.513 98.4309 347.167 98.6695 346.88 99.146C346.592 99.6138 346.399 100.239 346.3 101.021C346.291 101.093 346.278 101.214 346.26 101.385C346.242 101.547 346.233 101.646 346.233 101.682ZM347.567 104.745C347.082 104.745 346.66 104.641 346.3 104.434C345.941 104.219 345.671 103.917 345.492 103.531L344.548 104.826H344.022L345.114 94.9638H344.076L344.144 94.4646C344.872 94.4646 345.447 94.4511 345.869 94.4242C346.3 94.3972 346.588 94.3567 346.731 94.3027L347.001 94.4376L346.219 99.6316C346.408 98.9663 346.705 98.4579 347.109 98.1072C347.513 97.7564 348.012 97.581 348.605 97.581C349.431 97.581 350.056 97.8956 350.478 98.5254C350.91 99.1551 351.08 100.009 350.99 101.089C350.9 102.15 350.541 103.027 349.912 103.719C349.283 104.403 348.501 104.745 347.567 104.745ZM356.323 102.613C356.126 103.315 355.82 103.845 355.407 104.205C355.002 104.565 354.504 104.745 353.911 104.745C353.273 104.745 352.797 104.533 352.482 104.111C352.168 103.688 352.056 103.103 352.145 102.357L352.644 98.296H351.62L351.687 97.7834C352.424 97.7834 353.008 97.7742 353.439 97.7564C353.87 97.7294 354.149 97.689 354.275 97.635L354.558 97.7564L353.978 102.492C353.924 102.96 353.951 103.306 354.059 103.531C354.176 103.756 354.378 103.868 354.665 103.868C355.052 103.868 355.366 103.648 355.609 103.207C355.861 102.766 356.04 102.114 356.148 101.251L356.512 98.296H355.717L355.784 97.7834C356.449 97.7834 356.979 97.7699 357.374 97.7429C357.77 97.7159 358.026 97.6798 358.143 97.635L358.426 97.7564L357.765 103.207C357.73 103.486 357.738 103.697 357.792 103.841C357.846 103.976 357.945 104.043 358.089 104.043C358.277 104.043 358.426 103.922 358.534 103.679C358.651 103.427 358.741 103.036 358.803 102.505H359.315C359.19 103.386 358.992 103.98 358.722 104.286C358.462 104.583 358.062 104.731 357.523 104.731C357.101 104.731 356.781 104.61 356.566 104.367C356.359 104.124 356.256 103.76 356.256 103.274C356.256 103.274 356.256 103.252 356.256 103.207C356.265 103.162 356.278 103.072 356.296 102.937C356.305 102.811 356.31 102.725 356.31 102.681C356.319 102.636 356.323 102.613 356.323 102.613ZM363.183 95.4764C363.183 95.7824 363.071 96.0431 362.846 96.2589C362.622 96.4748 362.325 96.5827 361.957 96.5827C361.615 96.5827 361.346 96.4883 361.148 96.2994C360.96 96.1014 360.865 95.8542 360.865 95.5574C360.865 95.2514 360.977 94.9908 361.202 94.7749C361.426 94.5499 361.723 94.4376 362.092 94.4376C362.433 94.4376 362.698 94.5364 362.887 94.7344C363.084 94.9325 363.183 95.1796 363.183 95.4764ZM361.889 104.731C361.305 104.731 360.887 104.565 360.636 104.232C360.384 103.899 360.299 103.4 360.38 102.735L360.919 98.2691H359.895L359.949 97.7564C360.694 97.7564 361.283 97.7429 361.714 97.7159C362.154 97.689 362.437 97.6528 362.563 97.608L362.833 97.7294L362.172 103.247C362.136 103.526 362.141 103.729 362.186 103.854C362.24 103.98 362.339 104.043 362.482 104.043C362.671 104.043 362.824 103.917 362.941 103.665C363.066 103.413 363.161 103.031 363.224 102.519H363.736C363.619 103.373 363.417 103.958 363.129 104.273C362.851 104.578 362.437 104.731 361.889 104.731ZM366.144 104.731C365.551 104.731 365.128 104.569 364.877 104.246C364.634 103.913 364.553 103.409 364.634 102.735L365.591 94.9638H364.553L364.621 94.4646C365.331 94.4646 365.905 94.4511 366.346 94.4242C366.795 94.3972 367.087 94.3567 367.222 94.3027L367.505 94.4376L366.427 103.247C366.391 103.526 366.395 103.729 366.44 103.854C366.494 103.98 366.593 104.043 366.737 104.043C366.916 104.043 367.069 103.917 367.195 103.665C367.32 103.413 367.415 103.027 367.478 102.505H367.99C367.855 103.369 367.649 103.958 367.37 104.273C367.091 104.578 366.683 104.731 366.144 104.731ZM370.509 101.062C370.419 101.979 370.46 102.667 370.631 103.126C370.802 103.584 371.102 103.814 371.534 103.814C371.929 103.814 372.266 103.58 372.544 103.112C372.832 102.636 373.034 101.997 373.151 101.197C373.169 100.999 373.187 100.841 373.205 100.724C373.223 100.599 373.232 100.522 373.232 100.495C373.295 99.7304 373.223 99.1416 373.016 98.7278C372.818 98.3139 372.508 98.1072 372.086 98.1072C371.682 98.1072 371.341 98.3678 371.062 98.8896C370.792 99.4023 370.608 100.126 370.509 101.062ZM374.499 104.731C374.041 104.731 373.704 104.601 373.488 104.34C373.281 104.07 373.187 103.665 373.205 103.126C373.205 103.117 373.205 103.094 373.205 103.058C373.214 103.014 373.223 102.928 373.232 102.802C373.241 102.685 373.245 102.609 373.245 102.573C373.254 102.528 373.259 102.501 373.259 102.492C373.043 103.229 372.724 103.791 372.302 104.178C371.88 104.556 371.368 104.745 370.765 104.745C369.993 104.745 369.404 104.417 369 103.76C368.605 103.103 368.461 102.222 368.569 101.116C368.667 100.081 369.036 99.2361 369.674 98.5793C370.312 97.914 371.098 97.581 372.032 97.581C372.347 97.581 372.63 97.6528 372.881 97.7969C373.142 97.9318 373.353 98.1298 373.515 98.3905C373.515 98.3365 373.542 98.0262 373.596 97.4596C373.65 96.8838 373.731 96.0522 373.838 94.9638H372.814L372.868 94.4646C373.578 94.4646 374.153 94.4511 374.593 94.4242C375.042 94.3972 375.334 94.3567 375.469 94.3027L375.752 94.4376L374.728 103.207C374.701 103.494 374.714 103.706 374.768 103.841C374.822 103.976 374.917 104.043 375.051 104.043C375.24 104.043 375.388 103.922 375.496 103.679C375.613 103.436 375.707 103.045 375.779 102.505H376.291C376.166 103.386 375.968 103.98 375.698 104.286C375.438 104.583 375.038 104.731 374.499 104.731ZM382.485 101.008C382.386 101.943 382.408 102.644 382.552 103.112C382.705 103.58 382.983 103.814 383.388 103.814C383.837 103.814 384.21 103.589 384.506 103.139C384.803 102.681 385.005 102.033 385.113 101.197C385.14 101.017 385.158 100.873 385.167 100.765C385.185 100.648 385.194 100.576 385.194 100.549C385.275 99.7396 385.229 99.1325 385.059 98.7278C384.888 98.323 384.587 98.1163 384.156 98.1072C383.706 98.098 383.342 98.3365 383.064 98.8222C382.786 99.3079 382.593 100.036 382.485 101.008ZM382.741 104.745C381.959 104.745 381.366 104.417 380.962 103.76C380.566 103.094 380.427 102.213 380.544 101.116C380.67 100.081 381.051 99.2361 381.69 98.5793C382.336 97.914 383.132 97.581 384.075 97.581C384.506 97.581 384.884 97.6846 385.207 97.8913C385.531 98.098 385.787 98.3948 385.975 98.7817L386.865 97.581H387.391L386.703 103.207C386.667 103.486 386.676 103.697 386.73 103.841C386.784 103.976 386.883 104.043 387.027 104.043C387.215 104.043 387.364 103.922 387.471 103.679C387.588 103.427 387.678 103.036 387.741 102.505H388.267C388.14 103.378 387.943 103.967 387.674 104.273C387.413 104.578 387.013 104.731 386.474 104.731C385.998 104.731 385.652 104.592 385.436 104.313C385.221 104.034 385.131 103.607 385.167 103.031L385.234 102.465C385.009 103.202 384.682 103.769 384.25 104.165C383.828 104.551 383.325 104.745 382.741 104.745ZM398.479 104.731C397.913 104.731 397.508 104.565 397.266 104.232C397.023 103.899 396.942 103.4 397.023 102.735L397.401 99.7666C397.454 99.3079 397.428 98.9749 397.32 98.7682C397.212 98.5524 397.015 98.4444 396.727 98.4444C396.358 98.4444 396.035 98.6781 395.756 99.146C395.478 99.6047 395.289 100.243 395.19 101.062L394.759 104.556H392.926L393.694 98.2691H392.656L392.724 97.7564C393.344 97.7564 393.847 97.7429 394.233 97.7159C394.629 97.689 394.889 97.6528 395.015 97.608L395.298 97.7294L395.082 99.4563C395.307 98.8535 395.626 98.3905 396.039 98.0667C396.453 97.7429 396.942 97.581 397.508 97.581C398.155 97.581 398.623 97.7791 398.91 98.1746C399.198 98.5702 399.297 99.1503 399.207 99.915L398.816 103.207C398.78 103.504 398.784 103.719 398.829 103.854C398.883 103.98 398.982 104.043 399.126 104.043C399.306 104.043 399.458 103.917 399.584 103.665C399.71 103.413 399.804 103.027 399.867 102.505H400.379C400.244 103.369 400.034 103.958 399.746 104.273C399.467 104.578 399.045 104.731 398.479 104.731ZM403.558 104.745C402.614 104.745 401.882 104.412 401.361 103.746C400.849 103.081 400.651 102.222 400.768 101.17C400.894 100.09 401.294 99.2226 401.968 98.5659C402.641 97.9091 403.454 97.581 404.407 97.581C405.108 97.581 405.669 97.7473 406.092 98.0802C406.523 98.4131 406.729 98.8448 406.712 99.3753C406.693 100.077 406.329 100.621 405.62 101.008C404.91 101.385 403.913 101.583 402.628 101.601C402.574 102.456 402.659 103.09 402.884 103.504C403.108 103.917 403.481 104.124 404.003 104.124C404.47 104.124 404.852 103.989 405.148 103.719C405.453 103.44 405.692 103.009 405.863 102.424L406.388 102.505C406.19 103.252 405.853 103.814 405.377 104.192C404.91 104.56 404.304 104.745 403.558 104.745ZM404.218 98.0937C403.823 98.0937 403.491 98.35 403.221 98.8627C402.951 99.3753 402.767 100.113 402.668 101.075C403.405 101.039 403.962 100.859 404.34 100.536C404.717 100.203 404.919 99.7217 404.946 99.092C404.955 98.7774 404.897 98.5345 404.771 98.3635C404.645 98.1838 404.461 98.0937 404.218 98.0937ZM409.917 104.65H409.217L407.748 98.2691H406.912L406.966 97.7564H410.241L410.173 98.2691H409.513L410.349 102.384L411.67 99.3483L411.467 98.2691H410.834L410.901 97.7564H414.001L413.947 98.2691H413.112L413.839 102.235L415.524 98.2691H414.689L414.756 97.7564H416.885L416.818 98.2691H416.117L413.422 104.65H412.721L411.858 100.252L409.917 104.65ZM423.021 104.745C422.041 104.745 421.286 104.412 420.756 103.746C420.226 103.081 420.019 102.222 420.136 101.17C420.262 100.09 420.666 99.2226 421.349 98.5659C422.032 97.9091 422.859 97.581 423.829 97.581C424.503 97.581 425.033 97.7386 425.42 98.0532C425.815 98.3592 425.999 98.7817 425.972 99.3214C425.945 99.636 425.833 99.888 425.635 100.077C425.447 100.266 425.19 100.36 424.867 100.36C424.561 100.36 424.328 100.279 424.166 100.117C424.004 99.9554 423.932 99.7352 423.951 99.4563C423.959 99.1773 424.045 98.9436 424.207 98.7547C424.368 98.5659 424.579 98.4444 424.84 98.3905C424.723 98.2825 424.588 98.2016 424.436 98.1476C424.292 98.0937 424.13 98.0667 423.951 98.0667C423.429 98.0667 423.007 98.323 422.684 98.8357C422.369 99.3483 422.153 100.108 422.037 101.116C421.929 102.078 421.991 102.82 422.225 103.342C422.459 103.863 422.854 104.124 423.411 104.124C423.834 104.124 424.202 103.971 424.517 103.665C424.84 103.359 425.064 102.946 425.19 102.424L425.716 102.505C425.518 103.234 425.19 103.791 424.732 104.178C424.274 104.556 423.703 104.745 423.021 104.745ZM431.203 102.613C431.006 103.315 430.7 103.845 430.287 104.205C429.883 104.565 429.384 104.745 428.791 104.745C428.153 104.745 427.677 104.533 427.362 104.111C427.048 103.688 426.936 103.103 427.025 102.357L427.524 98.296H426.5L426.567 97.7834C427.304 97.7834 427.888 97.7742 428.319 97.7564C428.75 97.7294 429.029 97.689 429.155 97.635L429.438 97.7564L428.858 102.492C428.804 102.96 428.831 103.306 428.939 103.531C429.056 103.756 429.258 103.868 429.546 103.868C429.932 103.868 430.246 103.648 430.489 103.207C430.741 102.766 430.92 102.114 431.028 101.251L431.392 98.296H430.597L430.664 97.7834C431.33 97.7834 431.859 97.7699 432.255 97.7429C432.65 97.7159 432.906 97.6798 433.023 97.635L433.306 97.7564L432.645 103.207C432.61 103.486 432.619 103.697 432.672 103.841C432.726 103.976 432.826 104.043 432.969 104.043C433.158 104.043 433.306 103.922 433.414 103.679C433.531 103.427 433.621 103.036 433.683 102.505H434.195C434.07 103.386 433.872 103.98 433.602 104.286C433.342 104.583 432.942 104.731 432.403 104.731C431.981 104.731 431.662 104.61 431.446 104.367C431.239 104.124 431.136 103.76 431.136 103.274C431.136 103.274 431.136 103.252 431.136 103.207C431.145 103.162 431.159 103.072 431.176 102.937C431.186 102.811 431.19 102.725 431.19 102.681C431.199 102.636 431.203 102.613 431.203 102.613ZM436.608 104.731C436.015 104.731 435.592 104.569 435.341 104.246C435.098 103.913 435.018 103.409 435.098 102.735L436.055 94.9638H435.018L435.085 94.4646C435.794 94.4646 436.37 94.4511 436.81 94.4242C437.259 94.3972 437.551 94.3567 437.686 94.3027L437.969 94.4376L436.891 103.247C436.855 103.526 436.859 103.729 436.904 103.854C436.958 103.98 437.057 104.043 437.201 104.043C437.38 104.043 437.533 103.917 437.659 103.665C437.785 103.413 437.879 103.027 437.942 102.505H438.454C438.32 103.369 438.113 103.958 437.834 104.273C437.556 104.578 437.147 104.731 436.608 104.731ZM441.122 104.745C440.466 104.745 439.994 104.574 439.707 104.232C439.419 103.881 439.316 103.359 439.397 102.667L439.936 98.2691H438.858L438.925 97.8104C439.635 97.8104 440.223 97.6037 440.691 97.1898C441.167 96.7672 441.495 96.1553 441.675 95.355H442.146L441.836 97.7564H443.71L443.642 98.2691H441.782L441.203 103.018C441.149 103.396 441.162 103.679 441.243 103.868C441.324 104.048 441.477 104.138 441.701 104.138C441.98 104.138 442.196 103.994 442.348 103.706C442.51 103.409 442.641 102.928 442.739 102.262H443.238C443.103 103.216 442.878 103.868 442.564 104.219C442.25 104.569 441.769 104.745 441.122 104.745ZM448.65 102.613C448.452 103.315 448.147 103.845 447.734 104.205C447.329 104.565 446.831 104.745 446.238 104.745C445.6 104.745 445.123 104.533 444.809 104.111C444.495 103.688 444.382 103.103 444.472 102.357L444.971 98.296H443.946L444.014 97.7834C444.751 97.7834 445.335 97.7742 445.766 97.7564C446.197 97.7294 446.476 97.689 446.602 97.635L446.885 97.7564L446.305 102.492C446.251 102.96 446.278 103.306 446.386 103.531C446.503 103.756 446.705 103.868 446.992 103.868C447.379 103.868 447.693 103.648 447.936 103.207C448.188 102.766 448.367 102.114 448.475 101.251L448.839 98.296H448.044L448.111 97.7834C448.776 97.7834 449.306 97.7699 449.701 97.7429C450.097 97.7159 450.353 97.6798 450.47 97.635L450.753 97.7564L450.092 103.207C450.056 103.486 450.065 103.697 450.119 103.841C450.173 103.976 450.272 104.043 450.416 104.043C450.604 104.043 450.753 103.922 450.86 103.679C450.977 103.427 451.067 103.036 451.13 102.505H451.642C451.517 103.386 451.319 103.98 451.049 104.286C450.789 104.583 450.389 104.731 449.85 104.731C449.428 104.731 449.108 104.61 448.893 104.367C448.686 104.124 448.583 103.76 448.583 103.274C448.583 103.274 448.583 103.252 448.583 103.207C448.592 103.162 448.605 103.072 448.623 102.937C448.632 102.811 448.637 102.725 448.637 102.681C448.646 102.636 448.65 102.613 448.65 102.613ZM454.364 104.556H452.531L453.299 98.2691H452.262L452.329 97.7564C452.949 97.7564 453.453 97.7429 453.839 97.7159C454.234 97.689 454.495 97.6528 454.62 97.608L454.903 97.7294L454.661 99.6991C454.859 99.0337 455.142 98.5162 455.51 98.1476C455.878 97.7699 456.305 97.581 456.79 97.581C457.24 97.581 457.594 97.7024 457.855 97.9453C458.116 98.179 458.246 98.4984 458.246 98.9031C458.246 99.29 458.134 99.609 457.909 99.861C457.685 100.113 457.401 100.239 457.06 100.239C456.755 100.239 456.516 100.158 456.345 99.9959C456.175 99.8248 456.089 99.5912 456.089 99.2944C456.089 99.0785 456.139 98.8896 456.238 98.7278C456.345 98.5567 456.48 98.4353 456.642 98.3635C456.615 98.3543 456.584 98.35 456.548 98.35C456.521 98.3408 456.489 98.3365 456.453 98.3365C456.076 98.3365 455.725 98.629 455.402 99.2134C455.079 99.7892 454.859 100.54 454.742 101.466L454.364 104.556ZM461.136 104.745C460.193 104.745 459.461 104.412 458.939 103.746C458.427 103.081 458.229 102.222 458.346 101.17C458.472 100.09 458.872 99.2226 459.546 98.5659C460.22 97.9091 461.033 97.581 461.985 97.581C462.686 97.581 463.248 97.7473 463.67 98.0802C464.101 98.4131 464.308 98.8448 464.29 99.3753C464.272 100.077 463.908 100.621 463.198 101.008C462.488 101.385 461.491 101.583 460.206 101.601C460.152 102.456 460.238 103.09 460.462 103.504C460.687 103.917 461.06 104.124 461.581 104.124C462.048 104.124 462.43 103.989 462.727 103.719C463.032 103.44 463.27 103.009 463.441 102.424L463.966 102.505C463.769 103.252 463.432 103.814 462.956 104.192C462.488 104.56 461.882 104.745 461.136 104.745ZM461.797 98.0937C461.401 98.0937 461.069 98.35 460.799 98.8627C460.53 99.3753 460.345 100.113 460.247 101.075C460.984 101.039 461.541 100.859 461.918 100.536C462.295 100.203 462.497 99.7217 462.524 99.092C462.534 98.7774 462.475 98.5345 462.349 98.3635C462.224 98.1838 462.039 98.0937 461.797 98.0937ZM470.849 104.745C470.193 104.745 469.721 104.574 469.434 104.232C469.146 103.881 469.043 103.359 469.124 102.667L469.663 98.2691H468.585L468.652 97.8104C469.362 97.8104 469.951 97.6037 470.418 97.1898C470.894 96.7672 471.222 96.1553 471.402 95.355H471.874L471.564 97.7564H473.437L473.37 98.2691H471.51L470.93 103.018C470.876 103.396 470.89 103.679 470.971 103.868C471.051 104.048 471.204 104.138 471.429 104.138C471.707 104.138 471.923 103.994 472.076 103.706C472.237 103.409 472.367 102.928 472.467 102.262H472.965C472.83 103.216 472.606 103.868 472.291 104.219C471.977 104.569 471.496 104.745 470.849 104.745ZM480.281 101.224C480.164 102.249 479.755 103.094 479.054 103.76C478.353 104.417 477.527 104.745 476.574 104.745C475.622 104.745 474.854 104.39 474.27 103.679C473.686 102.968 473.452 102.096 473.569 101.062C473.695 100.036 474.108 99.1999 474.809 98.5524C475.51 97.9048 476.341 97.581 477.302 97.581C478.255 97.581 479.019 97.9318 479.593 98.6333C480.178 99.3257 480.407 100.189 480.281 101.224ZM475.469 101.062C475.353 102.159 475.388 102.96 475.577 103.463C475.766 103.958 476.116 104.205 476.628 104.205C477.132 104.205 477.518 103.98 477.787 103.531C478.057 103.081 478.255 102.312 478.38 101.224C478.497 100.135 478.461 99.344 478.273 98.8492C478.093 98.3543 477.747 98.1072 477.235 98.1072C476.732 98.1072 476.345 98.3274 476.076 98.7682C475.806 99.2091 475.604 99.9733 475.469 101.062ZM483.023 99.78C482.942 100.32 482.98 100.747 483.144 101.062C483.307 101.376 483.553 101.534 483.885 101.534C484.217 101.534 484.487 101.39 484.694 101.102C484.901 100.805 485.045 100.364 485.127 99.78C485.194 99.2313 485.151 98.8044 484.992 98.4984C484.838 98.1838 484.593 98.0262 484.26 98.0262C483.928 98.0262 483.659 98.1746 483.452 98.4714C483.245 98.7591 483.105 99.1956 483.023 99.78ZM486.836 105.163C486.836 105.99 486.499 106.678 485.825 107.227C485.151 107.776 484.294 108.05 483.25 108.05C482.272 108.05 481.488 107.879 480.893 107.537C480.309 107.204 480.017 106.751 480.017 106.175C480.017 105.707 480.21 105.311 480.596 104.988C480.992 104.664 481.512 104.475 482.162 104.421C481.757 104.349 481.449 104.214 481.243 104.016C481.046 103.809 480.947 103.544 480.947 103.22C480.947 102.869 481.086 102.564 481.363 102.303C481.652 102.042 482.041 101.862 482.537 101.763C482.061 101.574 481.7 101.3 481.459 100.94C481.216 100.58 481.122 100.176 481.176 99.7261C481.257 99.0694 481.579 98.548 482.147 98.1611C482.72 97.7742 483.442 97.581 484.318 97.581C484.54 97.581 484.756 97.5989 484.963 97.635C485.17 97.6711 485.363 97.7203 485.541 97.7834L487.553 97.7564L487.524 98.2691L486.325 98.2286C486.566 98.4353 486.744 98.6781 486.85 98.9571C486.966 99.2361 487.009 99.5329 486.97 99.8475C486.889 100.486 486.556 101.003 485.974 101.399C485.396 101.795 484.684 101.993 483.832 101.993C483.346 101.993 482.956 102.051 482.658 102.168C482.364 102.276 482.21 102.429 482.2 102.627C482.191 102.806 482.277 102.937 482.455 103.018C482.643 103.099 483.038 103.148 483.644 103.166C484.727 103.202 485.531 103.386 486.056 103.719C486.576 104.043 486.836 104.525 486.836 105.163ZM481.488 106.107C481.488 106.566 481.647 106.917 481.969 107.16C482.301 107.402 482.783 107.524 483.413 107.524C484.068 107.524 484.597 107.362 485.002 107.038C485.406 106.724 485.608 106.323 485.608 105.837C485.608 105.451 485.469 105.172 485.194 105.001C484.925 104.83 484.347 104.718 483.466 104.664C483.447 104.664 483.418 104.659 483.375 104.65C483.336 104.65 483.259 104.65 483.144 104.65C483.019 104.641 482.932 104.632 482.889 104.623C482.85 104.623 482.826 104.623 482.807 104.623C482.383 104.731 482.056 104.911 481.825 105.163C481.599 105.424 481.488 105.739 481.488 106.107ZM490.494 104.745C489.55 104.745 488.819 104.412 488.299 103.746C487.784 103.081 487.586 102.222 487.707 101.17C487.832 100.09 488.232 99.2226 488.905 98.5659C489.579 97.9091 490.393 97.581 491.346 97.581C492.044 97.581 492.607 97.7473 493.031 98.0802C493.459 98.4131 493.666 98.8448 493.647 99.3753C493.632 100.077 493.266 100.621 492.559 101.008C491.846 101.385 490.85 101.583 489.565 101.601C489.512 102.456 489.599 103.09 489.82 103.504C490.046 103.917 490.417 104.124 490.941 104.124C491.408 104.124 491.789 103.989 492.087 103.719C492.39 103.44 492.631 103.009 492.799 102.424L493.324 102.505C493.127 103.252 492.79 103.814 492.313 104.192C491.846 104.56 491.24 104.745 490.494 104.745ZM491.153 98.0937C490.759 98.0937 490.426 98.35 490.157 98.8627C489.887 99.3753 489.704 100.113 489.603 101.075C490.34 101.039 490.898 100.859 491.278 100.536C491.654 100.203 491.856 99.7217 491.885 99.092C491.89 98.7774 491.832 98.5345 491.707 98.3635C491.582 98.1838 491.399 98.0937 491.153 98.0937ZM496.438 104.745C495.779 104.745 495.307 104.574 495.023 104.232C494.734 103.881 494.629 103.359 494.71 102.667L495.249 98.2691H494.171L494.239 97.8104C494.951 97.8104 495.538 97.6037 496.005 97.1898C496.482 96.7672 496.809 96.1553 496.987 95.355H497.459L497.151 97.7564H499.023L498.956 98.2691H497.098L496.515 103.018C496.462 103.396 496.477 103.679 496.559 103.868C496.641 104.048 496.79 104.138 497.016 104.138C497.295 104.138 497.512 103.994 497.661 103.706C497.825 103.409 497.955 102.928 498.056 102.262H498.551C498.417 103.216 498.195 103.868 497.878 104.219C497.565 104.569 497.083 104.745 496.438 104.745ZM504.963 104.731C504.395 104.731 503.986 104.565 503.736 104.232C503.495 103.899 503.413 103.4 503.495 102.735L503.87 99.7396C503.923 99.2987 503.899 98.9749 503.789 98.7682C503.692 98.5524 503.505 98.4444 503.235 98.4444C502.85 98.4444 502.518 98.6695 502.239 99.119C501.969 99.5685 501.786 100.216 501.685 101.062L501.271 104.556H499.423L500.607 94.9638H499.586L499.639 94.4646C500.366 94.4646 500.949 94.4511 501.391 94.4242C501.829 94.3972 502.118 94.3567 502.253 94.3027L502.537 94.4376C502.301 95.9038 502.118 97.0322 501.983 97.8239C501.849 98.6063 501.767 99.0515 501.743 99.1595C501.955 98.6468 502.258 98.2556 502.643 97.9858C503.028 97.7159 503.48 97.581 503.991 97.581C504.641 97.581 505.107 97.7791 505.391 98.1746C505.68 98.5615 505.781 99.1281 505.69 99.8745L505.285 103.207C505.252 103.504 505.252 103.719 505.3 103.854C505.353 103.98 505.454 104.043 505.594 104.043C505.776 104.043 505.926 103.917 506.056 103.665C506.181 103.413 506.272 103.027 506.335 102.505H506.85C506.725 103.369 506.518 103.958 506.229 104.273C505.95 104.578 505.526 104.731 504.963 104.731ZM510.036 104.745C509.093 104.745 508.356 104.412 507.837 103.746C507.326 103.081 507.129 102.222 507.245 101.17C507.37 100.09 507.769 99.2226 508.443 98.5659C509.117 97.9091 509.93 97.581 510.884 97.581C511.586 97.581 512.145 97.7473 512.568 98.0802C513.001 98.4131 513.204 98.8448 513.189 99.3753C513.17 100.077 512.804 100.621 512.097 101.008C511.384 101.385 510.388 101.583 509.103 101.601C509.05 102.456 509.136 103.09 509.362 103.504C509.584 103.917 509.959 104.124 510.479 104.124C510.946 104.124 511.326 103.989 511.625 103.719C511.928 103.44 512.169 103.009 512.337 102.424L512.867 102.505C512.664 103.252 512.328 103.814 511.856 104.192C511.384 104.56 510.778 104.745 510.036 104.745ZM510.696 98.0937C510.301 98.0937 509.969 98.35 509.699 98.8627C509.43 99.3753 509.242 100.113 509.146 101.075C509.882 101.039 510.441 100.859 510.816 100.536C511.192 100.203 511.394 99.7217 511.423 99.092C511.432 98.7774 511.374 98.5345 511.249 98.3635C511.119 98.1838 510.936 98.0937 510.696 98.0937ZM516.029 104.556H514.195L514.965 98.2691H513.926L513.993 97.7564C514.614 97.7564 515.119 97.7429 515.504 97.7159C515.899 97.689 516.159 97.6528 516.284 97.608L516.568 97.7294L516.328 99.6991C516.525 99.0337 516.809 98.5162 517.175 98.1476C517.545 97.7699 517.969 97.581 518.455 97.581C518.903 97.581 519.259 97.7024 519.519 97.9453C519.779 98.179 519.914 98.4984 519.914 98.9031C519.914 99.29 519.798 99.609 519.577 99.861C519.35 100.113 519.066 100.239 518.725 100.239C518.421 100.239 518.181 100.158 518.012 99.9959C517.839 99.8248 517.757 99.5912 517.757 99.2944C517.757 99.0785 517.805 98.8896 517.901 98.7278C518.012 98.5567 518.147 98.4353 518.306 98.3635C518.282 98.3543 518.248 98.35 518.214 98.35C518.185 98.3408 518.157 98.3365 518.118 98.3365C517.743 98.3365 517.391 98.629 517.069 99.2134C516.746 99.7892 516.525 100.54 516.409 101.466L516.029 104.556Z" fill="white"/>
<path d="M33.0684 37.5827H30.0841V37.2936H31.143V31.2227H30.7387C30.1932 31.2227 29.8274 31.3191 29.6412 31.5118C29.4551 31.7045 29.362 32.0707 29.362 32.6103V33.0536H29.0732V30.9336H34.0792V33.0536H33.7904V32.6103C33.7904 32.0707 33.6974 31.7045 33.5112 31.5118C33.3251 31.3191 32.9593 31.2227 32.4138 31.2227H32.0094V37.2936H33.0684V37.5827ZM36.3466 37.679C35.7049 37.679 35.1818 37.451 34.7774 36.9949C34.3731 36.5323 34.171 35.9188 34.171 35.1543C34.171 34.4156 34.3667 33.8181 34.7582 33.362C35.1561 32.8994 35.6567 32.6681 36.26 32.6681C36.8504 32.6681 37.3158 32.8673 37.6559 33.2656C37.996 33.6575 38.1661 34.1778 38.1661 34.8267V35.0483H35.0374V35.1543C35.0374 35.9509 35.1401 36.5195 35.3454 36.86C35.5508 37.2005 35.8878 37.3707 36.3563 37.3707C36.7349 37.3707 37.043 37.2743 37.2804 37.0816C37.5179 36.8889 37.704 36.5709 37.8388 36.1276L38.1083 36.2047C37.9928 36.6608 37.7779 37.0205 37.4633 37.284C37.1553 37.5474 36.7831 37.679 36.3466 37.679ZM36.2407 32.9669C35.8557 32.9669 35.5669 33.1114 35.3743 33.4005C35.1818 33.6896 35.0727 34.1425 35.047 34.7592H37.3093C37.3158 34.1361 37.2323 33.6832 37.059 33.4005C36.8857 33.1114 36.613 32.9669 36.2407 32.9669ZM40.3301 37.5827H38.3951V37.2936H39.1171L40.5708 35.2121L39.0883 33.0536H38.4914V32.7645H40.6671V33.0536H39.9643L41.1003 34.6918L42.2266 33.0536H41.5335V32.7645H43.3145V33.0536H42.6406L41.3024 34.9809L42.9101 37.2936H43.4492V37.5827H41.1965V37.2936H42.0052L40.7922 35.5301L39.5696 37.2936H40.3301V37.5827ZM45.2821 37.679C44.9227 37.679 44.6403 37.5795 44.4349 37.3803C44.236 37.1747 44.1365 36.8825 44.1365 36.5034V33.0536H43.2701V32.8609C43.7065 32.8609 44.0627 32.681 44.3387 32.3212C44.6211 31.9615 44.7622 31.5375 44.7622 31.0492H44.9548V32.7645H46.4662V33.0536H44.9548V36.5034C44.9548 36.7989 45.0029 37.0174 45.0992 37.1587C45.1954 37.3 45.3463 37.3707 45.5516 37.3707C45.8019 37.3707 45.9817 37.255 46.0907 37.0238C46.2063 36.7925 46.264 36.4135 46.264 35.8867H46.524C46.524 36.542 46.4245 37.0045 46.2255 37.2743C46.033 37.5441 45.7185 37.679 45.2821 37.679ZM47.2113 36.648C47.3204 36.5323 47.468 36.4745 47.6541 36.4745C47.8403 36.4745 47.9879 36.5356 48.097 36.6576C48.2062 36.7732 48.2605 36.9145 48.2605 37.0816C48.2605 37.2422 48.2062 37.3835 48.097 37.5056C47.9879 37.6212 47.8403 37.679 47.6541 37.679C47.468 37.679 47.3204 37.6212 47.2113 37.5056C47.1022 37.39 47.0477 37.2486 47.0477 37.0816C47.0477 36.9081 47.1022 36.7636 47.2113 36.648ZM50.5744 37.2936H51.7296V37.5827H48.9859V37.2936H49.7561V33.0536H48.9859V32.7645C49.5828 32.7645 49.9419 32.7581 50.0641 32.7452C50.1922 32.726 50.2884 32.6874 50.3529 32.6296L50.4492 32.7163V34.1232C50.5132 33.6607 50.6543 33.3041 50.8728 33.0536C51.0908 32.7966 51.3734 32.6681 51.72 32.6681C52.0405 32.6681 52.2976 32.7645 52.4901 32.9572C52.6889 33.1436 52.7885 33.3812 52.7885 33.6703C52.7885 33.8823 52.737 34.0494 52.6345 34.1714C52.5382 34.287 52.4001 34.3449 52.2206 34.3449C52.0343 34.3449 51.8865 34.2935 51.7777 34.1907C51.6747 34.0879 51.6237 33.9465 51.6237 33.7667C51.6237 33.5932 51.6781 33.4519 51.7873 33.3427C51.9029 33.2335 52.0569 33.1725 52.2494 33.1596C52.1849 33.0889 52.105 33.0376 52.0088 33.0054C51.9188 32.9669 51.8129 32.9476 51.6911 32.9476C51.3123 32.9476 51.0297 33.15 50.8439 33.5547C50.6639 33.953 50.5744 34.5729 50.5744 35.4145V37.2936ZM56.9589 37.7176L56.8626 37.6309V36.301C56.8049 36.7572 56.6508 37.1009 56.4005 37.3321C56.1502 37.5634 55.8066 37.679 55.3705 37.679C54.8314 37.679 54.4333 37.5249 54.1767 37.2165C53.9264 36.9017 53.8013 36.4135 53.8013 35.7518V33.0536H52.9349V32.7645C53.6343 32.7645 54.0578 32.7581 54.2056 32.7452C54.3596 32.726 54.4655 32.6874 54.5233 32.6296L54.6196 32.7163V35.6458C54.6196 36.2111 54.6995 36.619 54.8602 36.8696C55.0268 37.1201 55.2963 37.2454 55.6689 37.2454C56.0217 37.2454 56.2879 37.0945 56.4679 36.7925C56.6475 36.4905 56.7375 36.0473 56.7375 35.4627V33.0536H55.486V32.7645C56.3072 32.7645 56.827 32.7549 57.0455 32.7356C57.2698 32.7163 57.408 32.681 57.4595 32.6296L57.5558 32.7163V37.2936H58.3259V37.5827C58.0179 37.5827 57.7546 37.5923 57.5365 37.6116C57.3247 37.6373 57.1322 37.6726 56.9589 37.7176Z" fill="white"/>
</g>
</g>
<defs>
<clipPath id="clip0_539_2">
<rect width="645" height="318" fill="white"/>
</clipPath>
</defs>
</svg>
