<svg width="645" height="318" viewBox="0 0 645 318" fill="none" xmlns="http://www.w3.org/2000/svg">
<g clip-path="url(#clip0_568_49)">
<path d="M645 0H0V318H645V0Z" fill="white"/>
<mask id="mask0_568_49" style="mask-type:luminance" maskUnits="userSpaceOnUse" x="14" y="14" width="617" height="290">
<path d="M630.56 14.4551H14.4404V303.546H630.56V14.4551Z" fill="white"/>
</mask>
<g mask="url(#mask0_568_49)">
<path d="M630.56 14.4551H14.4404V303.546H630.56V14.4551Z" fill="#0E008B"/>
<path d="M643.653 168.115H587.576V160.421L617.241 109.914H609.848C605.776 109.914 603.018 110.604 601.569 111.985C600.192 113.366 599.499 116.392 599.499 121.06V124.415H588.168V100.049H642.666V107.743L613.001 158.25H623.451C627.455 158.25 629.92 157.527 630.839 156.08C631.826 154.633 632.317 151.312 632.317 146.117V143.256H643.653V168.115Z" fill="white"/>
<path d="M545.103 168.115H601.179V160.421L571.514 109.914H578.903C582.979 109.914 585.738 110.604 587.182 111.985C588.563 113.366 589.251 116.392 589.251 121.06V124.415H600.587V100.049H546.089V107.743L575.75 158.25H565.305C561.295 158.25 558.835 157.527 557.916 156.08C556.929 154.633 556.433 151.312 556.433 146.117V143.256H545.103V168.115Z" fill="white"/>
<path d="M643.653 235.986H587.576V228.291L617.241 177.784H609.848C605.776 177.784 603.018 178.475 601.569 179.856C600.192 181.237 599.499 184.262 599.499 188.932V192.285H588.168V167.92H642.666V175.614L613.001 226.121H623.451C627.455 226.121 629.92 225.397 630.839 223.951C631.826 222.504 632.317 219.183 632.317 213.988V211.127H643.653V235.986Z" fill="white"/>
<path d="M545.103 235.986H601.179V228.291L571.514 177.784H578.903C582.979 177.784 585.738 178.475 587.182 179.856C588.563 181.237 589.251 184.262 589.251 188.932V192.285H600.587V167.92H546.089V175.614L575.75 226.121H565.305C561.295 226.121 558.835 225.397 557.916 223.951C556.929 222.504 556.433 219.183 556.433 213.988V211.127H545.103V235.986Z" fill="white"/>
<path d="M562.445 303.853H506.373V296.158L536.033 245.652H528.645C524.573 245.652 521.81 246.342 520.366 247.723C518.984 249.105 518.296 252.129 518.296 256.799V260.153H506.965V235.787H561.463V243.482L531.798 293.988H542.243C546.252 293.988 548.717 293.265 549.636 291.818C550.618 290.371 551.114 287.05 551.114 281.855V278.994H562.445V303.853Z" fill="white"/>
<path d="M472.57 303.853H416.495V296.158L446.158 245.652H438.767C434.694 245.652 431.935 246.342 430.489 247.723C429.11 249.105 428.42 252.129 428.42 256.799V260.153H417.087V235.787H471.584V243.482L441.921 293.988H452.367C456.375 293.988 458.838 293.265 459.758 291.818C460.744 290.371 461.236 287.05 461.236 281.855V278.994H472.57V303.853Z" fill="white"/>
<path d="M463.896 303.853H519.971V296.158L490.306 245.652H497.699C501.771 245.652 504.53 246.342 505.978 247.723C507.355 249.105 508.048 252.129 508.048 256.799V260.153H519.379V235.787H464.882V243.482L494.547 293.988H484.101C480.092 293.988 477.628 293.265 476.708 291.818C475.723 290.371 475.23 287.05 475.23 281.855V278.994H463.896V303.853Z" fill="white"/>
<path d="M374.021 303.853H430.095V296.158L400.431 245.652H407.823C411.896 245.652 414.656 246.342 416.101 247.723C417.481 249.105 418.17 252.129 418.17 256.799V260.153H429.504V235.787H375.006V243.482L404.669 293.988H394.223C390.215 293.988 387.751 293.265 386.831 291.818C385.846 290.371 385.353 287.05 385.353 281.855V278.994H374.021V303.853Z" fill="white"/>
<path d="M619.013 303.853V293.988H613.593V245.652H619.013V235.787H585.016V245.652H589.449V264.198H574.667V245.652H579.1V235.787H545.103V245.652H550.522V293.988H545.103V303.853H579.1V293.988H574.667V274.062H589.449V293.988H585.016V303.853H619.013Z" fill="white"/>
<path d="M676.172 303.853V293.988H670.752V245.652H676.172V235.787H642.175V245.652H646.608V264.198H631.826V245.652H636.259V235.787H602.262V245.652H607.682V293.988H602.262V303.853H636.259V293.988H631.826V274.062H646.608V293.988H642.175V303.853H676.172Z" fill="white"/>
<path d="M447.933 235.986V226.121H442.513V177.784H447.933V167.92H413.933V177.784H418.369V196.33H403.586V177.784H408.021V167.92H374.021V177.784H379.441V226.121H374.021V235.986H408.021V226.121H403.586V206.195H418.369V226.121H413.933V235.986H447.933Z" fill="white"/>
<path d="M505.093 235.986V226.121H499.673V177.784H505.093V167.92H471.092V177.784H475.527V196.33H460.744V177.784H465.179V167.92H431.18V177.784H436.6V226.121H431.18V235.986H465.179V226.121H460.744V206.195H475.527V226.121H471.092V235.986H505.093Z" fill="white"/>
<path d="M562.643 235.986V226.121H557.223V177.784H562.643V167.92H528.645V177.784H533.079V196.33H518.297V177.784H522.73V167.92H488.732V177.784H494.152V226.121H488.732V235.986H522.73V226.121H518.297V206.195H533.079V226.121H528.645V235.986H562.643Z" fill="white"/>
<path d="M595.657 90.3829V100.248H574.469V90.3829H579.889V42.0463H574.469V32.1816H607.681L616.057 60.0987L624.533 32.1816H658.434V42.0463H653.014V90.3829H658.434V100.248H623.941V90.3829H629.164V47.6691L615.859 91.2709H603.836L590.729 47.5705V90.3829H595.657Z" fill="white"/>
<path d="M574.763 48.4584V90.3833H579.692V100.248H546.186V90.3833H551.114V58.8166H546.186V48.9518C562.349 48.9518 571.283 48.4584 572.992 47.4722L574.763 48.4584ZM568.756 24.8822C570.527 26.5921 571.413 28.7952 571.413 31.4915C571.413 34.1878 570.527 36.358 568.756 38.0021C567.047 39.5805 564.78 40.3697 561.954 40.3697C559.196 40.3697 556.929 39.5805 555.153 38.0021C553.444 36.358 552.592 34.1878 552.592 31.4915C552.592 28.7952 553.478 26.5921 555.254 24.8822C557.025 23.1065 559.259 22.2188 561.954 22.2188C564.78 22.2188 567.047 23.1065 568.756 24.8822Z" fill="white"/>
<path d="M624.235 22.5146V32.3792H660.702V22.5146H655.773V-9.05217H660.702V-18.9168C651.701 -18.9168 645.621 -19.0154 642.468 -19.2128C639.316 -19.41 637.116 -19.8046 635.864 -20.3965L633.896 -19.41V-8.55893C632.842 -11.6498 631.037 -14.3791 628.476 -16.7466C625.848 -19.1798 622.695 -20.3965 619.013 -20.3965C615.335 -20.3965 612.476 -19.4429 610.44 -17.5357C608.336 -15.6944 607.287 -13.2282 607.287 -10.1373C607.287 -6.91483 608.173 -4.4158 609.949 -2.64017C611.658 -0.864538 613.987 0.0232802 616.943 0.0232802C619.571 0.0232802 621.742 -0.700127 623.451 -2.14694C625.155 -3.65951 626.011 -5.46802 626.011 -7.57246C626.011 -8.36163 625.848 -9.18371 625.516 -10.0386C629.92 -6.35582 632.12 0.18769 632.12 9.59198V22.5146H624.235Z" fill="white"/>
<path d="M385.556 304.028H329.239V296.293L359.031 245.525H351.608C347.517 245.525 344.745 246.219 343.294 247.607C341.908 248.996 341.215 252.036 341.215 256.73V260.101H329.833V235.609H384.567V243.344L354.775 294.112H365.266C369.291 294.112 371.766 293.385 372.69 291.931C373.679 290.476 374.174 287.138 374.174 281.915V279.04H385.556V304.028Z" fill="white"/>
<path d="M366.23 226.298L363.419 216.843L358.223 218.391L344.447 172.063L349.642 170.515L346.83 161.061L314.244 170.77L317.056 180.225L321.306 178.958L326.591 196.733L312.424 200.955L307.138 183.18L311.388 181.913L308.577 172.458L275.99 182.168L278.802 191.622L283.997 190.075L297.773 236.402L292.578 237.951L295.39 247.405L327.976 237.696L325.165 228.241L320.914 229.508L315.235 210.409L329.403 206.188L335.082 225.286L330.832 226.553L333.643 236.007L366.23 226.298Z" fill="white"/>
<path d="M310.162 254.209L303.352 247.079L299.434 250.828L266.065 215.889L269.982 212.14L263.172 205.01L238.597 228.528L245.407 235.658L248.613 232.591L261.416 245.996L250.731 256.221L237.928 242.816L241.134 239.748L234.323 232.618L209.748 256.136L216.558 263.267L220.476 259.517L253.846 294.456L249.928 298.205L256.738 305.335L281.313 281.817L274.503 274.687L271.298 277.755L257.541 263.351L268.226 253.126L281.983 267.529L278.777 270.597L285.587 277.727L310.162 254.209Z" fill="white"/>
<path d="M208.785 304.468L210.157 294.699L204.79 293.944L211.51 246.078L216.878 246.833L218.249 237.065L184.581 232.328L183.209 242.097L187.6 242.714L185.022 261.079L170.384 259.02L172.962 240.655L177.354 241.273L178.725 231.504L145.056 226.768L143.685 236.536L149.053 237.291L142.332 285.158L136.965 284.403L135.593 294.171L169.261 298.908L170.633 289.139L166.241 288.521L169.012 268.788L183.651 270.848L180.88 290.581L176.489 289.963L175.117 299.731L208.785 304.468Z" fill="white"/>
<path d="M256.556 142.138H243.079V140.21H245.389V117.468H245.12C243.631 117.468 242.501 117.97 241.731 118.972C240.961 119.974 240.576 121.452 240.576 123.404V124.021H238.65V115.541H260.985V124.021H259.059V123.404C259.059 121.452 258.674 119.974 257.904 118.972C257.134 117.97 255.992 117.468 254.477 117.468H254.246V140.21H256.556V142.138ZM271.954 140.21H273.494V142.138H260.979V140.21H263.289V124.407H260.979V122.479H273.494V124.407H271.954V134.351L276.96 126.604V124.407H275.419V122.479H287.934V124.407H285.624V140.21H287.934V142.138H275.419V140.21H276.96V130.073L271.954 137.82V140.21ZM299.688 140.21H301.035V142.138H288.713V140.21H291.023V124.407H288.713V122.479H314.513V124.407H312.203V140.21H314.513V142.138H302.191V140.21H303.538V124.407H299.688V140.21ZM326.603 121.708C329.812 121.708 332.495 122.724 334.651 124.754C336.833 126.783 337.924 129.353 337.924 132.463C337.924 135.469 336.833 137.962 334.651 139.94C332.469 141.919 329.786 142.908 326.603 142.908C323.394 142.908 320.698 141.893 318.516 139.863C316.36 137.833 315.282 135.263 315.282 132.154C315.282 129.148 316.373 126.655 318.555 124.676C320.737 122.698 323.42 121.708 326.603 121.708ZM328.49 125.794C328.105 124.484 327.476 123.828 326.603 123.828C325.73 123.828 325.101 124.458 324.716 125.717C324.331 126.951 324.138 129.096 324.138 132.154C324.138 135.315 324.331 137.551 324.716 138.861C325.101 140.146 325.73 140.788 326.603 140.788C327.476 140.788 328.105 140.172 328.49 138.938C328.875 137.679 329.067 135.521 329.067 132.463C329.067 129.302 328.875 127.079 328.49 125.794ZM353.517 140.21V142.138H338.692V140.21H341.002V124.407H338.692V122.479H357.175V130.188H355.25V129.572C355.25 127.953 354.852 126.694 354.056 125.794C353.26 124.869 352.143 124.407 350.706 124.407H349.666V140.21H353.517ZM370.943 140.018C371.764 140.018 372.342 139.503 372.676 138.476C373.009 137.448 373.176 135.623 373.176 133.002C373.176 130.253 373.009 128.325 372.676 127.22C372.368 126.09 371.828 125.524 371.058 125.524C370.314 125.524 369.762 126.039 369.402 127.066C369.069 128.068 368.902 129.674 368.902 131.884V134.852C368.902 136.677 369.056 138 369.364 138.823C369.698 139.619 370.224 140.018 370.943 140.018ZM368.902 149.847H373.523V151.774H357.927V149.847H360.238V124.407H357.927V122.479C359.647 122.479 361.175 122.441 362.51 122.364C363.87 122.261 364.974 122.119 365.821 121.94L367.362 122.287V128.338C367.798 126.205 368.619 124.574 369.826 123.443C371.058 122.287 372.612 121.708 374.485 121.708C376.77 121.708 378.606 122.698 379.992 124.676C381.378 126.655 382.071 129.186 382.071 132.27C382.071 135.199 381.276 137.705 379.684 139.786C378.092 141.868 376.141 142.908 373.831 142.908C372.65 142.908 371.649 142.741 370.827 142.407C370.032 142.099 369.39 141.623 368.902 140.981V149.847ZM401.671 142.908C399.977 142.908 398.629 142.497 397.628 141.675C396.627 140.827 395.998 139.594 395.741 137.975C395.305 139.516 394.47 140.724 393.238 141.598C392.032 142.471 390.556 142.908 388.81 142.908C386.961 142.908 385.473 142.459 384.343 141.559C383.214 140.634 382.649 139.401 382.649 137.859C382.649 135.983 383.432 134.519 384.998 133.465C386.564 132.411 388.887 131.782 391.967 131.576L394.74 131.383V128.492C394.74 126.951 394.406 125.794 393.739 125.023C393.072 124.252 392.057 123.867 390.697 123.867C390.312 123.867 389.939 123.906 389.58 123.983C389.246 124.034 388.9 124.124 388.54 124.252C389.362 124.586 389.965 125.049 390.35 125.64C390.761 126.205 390.966 126.912 390.966 127.76C390.966 128.865 390.633 129.739 389.965 130.381C389.323 130.998 388.399 131.306 387.192 131.306C386.037 131.306 385.126 130.985 384.458 130.343C383.791 129.7 383.457 128.839 383.457 127.76C383.457 125.91 384.446 124.445 386.422 123.366C388.399 122.261 390.941 121.708 394.047 121.708C396.973 121.708 399.258 122.274 400.901 123.404C402.57 124.535 403.404 126.103 403.404 128.107V138.437C403.404 138.951 403.469 139.324 403.597 139.555C403.751 139.786 403.995 139.902 404.328 139.902C404.713 139.902 405.009 139.594 405.214 138.977C405.445 138.335 405.561 137.435 405.561 136.279H407.486C407.486 138.617 407.024 140.313 406.1 141.367C405.201 142.394 403.725 142.908 401.671 142.908ZM391.274 136.587C391.274 137.306 391.39 137.833 391.621 138.167C391.852 138.476 392.211 138.63 392.699 138.63C393.29 138.63 393.777 138.244 394.162 137.474C394.547 136.677 394.74 135.662 394.74 134.428V133.311L393.354 133.503C392.661 133.606 392.134 133.914 391.775 134.428C391.441 134.917 391.274 135.636 391.274 136.587ZM416.349 132.27C416.349 135.071 416.49 136.985 416.772 138.013C417.055 139.015 417.53 139.516 418.197 139.516C418.711 139.516 419.121 138.99 419.429 137.936C419.738 136.857 419.892 135.354 419.892 133.426V131.345C419.892 129.366 419.738 127.85 419.429 126.796C419.121 125.717 418.672 125.178 418.082 125.178C417.491 125.178 417.055 125.756 416.772 126.912C416.49 128.068 416.349 129.855 416.349 132.27ZM430.25 139.516C430.918 139.516 431.392 139.015 431.675 138.013C431.957 136.985 432.098 135.071 432.098 132.27C432.098 129.855 431.957 128.068 431.675 126.912C431.392 125.756 430.956 125.178 430.366 125.178C429.775 125.178 429.326 125.717 429.018 126.796C428.71 127.85 428.556 129.366 428.556 131.345V133.426C428.556 135.354 428.71 136.857 429.018 137.936C429.326 138.99 429.736 139.516 430.25 139.516ZM428.556 140.21C428.556 142.908 428.723 145.119 429.056 146.84C429.416 148.562 430.019 150.207 430.866 151.774L430.558 152.198C429.326 151.453 428.158 150.296 427.054 148.729C425.95 147.187 425.013 145.401 424.243 143.371C423.498 145.375 422.562 147.148 421.432 148.69C420.328 150.258 419.147 151.427 417.889 152.198L417.581 151.774C418.428 150.207 419.019 148.562 419.352 146.84C419.712 145.119 419.892 142.908 419.892 140.21C419.429 141.11 418.826 141.778 418.082 142.215C417.363 142.677 416.503 142.908 415.502 142.908C413.166 142.908 411.24 141.868 409.726 139.786C408.237 137.679 407.492 135.174 407.492 132.27C407.492 129.34 408.249 126.848 409.764 124.792C411.279 122.736 413.191 121.708 415.502 121.708C416.503 121.708 417.363 121.953 418.082 122.441C418.826 122.929 419.429 123.649 419.892 124.599C419.892 121.85 419.725 119.614 419.391 117.892C419.057 116.145 418.454 114.487 417.581 112.92L417.889 112.496C419.121 113.241 420.29 114.398 421.393 115.965C422.497 117.507 423.434 119.293 424.204 121.323C424.949 119.319 425.873 117.546 426.977 116.004C428.107 114.436 429.3 113.267 430.558 112.496L430.866 112.92C429.994 114.487 429.39 116.145 429.056 117.892C428.723 119.614 428.556 121.85 428.556 124.599C429.018 123.649 429.608 122.929 430.327 122.441C431.072 121.953 431.944 121.708 432.946 121.708C435.256 121.708 437.168 122.736 438.683 124.792C440.198 126.848 440.955 129.34 440.955 132.27C440.955 135.174 440.198 137.679 438.683 139.786C437.194 141.868 435.282 142.908 432.946 142.908C431.944 142.908 431.072 142.677 430.327 142.215C429.608 141.778 429.018 141.11 428.556 140.21ZM452.707 140.21H454.247V142.138H441.732V140.21H444.042V124.407H441.732V122.479H454.247V124.407H452.707V134.351L457.713 126.604V124.407H456.172V122.479H468.687V124.407H466.377V140.21H468.687V142.138H456.172V140.21H457.713V130.073L452.707 137.82V140.21ZM489.955 142.908C488.208 142.908 486.836 142.523 485.835 141.752C484.833 140.981 484.087 139.709 483.601 137.936C483.471 137.525 483.332 136.972 483.178 136.279C483.048 135.585 482.947 135.109 482.87 134.852C482.687 134.184 482.417 133.722 482.061 133.465C481.724 133.182 481.25 133.041 480.634 133.041H480.441V140.21H481.984V142.138H469.467V140.21H471.777V124.407H469.467V122.479H481.984V124.407H480.441V131.114H481.522C482.061 131.114 482.494 130.908 482.831 130.497C483.163 130.06 483.495 129.096 483.832 127.606C484.111 126.372 484.371 125.473 484.602 124.908C484.833 124.317 485.113 123.815 485.45 123.404C485.883 122.839 486.436 122.415 487.105 122.132C487.77 121.85 488.554 121.708 489.454 121.708C490.764 121.708 491.774 122.017 492.496 122.634C493.214 123.25 493.575 124.137 493.575 125.293C493.575 126.424 493.267 127.323 492.65 127.991C492.034 128.634 491.197 128.955 490.147 128.955C489.17 128.955 488.376 128.647 487.76 128.03C487.144 127.388 486.836 126.578 486.836 125.602C486.836 125.216 486.898 124.869 487.028 124.561C487.182 124.252 487.399 123.983 487.683 123.751C487.476 123.854 487.283 123.996 487.105 124.175C486.951 124.355 486.807 124.561 486.682 124.792C486.528 125.075 486.383 125.409 486.258 125.794C486.128 126.18 485.96 126.796 485.758 127.644C485.421 129.007 485.113 129.97 484.833 130.535C484.574 131.075 484.241 131.499 483.832 131.807C485.267 132.141 486.374 132.424 487.144 132.655C487.938 132.887 488.578 133.131 489.069 133.388C489.762 133.773 490.301 134.274 490.687 134.891C491.072 135.482 491.442 136.471 491.803 137.859C492.082 139.015 492.265 139.671 492.342 139.825C492.443 139.979 492.559 140.056 492.689 140.056C492.944 140.056 493.137 139.748 493.267 139.131C493.392 138.514 493.459 137.564 493.459 136.279H495.384C495.384 138.746 494.961 140.467 494.114 141.444C493.267 142.42 491.88 142.908 489.955 142.908ZM514.224 142.908C512.53 142.908 511.182 142.497 510.181 141.675C509.18 140.827 508.554 139.594 508.294 137.975C507.861 139.516 507.023 140.724 505.791 141.598C504.588 142.471 503.11 142.908 501.363 142.908C499.514 142.908 498.027 142.459 496.896 141.559C495.77 140.634 495.202 139.401 495.202 137.859C495.202 135.983 495.986 134.519 497.551 133.465C499.12 132.411 501.44 131.782 504.52 131.576L507.293 131.383V128.492C507.293 126.951 506.961 125.794 506.292 125.023C505.627 124.252 504.612 123.867 503.25 123.867C502.865 123.867 502.494 123.906 502.133 123.983C501.801 124.034 501.454 124.124 501.093 124.252C501.916 124.586 502.518 125.049 502.903 125.64C503.317 126.205 503.519 126.912 503.519 127.76C503.519 128.865 503.187 129.739 502.518 130.381C501.878 130.998 500.954 131.306 499.745 131.306C498.59 131.306 497.681 130.985 497.011 130.343C496.347 129.7 496.01 128.839 496.01 127.76C496.01 125.91 497.002 124.445 498.975 123.366C500.954 122.261 503.495 121.708 506.6 121.708C509.526 121.708 511.813 122.274 513.454 123.404C515.124 124.535 515.957 126.103 515.957 128.107V138.437C515.957 138.951 516.025 139.324 516.15 139.555C516.304 139.786 516.549 139.902 516.881 139.902C517.266 139.902 517.565 139.594 517.767 138.977C517.998 138.335 518.114 137.435 518.114 136.279H520.039C520.039 138.617 519.577 140.313 518.653 141.367C517.757 142.394 516.28 142.908 514.224 142.908ZM503.827 136.587C503.827 137.306 503.943 137.833 504.174 138.167C504.405 138.476 504.766 138.63 505.252 138.63C505.844 138.63 506.33 138.244 506.715 137.474C507.1 136.677 507.293 135.662 507.293 134.428V133.311L505.907 133.503C505.214 133.606 504.689 133.914 504.328 134.428C503.996 134.917 503.827 135.636 503.827 136.587Z" fill="white"/>
<path d="M231.151 104.055H234.426L235.437 95.7448H233.321C233.051 97.9034 232.737 99.6663 232.377 101.033C232.027 102.4 231.618 103.408 231.151 104.055ZM229.52 106.983H229.021L229.372 104.055H230.396C230.935 103.444 231.376 102.517 231.717 101.276C232.058 100.026 232.377 98.1823 232.674 95.7448H231.555L231.609 95.2456H238.442L238.375 95.7448H237.351L236.34 104.055H237.715L237.351 106.983H236.852L236.879 106.645C236.978 105.881 236.897 105.341 236.636 105.027C236.376 104.712 235.868 104.554 235.113 104.554H231.838C231.093 104.554 230.549 104.707 230.208 105.013C229.875 105.328 229.659 105.872 229.561 106.645L229.52 106.983ZM240.456 101.006C240.358 101.941 240.38 102.643 240.524 103.111C240.677 103.579 240.955 103.812 241.359 103.812C241.809 103.812 242.181 103.587 242.478 103.138C242.774 102.679 242.977 102.032 243.084 101.195C243.111 101.015 243.13 100.871 243.138 100.763C243.157 100.646 243.165 100.575 243.165 100.548C243.246 99.7381 243.201 99.131 243.031 98.7263C242.86 98.3216 242.559 98.1149 242.127 98.1057C241.678 98.0966 241.315 98.3351 241.036 98.8207C240.758 99.3064 240.564 100.035 240.456 101.006ZM240.712 104.743C239.931 104.743 239.338 104.415 238.933 103.758C238.538 103.093 238.399 102.211 238.515 101.114C238.642 100.08 239.023 99.2346 239.661 98.5779C240.308 97.9125 241.103 97.5796 242.047 97.5796C242.478 97.5796 242.855 97.6832 243.179 97.8899C243.502 98.0966 243.758 98.3934 243.947 98.7803L244.837 97.5796H245.362L244.675 103.205C244.639 103.484 244.648 103.695 244.702 103.839C244.756 103.974 244.855 104.042 244.998 104.042C245.187 104.042 245.335 103.92 245.443 103.677C245.56 103.425 245.65 103.034 245.713 102.504H246.238C246.113 103.376 245.915 103.965 245.645 104.271C245.385 104.577 244.985 104.73 244.446 104.73C243.97 104.73 243.624 104.591 243.408 104.312C243.192 104.033 243.103 103.606 243.138 103.03L243.206 102.463C242.981 103.201 242.653 103.768 242.222 104.163C241.8 104.55 241.297 104.743 240.712 104.743ZM252.653 102.517C252.617 103.165 252.307 103.7 251.723 104.123C251.139 104.537 250.415 104.743 249.553 104.743C248.574 104.743 247.819 104.415 247.288 103.758C246.768 103.093 246.579 102.243 246.722 101.209C246.866 100.112 247.266 99.2346 247.922 98.5779C248.587 97.9212 249.396 97.5887 250.348 97.5796C251.148 97.5618 251.763 97.7145 252.194 98.0383C252.635 98.3529 252.823 98.7938 252.76 99.3604C252.725 99.756 252.504 100.093 252.1 100.372C251.705 100.642 251.161 100.84 250.469 100.966C251.152 100.93 251.691 101.056 252.086 101.344C252.482 101.623 252.671 102.014 252.653 102.517ZM250.254 98.1057C249.858 98.1057 249.526 98.3394 249.256 98.8073C248.987 99.2751 248.789 99.9631 248.663 100.871C248.708 100.871 248.771 100.871 248.852 100.871C248.933 100.862 248.996 100.854 249.041 100.844C249.652 100.8 250.114 100.646 250.429 100.386C250.744 100.125 250.932 99.7338 250.995 99.212C251.022 98.8521 250.973 98.5779 250.847 98.389C250.721 98.191 250.523 98.0966 250.254 98.1057ZM248.596 101.357C248.488 102.328 248.524 103.048 248.704 103.516C248.884 103.974 249.216 104.199 249.701 104.19C250.043 104.181 250.307 104.046 250.496 103.785C250.685 103.516 250.788 103.147 250.806 102.679C250.833 102.238 250.744 101.901 250.537 101.667C250.33 101.434 250.016 101.317 249.593 101.317C249.431 101.317 249.256 101.321 249.068 101.33C248.879 101.339 248.722 101.348 248.596 101.357ZM255.369 101.006C255.27 101.941 255.293 102.643 255.437 103.111C255.589 103.579 255.868 103.812 256.272 103.812C256.721 103.812 257.094 103.587 257.391 103.138C257.687 102.679 257.89 102.032 257.997 101.195C258.024 101.015 258.042 100.871 258.051 100.763C258.069 100.646 258.078 100.575 258.078 100.548C258.159 99.7381 258.114 99.131 257.943 98.7263C257.773 98.3216 257.472 98.1149 257.04 98.1057C256.591 98.0966 256.227 98.3351 255.949 98.8207C255.67 99.3064 255.477 100.035 255.369 101.006ZM255.625 104.743C254.844 104.743 254.251 104.415 253.846 103.758C253.451 103.093 253.312 102.211 253.428 101.114C253.554 100.08 253.936 99.2346 254.574 98.5779C255.221 97.9125 256.016 97.5796 256.96 97.5796C257.391 97.5796 257.768 97.6832 258.092 97.8899C258.415 98.0966 258.671 98.3934 258.86 98.7803L259.749 97.5796H260.275L259.588 103.205C259.552 103.484 259.561 103.695 259.615 103.839C259.669 103.974 259.767 104.042 259.911 104.042C260.1 104.042 260.248 103.92 260.356 103.677C260.472 103.425 260.562 103.034 260.626 102.504H261.151C261.025 103.376 260.828 103.965 260.558 104.271C260.297 104.577 259.898 104.73 259.359 104.73C258.882 104.73 258.537 104.591 258.321 104.312C258.105 104.033 258.015 103.606 258.051 103.03L258.119 102.463C257.894 103.201 257.566 103.768 257.135 104.163C256.712 104.55 256.209 104.743 255.625 104.743ZM267.66 95.0703C267.633 95.5559 267.408 95.9742 266.986 96.3249C266.573 96.6665 266.056 96.8376 265.436 96.8376C264.825 96.8376 264.335 96.6665 263.967 96.3249C263.599 95.9833 263.428 95.5651 263.455 95.0703C263.473 94.8274 263.554 94.6294 263.697 94.4767C263.85 94.3239 264.048 94.2473 264.29 94.2473C264.515 94.2473 264.686 94.3104 264.803 94.4362C264.928 94.5533 264.982 94.7103 264.964 94.9084C264.937 95.169 264.816 95.3627 264.6 95.4885C264.385 95.6142 264.111 95.6326 263.778 95.5425C263.913 95.6952 264.133 95.8166 264.439 95.9067C264.744 95.9968 265.09 96.0416 265.476 96.0416C265.881 96.0416 266.245 95.9968 266.568 95.9067C266.901 95.8166 267.152 95.6952 267.323 95.5425C266.946 95.6504 266.653 95.6412 266.447 95.5155C266.249 95.3897 266.16 95.1873 266.177 94.9084C266.195 94.7103 266.272 94.5533 266.406 94.4362C266.55 94.3104 266.73 94.2473 266.946 94.2473C267.188 94.2473 267.373 94.3239 267.498 94.4767C267.624 94.6207 267.678 94.8183 267.66 95.0703ZM266.326 102.612C266.128 103.313 265.823 103.844 265.409 104.204C265.005 104.564 264.506 104.743 263.913 104.743C263.275 104.743 262.799 104.532 262.484 104.109C262.17 103.687 262.058 103.102 262.148 102.355L262.646 98.2946H261.622L261.689 97.7819C262.426 97.7819 263.01 97.7728 263.441 97.755C263.873 97.728 264.151 97.6875 264.277 97.6335L264.56 97.755L263.98 102.49C263.927 102.958 263.954 103.304 264.061 103.529C264.178 103.754 264.38 103.866 264.668 103.866C265.054 103.866 265.369 103.646 265.611 103.205C265.863 102.764 266.043 102.113 266.15 101.249L266.514 98.2946H265.719L265.787 97.7819C266.451 97.7819 266.982 97.7684 267.377 97.7415C267.772 97.7145 268.028 97.6784 268.145 97.6335L268.428 97.755L267.768 103.205C267.732 103.484 267.741 103.695 267.795 103.839C267.849 103.974 267.947 104.042 268.091 104.042C268.28 104.042 268.428 103.92 268.536 103.677C268.653 103.425 268.742 103.034 268.805 102.504H269.318C269.192 103.385 268.994 103.979 268.725 104.285C268.464 104.581 268.064 104.73 267.525 104.73C267.103 104.73 266.784 104.608 266.568 104.366C266.362 104.123 266.258 103.758 266.258 103.273C266.258 103.273 266.258 103.25 266.258 103.205C266.267 103.16 266.281 103.07 266.299 102.935C266.308 102.81 266.312 102.724 266.312 102.679C266.321 102.634 266.326 102.612 266.326 102.612ZM279.021 104.73C278.455 104.73 278.046 104.564 277.795 104.231C277.552 103.898 277.471 103.398 277.552 102.733L277.929 99.7786C277.983 99.3291 277.961 98.9961 277.862 98.7803C277.772 98.5553 277.606 98.443 277.363 98.443C277.058 98.443 276.802 98.6092 276.595 98.9422C276.398 99.2659 276.24 99.7694 276.123 100.453L275.611 104.554H273.751L274.371 99.7786C274.434 99.3107 274.421 98.9735 274.331 98.7668C274.241 98.5509 274.07 98.443 273.819 98.443C273.46 98.443 273.172 98.6497 272.956 99.0636C272.75 99.4683 272.592 100.102 272.484 100.966L272.04 104.554H270.207L270.975 98.2676H269.937L270.005 97.755C270.624 97.755 271.128 97.7415 271.514 97.7145C271.91 97.6875 272.17 97.6514 272.296 97.6066L272.579 97.728L272.377 99.3334C272.574 98.749 272.857 98.3124 273.226 98.0248C273.594 97.728 274.043 97.5796 274.573 97.5796C274.996 97.5796 275.342 97.6875 275.611 97.9034C275.881 98.1101 276.056 98.416 276.137 98.8207C276.352 98.4069 276.622 98.0966 276.945 97.8899C277.278 97.6832 277.665 97.5796 278.105 97.5796C278.725 97.5796 279.174 97.7819 279.452 98.1867C279.731 98.5822 279.825 99.158 279.735 99.9135L279.344 103.205C279.309 103.502 279.313 103.718 279.358 103.853C279.412 103.979 279.511 104.042 279.654 104.042C279.843 104.042 279.996 103.92 280.113 103.677C280.23 103.435 280.324 103.048 280.396 102.517H280.908C280.791 103.372 280.589 103.956 280.301 104.271C280.014 104.577 279.587 104.73 279.021 104.73ZM284.089 104.743C283.146 104.743 282.414 104.41 281.892 103.745C281.38 103.08 281.183 102.22 281.299 101.168C281.425 100.089 281.825 99.2211 282.499 98.5644C283.173 97.9077 283.986 97.5796 284.938 97.5796C285.639 97.5796 286.201 97.7458 286.623 98.0787C287.055 98.4117 287.261 98.8434 287.243 99.3739C287.225 100.075 286.861 100.619 286.152 101.006C285.442 101.384 284.444 101.582 283.159 101.6C283.105 102.454 283.191 103.088 283.415 103.502C283.64 103.916 284.013 104.123 284.534 104.123C285.001 104.123 285.383 103.988 285.68 103.718C285.985 103.439 286.223 103.007 286.394 102.423L286.92 102.504C286.722 103.25 286.385 103.812 285.909 104.19C285.442 104.559 284.835 104.743 284.089 104.743ZM284.749 98.0922C284.354 98.0922 284.022 98.3486 283.752 98.8612C283.483 99.3739 283.299 100.112 283.2 101.074C283.936 101.038 284.493 100.858 284.871 100.534C285.249 100.201 285.45 99.7203 285.477 99.0906C285.486 98.7759 285.428 98.5331 285.303 98.362C285.176 98.1823 284.992 98.0922 284.749 98.0922ZM294.503 104.743C293.523 104.743 292.769 104.41 292.239 103.745C291.709 103.08 291.502 102.22 291.619 101.168C291.744 100.089 292.149 99.2211 292.832 98.5644C293.515 97.9077 294.341 97.5796 295.312 97.5796C295.985 97.5796 296.515 97.7371 296.902 98.0518C297.297 98.3577 297.481 98.7803 297.455 99.3199C297.428 99.6345 297.315 99.8865 297.118 100.075C296.929 100.264 296.673 100.359 296.349 100.359C296.044 100.359 295.81 100.278 295.649 100.116C295.487 99.954 295.415 99.7338 295.433 99.4548C295.442 99.1758 295.527 98.9422 295.689 98.7533C295.851 98.5644 296.062 98.443 296.322 98.389C296.205 98.2811 296.071 98.2002 295.918 98.1462C295.774 98.0922 295.612 98.0652 295.433 98.0652C294.912 98.0652 294.489 98.3216 294.166 98.8342C293.852 99.3469 293.636 100.107 293.519 101.114C293.411 102.076 293.474 102.818 293.708 103.34C293.941 103.862 294.337 104.123 294.894 104.123C295.316 104.123 295.685 103.97 295.999 103.664C296.322 103.358 296.547 102.945 296.673 102.423L297.198 102.504C297.001 103.232 296.673 103.79 296.215 104.177C295.756 104.554 295.186 104.743 294.503 104.743ZM304.721 101.222C304.604 102.247 304.196 103.093 303.495 103.758C302.794 104.415 301.967 104.743 301.015 104.743C300.062 104.743 299.294 104.388 298.71 103.677C298.126 102.967 297.893 102.095 298.01 101.06C298.135 100.035 298.549 99.1985 299.249 98.5509C299.95 97.9034 300.781 97.5796 301.743 97.5796C302.695 97.5796 303.459 97.9303 304.034 98.6319C304.618 99.3242 304.847 100.188 304.721 101.222ZM299.91 101.06C299.793 102.157 299.829 102.958 300.018 103.462C300.206 103.956 300.557 104.204 301.069 104.204C301.572 104.204 301.958 103.979 302.228 103.529C302.498 103.08 302.695 102.311 302.821 101.222C302.938 100.134 302.902 99.3426 302.713 98.8477C302.533 98.3529 302.188 98.1057 301.675 98.1057C301.172 98.1057 300.786 98.3259 300.516 98.7668C300.247 99.2076 300.045 99.9718 299.91 101.06ZM311.034 102.612C310.998 103.304 310.693 103.835 310.118 104.204C309.552 104.564 308.752 104.743 307.719 104.743C306.919 104.743 306.304 104.586 305.872 104.271C305.441 103.956 305.239 103.52 305.266 102.962C305.284 102.666 305.391 102.418 305.589 102.22C305.787 102.022 306.038 101.924 306.344 101.924C306.623 101.924 306.834 102 306.977 102.153C307.13 102.306 307.197 102.517 307.18 102.787C307.162 103.03 307.072 103.237 306.91 103.408C306.757 103.579 306.55 103.691 306.29 103.745C306.416 103.907 306.587 104.028 306.802 104.109C307.027 104.19 307.292 104.231 307.597 104.231C308.073 104.231 308.451 104.091 308.73 103.812C309.008 103.533 309.156 103.151 309.174 102.666C309.192 102.189 309.089 101.847 308.864 101.64C308.649 101.434 308.271 101.33 307.732 101.33H307.085L307.139 100.817H307.8C308.276 100.817 308.631 100.696 308.864 100.453C309.098 100.201 309.224 99.8099 309.242 99.2794C309.259 98.9195 309.179 98.6454 308.999 98.4565C308.828 98.2585 308.572 98.1597 308.231 98.1597C307.8 98.1597 307.427 98.3216 307.112 98.6454C306.798 98.9691 306.564 99.4235 306.411 100.008H305.926L306.223 97.6335H306.654L306.964 98.1732C307.162 97.9935 307.427 97.8494 307.759 97.7415C308.1 97.6335 308.469 97.5796 308.864 97.5796C309.583 97.5796 310.14 97.728 310.536 98.0248C310.931 98.3124 311.115 98.7263 311.088 99.2659C311.061 99.7338 310.863 100.125 310.495 100.44C310.136 100.746 309.659 100.939 309.066 101.02C309.686 101.083 310.172 101.253 310.522 101.532C310.882 101.811 311.052 102.171 311.034 102.612ZM318.689 100.278C318.5 101.735 318.078 102.845 317.422 103.61C316.775 104.366 315.922 104.743 314.861 104.743C313.909 104.743 313.141 104.388 312.557 103.677C311.973 102.967 311.739 102.095 311.856 101.06C311.982 100.026 312.368 99.1893 313.015 98.5509C313.671 97.9034 314.448 97.5796 315.347 97.5796C315.787 97.5796 316.151 97.6697 316.438 97.8494C316.726 98.0291 316.937 98.3038 317.072 98.6723C317.09 97.3411 316.946 96.3611 316.64 95.7313C316.335 95.0929 315.854 94.7735 315.198 94.7735C314.857 94.7735 314.556 94.8274 314.295 94.9354C314.035 95.0341 313.797 95.1917 313.581 95.4075L313.298 95.0568C313.586 94.76 313.904 94.5441 314.255 94.4092C314.605 94.2651 315.001 94.1934 315.441 94.1934C316.699 94.1934 317.611 94.7422 318.177 95.8393C318.743 96.9277 318.914 98.4069 318.689 100.278ZM313.756 101.06C313.631 102.103 313.662 102.891 313.851 103.421C314.048 103.943 314.403 104.204 314.915 104.204C315.383 104.204 315.764 103.947 316.061 103.435C316.357 102.922 316.56 102.184 316.667 101.222C316.784 100.179 316.744 99.4009 316.546 98.8882C316.349 98.3664 315.993 98.1057 315.481 98.1057C315.014 98.1057 314.641 98.3351 314.363 98.7938C314.093 99.2433 313.891 99.9988 313.756 101.06ZM321.516 101.006C321.417 101.941 321.439 102.643 321.583 103.111C321.736 103.579 322.015 103.812 322.419 103.812C322.868 103.812 323.241 103.587 323.538 103.138C323.834 102.679 324.036 102.032 324.144 101.195C324.171 101.015 324.189 100.871 324.198 100.763C324.216 100.646 324.225 100.575 324.225 100.548C324.306 99.7381 324.261 99.131 324.09 98.7263C323.919 98.3216 323.618 98.1149 323.187 98.1057C322.738 98.0966 322.374 98.3351 322.095 98.8207C321.817 99.3064 321.624 100.035 321.516 101.006ZM321.772 104.743C320.99 104.743 320.397 104.415 319.993 103.758C319.597 103.093 319.458 102.211 319.575 101.114C319.701 100.08 320.082 99.2346 320.721 98.5779C321.368 97.9125 322.163 97.5796 323.106 97.5796C323.538 97.5796 323.915 97.6832 324.238 97.8899C324.562 98.0966 324.818 98.3934 325.007 98.7803L325.896 97.5796H326.422L325.734 103.205C325.698 103.484 325.707 103.695 325.761 103.839C325.815 103.974 325.914 104.042 326.058 104.042C326.247 104.042 326.395 103.92 326.503 103.677C326.619 103.425 326.709 103.034 326.772 102.504H327.298C327.172 103.376 326.974 103.965 326.705 104.271C326.444 104.577 326.044 104.73 325.505 104.73C325.029 104.73 324.683 104.591 324.468 104.312C324.252 104.033 324.162 103.606 324.198 103.03L324.265 102.463C324.041 103.201 323.713 103.768 323.281 104.163C322.859 104.55 322.356 104.743 321.772 104.743ZM334.629 100.278C334.44 101.735 334.017 102.845 333.362 103.61C332.715 104.366 331.861 104.743 330.801 104.743C329.848 104.743 329.08 104.388 328.496 103.677C327.912 102.967 327.679 102.095 327.796 101.06C327.921 100.026 328.308 99.1893 328.955 98.5509C329.61 97.9034 330.388 97.5796 331.286 97.5796C331.726 97.5796 332.09 97.6697 332.378 97.8494C332.665 98.0291 332.877 98.3038 333.011 98.6723C333.029 97.3411 332.885 96.3611 332.58 95.7313C332.274 95.0929 331.794 94.7735 331.138 94.7735C330.796 94.7735 330.495 94.8274 330.235 94.9354C329.974 95.0341 329.736 95.1917 329.521 95.4075L329.238 95.0568C329.525 94.76 329.844 94.5441 330.195 94.4092C330.545 94.2651 330.94 94.1934 331.381 94.1934C332.638 94.1934 333.55 94.7422 334.117 95.8393C334.683 96.9277 334.853 98.4069 334.629 100.278ZM329.696 101.06C329.57 102.103 329.602 102.891 329.79 103.421C329.988 103.943 330.343 104.204 330.855 104.204C331.322 104.204 331.704 103.947 332.001 103.435C332.297 102.922 332.499 102.184 332.607 101.222C332.724 100.179 332.683 99.4009 332.486 98.8882C332.288 98.3664 331.933 98.1057 331.421 98.1057C330.954 98.1057 330.581 98.3351 330.302 98.7938C330.033 99.2433 329.831 99.9988 329.696 101.06ZM340.021 102.612C339.823 103.313 339.518 103.844 339.104 104.204C338.7 104.564 338.201 104.743 337.608 104.743C336.97 104.743 336.494 104.532 336.18 104.109C335.865 103.687 335.753 103.102 335.843 102.355L336.341 98.2946H335.317L335.384 97.7819C336.121 97.7819 336.705 97.7728 337.136 97.755C337.568 97.728 337.846 97.6875 337.972 97.6335L338.255 97.755L337.676 102.49C337.622 102.958 337.649 103.304 337.756 103.529C337.873 103.754 338.076 103.866 338.363 103.866C338.749 103.866 339.064 103.646 339.306 103.205C339.558 102.764 339.738 102.113 339.845 101.249L340.209 98.2946H339.414L339.482 97.7819C340.146 97.7819 340.677 97.7684 341.072 97.7415C341.467 97.7145 341.723 97.6784 341.84 97.6335L342.123 97.755L341.463 103.205C341.427 103.484 341.436 103.695 341.49 103.839C341.544 103.974 341.642 104.042 341.786 104.042C341.975 104.042 342.123 103.92 342.231 103.677C342.348 103.425 342.438 103.034 342.501 102.504H343.013C342.887 103.385 342.689 103.979 342.42 104.285C342.159 104.581 341.759 104.73 341.22 104.73C340.798 104.73 340.479 104.608 340.263 104.366C340.057 104.123 339.953 103.758 339.953 103.273C339.953 103.273 339.953 103.25 339.953 103.205C339.962 103.16 339.976 103.07 339.994 102.935C340.003 102.81 340.007 102.724 340.007 102.679C340.016 102.634 340.021 102.612 340.021 102.612ZM346.058 101.721C345.861 102.837 345.609 103.619 345.303 104.069C345.007 104.518 344.567 104.743 343.983 104.743C343.632 104.743 343.363 104.635 343.174 104.419C342.985 104.194 342.909 103.916 342.945 103.583C342.972 103.304 343.075 103.08 343.255 102.908C343.444 102.729 343.677 102.639 343.956 102.639C344.225 102.639 344.427 102.724 344.562 102.895C344.697 103.057 344.747 103.268 344.71 103.529C344.693 103.655 344.661 103.763 344.616 103.853C344.571 103.943 344.504 104.015 344.414 104.069C344.639 103.961 344.827 103.745 344.98 103.421C345.133 103.088 345.268 102.616 345.384 102.005C345.465 101.609 345.555 101.101 345.654 100.48C345.753 99.8595 345.856 99.1219 345.964 98.2676H344.899L344.953 97.755H348.12L348.915 101.924L351.072 97.755H353.188L352.527 103.246C352.5 103.525 352.51 103.727 352.554 103.853C352.608 103.979 352.703 104.042 352.837 104.042C353.026 104.042 353.183 103.92 353.309 103.677C353.435 103.425 353.53 103.039 353.592 102.517H354.104C353.979 103.381 353.777 103.965 353.498 104.271C353.22 104.577 352.806 104.73 352.258 104.73C351.665 104.73 351.243 104.568 350.991 104.244C350.748 103.911 350.668 103.408 350.748 102.733L351.234 98.7128L348.295 104.554H347.622L346.516 98.7263C346.418 99.4548 346.333 100.053 346.26 100.521C346.189 100.988 346.121 101.388 346.058 101.721ZM364.409 104.73C363.816 104.73 363.394 104.564 363.142 104.231C362.89 103.898 362.809 103.398 362.899 102.733L363.061 101.317H361.026L360.635 104.554H358.789L359.557 98.2676H358.533L358.587 97.755C359.332 97.755 359.921 97.7415 360.352 97.7145C360.793 97.6875 361.076 97.6514 361.201 97.6066L361.471 97.728L361.093 100.804H363.129L363.492 97.755H365.339L364.678 103.246C364.642 103.525 364.647 103.727 364.692 103.853C364.746 103.979 364.845 104.042 364.988 104.042C365.177 104.042 365.33 103.916 365.447 103.664C365.572 103.412 365.667 103.03 365.73 102.517H366.242C366.125 103.372 365.928 103.956 365.649 104.271C365.37 104.577 364.957 104.73 364.409 104.73ZM373.448 101.222C373.331 102.247 372.922 103.093 372.221 103.758C371.52 104.415 370.694 104.743 369.741 104.743C368.789 104.743 368.02 104.388 367.437 103.677C366.853 102.967 366.619 102.095 366.736 101.06C366.861 100.035 367.275 99.1985 367.976 98.5509C368.677 97.9034 369.508 97.5796 370.469 97.5796C371.422 97.5796 372.185 97.9303 372.76 98.6319C373.344 99.3242 373.573 100.188 373.448 101.222ZM368.636 101.06C368.519 102.157 368.555 102.958 368.744 103.462C368.933 103.956 369.283 104.204 369.795 104.204C370.298 104.204 370.685 103.979 370.954 103.529C371.224 103.08 371.422 102.311 371.547 101.222C371.664 100.134 371.628 99.3426 371.439 98.8477C371.26 98.3529 370.914 98.1057 370.402 98.1057C369.899 98.1057 369.512 98.3259 369.243 98.7668C368.973 99.2076 368.771 99.9718 368.636 101.06ZM380.016 102.517C379.981 103.165 379.671 103.7 379.087 104.123C378.503 104.537 377.779 104.743 376.917 104.743C375.938 104.743 375.183 104.415 374.652 103.758C374.132 103.093 373.943 102.243 374.086 101.209C374.23 100.112 374.63 99.2346 375.286 98.5779C375.951 97.9212 376.76 97.5887 377.712 97.5796C378.512 97.5618 379.127 97.7145 379.558 98.0383C379.999 98.3529 380.187 98.7938 380.124 99.3604C380.089 99.756 379.868 100.093 379.464 100.372C379.069 100.642 378.525 100.84 377.833 100.966C378.516 100.93 379.055 101.056 379.45 101.344C379.846 101.623 380.035 102.014 380.016 102.517ZM377.617 98.1057C377.222 98.1057 376.89 98.3394 376.62 98.8073C376.351 99.2751 376.153 99.9631 376.027 100.871C376.072 100.871 376.135 100.871 376.216 100.871C376.297 100.862 376.36 100.854 376.404 100.844C377.016 100.8 377.478 100.646 377.793 100.386C378.107 100.125 378.296 99.7338 378.359 99.212C378.386 98.8521 378.337 98.5779 378.21 98.389C378.085 98.191 377.887 98.0966 377.617 98.1057ZM375.96 101.357C375.852 102.328 375.888 103.048 376.068 103.516C376.248 103.974 376.58 104.199 377.065 104.19C377.407 104.181 377.671 104.046 377.86 103.785C378.049 103.516 378.152 103.147 378.17 102.679C378.197 102.238 378.107 101.901 377.9 101.667C377.694 101.434 377.38 101.317 376.957 101.317C376.795 101.317 376.62 101.321 376.431 101.33C376.243 101.339 376.086 101.348 375.96 101.357ZM383.111 108.062C382.473 108.062 381.951 107.904 381.547 107.59C381.143 107.284 380.941 106.884 380.941 106.389C380.941 106.048 381.039 105.773 381.237 105.566C381.435 105.368 381.7 105.269 382.032 105.269C382.311 105.269 382.527 105.346 382.679 105.499C382.832 105.651 382.908 105.859 382.908 106.119C382.908 106.398 382.828 106.636 382.666 106.834C382.513 107.032 382.302 107.149 382.032 107.185C382.158 107.311 382.302 107.405 382.464 107.468C382.625 107.532 382.81 107.563 383.016 107.563C383.618 107.563 384.081 107.356 384.404 106.942C384.728 106.538 384.939 105.876 385.038 104.959C385.038 104.941 385.042 104.901 385.051 104.838C385.06 104.775 385.083 104.64 385.119 104.433C385.182 103.965 385.227 103.641 385.253 103.462C385.28 103.282 385.298 103.178 385.307 103.151C385.083 103.61 384.782 103.961 384.404 104.204C384.036 104.437 383.596 104.554 383.084 104.554C382.437 104.554 381.961 104.356 381.655 103.961C381.358 103.565 381.251 102.999 381.332 102.261L381.817 98.2946H380.792L380.86 97.7819C381.597 97.7819 382.181 97.7728 382.612 97.755C383.043 97.728 383.322 97.6875 383.447 97.6335L383.73 97.755L383.164 102.382C383.111 102.823 383.137 103.151 383.245 103.367C383.353 103.574 383.542 103.677 383.811 103.677C384.243 103.677 384.589 103.466 384.849 103.043C385.119 102.621 385.303 101.991 385.402 101.155L385.752 98.2946H384.957L385.024 97.7819C385.689 97.7819 386.22 97.7684 386.615 97.7415C387.01 97.7145 387.266 97.6784 387.383 97.6335L387.666 97.755L386.911 103.88C386.732 105.337 386.341 106.398 385.739 107.064C385.137 107.729 384.26 108.062 383.111 108.062ZM398.395 101.222C398.278 102.265 397.887 103.115 397.222 103.772C396.557 104.419 395.757 104.743 394.823 104.743C393.942 104.743 393.224 104.419 392.667 103.772C392.118 103.115 391.876 102.297 391.939 101.317H391.036L390.645 104.554H388.799L389.567 98.2676H388.542L388.596 97.755C389.342 97.755 389.931 97.7415 390.362 97.7145C390.802 97.6875 391.085 97.6514 391.211 97.6066L391.481 97.728L391.103 100.804H392.006C392.168 99.8326 392.572 99.0544 393.219 98.47C393.875 97.8764 394.652 97.5796 395.551 97.5796C396.476 97.5796 397.213 97.926 397.761 98.6184C398.309 99.3107 398.52 100.179 398.395 101.222ZM393.866 101.06C393.74 102.193 393.758 103.003 393.92 103.489C394.082 103.965 394.4 104.204 394.877 104.204C395.344 104.204 395.694 104.001 395.928 103.597C396.171 103.183 396.36 102.391 396.494 101.222C396.62 100.089 396.602 99.2886 396.44 98.8207C396.279 98.3442 395.96 98.1057 395.483 98.1057C395.016 98.1057 394.661 98.3124 394.419 98.7263C394.185 99.131 394.001 99.9092 393.866 101.06ZM408.211 104.743C407.725 104.743 407.357 104.608 407.105 104.339C406.854 104.069 406.688 103.61 406.607 102.962C406.598 102.926 406.576 102.783 406.539 102.531C406.512 102.279 406.481 102.081 406.445 101.937C406.382 101.739 406.288 101.591 406.162 101.492C406.045 101.384 405.897 101.326 405.717 101.317H405.475L405.084 104.554H403.237L404.006 98.2676H402.981L403.035 97.755C403.781 97.755 404.37 97.7415 404.801 97.7145C405.241 97.6875 405.524 97.6514 405.65 97.6066L405.919 97.728L405.542 100.804H405.852C406.104 100.804 406.315 100.719 406.486 100.548C406.656 100.368 406.836 99.9853 407.025 99.4008C407.258 98.6632 407.505 98.1775 407.766 97.9438C408.035 97.701 408.382 97.5796 408.804 97.5796C409.136 97.5796 409.401 97.6649 409.599 97.8359C409.797 98.0069 409.891 98.245 409.882 98.5509C409.855 98.8569 409.747 99.1041 409.558 99.2929C409.379 99.4818 409.136 99.5762 408.831 99.5762C408.561 99.5762 408.35 99.4953 408.197 99.3334C408.045 99.1624 407.977 98.9422 407.995 98.6723C408.013 98.5822 408.022 98.5239 408.022 98.497C408.031 98.47 408.04 98.443 408.049 98.416C407.968 98.5061 407.892 98.6227 407.82 98.7668C407.757 98.9017 407.672 99.1402 407.564 99.4818C407.402 100.004 407.249 100.372 407.105 100.588C406.971 100.795 406.805 100.948 406.607 101.047C407.245 101.218 407.694 101.434 407.955 101.694C408.215 101.946 408.382 102.36 408.453 102.935C408.516 103.448 408.579 103.754 408.642 103.853C408.714 103.952 408.808 104.001 408.925 104.001C409.078 104.001 409.204 103.88 409.302 103.637C409.401 103.385 409.482 103.007 409.545 102.504H410.03C409.922 103.358 409.729 103.947 409.451 104.271C409.181 104.586 408.768 104.743 408.211 104.743ZM412.739 108.062C412.101 108.062 411.58 107.904 411.175 107.59C410.771 107.284 410.569 106.884 410.569 106.389C410.569 106.048 410.667 105.773 410.865 105.566C411.063 105.368 411.328 105.269 411.66 105.269C411.939 105.269 412.155 105.346 412.307 105.499C412.46 105.651 412.536 105.859 412.536 106.119C412.536 106.398 412.456 106.636 412.294 106.834C412.141 107.032 411.93 107.149 411.66 107.185C411.786 107.311 411.93 107.405 412.092 107.468C412.253 107.532 412.438 107.563 412.644 107.563C413.246 107.563 413.709 107.356 414.033 106.942C414.356 106.538 414.567 105.876 414.666 104.959C414.666 104.941 414.67 104.901 414.679 104.838C414.689 104.775 414.711 104.64 414.747 104.433C414.81 103.965 414.855 103.641 414.882 103.462C414.909 103.282 414.926 103.178 414.936 103.151C414.711 103.61 414.41 103.961 414.033 104.204C413.664 104.437 413.224 104.554 412.712 104.554C412.065 104.554 411.589 104.356 411.283 103.961C410.987 103.565 410.879 102.999 410.96 102.261L411.445 98.2946H410.421L410.488 97.7819C411.225 97.7819 411.809 97.7728 412.24 97.755C412.671 97.728 412.95 97.6875 413.076 97.6335L413.359 97.755L412.793 102.382C412.739 102.823 412.766 103.151 412.873 103.367C412.981 103.574 413.17 103.677 413.439 103.677C413.871 103.677 414.217 103.466 414.477 103.043C414.747 102.621 414.931 101.991 415.03 101.155L415.38 98.2946H414.585L414.652 97.7819C415.317 97.7819 415.848 97.7684 416.243 97.7415C416.638 97.7145 416.894 97.6784 417.011 97.6335L417.294 97.755L416.539 103.88C416.36 105.337 415.969 106.398 415.367 107.064C414.765 107.729 413.889 108.062 412.739 108.062ZM420.345 101.816C420.148 102.895 419.901 103.655 419.604 104.096C419.308 104.527 418.868 104.743 418.283 104.743C417.897 104.743 417.601 104.635 417.394 104.419C417.196 104.204 417.12 103.925 417.165 103.583C417.192 103.304 417.295 103.08 417.475 102.908C417.663 102.729 417.897 102.639 418.175 102.639C418.445 102.639 418.647 102.724 418.782 102.895C418.917 103.057 418.966 103.268 418.93 103.529C418.922 103.655 418.89 103.768 418.836 103.866C418.782 103.956 418.71 104.028 418.62 104.082C418.872 104.019 419.078 103.835 419.24 103.529C419.402 103.214 419.55 102.733 419.685 102.086C419.775 101.636 419.874 101.056 419.981 100.345C420.089 99.6259 420.184 98.933 420.264 98.2676H419.2L419.254 97.755H424.2L423.54 103.246C423.504 103.525 423.508 103.727 423.553 103.853C423.607 103.979 423.706 104.042 423.85 104.042C424.038 104.042 424.191 103.916 424.308 103.664C424.434 103.412 424.528 103.03 424.591 102.517H425.103C424.986 103.363 424.784 103.943 424.496 104.258C424.218 104.572 423.805 104.73 423.256 104.73C422.673 104.73 422.255 104.564 422.003 104.231C421.752 103.898 421.666 103.398 421.747 102.733L422.286 98.2676H420.884C420.795 98.96 420.701 99.6167 420.601 100.237C420.512 100.858 420.426 101.384 420.345 101.816ZM431.796 102.504C431.716 103.187 431.383 103.731 430.799 104.136C430.224 104.532 429.487 104.73 428.589 104.73C427.663 104.73 426.998 104.5 426.594 104.042C426.199 103.574 426.055 102.872 426.163 101.937L426.608 98.2946H425.583L425.651 97.7819C426.388 97.7819 426.972 97.7728 427.403 97.755C427.834 97.728 428.113 97.6875 428.238 97.6335L428.521 97.755L428.184 100.521C428.373 100.44 428.584 100.381 428.818 100.345C429.061 100.3 429.303 100.278 429.546 100.278C430.274 100.278 430.849 100.484 431.271 100.898C431.702 101.303 431.877 101.838 431.796 102.504ZM428.737 104.082C429.051 104.082 429.317 103.934 429.532 103.637C429.748 103.34 429.883 102.94 429.937 102.436C429.99 101.924 429.927 101.532 429.748 101.263C429.577 100.993 429.303 100.858 428.926 100.858C428.791 100.858 428.656 100.876 428.521 100.912C428.387 100.948 428.252 101.002 428.117 101.074L427.969 102.234C427.888 102.918 427.906 103.398 428.023 103.677C428.148 103.947 428.387 104.082 428.737 104.082ZM441.64 104.73C441.074 104.73 440.665 104.564 440.413 104.231C440.171 103.898 440.09 103.398 440.171 102.733L440.548 99.7786C440.602 99.3291 440.58 98.9961 440.481 98.7803C440.391 98.5553 440.225 98.443 439.982 98.443C439.677 98.443 439.421 98.6092 439.214 98.9422C439.017 99.2659 438.859 99.7694 438.742 100.453L438.23 104.554H436.37L436.99 99.7786C437.053 99.3107 437.04 98.9735 436.95 98.7668C436.86 98.5509 436.689 98.443 436.438 98.443C436.079 98.443 435.791 98.6497 435.575 99.0636C435.369 99.4683 435.211 100.102 435.103 100.966L434.659 104.554H432.826L433.594 98.2676H432.556L432.623 97.755C433.243 97.755 433.747 97.7415 434.133 97.7145C434.529 97.6875 434.789 97.6514 434.915 97.6066L435.198 97.728L434.995 99.3334C435.193 98.749 435.476 98.3124 435.845 98.0248C436.213 97.728 436.662 97.5796 437.192 97.5796C437.615 97.5796 437.961 97.6875 438.23 97.9034C438.5 98.1101 438.675 98.416 438.756 98.8207C438.971 98.4069 439.241 98.0966 439.564 97.8899C439.897 97.6832 440.284 97.5796 440.723 97.5796C441.343 97.5796 441.793 97.7819 442.071 98.1867C442.35 98.5822 442.444 99.158 442.354 99.9135L441.963 103.205C441.928 103.502 441.932 103.718 441.977 103.853C442.031 103.979 442.13 104.042 442.273 104.042C442.462 104.042 442.615 103.92 442.732 103.677C442.849 103.435 442.943 103.048 443.015 102.517H443.527C443.41 103.372 443.208 103.956 442.92 104.271C442.633 104.577 442.206 104.73 441.64 104.73ZM446.223 108.062C445.585 108.062 445.064 107.904 444.66 107.59C444.256 107.284 444.053 106.884 444.053 106.389C444.053 106.048 444.152 105.773 444.35 105.566C444.547 105.368 444.812 105.269 445.145 105.269C445.423 105.269 445.639 105.346 445.792 105.499C445.945 105.651 446.021 105.859 446.021 106.119C446.021 106.398 445.94 106.636 445.779 106.834C445.625 107.032 445.415 107.149 445.145 107.185C445.271 107.311 445.415 107.405 445.576 107.468C445.738 107.532 445.922 107.563 446.129 107.563C446.731 107.563 447.194 107.356 447.517 106.942C447.841 106.538 448.051 105.876 448.151 104.959C448.151 104.941 448.155 104.901 448.164 104.838C448.173 104.775 448.195 104.64 448.231 104.433C448.294 103.965 448.339 103.641 448.366 103.462C448.393 103.282 448.411 103.178 448.42 103.151C448.195 103.61 447.895 103.961 447.517 104.204C447.148 104.437 446.709 104.554 446.196 104.554C445.549 104.554 445.073 104.356 444.768 103.961C444.471 103.565 444.363 102.999 444.444 102.261L444.929 98.2946H443.905L443.973 97.7819C444.709 97.7819 445.293 97.7728 445.725 97.755C446.156 97.728 446.434 97.6875 446.56 97.6335L446.843 97.755L446.277 102.382C446.223 102.823 446.25 103.151 446.358 103.367C446.466 103.574 446.655 103.677 446.924 103.677C447.355 103.677 447.701 103.466 447.962 103.043C448.231 102.621 448.415 101.991 448.514 101.155L448.865 98.2946H448.07L448.137 97.7819C448.802 97.7819 449.332 97.7684 449.727 97.7415C450.123 97.7145 450.379 97.6784 450.496 97.6335L450.779 97.755L450.024 103.88C449.844 105.337 449.453 106.398 448.851 107.064C448.249 107.729 447.373 108.062 446.223 108.062ZM454.265 101.546C454.175 102.409 454.229 103.053 454.427 103.475C454.624 103.889 454.975 104.096 455.478 104.096C455.909 104.096 456.26 103.853 456.529 103.367C456.799 102.872 456.978 102.153 457.068 101.209C457.158 100.237 457.118 99.5266 456.947 99.0771C456.776 98.6184 456.462 98.389 456.004 98.389C455.572 98.3799 455.209 98.6092 454.912 99.0771C454.616 99.5449 454.418 100.188 454.319 101.006C454.31 101.024 454.296 101.114 454.279 101.276C454.269 101.429 454.265 101.519 454.265 101.546ZM455.033 107.927H450.586L450.653 107.428H451.704L452.823 98.2676H451.799L451.866 97.755C452.486 97.755 452.989 97.7415 453.376 97.7145C453.762 97.6875 454.018 97.6514 454.144 97.6066L454.427 97.728L454.184 99.6437C454.364 99.0053 454.669 98.5013 455.101 98.1327C455.541 97.7641 456.058 97.5796 456.651 97.5796C457.468 97.5796 458.088 97.9034 458.511 98.5509C458.942 99.1893 459.104 100.044 458.996 101.114C458.897 102.149 458.546 103.012 457.944 103.704C457.351 104.397 456.655 104.743 455.855 104.743C455.415 104.734 455.033 104.649 454.71 104.487C454.386 104.325 454.144 104.096 453.982 103.799L453.537 107.428H455.087L455.033 107.927ZM461.952 108.062C461.314 108.062 460.793 107.904 460.388 107.59C459.984 107.284 459.782 106.884 459.782 106.389C459.782 106.048 459.881 105.773 460.078 105.566C460.276 105.368 460.541 105.269 460.873 105.269C461.152 105.269 461.368 105.346 461.52 105.499C461.673 105.651 461.75 105.859 461.75 106.119C461.75 106.398 461.669 106.636 461.507 106.834C461.354 107.032 461.143 107.149 460.873 107.185C461 107.311 461.143 107.405 461.305 107.468C461.466 107.532 461.651 107.563 461.857 107.563C462.46 107.563 462.922 107.356 463.246 106.942C463.569 106.538 463.78 105.876 463.879 104.959C463.879 104.941 463.884 104.901 463.892 104.838C463.902 104.775 463.924 104.64 463.96 104.433C464.023 103.965 464.068 103.641 464.095 103.462C464.122 103.282 464.14 103.178 464.149 103.151C463.924 103.61 463.623 103.961 463.246 104.204C462.877 104.437 462.437 104.554 461.925 104.554C461.278 104.554 460.802 104.356 460.496 103.961C460.2 103.565 460.092 102.999 460.173 102.261L460.658 98.2946H459.634L459.701 97.7819C460.438 97.7819 461.022 97.7728 461.453 97.755C461.884 97.728 462.163 97.6875 462.289 97.6335L462.572 97.755L462.006 102.382C461.952 102.823 461.979 103.151 462.086 103.367C462.194 103.574 462.383 103.677 462.653 103.677C463.084 103.677 463.43 103.466 463.69 103.043C463.96 102.621 464.144 101.991 464.243 101.155L464.593 98.2946H463.798L463.866 97.7819C464.531 97.7819 465.061 97.7684 465.456 97.7415C465.852 97.7145 466.108 97.6784 466.224 97.6335L466.507 97.755L465.752 103.88C465.573 105.337 465.182 106.398 464.58 107.064C463.978 107.729 463.102 108.062 461.952 108.062ZM477.121 102.517C477.085 103.165 476.775 103.7 476.191 104.123C475.607 104.537 474.883 104.743 474.021 104.743C473.041 104.743 472.287 104.415 471.757 103.758C471.235 103.093 471.047 102.243 471.191 101.209C471.334 100.112 471.734 99.2346 472.39 98.5779C473.055 97.9212 473.863 97.5887 474.816 97.5796C475.616 97.5618 476.231 97.7145 476.662 98.0383C477.103 98.3529 477.292 98.7938 477.229 99.3604C477.192 99.756 476.972 100.093 476.568 100.372C476.173 100.642 475.629 100.84 474.937 100.966C475.62 100.93 476.159 101.056 476.555 101.344C476.95 101.623 477.139 102.014 477.121 102.517ZM474.722 98.1057C474.327 98.1057 473.994 98.3394 473.724 98.8073C473.455 99.2751 473.257 99.9631 473.131 100.871C473.176 100.871 473.239 100.871 473.32 100.871C473.401 100.862 473.464 100.854 473.509 100.844C474.12 100.8 474.583 100.646 474.897 100.386C475.211 100.125 475.4 99.7338 475.463 99.212C475.49 98.8521 475.44 98.5779 475.315 98.389C475.189 98.191 474.991 98.0966 474.722 98.1057ZM473.064 101.357C472.956 102.328 472.992 103.048 473.172 103.516C473.351 103.974 473.684 104.199 474.169 104.19C474.51 104.181 474.776 104.046 474.964 103.785C475.153 103.516 475.256 103.147 475.274 102.679C475.301 102.238 475.211 101.901 475.005 101.667C474.798 101.434 474.483 101.317 474.061 101.317C473.9 101.317 473.724 101.321 473.536 101.33C473.347 101.339 473.19 101.348 473.064 101.357ZM480.471 101.721C480.273 102.837 480.021 103.619 479.716 104.069C479.42 104.518 478.979 104.743 478.395 104.743C478.045 104.743 477.775 104.635 477.587 104.419C477.398 104.194 477.321 103.916 477.358 103.583C477.384 103.304 477.488 103.08 477.668 102.908C477.856 102.729 478.09 102.639 478.368 102.639C478.638 102.639 478.84 102.724 478.975 102.895C479.11 103.057 479.159 103.268 479.123 103.529C479.105 103.655 479.074 103.763 479.029 103.853C478.984 103.943 478.916 104.015 478.827 104.069C479.051 103.961 479.24 103.745 479.393 103.421C479.545 103.088 479.68 102.616 479.797 102.005C479.878 101.609 479.967 101.101 480.067 100.48C480.165 99.8595 480.269 99.1219 480.377 98.2676H479.312L479.366 97.755H482.532L483.327 101.924L485.483 97.755H487.601L486.942 103.246C486.913 103.525 486.922 103.727 486.966 103.853C487.019 103.979 487.115 104.042 487.25 104.042C487.437 104.042 487.596 103.92 487.721 103.677C487.846 103.425 487.943 103.039 488.005 102.517H488.516C488.39 103.381 488.188 103.965 487.909 104.271C487.63 104.577 487.221 104.73 486.672 104.73C486.075 104.73 485.656 104.568 485.401 104.244C485.161 103.911 485.079 103.408 485.161 102.733L485.647 98.7128L482.706 104.554H482.032L480.929 98.7263C480.83 99.4548 480.745 100.053 480.673 100.521C480.601 100.988 480.533 101.388 480.471 101.721ZM491.803 104.743C490.86 104.743 490.128 104.41 489.603 103.745C489.093 103.08 488.896 102.22 489.011 101.168C489.137 100.089 489.536 99.2211 490.21 98.5644C490.884 97.9077 491.697 97.5796 492.65 97.5796C493.353 97.5796 493.911 97.7458 494.335 98.0787C494.768 98.4117 494.975 98.8434 494.956 99.3739C494.937 100.075 494.576 100.619 493.863 101.006C493.156 101.384 492.155 101.582 490.874 101.6C490.816 102.454 490.903 103.088 491.129 103.502C491.351 103.916 491.726 104.123 492.246 104.123C492.713 104.123 493.098 103.988 493.392 103.718C493.7 103.439 493.935 103.007 494.109 102.423L494.633 102.504C494.436 103.25 494.099 103.812 493.623 104.19C493.156 104.559 492.549 104.743 491.803 104.743ZM492.463 98.0922C492.068 98.0922 491.736 98.3486 491.466 98.8612C491.197 99.3739 491.009 100.112 490.913 101.074C491.649 101.038 492.207 100.858 492.583 100.534C492.963 100.201 493.165 99.7203 493.189 99.0906C493.199 98.7759 493.141 98.5331 493.016 98.362C492.891 98.1823 492.703 98.0922 492.463 98.0922ZM498.446 104.743C497.464 104.743 496.708 104.41 496.179 103.745C495.649 103.08 495.442 102.22 495.562 101.168C495.688 100.089 496.092 99.2211 496.775 98.5644C497.454 97.9077 498.282 97.5796 499.254 97.5796C499.928 97.5796 500.458 97.7371 500.843 98.0518C501.237 98.3577 501.425 98.7803 501.396 99.3199C501.367 99.6345 501.257 99.8865 501.059 100.075C500.872 100.264 500.617 100.359 500.289 100.359C499.986 100.359 499.75 100.278 499.591 100.116C499.428 99.954 499.355 99.7338 499.375 99.4548C499.384 99.1758 499.471 98.9422 499.63 98.7533C499.793 98.5644 500.005 98.443 500.265 98.389C500.145 98.2811 500.01 98.2002 499.861 98.1462C499.716 98.0922 499.553 98.0652 499.375 98.0652C498.855 98.0652 498.431 98.3216 498.109 98.8342C497.791 99.3469 497.579 100.107 497.459 101.114C497.353 102.076 497.416 102.818 497.651 103.34C497.882 103.862 498.277 104.123 498.836 104.123C499.259 104.123 499.625 103.97 499.943 103.664C500.265 103.358 500.487 102.945 500.617 102.423L501.141 102.504C500.944 103.232 500.617 103.79 500.154 104.177C499.697 104.554 499.129 104.743 498.446 104.743ZM511.158 104.73C510.59 104.73 510.181 104.564 509.931 104.231C509.685 103.898 509.608 103.398 509.685 102.733L510.065 99.7786C510.118 99.3291 510.094 98.9961 509.998 98.7803C509.906 98.5553 509.743 98.443 509.497 98.443C509.194 98.443 508.939 98.6092 508.732 98.9422C508.535 99.2659 508.376 99.7694 508.26 100.453L507.745 104.554H505.887L506.508 99.7786C506.571 99.3107 506.556 98.9735 506.465 98.7668C506.378 98.5509 506.205 98.443 505.955 98.443C505.594 98.443 505.305 98.6497 505.093 99.0636C504.886 99.4683 504.727 100.102 504.621 100.966L504.174 104.554H502.34L503.11 98.2676H502.07L502.138 97.755C502.758 97.755 503.264 97.7415 503.649 97.7145C504.044 97.6875 504.304 97.6514 504.429 97.6066L504.713 97.728L504.511 99.3334C504.708 98.749 504.992 98.3124 505.363 98.0248C505.728 97.728 506.176 97.5796 506.71 97.5796C507.129 97.5796 507.476 97.6875 507.745 97.9034C508.015 98.1101 508.193 98.416 508.27 98.8207C508.486 98.4069 508.756 98.0966 509.079 97.8899C509.411 97.6832 509.801 97.5796 510.239 97.5796C510.86 97.5796 511.307 97.7819 511.586 98.1867C511.865 98.5822 511.962 99.158 511.87 99.9135L511.48 103.205C511.442 103.502 511.447 103.718 511.495 103.853C511.548 103.979 511.644 104.042 511.789 104.042C511.976 104.042 512.13 103.92 512.246 103.677C512.366 103.435 512.458 103.048 512.53 102.517H513.045C512.924 103.372 512.722 103.956 512.438 104.271C512.149 104.577 511.721 104.73 511.158 104.73ZM516.226 104.743C515.283 104.743 514.547 104.41 514.027 103.745C513.517 103.08 513.319 102.22 513.435 101.168C513.56 100.089 513.959 99.2211 514.633 98.5644C515.307 97.9077 516.121 97.5796 517.074 97.5796C517.776 97.5796 518.335 97.7458 518.758 98.0787C519.192 98.4117 519.394 98.8434 519.379 99.3739C519.36 100.075 518.994 100.619 518.287 101.006C517.574 101.384 516.578 101.582 515.293 101.6C515.24 102.454 515.326 103.088 515.553 103.502C515.774 103.916 516.149 104.123 516.669 104.123C517.136 104.123 517.516 103.988 517.815 103.718C518.118 103.439 518.359 103.007 518.527 102.423L519.057 102.504C518.855 103.25 518.518 103.812 518.046 104.19C517.574 104.559 516.968 104.743 516.226 104.743ZM516.886 98.0922C516.491 98.0922 516.159 98.3486 515.89 98.8612C515.62 99.3739 515.432 100.112 515.336 101.074C516.072 101.038 516.631 100.858 517.006 100.534C517.382 100.201 517.584 99.7203 517.613 99.0906C517.622 98.7759 517.565 98.5331 517.439 98.362C517.31 98.1823 517.127 98.0922 516.886 98.0922Z" fill="white"/>
<path d="M33.0684 37.5827H30.0841V37.2936H31.143V31.2227H30.7387C30.1932 31.2227 29.8274 31.3191 29.6412 31.5118C29.4551 31.7045 29.362 32.0707 29.362 32.6103V33.0536H29.0732V30.9336H34.0792V33.0536H33.7904V32.6103C33.7904 32.0707 33.6974 31.7045 33.5112 31.5118C33.3251 31.3191 32.9593 31.2227 32.4138 31.2227H32.0094V37.2936H33.0684V37.5827ZM36.3466 37.679C35.7049 37.679 35.1818 37.451 34.7774 36.9949C34.3731 36.5323 34.171 35.9188 34.171 35.1543C34.171 34.4156 34.3667 33.8181 34.7582 33.362C35.1561 32.8994 35.6567 32.6681 36.26 32.6681C36.8504 32.6681 37.3158 32.8673 37.6559 33.2656C37.996 33.6575 38.1661 34.1778 38.1661 34.8267V35.0483H35.0374V35.1543C35.0374 35.9509 35.1401 36.5195 35.3454 36.86C35.5508 37.2005 35.8878 37.3707 36.3563 37.3707C36.7349 37.3707 37.043 37.2743 37.2804 37.0816C37.5179 36.8889 37.704 36.5709 37.8388 36.1276L38.1083 36.2047C37.9928 36.6608 37.7779 37.0205 37.4633 37.284C37.1553 37.5474 36.7831 37.679 36.3466 37.679ZM36.2407 32.9669C35.8557 32.9669 35.5669 33.1114 35.3743 33.4005C35.1818 33.6896 35.0727 34.1425 35.047 34.7592H37.3093C37.3158 34.1361 37.2323 33.6832 37.059 33.4005C36.8857 33.1114 36.613 32.9669 36.2407 32.9669ZM40.3301 37.5827H38.3951V37.2936H39.1171L40.5708 35.2121L39.0883 33.0536H38.4914V32.7645H40.6671V33.0536H39.9643L41.1003 34.6918L42.2266 33.0536H41.5335V32.7645H43.3145V33.0536H42.6406L41.3024 34.9809L42.9101 37.2936H43.4492V37.5827H41.1965V37.2936H42.0052L40.7922 35.5301L39.5696 37.2936H40.3301V37.5827ZM45.2821 37.679C44.9227 37.679 44.6403 37.5795 44.4349 37.3803C44.236 37.1747 44.1365 36.8825 44.1365 36.5034V33.0536H43.2701V32.8609C43.7065 32.8609 44.0627 32.681 44.3387 32.3212C44.6211 31.9615 44.7622 31.5375 44.7622 31.0492H44.9548V32.7645H46.4662V33.0536H44.9548V36.5034C44.9548 36.7989 45.0029 37.0174 45.0992 37.1587C45.1954 37.3 45.3463 37.3707 45.5516 37.3707C45.8019 37.3707 45.9817 37.255 46.0907 37.0238C46.2063 36.7925 46.264 36.4135 46.264 35.8867H46.524C46.524 36.542 46.4245 37.0045 46.2255 37.2743C46.033 37.5441 45.7185 37.679 45.2821 37.679ZM47.2113 36.648C47.3204 36.5323 47.468 36.4745 47.6541 36.4745C47.8403 36.4745 47.9879 36.5356 48.097 36.6576C48.2062 36.7732 48.2605 36.9145 48.2605 37.0816C48.2605 37.2422 48.2062 37.3835 48.097 37.5056C47.9879 37.6212 47.8403 37.679 47.6541 37.679C47.468 37.679 47.3204 37.6212 47.2113 37.5056C47.1022 37.39 47.0477 37.2486 47.0477 37.0816C47.0477 36.9081 47.1022 36.7636 47.2113 36.648ZM50.5744 37.2936H51.7296V37.5827H48.9859V37.2936H49.7561V33.0536H48.9859V32.7645C49.5828 32.7645 49.9419 32.7581 50.0641 32.7452C50.1922 32.726 50.2884 32.6874 50.3529 32.6296L50.4492 32.7163V34.1232C50.5132 33.6607 50.6543 33.3041 50.8728 33.0536C51.0908 32.7966 51.3734 32.6681 51.72 32.6681C52.0405 32.6681 52.2976 32.7645 52.4901 32.9572C52.6889 33.1436 52.7885 33.3812 52.7885 33.6703C52.7885 33.8823 52.737 34.0494 52.6345 34.1714C52.5382 34.287 52.4001 34.3449 52.2206 34.3449C52.0343 34.3449 51.8865 34.2935 51.7777 34.1907C51.6747 34.0879 51.6237 33.9465 51.6237 33.7667C51.6237 33.5932 51.6781 33.4519 51.7873 33.3427C51.9029 33.2335 52.0569 33.1725 52.2494 33.1596C52.1849 33.0889 52.105 33.0376 52.0088 33.0054C51.9188 32.9669 51.8129 32.9476 51.6911 32.9476C51.3123 32.9476 51.0297 33.15 50.8439 33.5547C50.6639 33.953 50.5744 34.5729 50.5744 35.4145V37.2936ZM56.9589 37.7176L56.8626 37.6309V36.301C56.8049 36.7572 56.6508 37.1009 56.4005 37.3321C56.1502 37.5634 55.8066 37.679 55.3705 37.679C54.8314 37.679 54.4333 37.5249 54.1767 37.2165C53.9264 36.9017 53.8013 36.4135 53.8013 35.7518V33.0536H52.9349V32.7645C53.6343 32.7645 54.0578 32.7581 54.2056 32.7452C54.3596 32.726 54.4655 32.6874 54.5233 32.6296L54.6196 32.7163V35.6458C54.6196 36.2111 54.6995 36.619 54.8602 36.8696C55.0268 37.1201 55.2963 37.2454 55.6689 37.2454C56.0217 37.2454 56.2879 37.0945 56.4679 36.7925C56.6475 36.4905 56.7375 36.0473 56.7375 35.4627V33.0536H55.486V32.7645C56.3072 32.7645 56.827 32.7549 57.0455 32.7356C57.2698 32.7163 57.408 32.681 57.4595 32.6296L57.5558 32.7163V37.2936H58.3259V37.5827C58.0179 37.5827 57.7546 37.5923 57.5365 37.6116C57.3247 37.6373 57.1322 37.6726 56.9589 37.7176Z" fill="white"/>
</g>
</g>
<defs>
<clipPath id="clip0_568_49">
<rect width="645" height="318" fill="white"/>
</clipPath>
</defs>
</svg>
