<svg width="1440" height="246" viewBox="0 0 1440 246" fill="none" xmlns="http://www.w3.org/2000/svg">
<path d="M1364.29 223.707C1364.68 224.098 1365.32 224.098 1365.71 223.707L1372.07 217.343C1372.46 216.953 1372.46 216.319 1372.07 215.929C1371.68 215.538 1371.05 215.538 1370.66 215.929L1365 221.586L1359.34 215.929C1358.95 215.538 1358.32 215.538 1357.93 215.929C1357.54 216.319 1357.54 216.953 1357.93 217.343L1364.29 223.707ZM1359.67 72C1359.67 74.9455 1362.05 77.3333 1365 77.3333C1367.95 77.3333 1370.33 74.9455 1370.33 72C1370.33 69.0545 1367.95 66.6667 1365 66.6667C1362.05 66.6667 1359.67 69.0545 1359.67 72ZM1365 223H1366V72H1365H1364V223H1365Z" fill="#0E008B"/>
<path d="M1394.29 223.707C1394.68 224.098 1395.32 224.098 1395.71 223.707L1402.07 217.343C1402.46 216.953 1402.46 216.319 1402.07 215.929C1401.68 215.538 1401.05 215.538 1400.66 215.929L1395 221.586L1389.34 215.929C1388.95 215.538 1388.32 215.538 1387.93 215.929C1387.54 216.319 1387.54 216.953 1387.93 217.343L1394.29 223.707ZM1389.67 16C1389.67 18.9455 1392.05 21.3333 1395 21.3333C1397.95 21.3333 1400.33 18.9455 1400.33 16C1400.33 13.0545 1397.95 10.6667 1395 10.6667C1392.05 10.6667 1389.67 13.0545 1389.67 16ZM1395 223H1396V16H1395H1394V223H1395Z" fill="#0E008B"/>
<path d="M1440 73H0" stroke="#777777" stroke-linecap="round" stroke-dasharray="3 3"/>
<path d="M0 16H1440" stroke="#777777" stroke-linecap="round" stroke-dasharray="3 3"/>
<path d="M0 223H1440" stroke="#777777" stroke-linecap="round" stroke-dasharray="3 3"/>
<path d="M40 243L40 6" stroke="#777777" stroke-linecap="round" stroke-dasharray="3 3"/>
<path d="M228 243L228 6" stroke="#777777" stroke-linecap="round" stroke-dasharray="3 3"/>
<path d="M235 243V6" stroke="#777777" stroke-linecap="round" stroke-dasharray="3 3"/>
<path d="M565 238V1" stroke="#777777" stroke-linecap="round" stroke-dasharray="3 3"/>
<path d="M408 238V1" stroke="#777777" stroke-linecap="round" stroke-dasharray="3 3"/>
<path d="M582 238V1" stroke="#777777" stroke-linecap="round" stroke-dasharray="3 3"/>
<path d="M425 238V1" stroke="#777777" stroke-linecap="round" stroke-dasharray="3 3"/>
<path d="M1104 238V1" stroke="#777777" stroke-linecap="round" stroke-dasharray="3 3"/>
<path d="M943 238V1" stroke="#777777" stroke-linecap="round" stroke-dasharray="3 3"/>
<path d="M755 238V1" stroke="#777777" stroke-linecap="round" stroke-dasharray="3 3"/>
<path d="M1130 238V1" stroke="#777777" stroke-linecap="round" stroke-dasharray="3 3"/>
<path d="M962 238V1" stroke="#777777" stroke-linecap="round" stroke-dasharray="3 3"/>
<path d="M778 238V1" stroke="#777777" stroke-linecap="round" stroke-dasharray="3 3"/>
<path d="M1281 238V1" stroke="#777777" stroke-linecap="round" stroke-dasharray="3 3"/>
<path d="M40 232.667C37.0545 232.667 34.6667 235.054 34.6667 238C34.6667 240.946 37.0545 243.333 40 243.333C42.9455 243.333 45.3333 240.946 45.3333 238C45.3333 235.054 42.9455 232.667 40 232.667ZM228.707 238.707C229.098 238.317 229.098 237.683 228.707 237.293L222.343 230.929C221.953 230.538 221.319 230.538 220.929 230.929C220.538 231.319 220.538 231.953 220.929 232.343L226.586 238L220.929 243.657C220.538 244.047 220.538 244.681 220.929 245.071C221.319 245.462 221.953 245.462 222.343 245.071L228.707 238.707ZM40 238V239H228V238V237H40V238Z" fill="#0E008B"/>
<path d="M235 232.667C232.054 232.667 229.667 235.054 229.667 238C229.667 240.946 232.054 243.333 235 243.333C237.946 243.333 240.333 240.946 240.333 238C240.333 235.054 237.946 232.667 235 232.667ZM407.707 238.707C408.098 238.317 408.098 237.683 407.707 237.293L401.343 230.929C400.953 230.538 400.319 230.538 399.929 230.929C399.538 231.319 399.538 231.953 399.929 232.343L405.586 238L399.929 243.657C399.538 244.047 399.538 244.681 399.929 245.071C400.319 245.462 400.953 245.462 401.343 245.071L407.707 238.707ZM235 238V239H407V238V237H235V238Z" fill="#0E008B"/>
<path d="M425 232.667C422.054 232.667 419.667 235.054 419.667 238C419.667 240.946 422.054 243.333 425 243.333C427.946 243.333 430.333 240.946 430.333 238C430.333 235.054 427.946 232.667 425 232.667ZM564.707 238.707C565.098 238.317 565.098 237.683 564.707 237.293L558.343 230.929C557.953 230.538 557.319 230.538 556.929 230.929C556.538 231.319 556.538 231.953 556.929 232.343L562.586 238L556.929 243.657C556.538 244.047 556.538 244.681 556.929 245.071C557.319 245.462 557.953 245.462 558.343 245.071L564.707 238.707ZM425 238V239H564V238V237H425V238Z" fill="#0E008B"/>
<path d="M582 232.667C579.054 232.667 576.667 235.054 576.667 238C576.667 240.946 579.054 243.333 582 243.333C584.946 243.333 587.333 240.946 587.333 238C587.333 235.054 584.946 232.667 582 232.667ZM754.707 238.707C755.098 238.317 755.098 237.683 754.707 237.293L748.343 230.929C747.953 230.538 747.319 230.538 746.929 230.929C746.538 231.319 746.538 231.953 746.929 232.343L752.586 238L746.929 243.657C746.538 244.047 746.538 244.681 746.929 245.071C747.319 245.462 747.953 245.462 748.343 245.071L754.707 238.707ZM582 238V239H754V238V237H582V238Z" fill="#0E008B"/>
<path d="M778 232.667C775.054 232.667 772.667 235.054 772.667 238C772.667 240.946 775.054 243.333 778 243.333C780.946 243.333 783.333 240.946 783.333 238C783.333 235.054 780.946 232.667 778 232.667ZM942.707 238.707C943.098 238.317 943.098 237.683 942.707 237.293L936.343 230.929C935.953 230.538 935.319 230.538 934.929 230.929C934.538 231.319 934.538 231.953 934.929 232.343L940.586 238L934.929 243.657C934.538 244.047 934.538 244.681 934.929 245.071C935.319 245.462 935.953 245.462 936.343 245.071L942.707 238.707ZM778 238V239H942V238V237H778V238Z" fill="#0E008B"/>
<path d="M962 232.667C959.054 232.667 956.667 235.054 956.667 238C956.667 240.946 959.054 243.333 962 243.333C964.946 243.333 967.333 240.946 967.333 238C967.333 235.054 964.946 232.667 962 232.667ZM1103.71 238.707C1104.1 238.317 1104.1 237.683 1103.71 237.293L1097.34 230.929C1096.95 230.538 1096.32 230.538 1095.93 230.929C1095.54 231.319 1095.54 231.953 1095.93 232.343L1101.59 238L1095.93 243.657C1095.54 244.047 1095.54 244.681 1095.93 245.071C1096.32 245.462 1096.95 245.462 1097.34 245.071L1103.71 238.707ZM962 238V239H1103V238V237H962V238Z" fill="#0E008B"/>
<path d="M1130 232.667C1127.05 232.667 1124.67 235.054 1124.67 238C1124.67 240.946 1127.05 243.333 1130 243.333C1132.95 243.333 1135.33 240.946 1135.33 238C1135.33 235.054 1132.95 232.667 1130 232.667ZM1280.71 238.707C1281.1 238.317 1281.1 237.683 1280.71 237.293L1274.34 230.929C1273.95 230.538 1273.32 230.538 1272.93 230.929C1272.54 231.319 1272.54 231.953 1272.93 232.343L1278.59 238L1272.93 243.657C1272.54 244.047 1272.54 244.681 1272.93 245.071C1273.32 245.462 1273.95 245.462 1274.34 245.071L1280.71 238.707ZM1130 238V239H1280V238V237H1130V238Z" fill="#0E008B"/>
</svg>
