<svg width="145" height="26" viewBox="0 0 145 26" fill="none" xmlns="http://www.w3.org/2000/svg">
<path d="M10.56 19H3V18.208H5.496V3.232H4.584C3.288 3.232 2.4 3.48 1.92 3.976C1.456 4.472 1.224 5.384 1.224 6.712V7.72H0.456V2.44H13.104V7.72H12.336V6.712C12.336 5.384 12.104 4.472 11.64 3.976C11.176 3.48 10.288 3.232 8.976 3.232H8.064V18.208H10.56V19ZM15.5374 25.24C14.8014 25.24 14.2014 25 13.7374 24.52C13.2894 24.04 13.0654 23.408 13.0654 22.624C13.0654 22.08 13.2094 21.648 13.4974 21.328C13.7854 21.008 14.1774 20.848 14.6734 20.848C15.1374 20.848 15.4894 20.976 15.7294 21.232C15.9854 21.504 16.1134 21.872 16.1134 22.336C16.1134 22.8 15.9614 23.16 15.6574 23.416C15.3534 23.688 14.9294 23.832 14.3854 23.848C14.4974 24.024 14.6494 24.16 14.8414 24.256C15.0334 24.352 15.2654 24.4 15.5374 24.4C16.0974 24.4 16.5854 24.096 17.0014 23.488C17.4174 22.896 17.9534 21.672 18.6094 19.816L18.8734 19.072L14.2174 7.744H12.4414V6.976H18.8014V7.744H16.6654L19.9534 15.856L22.9534 7.744H21.1054V6.976H25.5694V7.744H24.0094L19.7854 19.36C18.8734 21.872 18.1374 23.48 17.5774 24.184C17.0334 24.888 16.3534 25.24 15.5374 25.24ZM33.5903 18.424C34.5823 18.424 35.3103 17.992 35.7743 17.128C36.2383 16.264 36.4783 14.88 36.4943 12.976C36.5103 11.104 36.2863 9.744 35.8223 8.896C35.3583 8.032 34.6303 7.6 33.6383 7.6C32.7263 7.6 31.9983 8.064 31.4543 8.992C30.9103 9.904 30.6383 11.136 30.6383 12.688V14.08C30.6383 15.584 30.8703 16.688 31.3343 17.392C31.7983 18.08 32.5503 18.424 33.5903 18.424ZM30.6383 24.112H33.3023V25H26.2943V24.112H28.1663V7.864H26.2943V6.976C27.4783 6.976 28.3183 6.96 28.8143 6.928C29.3103 6.88 29.6703 6.784 29.8943 6.64L30.2303 6.856V10.36C30.3743 9.24 30.7983 8.352 31.5023 7.696C32.2063 7.024 33.0943 6.688 34.1663 6.688C35.5423 6.688 36.7023 7.28 37.6463 8.464C38.6063 9.632 39.0863 11.12 39.0863 12.928C39.0863 14.768 38.5743 16.288 37.5503 17.488C36.5423 18.672 35.2943 19.264 33.8063 19.264C33.0703 19.264 32.4463 19.128 31.9343 18.856C31.4223 18.584 30.9903 18.168 30.6383 17.608V24.112ZM47.1977 19.264C45.5337 19.264 44.1737 18.688 43.1177 17.536C42.0617 16.384 41.5337 14.848 41.5337 12.928C41.5337 11.088 42.0457 9.592 43.0697 8.44C44.0937 7.272 45.3897 6.688 46.9577 6.688C48.4777 6.688 49.6777 7.192 50.5577 8.2C51.4537 9.192 51.9017 10.504 51.9017 12.136C51.9017 12.2 51.8937 12.296 51.8777 12.424C51.8777 12.552 51.8697 12.664 51.8537 12.76H44.1257V13.024C44.1257 14.928 44.3817 16.304 44.8937 17.152C45.4217 17.984 46.2537 18.4 47.3897 18.4C48.3177 18.4 49.0697 18.16 49.6457 17.68C50.2217 17.184 50.6777 16.4 51.0137 15.328L51.7577 15.496C51.4857 16.664 50.9417 17.584 50.1257 18.256C49.3097 18.928 48.3337 19.264 47.1977 19.264ZM46.9097 7.504C46.0137 7.504 45.3417 7.864 44.8937 8.584C44.4617 9.304 44.2137 10.432 44.1497 11.968H49.3817C49.3977 10.4 49.2057 9.264 48.8057 8.56C48.4057 7.856 47.7737 7.504 46.9097 7.504ZM55.923 15.856C56.451 15.856 56.867 16.024 57.171 16.36C57.491 16.696 57.651 17.104 57.651 17.584C57.651 18.032 57.491 18.424 57.171 18.76C56.867 19.096 56.451 19.264 55.923 19.264C55.395 19.264 54.971 19.104 54.651 18.784C54.347 18.448 54.195 18.048 54.195 17.584C54.195 17.104 54.347 16.696 54.651 16.36C54.955 16.024 55.379 15.856 55.923 15.856ZM67.8413 19H60.2812V18.208H62.7773V3.232H61.8653C60.5693 3.232 59.6813 3.48 59.2013 3.976C58.7373 4.472 58.5053 5.384 58.5053 6.712V7.72H57.7373V2.44H70.3853V7.72H69.6172V6.712C69.6172 5.384 69.3853 4.472 68.9213 3.976C68.4573 3.48 67.5693 3.232 66.2573 3.232H65.3453V18.208H67.8413V19ZM76.6826 6.688C78.2826 6.688 79.6346 7.288 80.7386 8.488C81.8586 9.672 82.4186 11.176 82.4186 13C82.4186 14.824 81.8586 16.328 80.7386 17.512C79.6346 18.68 78.2826 19.264 76.6826 19.264C75.0346 19.264 73.6746 18.688 72.6026 17.536C71.5306 16.368 70.9946 14.856 70.9946 13C70.9946 11.128 71.5306 9.608 72.6026 8.44C73.6746 7.272 75.0346 6.688 76.6826 6.688ZM76.6826 7.504C75.6106 7.504 74.8266 7.936 74.3306 8.8C73.8346 9.664 73.5866 11.064 73.5866 13C73.5866 14.92 73.8346 16.312 74.3306 17.176C74.8266 18.04 75.6106 18.472 76.6826 18.472C77.7226 18.472 78.5066 18.016 79.0346 17.104C79.5626 16.176 79.8266 14.808 79.8266 13C79.8266 11.176 79.5626 9.808 79.0346 8.896C78.5066 7.968 77.7226 7.504 76.6826 7.504ZM93.8513 19.336L93.5153 19.12V16.528C93.1953 17.44 92.7233 18.128 92.0993 18.592C91.4913 19.04 90.7393 19.264 89.8433 19.264C88.3713 19.264 87.1313 18.68 86.1233 17.512C85.1313 16.328 84.6433 14.84 84.6593 13.048C84.6753 12.232 84.8033 11.464 85.0433 10.744C85.2833 10.008 85.6273 9.352 86.0753 8.776C86.5873 8.12 87.1873 7.608 87.8753 7.24C88.5633 6.872 89.2593 6.688 89.9633 6.688C90.7633 6.688 91.4433 6.856 92.0033 7.192C92.5793 7.528 93.0193 8.016 93.3233 8.656C93.2593 7.712 93.2113 6.848 93.1793 6.064C93.1473 5.264 93.1313 4.568 93.1313 3.976V1.792H91.2113V0.999999C92.9713 0.999999 94.0433 0.983999 94.4273 0.951999C94.8113 0.903999 95.0913 0.815999 95.2673 0.688L95.5793 0.904V18.208H97.4513V19C96.6673 19 95.9793 19.024 95.3873 19.072C94.8113 19.136 94.2993 19.224 93.8513 19.336ZM87.2513 12.928C87.2353 14.784 87.4593 16.144 87.9233 17.008C88.4033 17.872 89.1473 18.304 90.1553 18.304C91.0833 18.304 91.8113 17.912 92.3393 17.128C92.8673 16.328 93.1313 15.192 93.1313 13.72V12.544C93.1313 10.864 92.8993 9.616 92.4353 8.8C91.9713 7.984 91.2673 7.576 90.3233 7.576C89.3153 7.576 88.5553 8.024 88.0433 8.92C87.5473 9.8 87.2833 11.136 87.2513 12.928ZM108.67 19.264C107.87 19.264 107.262 19.032 106.846 18.568C106.446 18.104 106.222 17.4 106.174 16.456C105.902 17.32 105.43 18.008 104.758 18.52C104.086 19.016 103.278 19.264 102.334 19.264C101.294 19.264 100.486 19.032 99.9099 18.568C99.3499 18.088 99.0699 17.4 99.0699 16.504C99.0699 15.608 99.4699 14.864 100.27 14.272C101.07 13.664 102.398 13.12 104.254 12.64L105.982 12.184V10.504C105.982 9.544 105.774 8.824 105.358 8.344C104.942 7.864 104.31 7.624 103.462 7.624C102.998 7.624 102.574 7.696 102.19 7.84C101.806 7.984 101.47 8.192 101.182 8.464C101.598 8.592 101.91 8.792 102.118 9.064C102.342 9.32 102.454 9.648 102.454 10.048C102.454 10.512 102.318 10.888 102.046 11.176C101.774 11.448 101.39 11.584 100.894 11.584C100.414 11.584 100.038 11.448 99.7659 11.176C99.4939 10.888 99.3579 10.512 99.3579 10.048C99.3579 9.136 99.8219 8.352 100.75 7.696C101.694 7.024 102.83 6.688 104.158 6.688C105.582 6.688 106.654 6.992 107.374 7.6C108.094 8.192 108.454 9.08 108.454 10.264V16.96C108.454 17.36 108.518 17.664 108.646 17.872C108.79 18.08 108.998 18.184 109.27 18.184C109.67 18.184 109.966 17.944 110.158 17.464C110.366 16.984 110.47 16.28 110.47 15.352H111.19C111.19 16.728 110.99 17.728 110.59 18.352C110.206 18.96 109.566 19.264 108.67 19.264ZM101.638 16.12C101.638 16.712 101.782 17.16 102.07 17.464C102.374 17.768 102.79 17.92 103.318 17.92C104.166 17.92 104.822 17.576 105.286 16.888C105.75 16.184 105.982 15.184 105.982 13.888V12.904L104.518 13.336C103.51 13.624 102.774 13.984 102.31 14.416C101.862 14.848 101.638 15.416 101.638 16.12ZM114.092 25.24C113.356 25.24 112.756 25 112.292 24.52C111.844 24.04 111.62 23.408 111.62 22.624C111.62 22.08 111.764 21.648 112.052 21.328C112.34 21.008 112.732 20.848 113.228 20.848C113.692 20.848 114.044 20.976 114.284 21.232C114.54 21.504 114.668 21.872 114.668 22.336C114.668 22.8 114.516 23.16 114.212 23.416C113.908 23.688 113.484 23.832 112.94 23.848C113.052 24.024 113.204 24.16 113.396 24.256C113.588 24.352 113.82 24.4 114.092 24.4C114.652 24.4 115.14 24.096 115.556 23.488C115.972 22.896 116.508 21.672 117.164 19.816L117.428 19.072L112.772 7.744H110.996V6.976H117.356V7.744H115.22L118.508 15.856L121.508 7.744H119.66V6.976H124.124V7.744H122.564L118.34 19.36C117.428 21.872 116.692 23.48 116.132 24.184C115.588 24.888 114.908 25.24 114.092 25.24Z" fill="#0E008B"/>
<path d="M145 3.59965V3H129.627V4.1993H142.697L129 19.7785L130.254 21L143.861 5.524V20.3898H145V4.1993V3.59965Z" fill="#0E008B"/>
</svg>
