<svg width="440" height="300" viewBox="0 0 440 300" fill="none" xmlns="http://www.w3.org/2000/svg">
<rect x="1.5" y="1.5" width="437" height="297" rx="18.5" stroke="#0E008B" stroke-width="3"/>
<mask id="path-2-outside-1_299_7" maskUnits="userSpaceOnUse" x="1" y="66.0996" width="292" height="233" fill="black">
<rect fill="white" x="1" y="66.0996" width="292" height="233"/>
<path d="M289.6 97.9004H220.3V296H24C12.9543 296 4 287.046 4 276V270.7H127.6V97.9004H60.0996V69.0996H289.6V97.9004Z"/>
</mask>
<path d="M289.6 97.9004H220.3V296H24C12.9543 296 4 287.046 4 276V270.7H127.6V97.9004H60.0996V69.0996H289.6V97.9004Z" fill="#0E008B"/>
<path d="M289.6 97.9004V100.9H292.6V97.9004H289.6ZM220.3 97.9004V94.9004H217.3V97.9004H220.3ZM220.3 296V299H223.3V296H220.3ZM4 270.7V267.7H1V270.7H4ZM127.6 270.7V273.7H130.6V270.7H127.6ZM127.6 97.9004H130.6V94.9004H127.6V97.9004ZM60.0996 97.9004H57.0996V100.9H60.0996V97.9004ZM60.0996 69.0996V66.0996H57.0996V69.0996H60.0996ZM289.6 69.0996H292.6V66.0996H289.6V69.0996ZM289.6 97.9004V94.9004H220.3V97.9004V100.9H289.6V97.9004ZM220.3 97.9004H217.3V296H220.3H223.3V97.9004H220.3ZM220.3 296V293H24V296V299H220.3V296ZM24 296V293C14.6112 293 7 285.389 7 276H4H1C1 288.703 11.2975 299 24 299V296ZM4 276H7V270.7H4H1V276H4ZM4 270.7V273.7H127.6V270.7V267.7H4V270.7ZM127.6 270.7H130.6V97.9004H127.6H124.6V270.7H127.6ZM127.6 97.9004V94.9004H60.0996V97.9004V100.9H127.6V97.9004ZM60.0996 97.9004H63.0996V69.0996H60.0996H57.0996V97.9004H60.0996ZM60.0996 69.0996V72.0996H289.6V69.0996V66.0996H60.0996V69.0996ZM289.6 69.0996H286.6V97.9004H289.6H292.6V69.0996H289.6Z" fill="#0E008B" mask="url(#path-2-outside-1_299_7)"/>
</svg>
