<svg width="1390" height="335" viewBox="0 0 1390 335" fill="none" xmlns="http://www.w3.org/2000/svg">
<path d="M36.1654 71.1H55.1654L45.6654 43L36.1654 71.1ZM40.2654 96.5H18.3654V93.2H24.7654L47.6654 26.5H51.2654L73.9654 93.2H80.8654V96.5H50.7654V93.2H62.6654L56.2654 74.4H35.0654L28.6654 93.2H40.2654V96.5Z" fill="#0E008B"/>
<path d="M178.647 96.5H153.247V93.2H161.447V30.8H153.247V27.5H200.447V48.6H197.147V45.3C197.147 39.9667 196.014 36.2333 193.747 34.1C191.547 31.9 187.514 30.8 181.647 30.8H172.147V58.3H178.947C186.547 58.3 192.847 60.0333 197.847 63.5C202.914 66.9 205.447 71.4333 205.447 77.1C205.447 83.3667 203.147 88.1667 198.547 91.5C194.014 94.8333 187.38 96.5 178.647 96.5ZM193.847 77.1C193.847 72.1 192.447 68.2667 189.647 65.6C186.914 62.8667 183.08 61.5 178.147 61.5H172.147V93.2H177.847C183.38 93.2 187.414 91.9333 189.947 89.4C192.547 86.8 193.847 82.7 193.847 77.1Z" fill="#0E008B"/>
<path d="M308.159 96.5H281.459V93.2H289.659V30.8H281.459V27.5H302.659C312.192 27.5 319.392 28.9333 324.259 31.8C329.125 34.6667 331.559 38.9333 331.559 44.6C331.559 48.8667 330.092 52.5 327.159 55.5C324.292 58.5 320.525 60.3333 315.859 61C321.925 61.9333 326.592 63.8333 329.859 66.7C333.192 69.5667 334.859 73.2333 334.859 77.7C334.859 83.9667 332.625 88.6667 328.159 91.8C323.692 94.9333 317.025 96.5 308.159 96.5ZM320.159 44.7C320.159 39.9 318.792 36.4 316.059 34.2C313.392 31.9333 309.192 30.8 303.459 30.8H300.359V59.8H306.659C311.059 59.8 314.392 58.5333 316.659 56C318.992 53.4 320.159 49.6333 320.159 44.7ZM323.159 77.6C323.159 72.7333 321.792 69.0667 319.059 66.6C316.392 64.0667 312.459 62.8 307.259 62.8H300.359V93.2H307.059C312.725 93.2 316.825 92 319.359 89.6C321.892 87.1333 323.159 83.1333 323.159 77.6Z" fill="#0E008B"/>
<path d="M446.758 96.5H414.358V93.2H422.558V30.8H414.358V27.5H461.458V49.5H458.258V45.3C458.258 39.9667 457.125 36.2333 454.858 34.1C452.592 31.9 448.525 30.8 442.658 30.8H433.258V93.2H446.758V96.5Z" fill="#0E008B"/>
<path d="M574.913 93.2V30.8H555.713C555.646 47.2667 554.913 60.4 553.513 70.2C552.113 79.9333 549.813 87.6 546.613 93.2H574.913ZM538.613 111.3V114.5H535.413V93.2H541.613C545.213 87.9333 547.713 80.6 549.113 71.2C550.579 61.7333 551.346 48.2667 551.413 30.8H543.313V27.5H593.813V30.8H585.613V93.2H595.413V114.5H592.113V111.3C592.113 105.633 591.079 101.733 589.013 99.6C587.013 97.5333 583.213 96.5 577.613 96.5H553.213C547.613 96.5 543.779 97.5667 541.713 99.7C539.646 101.833 538.613 105.7 538.613 111.3Z" fill="#0E008B"/>
<path d="M719.55 96.5H670.05V93.2H678.25V30.8H670.05V27.5H717.75V49.5H714.45V45.3C714.45 39.9667 713.316 36.2333 711.05 34.1C708.85 31.9 704.816 30.8 698.95 30.8H688.95V59.8H703.45V52.1H707.15V71.6H703.45V63H688.95V93.2H702.75C707.683 93.2 711.15 92.1333 713.15 90C715.216 87.8 716.25 83.7 716.25 77.7V74.1H719.55V96.5Z" fill="#0E008B"/>
<path d="M848.64 96.5H799.14V93.2H807.34V30.8H799.14V27.5H846.84V49.5H843.54V45.3C843.54 39.9667 842.407 36.2333 840.14 34.1C837.94 31.9 833.907 30.8 828.04 30.8H818.04V59.8H832.54V52.1H836.24V71.6H832.54V63H818.04V93.2H831.84C836.774 93.2 840.24 92.1333 842.24 90C844.307 87.8 845.34 83.7 845.34 77.7V74.1H848.64V96.5ZM821.34 14.2C821.34 16 820.74 17.5667 819.54 18.9C818.407 20.2333 816.874 20.9 814.94 20.9C812.94 20.9 811.374 20.2667 810.24 19C809.107 17.6667 808.54 16.0667 808.54 14.2C808.54 12.2667 809.107 10.6667 810.24 9.39999C811.374 8.06666 812.94 7.4 814.94 7.4C816.94 7.4 818.507 8.06666 819.64 9.39999C820.774 10.7333 821.34 12.3333 821.34 14.2ZM840.54 14.2C840.54 16 839.94 17.5667 838.74 18.9C837.607 20.2333 836.074 20.9 834.14 20.9C832.207 20.9 830.674 20.2333 829.54 18.9C828.407 17.5667 827.84 16 827.84 14.2C827.84 12.2667 828.407 10.6667 829.54 9.39999C830.674 8.06666 832.207 7.4 834.14 7.4C836.14 7.4 837.707 8.06666 838.84 9.39999C839.974 10.7333 840.54 12.3333 840.54 14.2Z" fill="#0E008B"/>
<path d="M1206.06 93.2V96.5H1178.36V93.2H1186.56V30.8H1178.36V27.5H1206.06V30.8H1197.26V79.1L1225.36 36.8V30.8H1216.56V27.5H1244.36V30.8H1236.16V93.2H1244.36V96.5H1216.56V93.2H1225.36V43.4L1197.26 85.7V93.2H1206.06Z" fill="#0E008B"/>
<path d="M1335.15 93.2V96.5H1307.45V93.2H1315.65V30.8H1307.45V27.5H1335.15V30.8H1326.35V79.1L1354.45 36.8V30.8H1345.65V27.5H1373.45V30.8H1365.25V93.2H1373.45V96.5H1345.65V93.2H1354.45V43.4L1326.35 85.7V93.2H1335.15ZM1351.75 0.599995C1353.55 0.599995 1354.95 1.16666 1355.95 2.3C1357.01 3.43333 1357.55 4.93333 1357.55 6.8C1357.55 10.8 1355.95 14.2333 1352.75 17.1C1349.61 19.9 1345.55 21.3 1340.55 21.3C1335.48 21.3 1331.35 19.9 1328.15 17.1C1325.01 14.2333 1323.45 10.8 1323.45 6.8C1323.45 4.93333 1323.95 3.43333 1324.95 2.3C1326.01 1.16666 1327.45 0.599995 1329.25 0.599995C1330.91 0.599995 1332.21 1.06666 1333.15 1.99999C1334.15 2.93333 1334.65 4.16666 1334.65 5.69999C1334.65 7.56666 1333.91 9.03333 1332.45 10.1C1330.98 11.1667 1329.08 11.4333 1326.75 10.9C1327.61 12.5 1329.25 13.7333 1331.65 14.6C1334.05 15.4 1337.01 15.8 1340.55 15.8C1344.28 15.8 1347.35 15.4 1349.75 14.6C1352.15 13.7333 1353.81 12.4667 1354.75 10.8C1352.15 11.4 1350.11 11.2333 1348.65 10.3C1347.18 9.36666 1346.45 7.83333 1346.45 5.69999C1346.45 4.16666 1346.91 2.93333 1347.85 1.99999C1348.85 1.06666 1350.15 0.599995 1351.75 0.599995Z" fill="#0E008B"/>
<path d="M1106.23 78.6C1106.23 84.4667 1104.09 89.1 1099.83 92.5C1095.63 95.9 1089.96 97.6 1082.83 97.6C1079.89 97.6 1076.96 97.2667 1074.03 96.6C1071.16 95.9333 1068.69 95 1066.63 93.8L1062.63 97.5H1060.93V74.2H1064.13C1064.13 80.3333 1065.56 85.2 1068.43 88.8C1071.29 92.4 1075.26 94.2 1080.33 94.2C1084.99 94.2 1088.53 92.8667 1090.93 90.2C1093.33 87.5333 1094.53 83.5667 1094.53 78.3C1094.53 72.9 1093.19 68.8333 1090.53 66.1C1087.93 63.3 1084.09 61.9 1079.03 61.9H1071.53V58.6H1079.03C1083.29 58.6 1086.53 57.3 1088.73 54.7C1090.93 52.1 1092.03 48.3333 1092.03 43.4C1092.03 38.8 1091.03 35.4 1089.03 33.2C1087.09 30.9333 1084.16 29.8 1080.23 29.8C1075.56 29.8 1071.89 31.5667 1069.23 35.1C1066.56 38.5667 1065.23 43.3667 1065.23 49.5H1062.03V26.5H1063.73L1067.73 30.2C1069.86 28.9333 1072.13 28 1074.53 27.4C1076.99 26.7333 1079.56 26.4 1082.23 26.4C1088.96 26.4 1094.16 27.8667 1097.83 30.8C1101.56 33.7333 1103.43 37.8333 1103.43 43.1C1103.43 47.2333 1101.86 50.8 1098.73 53.8C1095.66 56.7333 1091.59 58.7333 1086.53 59.8C1092.73 60.7333 1097.56 62.8333 1101.03 66.1C1104.49 69.3667 1106.23 73.5333 1106.23 78.6Z" fill="#0E008B"/>
<path d="M989.279 97.6C986.012 97.6 983.412 96.6667 981.479 94.8C979.546 92.8667 977.646 88.7667 975.779 82.5C975.712 82.3667 975.212 80.7333 974.279 77.6C973.412 74.4667 972.646 72.1 971.979 70.5C970.846 67.8333 969.546 65.9 968.079 64.7C966.679 63.5 964.979 62.9 962.979 62.9H958.779V93.2H966.679V96.5H940.479V93.2H948.379V62.9H943.279C941.279 62.9 939.546 63.5 938.079 64.7C936.612 65.9 935.312 67.8333 934.179 70.5L932.879 74.4C932.212 76.4 931.379 79.1 930.379 82.5C929.446 85.5 928.679 87.7333 928.079 89.2C927.546 90.6 926.979 91.7667 926.379 92.7C925.312 94.4333 924.012 95.7 922.479 96.5C921.012 97.2333 919.212 97.6 917.079 97.6C913.346 97.6 910.679 96.4333 909.079 94.1C907.479 91.7 906.679 87.1333 906.679 80.4H909.679C909.679 84.7333 909.946 87.9 910.479 89.9C911.079 91.9 912.046 92.9 913.379 92.9C914.379 92.9 915.212 92.4 915.879 91.4C916.546 90.3333 917.612 87.4333 919.079 82.7C920.812 76.8333 921.979 73.2667 922.579 72C923.179 70.7333 923.846 69.6333 924.579 68.7C925.712 67.3667 927.246 66.1667 929.179 65.1C931.179 63.9667 934.046 62.7333 937.779 61.4C935.646 61 933.846 59.7 932.379 57.5C930.979 55.3 929.546 50.9667 928.079 44.5C926.679 38.3 925.312 34.2667 923.979 32.4C922.712 30.4667 921.079 29.5 919.079 29.5C918.612 29.5 918.146 29.5667 917.679 29.7C917.212 29.8333 916.779 30.0333 916.379 30.3C918.379 30.3667 919.946 31 921.079 32.2C922.279 33.3333 922.879 34.8333 922.879 36.7C922.879 38.5667 922.279 40.1 921.079 41.3C919.946 42.5 918.479 43.1 916.679 43.1C914.612 43.1 912.946 42.4333 911.679 41.1C910.412 39.7667 909.779 37.9667 909.779 35.7C909.779 32.9667 910.679 30.7333 912.479 29C914.279 27.2667 916.479 26.4 919.079 26.4C921.212 26.4 923.046 26.9333 924.579 28C926.112 29 927.412 30.6 928.479 32.8C929.079 33.9333 929.612 35.3 930.079 36.9C930.612 38.5 931.246 41 931.979 44.4C933.312 50.7333 934.679 54.8667 936.079 56.8C937.546 58.7333 939.412 59.7 941.679 59.7H948.379V30.8H940.479V27.5H966.679V30.8H958.779V59.7H964.679C967.012 59.7 968.879 58.7333 970.279 56.8C971.746 54.8667 973.112 50.7 974.379 44.3C975.112 40.9 975.679 38.4 976.079 36.8C976.546 35.2 977.079 33.8333 977.679 32.7C978.679 30.5667 979.946 29 981.479 28C983.012 26.9333 984.812 26.4 986.879 26.4C989.879 26.4 992.212 27.2333 993.879 28.9C995.546 30.5 996.379 32.8 996.379 35.8C996.379 38.1333 995.812 39.9333 994.679 41.2C993.612 42.4667 992.079 43.1 990.079 43.1C988.012 43.1 986.346 42.5333 985.079 41.4C983.879 40.2 983.279 38.5667 983.279 36.5C983.279 34.8333 983.779 33.4 984.779 32.2C985.779 30.9333 987.179 30.2 988.979 30C988.646 29.8 988.246 29.6667 987.779 29.6C987.379 29.5333 986.912 29.5 986.379 29.5C984.579 29.5 983.079 30.4333 981.879 32.3C980.679 34.1 979.446 38.0333 978.179 44.1C976.779 50.7 975.346 55.1333 973.879 57.4C972.479 59.6667 970.679 61 968.479 61.4C972.212 62.7333 975.079 63.9667 977.079 65.1C979.079 66.1667 980.646 67.3667 981.779 68.7C982.646 69.7 983.379 70.9 983.979 72.3C984.646 73.6333 985.812 77.1 987.479 82.7C989.079 87.9 990.179 90.9 990.779 91.7C991.446 92.5 992.279 92.9 993.279 92.9C994.412 92.9 995.246 91.8667 995.779 89.8C996.379 87.7333 996.679 84.6 996.679 80.4H999.679C999.679 87.1333 998.879 91.7 997.279 94.1C995.679 96.4333 993.012 97.6 989.279 97.6Z" fill="#0E008B"/>
<path d="M431.688 206.5H404.788V203.2H412.988V140.8H404.788V137.5H431.688V140.8H423.688V169.7H449.988V140.8H441.988V137.5H468.888V140.8H460.688V203.2H468.888V206.5H441.988V203.2H449.988V172.9H423.688V203.2H431.688V206.5Z" fill="#0E008B"/>
<path d="M544.897 146.7C550.23 139.833 557.23 136.4 565.897 136.4C574.563 136.4 581.53 139.833 586.797 146.7C592.13 153.567 594.797 162 594.797 172C594.797 182 592.13 190.433 586.797 197.3C581.53 204.167 574.563 207.6 565.897 207.6C557.23 207.6 550.23 204.167 544.897 197.3C539.63 190.433 536.997 182 536.997 172C536.997 162 539.63 153.567 544.897 146.7ZM578.897 147.5C576.23 142.3 571.897 139.7 565.897 139.7C559.897 139.7 555.53 142.3 552.797 147.5C550.13 152.7 548.797 160.867 548.797 172C548.797 183.133 550.13 191.3 552.797 196.5C555.53 201.7 559.897 204.3 565.897 204.3C571.897 204.3 576.23 201.7 578.897 196.5C581.63 191.3 582.997 183.133 582.997 172C582.997 160.867 581.63 152.7 578.897 147.5Z" fill="#0E008B"/>
<path d="M690.553 206.5H663.653V203.2H671.853V140.8H663.653V137.5H726.353V140.8H718.153V203.2H726.353V206.5H699.453V203.2H707.353V140.8H682.553V203.2H690.553V206.5Z" fill="#0E008B"/>
<path d="M829.987 206.5H799.287V203.2H807.487V140.8H799.287V137.5H821.287C830.62 137.5 837.754 139.2 842.687 142.6C847.687 146 850.187 150.867 850.187 157.2C850.187 163.6 847.687 168.633 842.687 172.3C837.687 175.967 830.654 177.8 821.587 177.8H818.187V203.2H829.987V206.5ZM838.687 157.3C838.687 151.5 837.287 147.3 834.487 144.7C831.754 142.1 827.487 140.8 821.687 140.8H818.187V174.5H821.887C827.62 174.5 831.854 173.133 834.587 170.4C837.32 167.667 838.687 163.3 838.687 157.3Z" fill="#0E008B"/>
<path d="M974.941 207.5L970.941 203.7C968.941 205.033 966.874 206 964.741 206.6C962.607 207.267 960.074 207.6 957.141 207.6C952.674 207.6 948.574 206.633 944.841 204.7C941.107 202.7 937.874 199.833 935.141 196.1C932.741 192.833 930.874 189.067 929.541 184.8C928.207 180.533 927.541 176.233 927.541 171.9C927.541 167.7 928.207 163.5 929.541 159.3C930.941 155.033 932.841 151.233 935.241 147.9C938.041 144.167 941.274 141.333 944.941 139.4C948.674 137.4 952.707 136.4 957.041 136.4C959.841 136.4 962.341 136.7 964.541 137.3C966.807 137.9 968.774 138.833 970.441 140.1L974.441 136.5H976.241V159.5H972.941C972.941 153.033 971.641 148.133 969.041 144.8C966.441 141.467 962.641 139.8 957.641 139.8C951.374 139.8 946.741 142.433 943.741 147.7C940.807 152.967 939.341 161.033 939.341 171.9C939.341 182.7 940.841 190.8 943.841 196.2C946.907 201.533 951.507 204.2 957.641 204.2C962.774 204.2 966.674 202.5 969.341 199.1C972.074 195.633 973.441 190.633 973.441 184.1H976.741V207.5H974.941Z" fill="#0E008B"/>
<path d="M1098 206.5H1066.5V203.2H1076.9V140.8H1073.1C1067.7 140.8 1064 141.833 1062 143.9C1060.07 145.967 1059.1 149.767 1059.1 155.3V159.5H1055.9V137.5H1108.6V159.5H1105.4V155.3C1105.4 149.767 1104.43 145.967 1102.5 143.9C1100.57 141.833 1096.87 140.8 1091.4 140.8H1087.6V203.2H1098V206.5Z" fill="#0E008B"/>
<path d="M1200.1 207.6C1196.63 207.6 1193.83 206.5 1191.7 204.3C1189.63 202.033 1188.6 198.933 1188.6 195C1188.6 192.8 1189.23 191 1190.5 189.6C1191.77 188.2 1193.47 187.5 1195.6 187.5C1197.6 187.5 1199.17 188.133 1200.3 189.4C1201.5 190.667 1202.1 192.267 1202.1 194.2C1202.1 196.267 1201.43 197.9 1200.1 199.1C1198.83 200.233 1196.93 200.833 1194.4 200.9C1194.87 201.967 1195.6 202.8 1196.6 203.4C1197.67 203.933 1198.93 204.2 1200.4 204.2C1202.67 204.2 1204.57 203.433 1206.1 201.9C1207.7 200.3 1209.73 196.567 1212.2 190.7L1189.1 140.8H1181.5V137.5H1212.1V140.8H1200.1L1217.3 177.9L1231 140.8H1221.7V137.5H1242.2V140.8H1235.2L1220.3 180.4C1215.77 192.467 1212.3 200.033 1209.9 203.1C1207.5 206.1 1204.23 207.6 1200.1 207.6Z" fill="#0E008B"/>
<path d="M1355.85 207.5H1325.05V204.2H1335.05V194C1325.45 193.467 1317.85 191.167 1312.25 187.1C1306.65 182.967 1303.85 177.567 1303.85 170.9C1303.85 164.233 1306.62 158.9 1312.15 154.9C1317.68 150.9 1325.32 148.6 1335.05 148V139.8H1325.05V136.5H1355.85V139.8H1345.85V148C1355.52 148.533 1363.12 150.833 1368.65 154.9C1374.18 158.9 1376.95 164.233 1376.95 170.9C1376.95 177.567 1374.15 182.967 1368.55 187.1C1363.02 191.167 1355.45 193.467 1345.85 194V204.2H1355.85V207.5ZM1315.55 170.9C1315.55 177.233 1317.08 182.033 1320.15 185.3C1323.28 188.5 1328.25 190.267 1335.05 190.6V151.3C1327.92 151.633 1322.88 153.367 1319.95 156.5C1317.02 159.633 1315.55 164.433 1315.55 170.9ZM1360.75 185.4C1363.82 182.133 1365.35 177.3 1365.35 170.9C1365.35 164.5 1363.85 159.733 1360.85 156.6C1357.85 153.4 1352.85 151.667 1345.85 151.4V190.6C1352.78 190.333 1357.75 188.6 1360.75 185.4Z" fill="#0E008B"/>
<path d="M40.6166 316.5H20.1166V313.2H26.7166L44.4166 282.5L27.0166 250.8H20.1166V247.5H47.5166V250.8H38.5166L51.4166 274.3L64.8166 250.8H57.4166V247.5H76.3166V250.8H69.1166L53.5166 278L72.8166 313.2H79.0166V316.5H50.6166V313.2H61.2166L46.5166 286.4L31.2166 313.2H40.6166V316.5Z" fill="#0E008B"/>
<path d="M212.034 334.5H208.834V331.3C208.834 325.7 207.801 321.833 205.734 319.7C203.667 317.567 199.834 316.5 194.234 316.5H147.534V313.2H155.734V250.8H147.534V247.5H173.534V250.8H166.434V313.2H191.234V250.8H184.234V247.5H210.234V250.8H202.034V313.2H212.034V334.5Z" fill="#0E008B"/>
<path d="M336.162 316.5H306.462V313.2H317.662V283.4C315.862 284.333 313.662 285.1 311.062 285.7C308.462 286.233 305.895 286.5 303.362 286.5C296.428 286.5 291.362 284.933 288.162 281.8C284.962 278.667 283.362 273.8 283.362 267.2V250.8H275.162V247.5H301.062V250.8H293.762V267.7C293.762 272.833 294.762 276.667 296.762 279.2C298.762 281.733 301.828 283 305.962 283C308.228 283 310.395 282.767 312.462 282.3C314.528 281.767 316.262 281.067 317.662 280.2V250.8H310.262V247.5H336.162V250.8H328.062V313.2H336.162V316.5Z" fill="#0E008B"/>
<path d="M480.774 316.5H392.874V313.2H401.074V250.8H392.874V247.5H418.274V250.8H411.774V313.2H431.374V250.8H424.074V247.5H448.674V250.8H442.174V313.2H461.774V250.8H455.274V247.5H480.774V250.8H472.574V313.2H480.774V316.5Z" fill="#0E008B"/>
<path d="M611.909 334.5H608.709V331.3C608.709 325.7 607.675 321.833 605.609 319.7C603.542 317.567 599.709 316.5 594.109 316.5H522.209V313.2H530.409V250.8H522.209V247.5H547.609V250.8H541.109V313.2H560.709V250.8H553.409V247.5H578.009V250.8H571.509V313.2H591.109V250.8H584.609V247.5H610.109V250.8H601.909V313.2H611.909V334.5Z" fill="#0E008B"/>
<path d="M726.76 296.7C726.76 303.167 724.493 308.1 719.96 311.5C715.426 314.833 708.793 316.5 700.06 316.5H675.46V313.2H683.66V250.8H680.36C674.893 250.867 671.193 251.933 669.26 254C667.326 256 666.36 259.733 666.36 265.2V269.5H663.16V247.5H705.26V250.8H694.36V277.2H700.26C707.793 277.2 714.093 279 719.16 282.6C724.226 286.133 726.76 290.833 726.76 296.7ZM699.46 280.5H694.36V313.2H699.16C704.693 313.2 708.726 311.9 711.26 309.3C713.86 306.633 715.16 302.433 715.16 296.7C715.16 291.567 713.76 287.6 710.96 284.8C708.226 281.933 704.393 280.5 699.46 280.5Z" fill="#0E008B"/>
<path d="M953.222 316.5H928.622V313.2H936.822V250.8H928.622V247.5H958.422V250.8H947.522V277.2H953.422C960.955 277.2 967.255 279 972.322 282.6C977.389 286.133 979.922 290.833 979.922 296.7C979.922 303.167 977.655 308.1 973.122 311.5C968.589 314.833 961.955 316.5 953.222 316.5ZM952.622 280.5H947.522V313.2H952.322C957.855 313.2 961.889 311.9 964.422 309.3C967.022 306.633 968.322 302.433 968.322 296.7C968.322 291.567 966.922 287.6 964.122 284.8C961.389 281.933 957.555 280.5 952.622 280.5Z" fill="#0E008B"/>
<path d="M1101.19 306.1C1098.59 309.833 1095.45 312.7 1091.79 314.7C1088.12 316.633 1084.05 317.6 1079.59 317.6C1076.45 317.6 1073.55 317.267 1070.89 316.6C1068.22 316 1065.95 315.067 1064.09 313.8L1060.09 317.5H1058.39V294.1H1061.59C1061.59 300.3 1063.12 305.2 1066.19 308.8C1069.25 312.4 1073.55 314.2 1079.09 314.2C1085.02 314.2 1089.39 311.667 1092.19 306.6C1094.99 301.533 1096.42 293.633 1096.49 282.9H1069.39V279.7H1096.49C1096.29 269.433 1094.79 261.9 1091.99 257.1C1089.25 252.233 1084.95 249.8 1079.09 249.8C1073.89 249.8 1069.75 251.567 1066.69 255.1C1063.69 258.633 1062.19 263.433 1062.19 269.5H1058.99V246.5H1060.69L1064.69 250.2C1066.62 249 1068.89 248.067 1071.49 247.4C1074.15 246.733 1076.89 246.4 1079.69 246.4C1084.15 246.4 1088.19 247.367 1091.79 249.3C1095.45 251.233 1098.59 254.1 1101.19 257.9C1103.45 261.1 1105.19 264.8 1106.39 269C1107.65 273.2 1108.29 277.5 1108.29 281.9C1108.29 286.3 1107.65 290.633 1106.39 294.9C1105.19 299.1 1103.45 302.833 1101.19 306.1Z" fill="#0E008B"/>
<path d="M808.848 316.5H784.248V313.2H792.448V250.8H784.248V247.5H814.048V250.8H803.148V277.2H809.048C816.581 277.2 822.881 279 827.948 282.6C833.015 286.133 835.548 290.833 835.548 296.7C835.548 303.167 833.281 308.1 828.748 311.5C824.215 314.833 817.581 316.5 808.848 316.5ZM808.248 280.5H803.148V313.2H807.948C813.481 313.2 817.515 311.9 820.048 309.3C822.648 306.633 823.948 302.433 823.948 296.7C823.948 291.567 822.548 287.6 819.748 284.8C817.015 281.933 813.181 280.5 808.248 280.5ZM863.948 313.2V316.5H835.948V313.2H844.548V250.8H835.948V247.5H863.948V250.8H855.348V313.2H863.948Z" fill="#0E008B"/>
<path d="M1329.18 265.4C1329.18 270.533 1330.51 274.333 1333.18 276.8C1335.84 279.2 1340.01 280.4 1345.68 280.4H1349.88V250.8H1345.98C1340.18 250.8 1335.91 251.967 1333.18 254.3C1330.51 256.633 1329.18 260.333 1329.18 265.4ZM1329.18 312.2C1328.11 314.067 1326.84 315.433 1325.38 316.3C1323.91 317.167 1322.14 317.6 1320.08 317.6C1316.34 317.6 1313.68 316.433 1312.08 314.1C1310.48 311.7 1309.68 307.133 1309.68 300.4H1312.68C1312.68 304.733 1312.94 307.9 1313.48 309.9C1314.08 311.833 1315.08 312.8 1316.48 312.8C1317.41 312.8 1318.21 312.267 1318.88 311.2C1319.54 310.067 1320.64 306.933 1322.18 301.8C1324.04 295.667 1326.04 291.533 1328.18 289.4C1330.31 287.267 1334.38 285.1 1340.38 282.9C1333.64 282.833 1328.18 281.133 1323.98 277.8C1319.78 274.467 1317.68 270.3 1317.68 265.3C1317.68 260.167 1320.14 255.933 1325.08 252.6C1330.01 249.2 1336.34 247.5 1344.08 247.5H1368.38V250.8H1360.18V313.2H1368.38V316.5H1340.58V313.2H1349.88V283.3H1347.18C1344.04 283.3 1341.44 284.567 1339.38 287.1C1337.31 289.567 1335.24 294.433 1333.18 301.7C1332.04 305.233 1331.21 307.633 1330.68 308.9C1330.21 310.167 1329.71 311.267 1329.18 312.2Z" fill="#0E008B"/>
<path d="M1246.94 256.5C1251.94 263.233 1254.44 271.7 1254.44 281.9C1254.44 292.1 1251.91 300.6 1246.84 307.4C1241.84 314.2 1235.11 317.6 1226.64 317.6C1218.31 317.6 1211.61 314.333 1206.54 307.8C1201.54 301.2 1198.94 292.9 1198.74 282.9H1187.44V313.2H1195.44V316.5H1168.54V313.2H1176.74V250.8H1168.54V247.5H1195.44V250.8H1187.44V279.7H1198.74C1199.21 269.967 1201.94 262 1206.94 255.8C1211.94 249.533 1218.51 246.4 1226.64 246.4C1235.18 246.4 1241.94 249.767 1246.94 256.5ZM1226.64 249.7C1220.91 249.7 1216.78 252.267 1214.24 257.4C1211.78 262.467 1210.54 270.633 1210.54 281.9C1210.54 293.1 1211.81 301.3 1214.34 306.5C1216.94 311.7 1221.04 314.3 1226.64 314.3C1232.31 314.3 1236.38 311.733 1238.84 306.6C1241.38 301.467 1242.64 293.233 1242.64 281.9C1242.64 270.633 1241.38 262.467 1238.84 257.4C1236.38 252.267 1232.31 249.7 1226.64 249.7Z" fill="#0E008B"/>
<path d="M70.9799 207.6C67.7132 207.6 65.1132 206.633 63.1799 204.7C61.2466 202.7 59.3466 198.633 57.4799 192.5C55.2799 184.967 53.0799 179.833 50.8799 177.1C48.6799 174.3 46.0466 172.9 42.9799 172.9H39.5799V203.2H48.3799V206.5H21.0799V203.2H29.2799V140.8H21.0799V137.5H47.6799V140.8H39.5799V169.7H46.4799C48.8132 169.7 50.6799 168.733 52.0799 166.8C53.5466 164.867 54.9132 160.7 56.1799 154.3C56.9132 150.9 57.4799 148.4 57.8799 146.8C58.3466 145.2 58.8799 143.833 59.4799 142.7C60.4799 140.567 61.7466 139 63.2799 138C64.8132 136.933 66.6132 136.4 68.6799 136.4C71.6799 136.4 74.0132 137.233 75.6799 138.9C77.3466 140.5 78.1799 142.8 78.1799 145.8C78.1799 148.133 77.6132 149.933 76.4799 151.2C75.4132 152.467 73.8799 153.1 71.8799 153.1C69.8132 153.1 68.1466 152.533 66.8799 151.4C65.6799 150.2 65.0799 148.567 65.0799 146.5C65.0799 144.833 65.5799 143.4 66.5799 142.2C67.5799 140.933 68.9799 140.2 70.7799 140C70.4466 139.8 70.0466 139.667 69.5799 139.6C69.1799 139.533 68.7132 139.5 68.1799 139.5C66.3799 139.5 64.8799 140.433 63.6799 142.3C62.4799 144.1 61.2466 148.033 59.9799 154.1C58.5799 160.7 57.1466 165.133 55.6799 167.4C54.2799 169.667 52.4799 171 50.2799 171.4C54.3466 173.067 57.2799 174.433 59.0799 175.5C60.8799 176.5 62.3132 177.633 63.3799 178.9C64.3799 180.033 65.2466 181.467 65.9799 183.2C66.7799 184.867 67.8466 188.033 69.1799 192.7C70.6466 197.7 71.7132 200.667 72.3799 201.6C73.0465 202.467 73.9132 202.9 74.9799 202.9C76.1132 202.9 76.9466 201.867 77.4799 199.8C78.0799 197.733 78.3799 194.6 78.3799 190.4H81.2799C81.2799 197.2 80.4799 201.767 78.8799 204.1C77.2799 206.433 74.6466 207.6 70.9799 207.6Z" fill="#0E008B"/>
<path d="M189.645 203.2V140.8H172.045C172.045 149.667 171.979 157.033 171.845 162.9C171.779 168.7 171.612 173.7 171.345 177.9C170.679 189.033 169.279 196.767 167.145 201.1C165.012 205.433 161.479 207.6 156.545 207.6C153.612 207.6 151.179 206.633 149.245 204.7C147.379 202.767 146.445 200.167 146.445 196.9C146.445 194.7 147.045 192.9 148.245 191.5C149.445 190.1 151.079 189.4 153.145 189.4C155.079 189.4 156.612 190.033 157.745 191.3C158.945 192.5 159.545 194.033 159.545 195.9C159.545 197.9 158.879 199.467 157.545 200.6C156.212 201.733 154.379 202.3 152.045 202.3C152.445 202.967 153.012 203.467 153.745 203.8C154.545 204.133 155.512 204.3 156.645 204.3C160.179 204.3 162.712 202.167 164.245 197.9C165.845 193.633 166.845 185.967 167.245 174.9C167.379 171.033 167.479 166.467 167.545 161.2C167.612 155.933 167.645 149.133 167.645 140.8H157.545V137.5H208.245V140.8H200.045V203.2H208.245V206.5H181.045V203.2H189.645Z" fill="#0E008B"/>
<path d="M281.31 203.2H291.81V206.5H268.91V203.2H277.11V140.8H268.91V137.5H288.81L307.81 182.3L326.71 137.5H346.51V140.8H338.31V203.2H346.51V206.5H317.61V203.2H327.51V145.3L305.61 197.4H303.31L281.31 145.2V203.2Z" fill="#0E008B"/>
</svg>
