<svg width="1440" height="273" viewBox="0 0 1440 273" fill="none" xmlns="http://www.w3.org/2000/svg">
<path d="M1364.29 231.707C1364.68 232.098 1365.32 232.098 1365.71 231.707L1372.07 225.343C1372.46 224.953 1372.46 224.319 1372.07 223.929C1371.68 223.538 1371.05 223.538 1370.66 223.929L1365 229.586L1359.34 223.929C1358.95 223.538 1358.32 223.538 1357.93 223.929C1357.54 224.319 1357.54 224.953 1357.93 225.343L1364.29 231.707ZM1359.67 80C1359.67 82.9455 1362.05 85.3333 1365 85.3333C1367.95 85.3333 1370.33 82.9455 1370.33 80C1370.33 77.0545 1367.95 74.6667 1365 74.6667C1362.05 74.6667 1359.67 77.0545 1359.67 80ZM1365 231H1366V80H1365H1364V231H1365Z" fill="#0E008B"/>
<path d="M1394.29 231.707C1394.68 232.098 1395.32 232.098 1395.71 231.707L1402.07 225.343C1402.46 224.953 1402.46 224.319 1402.07 223.929C1401.68 223.538 1401.05 223.538 1400.66 223.929L1395 229.586L1389.34 223.929C1388.95 223.538 1388.32 223.538 1387.93 223.929C1387.54 224.319 1387.54 224.953 1387.93 225.343L1394.29 231.707ZM1389.67 24C1389.67 26.9455 1392.05 29.3333 1395 29.3333C1397.95 29.3333 1400.33 26.9455 1400.33 24C1400.33 21.0545 1397.95 18.6667 1395 18.6667C1392.05 18.6667 1389.67 21.0545 1389.67 24ZM1395 231H1396V24H1395H1394V231H1395Z" fill="#0E008B"/>
<path d="M1341.62 13H1337.09V12.472H1338.49V7.976L1335.59 2.488H1334.47V1.96H1339.05V2.488H1337.37L1339.85 7.176L1342.18 2.488H1340.79V1.96H1343.96V2.488H1342.87L1340.21 7.832V12.472H1341.62V13ZM1348.18 0.759999C1348.36 0.791999 1348.51 0.888 1348.62 1.048C1348.75 1.208 1348.8 1.37333 1348.77 1.544C1348.75 1.68267 1348.7 1.82133 1348.64 1.96C1348.59 2.09867 1348.48 2.27467 1348.34 2.488C1348.22 2.68 1348.13 2.824 1348.08 2.92C1348.04 3.00533 1348.01 3.096 1348 3.192L1347.66 3.128C1347.67 3.032 1347.67 2.936 1347.66 2.84C1347.65 2.73333 1347.61 2.57333 1347.54 2.36C1347.45 2.11467 1347.4 1.92267 1347.38 1.784C1347.36 1.63467 1347.37 1.49067 1347.39 1.352C1347.42 1.17067 1347.52 1.02133 1347.68 0.903999C1347.84 0.786666 1348 0.738666 1348.18 0.759999ZM1347.12 2.552C1347.22 2.744 1347.29 2.88267 1347.34 2.968C1347.41 3.05333 1347.48 3.128 1347.55 3.192L1347.34 3.448C1347.27 3.39467 1347.18 3.34667 1347.09 3.304C1346.99 3.26133 1346.84 3.21867 1346.62 3.176C1346.36 3.12267 1346.15 3.06933 1346.02 3.016C1345.89 2.952 1345.77 2.87733 1345.66 2.792C1345.51 2.68533 1345.43 2.536 1345.41 2.344C1345.4 2.152 1345.44 1.98133 1345.55 1.832C1345.65 1.69333 1345.79 1.61333 1345.98 1.592C1346.19 1.56 1346.36 1.592 1346.51 1.688C1346.62 1.784 1346.71 1.89067 1346.8 2.008C1346.9 2.12533 1347 2.30667 1347.12 2.552ZM1350.4 2.536C1350.47 2.70667 1350.47 2.88267 1350.4 3.064C1350.32 3.24533 1350.2 3.36267 1350.02 3.416C1349.89 3.48 1349.75 3.52267 1349.6 3.544C1349.46 3.56533 1349.26 3.56533 1348.99 3.544C1348.77 3.52267 1348.6 3.52267 1348.5 3.544C1348.4 3.55467 1348.31 3.576 1348.22 3.608L1348.1 3.272C1348.18 3.24 1348.27 3.192 1348.35 3.128C1348.44 3.064 1348.55 2.952 1348.7 2.792C1348.88 2.6 1349.03 2.46133 1349.15 2.376C1349.27 2.29067 1349.39 2.22133 1349.52 2.168C1349.69 2.104 1349.86 2.10933 1350.03 2.184C1350.21 2.25867 1350.34 2.376 1350.4 2.536ZM1347.31 3.576L1347.44 3.88C1347.35 3.92267 1347.27 3.976 1347.18 4.04C1347.11 4.104 1347 4.21067 1346.85 4.36C1346.67 4.56267 1346.52 4.70667 1346.4 4.792C1346.28 4.87733 1346.15 4.94667 1346.02 5C1345.84 5.07467 1345.67 5.07467 1345.49 5C1345.32 4.92533 1345.2 4.808 1345.14 4.648C1345.06 4.488 1345.06 4.31733 1345.14 4.136C1345.21 3.944 1345.33 3.816 1345.5 3.752C1345.64 3.69867 1345.78 3.66133 1345.92 3.64C1346.07 3.61867 1346.28 3.61867 1346.54 3.64C1346.77 3.65067 1346.93 3.65067 1347.02 3.64C1347.13 3.62933 1347.23 3.608 1347.31 3.576ZM1349.87 4.392C1350.02 4.49867 1350.11 4.648 1350.13 4.84C1350.15 5.032 1350.11 5.20267 1350 5.352C1349.89 5.49067 1349.74 5.576 1349.55 5.608C1349.36 5.64 1349.19 5.59733 1349.04 5.48C1348.92 5.384 1348.82 5.27733 1348.72 5.16C1348.63 5.04267 1348.53 4.86133 1348.42 4.616C1348.32 4.424 1348.24 4.28533 1348.19 4.2C1348.14 4.11467 1348.07 4.04533 1348 3.992L1348.19 3.72C1348.27 3.77333 1348.35 3.82133 1348.45 3.864C1348.54 3.896 1348.69 3.93333 1348.9 3.976C1349.16 4.04 1349.36 4.104 1349.5 4.168C1349.64 4.22133 1349.76 4.296 1349.87 4.392ZM1347.98 4.792C1348.07 5.048 1348.12 5.25067 1348.13 5.4C1348.15 5.53867 1348.15 5.68267 1348.13 5.832C1348.1 6.01333 1348 6.16267 1347.84 6.28C1347.69 6.38667 1347.53 6.42933 1347.36 6.408C1347.18 6.38667 1347.03 6.30133 1346.91 6.152C1346.79 6.00267 1346.75 5.832 1346.78 5.64C1346.8 5.49067 1346.84 5.352 1346.9 5.224C1346.96 5.08533 1347.06 4.89867 1347.2 4.664C1347.32 4.49333 1347.4 4.36 1347.44 4.264C1347.48 4.168 1347.51 4.07733 1347.54 3.992L1347.87 4.056C1347.86 4.14133 1347.86 4.23733 1347.87 4.344C1347.88 4.44 1347.92 4.58933 1347.98 4.792ZM1357.72 12.472V13H1351.93V12.472H1354.01V3.064H1351.93V2.552C1352.98 2.552 1353.79 2.47733 1354.36 2.328C1354.95 2.168 1355.37 1.91733 1355.63 1.576L1355.95 1.656C1355.88 1.816 1355.83 2.088 1355.79 2.472C1355.75 2.856 1355.72 3.26133 1355.72 3.688V12.472H1357.72ZM1361.43 12.296C1361.43 13.0533 1361.27 13.7627 1360.95 14.424C1360.63 15.096 1360.19 15.6613 1359.61 16.12L1359.18 15.752C1359.53 15.464 1359.84 15.0747 1360.11 14.584C1360.38 14.104 1360.55 13.6293 1360.6 13.16C1360.57 13.16 1360.51 13.16 1360.43 13.16C1360.35 13.1707 1360.3 13.176 1360.28 13.176C1359.93 13.176 1359.65 13.0693 1359.43 12.856C1359.23 12.632 1359.13 12.3653 1359.13 12.056C1359.13 11.736 1359.23 11.464 1359.43 11.24C1359.64 11.016 1359.92 10.904 1360.28 10.904C1360.66 10.904 1360.94 11.0267 1361.13 11.272C1361.33 11.5173 1361.43 11.8587 1361.43 12.296ZM1369.93 9.736C1369.93 10.7387 1369.6 11.5653 1368.94 12.216C1368.28 12.856 1367.37 13.176 1366.22 13.176C1365.18 13.176 1364.37 12.92 1363.78 12.408C1363.2 11.896 1362.9 11.2187 1362.9 10.376C1362.9 10.024 1363.01 9.736 1363.21 9.512C1363.42 9.27733 1363.7 9.16 1364.04 9.16C1364.36 9.16 1364.62 9.26667 1364.81 9.48C1365 9.68267 1365.1 9.944 1365.1 10.264C1365.1 10.6053 1364.98 10.872 1364.74 11.064C1364.51 11.2453 1364.18 11.3413 1363.75 11.352C1363.91 11.7787 1364.18 12.104 1364.55 12.328C1364.94 12.5413 1365.4 12.648 1365.94 12.648C1366.62 12.648 1367.14 12.392 1367.51 11.88C1367.9 11.3573 1368.08 10.6427 1368.07 9.736C1368.06 8.872 1367.87 8.184 1367.5 7.672C1367.12 7.14933 1366.65 6.888 1366.07 6.888C1365.86 6.888 1365.68 6.91467 1365.53 6.968C1365.39 7.01067 1365.24 7.096 1365.06 7.224L1364.84 6.968L1368.04 3.4H1365.9C1365.37 3.4 1365.01 3.41067 1364.81 3.432C1364.61 3.45333 1364.45 3.496 1364.33 3.56C1364.16 3.63467 1364.04 3.77333 1363.98 3.976C1363.91 4.17867 1363.88 4.50933 1363.88 4.968V5.4H1363.35V1.96H1369.58V2.504L1366.14 6.328C1367.41 6.46667 1368.36 6.81867 1368.98 7.384C1369.61 7.93867 1369.93 8.72267 1369.93 9.736ZM1374.31 12.36C1374.24 12.6373 1374.12 12.8453 1373.96 12.984C1373.8 13.112 1373.6 13.176 1373.35 13.176C1373.05 13.176 1372.82 13.1013 1372.66 12.952C1372.51 12.792 1372.44 12.568 1372.44 12.28C1372.44 12.1093 1372.48 11.928 1372.55 11.736C1372.63 11.5333 1372.81 11.1867 1373.11 10.696C1373.4 10.2053 1373.62 9.8 1373.78 9.48C1373.95 9.16 1374.11 8.84 1374.25 8.52C1375.08 6.45067 1375.58 5.18667 1375.74 4.728C1375.91 4.26933 1376.06 3.82667 1376.18 3.4H1373.42C1372.89 3.4 1372.53 3.416 1372.33 3.448C1372.12 3.46933 1371.96 3.50667 1371.85 3.56C1371.68 3.64533 1371.56 3.78933 1371.5 3.992C1371.43 4.184 1371.4 4.50933 1371.4 4.968V5.4H1370.87V1.96H1377.14V2.424C1377.02 2.808 1376.87 3.22933 1376.7 3.688C1376.54 4.14667 1376.31 4.776 1376.02 5.576C1375.86 6.03467 1375.75 6.35467 1375.69 6.536C1375.62 6.70667 1375.58 6.84533 1375.54 6.952C1375.26 7.784 1375.02 8.54667 1374.84 9.24C1374.67 9.93333 1374.54 10.6907 1374.44 11.512C1374.42 11.768 1374.4 11.9547 1374.38 12.072C1374.35 12.1787 1374.33 12.2747 1374.31 12.36ZM1387.11 12.616C1387.77 12.616 1388.26 12.328 1388.57 11.752C1388.88 11.176 1389.04 10.2533 1389.05 8.984C1389.06 7.736 1388.91 6.82933 1388.6 6.264C1388.29 5.688 1387.81 5.4 1387.14 5.4C1386.54 5.4 1386.05 5.70933 1385.69 6.328C1385.33 6.936 1385.14 7.75733 1385.14 8.792V9.72C1385.14 10.7227 1385.3 11.4587 1385.61 11.928C1385.92 12.3867 1386.42 12.616 1387.11 12.616ZM1385.14 16.408H1386.92V17H1382.25V16.408H1383.5V5.576H1382.25V4.984C1383.04 4.984 1383.6 4.97333 1383.93 4.952C1384.26 4.92 1384.5 4.856 1384.65 4.76L1384.87 4.904V7.24C1384.97 6.49333 1385.25 5.90133 1385.72 5.464C1386.19 5.016 1386.78 4.792 1387.5 4.792C1388.41 4.792 1389.19 5.18667 1389.82 5.976C1390.46 6.75467 1390.78 7.74667 1390.78 8.952C1390.78 10.1787 1390.43 11.192 1389.75 11.992C1389.08 12.7813 1388.25 13.176 1387.26 13.176C1386.77 13.176 1386.35 13.0853 1386.01 12.904C1385.67 12.7227 1385.38 12.4453 1385.14 12.072V16.408ZM1394.67 13H1391.45V12.472H1392.62L1395.02 9.096L1392.56 5.496H1391.61V4.984H1395.37V5.496H1394.27L1396.08 8.104L1397.88 5.496H1396.76V4.984H1399.72V5.496H1398.64L1396.44 8.616L1399.12 12.472H1399.98V13H1396.11V12.472H1397.36L1395.42 9.672L1393.45 12.472H1394.67V13Z" fill="#0E008B"/>
<path d="M93.8 154.8H150.8L122.3 70.5L93.8 154.8ZM106.1 231H40.4V221.1H59.6L128.3 21H139.1L207.2 221.1H227.9V231H137.6V221.1H173.3L154.1 164.7H90.5L71.3 221.1H106.1V231ZM289.283 221.1H311.783V231H234.983V221.1H258.383V90.3H234.983V80.7H311.783V90.3H289.283V147.9H354.083V90.3H331.583V80.7H408.083V90.3H384.983V221.1H408.083V231H331.583V221.1H354.083V157.5H289.283V221.1ZM536.593 221.1V231H453.493V221.1H479.593V90.3H466.993C455.893 90.3 447.793 93.3 442.693 99.3C437.593 105.3 435.193 114.6 435.193 127.5V135H425.293V80.7H564.793V135H555.193V127.5C555.193 114.9 552.493 105.6 547.393 99.6C541.993 93.6 533.893 90.6 523.093 90.3H510.493V221.1H536.593ZM636.158 221.1H659.858V231H581.858V221.1H605.258V90.3H581.858V80.7H659.858V90.3H636.158V188.7L701.258 105V90.3H677.558V80.7H755.258V90.3H732.158V221.1H755.258V231H677.558V221.1H701.258V121.8L636.158 205.5V221.1ZM912.261 234.3C902.661 234.3 894.861 231.9 889.161 226.5C883.461 221.1 878.961 211.8 875.661 198.3C871.761 182.7 867.261 172.2 861.861 166.8C856.461 161.7 849.261 159 840.261 159H831.861V221.1H858.261V231H777.561V221.1H800.961V90.3H777.561V80.7H852.861V90.3H831.861V149.1H842.661C847.461 149.1 851.361 147.3 854.661 143.7C857.961 140.1 861.561 131.7 865.461 118.8C870.561 102 875.961 90.9 881.961 85.5C887.961 80.1 895.461 77.1 904.461 77.1C912.261 77.1 918.561 79.5 923.661 84C928.461 88.8 931.161 95.1 931.161 102.9C931.161 109.5 929.361 114.3 926.361 117.9C923.061 121.5 918.561 123.3 913.161 123.3C907.161 123.3 902.661 121.8 899.061 118.2C895.461 114.9 893.661 110.4 893.661 105C893.661 100.5 894.861 96.6 897.561 93.6C900.261 90.6 903.861 88.8 908.661 87.6C907.761 87.3 906.861 87 905.961 86.7C904.761 86.7 903.561 86.4 902.361 86.4C896.961 86.4 892.161 88.5 888.561 92.7C884.961 96.9 880.761 105.6 876.561 119.1C872.661 130.5 869.361 138.6 866.661 143.1C863.661 147.6 860.661 150.9 857.061 152.7C864.861 155.1 871.461 157.5 877.161 159.9C882.561 162.3 887.361 165 891.261 167.4C895.761 170.7 899.361 174.3 902.061 178.2C904.761 182.4 907.461 188.7 909.861 197.7C909.861 198.9 910.461 201 911.361 204.3C911.961 207.6 912.861 210 913.461 211.5C914.361 214.5 915.561 216.9 917.061 218.1C918.561 219.6 920.661 220.2 923.061 220.2C926.661 220.2 929.361 217.5 931.161 211.8C932.961 206.4 933.861 197.4 933.861 185.4H942.861C942.861 203.4 940.461 216.3 935.661 223.5C930.861 230.7 923.061 234.3 912.261 234.3ZM1025.74 231H961.838V221.1H985.238V90.6H961.838V80.7H1025.74C1050.04 80.7 1067.44 83.7 1078.24 89.7C1088.74 95.7 1094.14 105 1094.14 117.6C1094.14 127.2 1090.84 134.7 1084.24 140.7C1077.64 146.7 1068.64 150.3 1056.64 151.5C1071.64 153 1083.34 156.9 1091.44 163.2C1099.54 169.5 1103.74 177.9 1103.74 188.7C1103.74 203.1 1097.44 213.6 1085.44 220.5C1073.14 227.7 1053.34 231 1025.74 231ZM1062.94 119.1C1062.94 109.5 1059.64 102.3 1053.64 97.5C1047.34 92.7 1037.44 90.3 1024.24 90.3H1016.14V148.2H1027.54C1041.04 148.2 1050.34 146.1 1055.44 141.9C1060.24 137.7 1062.94 129.9 1062.94 119.1ZM1016.14 157.5V221.4H1027.24C1042.84 221.4 1054.24 219 1061.14 213.6C1068.04 208.5 1071.64 200.1 1071.64 188.7C1071.64 177.6 1068.34 169.5 1062.04 164.7C1055.74 159.9 1044.04 157.5 1027.24 157.5H1016.14ZM1249.74 234.3C1239.54 234.3 1232.04 231.6 1226.94 225.6C1221.84 219.9 1219.14 211.2 1218.54 199.2C1214.94 210 1209.24 218.7 1200.84 225C1192.44 231.3 1182.24 234.3 1170.54 234.3C1157.34 234.3 1147.44 231.6 1140.24 225.6C1133.04 219.6 1129.74 211.2 1129.74 199.8C1129.74 188.7 1134.54 179.4 1144.74 171.9C1154.64 164.4 1171.14 157.5 1194.54 151.5L1216.14 145.8V124.8C1216.14 112.8 1213.44 103.8 1208.34 97.8C1202.94 91.8 1195.14 88.8 1184.64 88.8C1178.64 88.8 1173.54 89.7 1168.74 91.5C1163.94 93.3 1159.74 96 1156.14 99.3C1161.24 101.1 1165.14 103.5 1167.84 106.8C1170.54 110.1 1172.04 114.3 1172.04 119.1C1172.04 125.1 1170.24 129.6 1166.94 133.2C1163.34 136.8 1158.54 138.3 1152.54 138.3C1146.54 138.3 1141.74 136.8 1138.44 133.2C1134.84 129.6 1133.34 125.1 1133.34 119.1C1133.34 107.7 1139.04 98.1 1150.74 89.7C1162.44 81.3 1176.54 77.1 1193.34 77.1C1211.04 77.1 1224.54 81 1233.54 88.5C1242.54 96 1247.04 107.1 1247.04 121.8V205.5C1247.04 210.6 1247.64 214.5 1249.44 216.9C1251.24 219.6 1253.64 220.8 1257.24 220.8C1262.04 220.8 1265.94 217.8 1268.34 211.8C1270.74 205.8 1272.24 197.1 1272.24 185.4H1281.24C1281.24 202.8 1278.54 215.1 1273.74 222.9C1268.94 230.7 1260.84 234.3 1249.74 234.3ZM1161.84 195C1161.84 202.5 1163.64 208.2 1167.24 211.8C1170.84 215.7 1176.24 217.5 1182.84 217.5C1193.34 217.5 1201.44 213.3 1207.44 204.6C1213.14 195.9 1216.14 183.3 1216.14 167.1V154.8L1197.84 160.2C1185.24 163.8 1175.94 168.3 1170.24 173.7C1164.54 179.1 1161.84 186.3 1161.84 195Z" fill="#0E008B"/>
<path d="M1440 81H0" stroke="#777777" stroke-linecap="round" stroke-dasharray="3 3"/>
<path d="M0 24H1440" stroke="#777777" stroke-linecap="round" stroke-dasharray="3 3"/>
<path d="M0 231H1440" stroke="#777777" stroke-linecap="round" stroke-dasharray="3 3"/>
<path d="M1345.89 69H1341.36V68.472H1342.75V63.976L1339.86 58.488H1338.74V57.96H1343.31V58.488H1341.63L1344.11 63.176L1346.45 58.488H1345.06V57.96H1348.22V58.488H1347.14L1344.48 63.832V68.472H1345.89V69ZM1357.11 68.616C1357.77 68.616 1358.26 68.328 1358.57 67.752C1358.88 67.176 1359.04 66.2533 1359.05 64.984C1359.06 63.736 1358.91 62.8293 1358.6 62.264C1358.29 61.688 1357.81 61.4 1357.14 61.4C1356.54 61.4 1356.05 61.7093 1355.69 62.328C1355.33 62.936 1355.14 63.7573 1355.14 64.792V65.72C1355.14 66.7227 1355.3 67.4587 1355.61 67.928C1355.92 68.3867 1356.42 68.616 1357.11 68.616ZM1355.14 72.408H1356.92V73H1352.25V72.408H1353.5V61.576H1352.25V60.984C1353.04 60.984 1353.6 60.9733 1353.93 60.952C1354.26 60.92 1354.5 60.856 1354.65 60.76L1354.87 60.904V63.24C1354.97 62.4933 1355.25 61.9013 1355.72 61.464C1356.19 61.016 1356.78 60.792 1357.5 60.792C1358.41 60.792 1359.19 61.1867 1359.82 61.976C1360.46 62.7547 1360.78 63.7467 1360.78 64.952C1360.78 66.1787 1360.43 67.192 1359.75 67.992C1359.08 68.7813 1358.25 69.176 1357.26 69.176C1356.77 69.176 1356.35 69.0853 1356.01 68.904C1355.67 68.7227 1355.38 68.4453 1355.14 68.072V72.408ZM1364.67 69H1361.45V68.472H1362.62L1365.02 65.096L1362.56 61.496H1361.61V60.984H1365.37V61.496H1364.27L1366.08 64.104L1367.88 61.496H1366.76V60.984H1369.72V61.496H1368.64L1366.44 64.616L1369.12 68.472H1369.98V69H1366.11V68.472H1367.36L1365.42 65.672L1363.45 68.472H1364.67V69Z" fill="#0E008B"/>
<path d="M43.376 269H40.096V268.472H41.152L43.984 263.56L41.2 258.488H40.096V257.96H44.48V258.488H43.04L45.104 262.248L47.248 258.488H46.064V257.96H49.088V258.488H47.936L45.44 262.84L48.528 268.472H49.52V269H44.976V268.472H46.672L44.32 264.184L41.872 268.472H43.376V269ZM52.9565 256.76C53.1378 256.792 53.2872 256.888 53.4045 257.048C53.5325 257.208 53.5805 257.373 53.5485 257.544C53.5272 257.683 53.4845 257.821 53.4205 257.96C53.3672 258.099 53.2658 258.275 53.1165 258.488C52.9992 258.68 52.9138 258.824 52.8605 258.92C52.8178 259.005 52.7912 259.096 52.7805 259.192L52.4445 259.128C52.4552 259.032 52.4552 258.936 52.4445 258.84C52.4338 258.733 52.3912 258.573 52.3165 258.36C52.2312 258.115 52.1778 257.923 52.1565 257.784C52.1458 257.635 52.1512 257.491 52.1725 257.352C52.2045 257.171 52.3005 257.021 52.4605 256.904C52.6205 256.787 52.7858 256.739 52.9565 256.76ZM51.9005 258.552C51.9965 258.744 52.0712 258.883 52.1245 258.968C52.1885 259.053 52.2578 259.128 52.3325 259.192L52.1245 259.448C52.0498 259.395 51.9645 259.347 51.8685 259.304C51.7725 259.261 51.6178 259.219 51.4045 259.176C51.1378 259.123 50.9352 259.069 50.7965 259.016C50.6685 258.952 50.5512 258.877 50.4445 258.792C50.2952 258.685 50.2098 258.536 50.1885 258.344C50.1778 258.152 50.2258 257.981 50.3325 257.832C50.4285 257.693 50.5725 257.613 50.7645 257.592C50.9672 257.56 51.1432 257.592 51.2925 257.688C51.3992 257.784 51.4952 257.891 51.5805 258.008C51.6765 258.125 51.7832 258.307 51.9005 258.552ZM55.1805 258.536C55.2552 258.707 55.2552 258.883 55.1805 259.064C55.1058 259.245 54.9778 259.363 54.7965 259.416C54.6685 259.48 54.5298 259.523 54.3805 259.544C54.2418 259.565 54.0392 259.565 53.7725 259.544C53.5485 259.523 53.3832 259.523 53.2765 259.544C53.1805 259.555 53.0898 259.576 53.0045 259.608L52.8765 259.272C52.9618 259.24 53.0472 259.192 53.1325 259.128C53.2178 259.064 53.3352 258.952 53.4845 258.792C53.6658 258.6 53.8152 258.461 53.9325 258.376C54.0498 258.291 54.1725 258.221 54.3005 258.168C54.4712 258.104 54.6418 258.109 54.8125 258.184C54.9938 258.259 55.1165 258.376 55.1805 258.536ZM52.0925 259.576L52.2205 259.88C52.1352 259.923 52.0498 259.976 51.9645 260.04C51.8898 260.104 51.7778 260.211 51.6285 260.36C51.4472 260.563 51.2978 260.707 51.1805 260.792C51.0632 260.877 50.9352 260.947 50.7965 261C50.6258 261.075 50.4498 261.075 50.2685 261C50.0978 260.925 49.9805 260.808 49.9165 260.648C49.8418 260.488 49.8418 260.317 49.9165 260.136C49.9912 259.944 50.1138 259.816 50.2845 259.752C50.4232 259.699 50.5618 259.661 50.7005 259.64C50.8498 259.619 51.0578 259.619 51.3245 259.64C51.5485 259.651 51.7085 259.651 51.8045 259.64C51.9112 259.629 52.0072 259.608 52.0925 259.576ZM54.6525 260.392C54.8018 260.499 54.8872 260.648 54.9085 260.84C54.9298 261.032 54.8872 261.203 54.7805 261.352C54.6738 261.491 54.5245 261.576 54.3325 261.608C54.1405 261.64 53.9698 261.597 53.8205 261.48C53.7032 261.384 53.5965 261.277 53.5005 261.16C53.4152 261.043 53.3138 260.861 53.1965 260.616C53.1005 260.424 53.0258 260.285 52.9725 260.2C52.9192 260.115 52.8552 260.045 52.7805 259.992L52.9725 259.72C53.0472 259.773 53.1325 259.821 53.2285 259.864C53.3245 259.896 53.4738 259.933 53.6765 259.976C53.9432 260.04 54.1458 260.104 54.2845 260.168C54.4232 260.221 54.5458 260.296 54.6525 260.392ZM52.7645 260.792C52.8498 261.048 52.8978 261.251 52.9085 261.4C52.9298 261.539 52.9298 261.683 52.9085 261.832C52.8765 262.013 52.7805 262.163 52.6205 262.28C52.4712 262.387 52.3112 262.429 52.1405 262.408C51.9592 262.387 51.8098 262.301 51.6925 262.152C51.5752 262.003 51.5325 261.832 51.5645 261.64C51.5858 261.491 51.6232 261.352 51.6765 261.224C51.7405 261.085 51.8418 260.899 51.9805 260.664C52.0978 260.493 52.1778 260.36 52.2205 260.264C52.2632 260.168 52.2952 260.077 52.3165 259.992L52.6525 260.056C52.6418 260.141 52.6418 260.237 52.6525 260.344C52.6632 260.44 52.7005 260.589 52.7645 260.792ZM62.506 268.472V269H56.714V268.472H58.794V259.064H56.714V258.552C57.7593 258.552 58.57 258.477 59.146 258.328C59.7327 258.168 60.154 257.917 60.41 257.576L60.73 257.656C60.666 257.816 60.6127 258.088 60.57 258.472C60.5273 258.856 60.506 259.261 60.506 259.688V268.472H62.506ZM66.2153 268.296C66.2153 269.053 66.0553 269.763 65.7353 270.424C65.4153 271.096 64.9673 271.661 64.3913 272.12L63.9593 271.752C64.3113 271.464 64.6206 271.075 64.8873 270.584C65.1646 270.104 65.3299 269.629 65.3832 269.16C65.3513 269.16 65.2926 269.16 65.2073 269.16C65.1326 269.171 65.0846 269.176 65.0633 269.176C64.7113 269.176 64.4286 269.069 64.2153 268.856C64.0126 268.632 63.9113 268.365 63.9113 268.056C63.9113 267.736 64.0126 267.464 64.2153 267.24C64.4179 267.016 64.7006 266.904 65.0633 266.904C65.4366 266.904 65.7193 267.027 65.9113 267.272C66.1139 267.517 66.2153 267.859 66.2153 268.296ZM74.7098 265.736C74.7098 266.739 74.3791 267.565 73.7178 268.216C73.0564 268.856 72.1498 269.176 70.9978 269.176C69.9631 269.176 69.1524 268.92 68.5658 268.408C67.9791 267.896 67.6858 267.219 67.6858 266.376C67.6858 266.024 67.7871 265.736 67.9898 265.512C68.2031 265.277 68.4804 265.16 68.8218 265.16C69.1418 265.16 69.3978 265.267 69.5898 265.48C69.7818 265.683 69.8778 265.944 69.8778 266.264C69.8778 266.605 69.7604 266.872 69.5258 267.064C69.2911 267.245 68.9604 267.341 68.5338 267.352C68.6938 267.779 68.9604 268.104 69.3338 268.328C69.7178 268.541 70.1818 268.648 70.7258 268.648C71.3978 268.648 71.9204 268.392 72.2938 267.88C72.6778 267.357 72.8644 266.643 72.8538 265.736C72.8431 264.872 72.6511 264.184 72.2778 263.672C71.9044 263.149 71.4298 262.888 70.8538 262.888C70.6404 262.888 70.4591 262.915 70.3098 262.968C70.1711 263.011 70.0164 263.096 69.8458 263.224L69.6218 262.968L72.8218 259.4H70.6778C70.1551 259.4 69.7924 259.411 69.5898 259.432C69.3871 259.453 69.2271 259.496 69.1098 259.56C68.9391 259.635 68.8218 259.773 68.7578 259.976C68.6938 260.179 68.6618 260.509 68.6618 260.968V261.4H68.1338V257.96H74.3578V258.504L70.9178 262.328C72.1871 262.467 73.1364 262.819 73.7658 263.384C74.3951 263.939 74.7098 264.723 74.7098 265.736ZM82.9091 265.384C82.9091 266.44 82.5625 267.336 81.8691 268.072C81.1758 268.808 80.2531 269.176 79.1011 269.176C78.1305 269.176 77.3731 268.947 76.8291 268.488C76.2958 268.029 76.0291 267.416 76.0291 266.648C76.0291 266.296 76.1305 266.008 76.3331 265.784C76.5465 265.56 76.8238 265.448 77.1651 265.448C77.4851 265.448 77.7411 265.555 77.9331 265.768C78.1251 265.971 78.2211 266.227 78.2211 266.536C78.2211 266.856 78.0985 267.117 77.8531 267.32C77.6078 267.523 77.2878 267.629 76.8931 267.64C77.0211 267.949 77.2665 268.195 77.6291 268.376C78.0025 268.557 78.4398 268.648 78.9411 268.648C79.6665 268.648 80.1998 268.387 80.5411 267.864C80.8825 267.341 81.0531 266.525 81.0531 265.416C81.0531 264.381 80.8771 263.608 80.5251 263.096C80.1731 262.584 79.6398 262.328 78.9251 262.328C78.4451 262.328 78.0238 262.456 77.6611 262.712C77.3091 262.968 77.0638 263.331 76.9251 263.8H76.4931L77.1331 257.96H80.7331C81.1278 257.96 81.4211 257.885 81.6131 257.736C81.8051 257.576 81.9278 257.288 81.9811 256.872L82.0131 256.6H82.5251L82.1571 259.4H77.5331L77.1811 262.68C77.4158 262.36 77.7145 262.12 78.0771 261.96C78.4398 261.8 78.8611 261.72 79.3411 261.72C80.4398 261.72 81.3091 262.072 81.9491 262.776C82.5891 263.48 82.9091 264.349 82.9091 265.384ZM93.2685 268.616C93.9298 268.616 94.4152 268.328 94.7245 267.752C95.0338 267.176 95.1938 266.253 95.2045 264.984C95.2152 263.736 95.0658 262.829 94.7565 262.264C94.4472 261.688 93.9618 261.4 93.3005 261.4C92.6925 261.4 92.2072 261.709 91.8445 262.328C91.4818 262.936 91.3005 263.757 91.3005 264.792V265.72C91.3005 266.723 91.4552 267.459 91.7645 267.928C92.0738 268.387 92.5752 268.616 93.2685 268.616ZM91.3005 272.408H93.0765V273H88.4045V272.408H89.6525V261.576H88.4045V260.984C89.1938 260.984 89.7538 260.973 90.0845 260.952C90.4152 260.92 90.6552 260.856 90.8045 260.76L91.0285 260.904V263.24C91.1245 262.493 91.4072 261.901 91.8765 261.464C92.3458 261.016 92.9378 260.792 93.6525 260.792C94.5698 260.792 95.3432 261.187 95.9725 261.976C96.6125 262.755 96.9325 263.747 96.9325 264.952C96.9325 266.179 96.5912 267.192 95.9085 267.992C95.2365 268.781 94.4045 269.176 93.4125 269.176C92.9218 269.176 92.5058 269.085 92.1645 268.904C91.8232 268.723 91.5352 268.445 91.3005 268.072V272.408ZM100.824 269H97.6079V268.472H98.7759L101.176 265.096L98.7119 261.496H97.7679V260.984H101.528V261.496H100.424L102.232 264.104L104.04 261.496H102.92V260.984H105.88V261.496H104.792L102.6 264.616L105.272 268.472H106.136V269H102.264V268.472H103.512L101.576 265.672L99.6079 268.472H100.824V269Z" fill="#0E008B"/>
<path d="M40 251L40 14" stroke="#777777" stroke-linecap="round" stroke-dasharray="3 3"/>
<path d="M228 251L228 14" stroke="#777777" stroke-linecap="round" stroke-dasharray="3 3"/>
<path d="M235 251V14" stroke="#777777" stroke-linecap="round" stroke-dasharray="3 3"/>
<path d="M565 246V9" stroke="#777777" stroke-linecap="round" stroke-dasharray="3 3"/>
<path d="M408 246V9" stroke="#777777" stroke-linecap="round" stroke-dasharray="3 3"/>
<path d="M582 246V9" stroke="#777777" stroke-linecap="round" stroke-dasharray="3 3"/>
<path d="M425 246V9" stroke="#777777" stroke-linecap="round" stroke-dasharray="3 3"/>
<path d="M1104 246V9" stroke="#777777" stroke-linecap="round" stroke-dasharray="3 3"/>
<path d="M943 246V9" stroke="#777777" stroke-linecap="round" stroke-dasharray="3 3"/>
<path d="M755 246V9" stroke="#777777" stroke-linecap="round" stroke-dasharray="3 3"/>
<path d="M1130 246V9" stroke="#777777" stroke-linecap="round" stroke-dasharray="3 3"/>
<path d="M962 246V9" stroke="#777777" stroke-linecap="round" stroke-dasharray="3 3"/>
<path d="M778 246V9" stroke="#777777" stroke-linecap="round" stroke-dasharray="3 3"/>
<path d="M1281 246V9" stroke="#777777" stroke-linecap="round" stroke-dasharray="3 3"/>
<path d="M40 240.667C37.0545 240.667 34.6667 243.054 34.6667 246C34.6667 248.946 37.0545 251.333 40 251.333C42.9455 251.333 45.3333 248.946 45.3333 246C45.3333 243.054 42.9455 240.667 40 240.667ZM228.707 246.707C229.098 246.317 229.098 245.683 228.707 245.293L222.343 238.929C221.953 238.538 221.319 238.538 220.929 238.929C220.538 239.319 220.538 239.953 220.929 240.343L226.586 246L220.929 251.657C220.538 252.047 220.538 252.681 220.929 253.071C221.319 253.462 221.953 253.462 222.343 253.071L228.707 246.707ZM40 246V247H228V246V245H40V246Z" fill="#0E008B"/>
<path d="M238.376 269H235.096V268.472H236.152L238.984 263.56L236.2 258.488H235.096V257.96H239.48V258.488H238.04L240.104 262.248L242.248 258.488H241.064V257.96H244.088V258.488H242.936L240.44 262.84L243.528 268.472H244.52V269H239.976V268.472H241.672L239.32 264.184L236.872 268.472H238.376V269ZM247.957 256.76C248.138 256.792 248.287 256.888 248.405 257.048C248.533 257.208 248.581 257.373 248.549 257.544C248.527 257.683 248.485 257.821 248.421 257.96C248.367 258.099 248.266 258.275 248.117 258.488C247.999 258.68 247.914 258.824 247.861 258.92C247.818 259.005 247.791 259.096 247.781 259.192L247.445 259.128C247.455 259.032 247.455 258.936 247.445 258.84C247.434 258.733 247.391 258.573 247.317 258.36C247.231 258.115 247.178 257.923 247.157 257.784C247.146 257.635 247.151 257.491 247.173 257.352C247.205 257.171 247.301 257.021 247.461 256.904C247.621 256.787 247.786 256.739 247.957 256.76ZM246.901 258.552C246.997 258.744 247.071 258.883 247.125 258.968C247.189 259.053 247.258 259.128 247.333 259.192L247.125 259.448C247.05 259.395 246.965 259.347 246.869 259.304C246.773 259.261 246.618 259.219 246.405 259.176C246.138 259.123 245.935 259.069 245.797 259.016C245.669 258.952 245.551 258.877 245.445 258.792C245.295 258.685 245.21 258.536 245.189 258.344C245.178 258.152 245.226 257.981 245.333 257.832C245.429 257.693 245.573 257.613 245.765 257.592C245.967 257.56 246.143 257.592 246.293 257.688C246.399 257.784 246.495 257.891 246.581 258.008C246.677 258.125 246.783 258.307 246.901 258.552ZM250.181 258.536C250.255 258.707 250.255 258.883 250.181 259.064C250.106 259.245 249.978 259.363 249.797 259.416C249.669 259.48 249.53 259.523 249.381 259.544C249.242 259.565 249.039 259.565 248.773 259.544C248.549 259.523 248.383 259.523 248.277 259.544C248.181 259.555 248.09 259.576 248.005 259.608L247.877 259.272C247.962 259.24 248.047 259.192 248.133 259.128C248.218 259.064 248.335 258.952 248.485 258.792C248.666 258.6 248.815 258.461 248.933 258.376C249.05 258.291 249.173 258.221 249.301 258.168C249.471 258.104 249.642 258.109 249.813 258.184C249.994 258.259 250.117 258.376 250.181 258.536ZM247.093 259.576L247.221 259.88C247.135 259.923 247.05 259.976 246.965 260.04C246.89 260.104 246.778 260.211 246.629 260.36C246.447 260.563 246.298 260.707 246.181 260.792C246.063 260.877 245.935 260.947 245.797 261C245.626 261.075 245.45 261.075 245.269 261C245.098 260.925 244.981 260.808 244.917 260.648C244.842 260.488 244.842 260.317 244.917 260.136C244.991 259.944 245.114 259.816 245.285 259.752C245.423 259.699 245.562 259.661 245.701 259.64C245.85 259.619 246.058 259.619 246.325 259.64C246.549 259.651 246.709 259.651 246.805 259.64C246.911 259.629 247.007 259.608 247.093 259.576ZM249.653 260.392C249.802 260.499 249.887 260.648 249.909 260.84C249.93 261.032 249.887 261.203 249.781 261.352C249.674 261.491 249.525 261.576 249.333 261.608C249.141 261.64 248.97 261.597 248.821 261.48C248.703 261.384 248.597 261.277 248.501 261.16C248.415 261.043 248.314 260.861 248.197 260.616C248.101 260.424 248.026 260.285 247.973 260.2C247.919 260.115 247.855 260.045 247.781 259.992L247.973 259.72C248.047 259.773 248.133 259.821 248.229 259.864C248.325 259.896 248.474 259.933 248.677 259.976C248.943 260.04 249.146 260.104 249.285 260.168C249.423 260.221 249.546 260.296 249.653 260.392ZM247.765 260.792C247.85 261.048 247.898 261.251 247.909 261.4C247.93 261.539 247.93 261.683 247.909 261.832C247.877 262.013 247.781 262.163 247.621 262.28C247.471 262.387 247.311 262.429 247.141 262.408C246.959 262.387 246.81 262.301 246.693 262.152C246.575 262.003 246.533 261.832 246.565 261.64C246.586 261.491 246.623 261.352 246.677 261.224C246.741 261.085 246.842 260.899 246.981 260.664C247.098 260.493 247.178 260.36 247.221 260.264C247.263 260.168 247.295 260.077 247.317 259.992L247.653 260.056C247.642 260.141 247.642 260.237 247.653 260.344C247.663 260.44 247.701 260.589 247.765 260.792ZM257.506 268.472V269H251.714V268.472H253.794V259.064H251.714V258.552C252.759 258.552 253.57 258.477 254.146 258.328C254.733 258.168 255.154 257.917 255.41 257.576L255.73 257.656C255.666 257.816 255.613 258.088 255.57 258.472C255.527 258.856 255.506 259.261 255.506 259.688V268.472H257.506ZM261.215 268.296C261.215 269.053 261.055 269.763 260.735 270.424C260.415 271.096 259.967 271.661 259.391 272.12L258.959 271.752C259.311 271.464 259.621 271.075 259.887 270.584C260.165 270.104 260.33 269.629 260.383 269.16C260.351 269.16 260.293 269.16 260.207 269.16C260.133 269.171 260.085 269.176 260.063 269.176C259.711 269.176 259.429 269.069 259.215 268.856C259.013 268.632 258.911 268.365 258.911 268.056C258.911 267.736 259.013 267.464 259.215 267.24C259.418 267.016 259.701 266.904 260.063 266.904C260.437 266.904 260.719 267.027 260.911 267.272C261.114 267.517 261.215 267.859 261.215 268.296ZM269.187 269H262.435V268.376C264.525 266.168 265.853 264.744 266.419 264.104C266.984 263.453 267.384 262.941 267.619 262.568C267.395 262.824 267.117 263.021 266.787 263.16C266.456 263.299 266.093 263.368 265.699 263.368C264.771 263.368 263.965 263.107 263.283 262.584C262.611 262.051 262.275 261.379 262.275 260.568C262.275 259.747 262.637 259.08 263.363 258.568C264.099 258.045 264.995 257.784 266.051 257.784C267.032 257.784 267.832 258.04 268.451 258.552C269.069 259.053 269.379 259.725 269.379 260.568C269.379 260.931 269.272 261.309 269.059 261.704C268.856 262.088 268.509 262.557 268.019 263.112C267.859 263.315 267.645 263.565 267.379 263.864C267.123 264.163 266.648 264.685 265.955 265.432C265.453 265.976 265.064 266.403 264.787 266.712C264.52 267.011 264.264 267.293 264.019 267.56H266.947C267.8 267.56 268.333 267.475 268.547 267.304C268.771 267.123 268.915 266.765 268.979 266.232L269.075 265.368H269.603L269.187 269ZM267.123 258.92C266.792 258.504 266.36 258.296 265.827 258.296C265.293 258.296 264.867 258.499 264.547 258.904C264.227 259.309 264.061 259.869 264.051 260.584C264.04 261.299 264.195 261.859 264.515 262.264C264.845 262.669 265.293 262.872 265.859 262.872C266.392 262.872 266.819 262.669 267.139 262.264C267.459 261.848 267.619 261.288 267.619 260.584C267.619 259.88 267.453 259.325 267.123 258.92ZM277.481 268.472V269H272.825V268.472H274.393V266.008H269.817V265.72L275.545 257.768H276.121V265.48H277.481V266.008H276.121V268.472H277.481ZM270.681 265.48H274.393V260.232L270.681 265.48ZM287.597 268.616C288.258 268.616 288.743 268.328 289.053 267.752C289.362 267.176 289.522 266.253 289.533 264.984C289.543 263.736 289.394 262.829 289.085 262.264C288.775 261.688 288.29 261.4 287.629 261.4C287.021 261.4 286.535 261.709 286.173 262.328C285.81 262.936 285.629 263.757 285.629 264.792V265.72C285.629 266.723 285.783 267.459 286.093 267.928C286.402 268.387 286.903 268.616 287.597 268.616ZM285.629 272.408H287.405V273H282.733V272.408H283.981V261.576H282.733V260.984C283.522 260.984 284.082 260.973 284.413 260.952C284.743 260.92 284.983 260.856 285.133 260.76L285.357 260.904V263.24C285.453 262.493 285.735 261.901 286.205 261.464C286.674 261.016 287.266 260.792 287.981 260.792C288.898 260.792 289.671 261.187 290.301 261.976C290.941 262.755 291.261 263.747 291.261 264.952C291.261 266.179 290.919 267.192 290.237 267.992C289.565 268.781 288.733 269.176 287.741 269.176C287.25 269.176 286.834 269.085 286.493 268.904C286.151 268.723 285.863 268.445 285.629 268.072V272.408ZM295.152 269H291.936V268.472H293.104L295.504 265.096L293.04 261.496H292.096V260.984H295.856V261.496H294.752L296.56 264.104L298.368 261.496H297.248V260.984H300.208V261.496H299.12L296.928 264.616L299.6 268.472H300.464V269H296.592V268.472H297.84L295.904 265.672L293.936 268.472H295.152V269Z" fill="#0E008B"/>
<path d="M428.376 269H425.096V268.472H426.152L428.984 263.56L426.2 258.488H425.096V257.96H429.48V258.488H428.04L430.104 262.248L432.248 258.488H431.064V257.96H434.088V258.488H432.936L430.44 262.84L433.528 268.472H434.52V269H429.976V268.472H431.672L429.32 264.184L426.872 268.472H428.376V269ZM444.065 268.616C444.727 268.616 445.212 268.328 445.521 267.752C445.831 267.176 445.991 266.253 446.001 264.984C446.012 263.736 445.863 262.829 445.553 262.264C445.244 261.688 444.759 261.4 444.097 261.4C443.489 261.4 443.004 261.709 442.641 262.328C442.279 262.936 442.097 263.757 442.097 264.792V265.72C442.097 266.723 442.252 267.459 442.561 267.928C442.871 268.387 443.372 268.616 444.065 268.616ZM442.097 272.408H443.873V273H439.201V272.408H440.449V261.576H439.201V260.984C439.991 260.984 440.551 260.973 440.881 260.952C441.212 260.92 441.452 260.856 441.601 260.76L441.825 260.904V263.24C441.921 262.493 442.204 261.901 442.673 261.464C443.143 261.016 443.735 260.792 444.449 260.792C445.367 260.792 446.14 261.187 446.769 261.976C447.409 262.755 447.729 263.747 447.729 264.952C447.729 266.179 447.388 267.192 446.705 267.992C446.033 268.781 445.201 269.176 444.209 269.176C443.719 269.176 443.303 269.085 442.961 268.904C442.62 268.723 442.332 268.445 442.097 268.072V272.408ZM451.621 269H448.405V268.472H449.573L451.973 265.096L449.509 261.496H448.565V260.984H452.325V261.496H451.221L453.029 264.104L454.837 261.496H453.717V260.984H456.677V261.496H455.589L453.397 264.616L456.069 268.472H456.933V269H453.061V268.472H454.309L452.373 265.672L450.405 268.472H451.621V269Z" fill="#0E008B"/>
<path d="M585.376 269H582.096V268.472H583.152L585.984 263.56L583.2 258.488H582.096V257.96H586.48V258.488H585.04L587.104 262.248L589.248 258.488H588.064V257.96H591.088V258.488H589.936L587.44 262.84L590.528 268.472H591.52V269H586.976V268.472H588.672L586.32 264.184L583.872 268.472H585.376V269ZM594.957 256.76C595.138 256.792 595.287 256.888 595.405 257.048C595.533 257.208 595.581 257.373 595.549 257.544C595.527 257.683 595.485 257.821 595.421 257.96C595.367 258.099 595.266 258.275 595.117 258.488C594.999 258.68 594.914 258.824 594.861 258.92C594.818 259.005 594.791 259.096 594.781 259.192L594.445 259.128C594.455 259.032 594.455 258.936 594.445 258.84C594.434 258.733 594.391 258.573 594.317 258.36C594.231 258.115 594.178 257.923 594.157 257.784C594.146 257.635 594.151 257.491 594.173 257.352C594.205 257.171 594.301 257.021 594.461 256.904C594.621 256.787 594.786 256.739 594.957 256.76ZM593.901 258.552C593.997 258.744 594.071 258.883 594.125 258.968C594.189 259.053 594.258 259.128 594.333 259.192L594.125 259.448C594.05 259.395 593.965 259.347 593.869 259.304C593.773 259.261 593.618 259.219 593.405 259.176C593.138 259.123 592.935 259.069 592.797 259.016C592.669 258.952 592.551 258.877 592.445 258.792C592.295 258.685 592.21 258.536 592.189 258.344C592.178 258.152 592.226 257.981 592.333 257.832C592.429 257.693 592.573 257.613 592.765 257.592C592.967 257.56 593.143 257.592 593.293 257.688C593.399 257.784 593.495 257.891 593.581 258.008C593.677 258.125 593.783 258.307 593.901 258.552ZM597.181 258.536C597.255 258.707 597.255 258.883 597.181 259.064C597.106 259.245 596.978 259.363 596.797 259.416C596.669 259.48 596.53 259.523 596.381 259.544C596.242 259.565 596.039 259.565 595.773 259.544C595.549 259.523 595.383 259.523 595.277 259.544C595.181 259.555 595.09 259.576 595.005 259.608L594.877 259.272C594.962 259.24 595.047 259.192 595.133 259.128C595.218 259.064 595.335 258.952 595.485 258.792C595.666 258.6 595.815 258.461 595.933 258.376C596.05 258.291 596.173 258.221 596.301 258.168C596.471 258.104 596.642 258.109 596.813 258.184C596.994 258.259 597.117 258.376 597.181 258.536ZM594.093 259.576L594.221 259.88C594.135 259.923 594.05 259.976 593.965 260.04C593.89 260.104 593.778 260.211 593.629 260.36C593.447 260.563 593.298 260.707 593.181 260.792C593.063 260.877 592.935 260.947 592.797 261C592.626 261.075 592.45 261.075 592.269 261C592.098 260.925 591.981 260.808 591.917 260.648C591.842 260.488 591.842 260.317 591.917 260.136C591.991 259.944 592.114 259.816 592.285 259.752C592.423 259.699 592.562 259.661 592.701 259.64C592.85 259.619 593.058 259.619 593.325 259.64C593.549 259.651 593.709 259.651 593.805 259.64C593.911 259.629 594.007 259.608 594.093 259.576ZM596.653 260.392C596.802 260.499 596.887 260.648 596.909 260.84C596.93 261.032 596.887 261.203 596.781 261.352C596.674 261.491 596.525 261.576 596.333 261.608C596.141 261.64 595.97 261.597 595.821 261.48C595.703 261.384 595.597 261.277 595.501 261.16C595.415 261.043 595.314 260.861 595.197 260.616C595.101 260.424 595.026 260.285 594.973 260.2C594.919 260.115 594.855 260.045 594.781 259.992L594.973 259.72C595.047 259.773 595.133 259.821 595.229 259.864C595.325 259.896 595.474 259.933 595.677 259.976C595.943 260.04 596.146 260.104 596.285 260.168C596.423 260.221 596.546 260.296 596.653 260.392ZM594.765 260.792C594.85 261.048 594.898 261.251 594.909 261.4C594.93 261.539 594.93 261.683 594.909 261.832C594.877 262.013 594.781 262.163 594.621 262.28C594.471 262.387 594.311 262.429 594.141 262.408C593.959 262.387 593.81 262.301 593.693 262.152C593.575 262.003 593.533 261.832 593.565 261.64C593.586 261.491 593.623 261.352 593.677 261.224C593.741 261.085 593.842 260.899 593.981 260.664C594.098 260.493 594.178 260.36 594.221 260.264C594.263 260.168 594.295 260.077 594.317 259.992L594.653 260.056C594.642 260.141 594.642 260.237 594.653 260.344C594.663 260.44 594.701 260.589 594.765 260.792ZM604.506 268.472V269H598.714V268.472H600.794V259.064H598.714V258.552C599.759 258.552 600.57 258.477 601.146 258.328C601.733 258.168 602.154 257.917 602.41 257.576L602.73 257.656C602.666 257.816 602.613 258.088 602.57 258.472C602.527 258.856 602.506 259.261 602.506 259.688V268.472H604.506ZM608.215 268.296C608.215 269.053 608.055 269.763 607.735 270.424C607.415 271.096 606.967 271.661 606.391 272.12L605.959 271.752C606.311 271.464 606.621 271.075 606.887 270.584C607.165 270.104 607.33 269.629 607.383 269.16C607.351 269.16 607.293 269.16 607.207 269.16C607.133 269.171 607.085 269.176 607.063 269.176C606.711 269.176 606.429 269.069 606.215 268.856C606.013 268.632 605.911 268.365 605.911 268.056C605.911 267.736 606.013 267.464 606.215 267.24C606.418 267.016 606.701 266.904 607.063 266.904C607.437 266.904 607.719 267.027 607.911 267.272C608.114 267.517 608.215 267.859 608.215 268.296ZM616.187 269H609.435V268.376C611.525 266.168 612.853 264.744 613.419 264.104C613.984 263.453 614.384 262.941 614.619 262.568C614.395 262.824 614.117 263.021 613.787 263.16C613.456 263.299 613.093 263.368 612.699 263.368C611.771 263.368 610.965 263.107 610.283 262.584C609.611 262.051 609.275 261.379 609.275 260.568C609.275 259.747 609.637 259.08 610.363 258.568C611.099 258.045 611.995 257.784 613.051 257.784C614.032 257.784 614.832 258.04 615.451 258.552C616.069 259.053 616.379 259.725 616.379 260.568C616.379 260.931 616.272 261.309 616.059 261.704C615.856 262.088 615.509 262.557 615.019 263.112C614.859 263.315 614.645 263.565 614.379 263.864C614.123 264.163 613.648 264.685 612.955 265.432C612.453 265.976 612.064 266.403 611.787 266.712C611.52 267.011 611.264 267.293 611.019 267.56H613.947C614.8 267.56 615.333 267.475 615.547 267.304C615.771 267.123 615.915 266.765 615.979 266.232L616.075 265.368H616.603L616.187 269ZM614.123 258.92C613.792 258.504 613.36 258.296 612.827 258.296C612.293 258.296 611.867 258.499 611.547 258.904C611.227 259.309 611.061 259.869 611.051 260.584C611.04 261.299 611.195 261.859 611.515 262.264C611.845 262.669 612.293 262.872 612.859 262.872C613.392 262.872 613.819 262.669 614.139 262.264C614.459 261.848 614.619 261.288 614.619 260.584C614.619 259.88 614.453 259.325 614.123 258.92ZM624.481 268.472V269H619.825V268.472H621.393V266.008H616.817V265.72L622.545 257.768H623.121V265.48H624.481V266.008H623.121V268.472H624.481ZM617.681 265.48H621.393V260.232L617.681 265.48ZM634.597 268.616C635.258 268.616 635.743 268.328 636.053 267.752C636.362 267.176 636.522 266.253 636.533 264.984C636.543 263.736 636.394 262.829 636.085 262.264C635.775 261.688 635.29 261.4 634.629 261.4C634.021 261.4 633.535 261.709 633.173 262.328C632.81 262.936 632.629 263.757 632.629 264.792V265.72C632.629 266.723 632.783 267.459 633.093 267.928C633.402 268.387 633.903 268.616 634.597 268.616ZM632.629 272.408H634.405V273H629.733V272.408H630.981V261.576H629.733V260.984C630.522 260.984 631.082 260.973 631.413 260.952C631.743 260.92 631.983 260.856 632.133 260.76L632.357 260.904V263.24C632.453 262.493 632.735 261.901 633.205 261.464C633.674 261.016 634.266 260.792 634.981 260.792C635.898 260.792 636.671 261.187 637.301 261.976C637.941 262.755 638.261 263.747 638.261 264.952C638.261 266.179 637.919 267.192 637.237 267.992C636.565 268.781 635.733 269.176 634.741 269.176C634.25 269.176 633.834 269.085 633.493 268.904C633.151 268.723 632.863 268.445 632.629 268.072V272.408ZM642.152 269H638.936V268.472H640.104L642.504 265.096L640.04 261.496H639.096V260.984H642.856V261.496H641.752L643.56 264.104L645.368 261.496H644.248V260.984H647.208V261.496H646.12L643.928 264.616L646.6 268.472H647.464V269H643.592V268.472H644.84L642.904 265.672L640.936 268.472H642.152V269Z" fill="#0E008B"/>
<path d="M781.376 269H778.096V268.472H779.152L781.984 263.56L779.2 258.488H778.096V257.96H782.48V258.488H781.04L783.104 262.248L785.248 258.488H784.064V257.96H787.088V258.488H785.936L783.44 262.84L786.528 268.472H787.52V269H782.976V268.472H784.672L782.32 264.184L779.872 268.472H781.376V269ZM790.957 256.76C791.138 256.792 791.287 256.888 791.405 257.048C791.533 257.208 791.581 257.373 791.549 257.544C791.527 257.683 791.485 257.821 791.421 257.96C791.367 258.099 791.266 258.275 791.117 258.488C790.999 258.68 790.914 258.824 790.861 258.92C790.818 259.005 790.791 259.096 790.781 259.192L790.445 259.128C790.455 259.032 790.455 258.936 790.445 258.84C790.434 258.733 790.391 258.573 790.317 258.36C790.231 258.115 790.178 257.923 790.157 257.784C790.146 257.635 790.151 257.491 790.173 257.352C790.205 257.171 790.301 257.021 790.461 256.904C790.621 256.787 790.786 256.739 790.957 256.76ZM789.901 258.552C789.997 258.744 790.071 258.883 790.125 258.968C790.189 259.053 790.258 259.128 790.333 259.192L790.125 259.448C790.05 259.395 789.965 259.347 789.869 259.304C789.773 259.261 789.618 259.219 789.405 259.176C789.138 259.123 788.935 259.069 788.797 259.016C788.669 258.952 788.551 258.877 788.445 258.792C788.295 258.685 788.21 258.536 788.189 258.344C788.178 258.152 788.226 257.981 788.333 257.832C788.429 257.693 788.573 257.613 788.765 257.592C788.967 257.56 789.143 257.592 789.293 257.688C789.399 257.784 789.495 257.891 789.581 258.008C789.677 258.125 789.783 258.307 789.901 258.552ZM793.181 258.536C793.255 258.707 793.255 258.883 793.181 259.064C793.106 259.245 792.978 259.363 792.797 259.416C792.669 259.48 792.53 259.523 792.381 259.544C792.242 259.565 792.039 259.565 791.773 259.544C791.549 259.523 791.383 259.523 791.277 259.544C791.181 259.555 791.09 259.576 791.005 259.608L790.877 259.272C790.962 259.24 791.047 259.192 791.133 259.128C791.218 259.064 791.335 258.952 791.485 258.792C791.666 258.6 791.815 258.461 791.933 258.376C792.05 258.291 792.173 258.221 792.301 258.168C792.471 258.104 792.642 258.109 792.813 258.184C792.994 258.259 793.117 258.376 793.181 258.536ZM790.093 259.576L790.221 259.88C790.135 259.923 790.05 259.976 789.965 260.04C789.89 260.104 789.778 260.211 789.629 260.36C789.447 260.563 789.298 260.707 789.181 260.792C789.063 260.877 788.935 260.947 788.797 261C788.626 261.075 788.45 261.075 788.269 261C788.098 260.925 787.981 260.808 787.917 260.648C787.842 260.488 787.842 260.317 787.917 260.136C787.991 259.944 788.114 259.816 788.285 259.752C788.423 259.699 788.562 259.661 788.701 259.64C788.85 259.619 789.058 259.619 789.325 259.64C789.549 259.651 789.709 259.651 789.805 259.64C789.911 259.629 790.007 259.608 790.093 259.576ZM792.653 260.392C792.802 260.499 792.887 260.648 792.909 260.84C792.93 261.032 792.887 261.203 792.781 261.352C792.674 261.491 792.525 261.576 792.333 261.608C792.141 261.64 791.97 261.597 791.821 261.48C791.703 261.384 791.597 261.277 791.501 261.16C791.415 261.043 791.314 260.861 791.197 260.616C791.101 260.424 791.026 260.285 790.973 260.2C790.919 260.115 790.855 260.045 790.781 259.992L790.973 259.72C791.047 259.773 791.133 259.821 791.229 259.864C791.325 259.896 791.474 259.933 791.677 259.976C791.943 260.04 792.146 260.104 792.285 260.168C792.423 260.221 792.546 260.296 792.653 260.392ZM790.765 260.792C790.85 261.048 790.898 261.251 790.909 261.4C790.93 261.539 790.93 261.683 790.909 261.832C790.877 262.013 790.781 262.163 790.621 262.28C790.471 262.387 790.311 262.429 790.141 262.408C789.959 262.387 789.81 262.301 789.693 262.152C789.575 262.003 789.533 261.832 789.565 261.64C789.586 261.491 789.623 261.352 789.677 261.224C789.741 261.085 789.842 260.899 789.981 260.664C790.098 260.493 790.178 260.36 790.221 260.264C790.263 260.168 790.295 260.077 790.317 259.992L790.653 260.056C790.642 260.141 790.642 260.237 790.653 260.344C790.663 260.44 790.701 260.589 790.765 260.792ZM800.506 268.472V269H794.714V268.472H796.794V259.064H794.714V258.552C795.759 258.552 796.57 258.477 797.146 258.328C797.733 258.168 798.154 257.917 798.41 257.576L798.73 257.656C798.666 257.816 798.613 258.088 798.57 258.472C798.527 258.856 798.506 259.261 798.506 259.688V268.472H800.506ZM804.215 268.296C804.215 269.053 804.055 269.763 803.735 270.424C803.415 271.096 802.967 271.661 802.391 272.12L801.959 271.752C802.311 271.464 802.621 271.075 802.887 270.584C803.165 270.104 803.33 269.629 803.383 269.16C803.351 269.16 803.293 269.16 803.207 269.16C803.133 269.171 803.085 269.176 803.063 269.176C802.711 269.176 802.429 269.069 802.215 268.856C802.013 268.632 801.911 268.365 801.911 268.056C801.911 267.736 802.013 267.464 802.215 267.24C802.418 267.016 802.701 266.904 803.063 266.904C803.437 266.904 803.719 267.027 803.911 267.272C804.114 267.517 804.215 267.859 804.215 268.296ZM811.303 268.472V269H805.511V268.472H807.591V259.064H805.511V258.552C806.556 258.552 807.367 258.477 807.943 258.328C808.53 258.168 808.951 257.917 809.207 257.576L809.527 257.656C809.463 257.816 809.41 258.088 809.367 258.472C809.324 258.856 809.303 259.261 809.303 259.688V268.472H811.303ZM820.068 265.896C820.068 266.781 819.705 267.549 818.98 268.2C818.255 268.851 817.343 269.176 816.244 269.176C815.145 269.176 814.233 268.851 813.508 268.2C812.783 267.549 812.42 266.781 812.42 265.896C812.42 265.128 812.671 264.461 813.172 263.896C813.684 263.32 814.388 262.925 815.284 262.712C814.505 262.531 813.908 262.237 813.492 261.832C813.087 261.416 812.884 260.915 812.884 260.328C812.884 259.613 813.204 259.011 813.844 258.52C814.495 258.029 815.289 257.784 816.228 257.784C817.167 257.784 817.961 258.029 818.612 258.52C819.273 259.011 819.604 259.613 819.604 260.328C819.604 260.915 819.396 261.416 818.98 261.832C818.575 262.237 817.983 262.531 817.204 262.712C818.1 262.925 818.799 263.32 819.3 263.896C819.812 264.461 820.068 265.128 820.068 265.896ZM814.692 260.328C814.692 261 814.831 261.528 815.108 261.912C815.385 262.285 815.764 262.472 816.244 262.472C816.724 262.472 817.103 262.285 817.38 261.912C817.657 261.528 817.796 261 817.796 260.328C817.796 259.677 817.657 259.176 817.38 258.824C817.103 258.472 816.719 258.296 816.228 258.296C815.748 258.296 815.369 258.477 815.092 258.84C814.825 259.192 814.692 259.688 814.692 260.328ZM814.292 265.896C814.281 266.76 814.447 267.437 814.788 267.928C815.129 268.419 815.615 268.664 816.244 268.664C816.873 268.664 817.359 268.419 817.7 267.928C818.041 267.437 818.207 266.76 818.196 265.896C818.185 264.968 818.009 264.253 817.668 263.752C817.337 263.24 816.863 262.984 816.244 262.984C815.625 262.984 815.145 263.24 814.804 263.752C814.473 264.253 814.303 264.968 814.292 265.896ZM830.112 268.616C830.774 268.616 831.259 268.328 831.568 267.752C831.878 267.176 832.038 266.253 832.048 264.984C832.059 263.736 831.91 262.829 831.6 262.264C831.291 261.688 830.806 261.4 830.144 261.4C829.536 261.4 829.051 261.709 828.688 262.328C828.326 262.936 828.144 263.757 828.144 264.792V265.72C828.144 266.723 828.299 267.459 828.608 267.928C828.918 268.387 829.419 268.616 830.112 268.616ZM828.144 272.408H829.92V273H825.248V272.408H826.496V261.576H825.248V260.984C826.038 260.984 826.598 260.973 826.928 260.952C827.259 260.92 827.499 260.856 827.648 260.76L827.872 260.904V263.24C827.968 262.493 828.251 261.901 828.72 261.464C829.19 261.016 829.782 260.792 830.496 260.792C831.414 260.792 832.187 261.187 832.816 261.976C833.456 262.755 833.776 263.747 833.776 264.952C833.776 266.179 833.435 267.192 832.752 267.992C832.08 268.781 831.248 269.176 830.256 269.176C829.766 269.176 829.35 269.085 829.008 268.904C828.667 268.723 828.379 268.445 828.144 268.072V272.408ZM837.668 269H834.452V268.472H835.62L838.02 265.096L835.556 261.496H834.612V260.984H838.372V261.496H837.268L839.076 264.104L840.884 261.496H839.764V260.984H842.724V261.496H841.636L839.444 264.616L842.116 268.472H842.98V269H839.108V268.472H840.356L838.42 265.672L836.452 268.472H837.668V269Z" fill="#0E008B"/>
<path d="M965.376 269H962.096V268.472H963.152L965.984 263.56L963.2 258.488H962.096V257.96H966.48V258.488H965.04L967.104 262.248L969.248 258.488H968.064V257.96H971.088V258.488H969.936L967.44 262.84L970.528 268.472H971.52V269H966.976V268.472H968.672L966.32 264.184L963.872 268.472H965.376V269ZM974.957 256.76C975.138 256.792 975.287 256.888 975.405 257.048C975.533 257.208 975.581 257.373 975.549 257.544C975.527 257.683 975.485 257.821 975.421 257.96C975.367 258.099 975.266 258.275 975.117 258.488C974.999 258.68 974.914 258.824 974.861 258.92C974.818 259.005 974.791 259.096 974.781 259.192L974.445 259.128C974.455 259.032 974.455 258.936 974.445 258.84C974.434 258.733 974.391 258.573 974.317 258.36C974.231 258.115 974.178 257.923 974.157 257.784C974.146 257.635 974.151 257.491 974.173 257.352C974.205 257.171 974.301 257.021 974.461 256.904C974.621 256.787 974.786 256.739 974.957 256.76ZM973.901 258.552C973.997 258.744 974.071 258.883 974.125 258.968C974.189 259.053 974.258 259.128 974.333 259.192L974.125 259.448C974.05 259.395 973.965 259.347 973.869 259.304C973.773 259.261 973.618 259.219 973.405 259.176C973.138 259.123 972.935 259.069 972.797 259.016C972.669 258.952 972.551 258.877 972.445 258.792C972.295 258.685 972.21 258.536 972.189 258.344C972.178 258.152 972.226 257.981 972.333 257.832C972.429 257.693 972.573 257.613 972.765 257.592C972.967 257.56 973.143 257.592 973.293 257.688C973.399 257.784 973.495 257.891 973.581 258.008C973.677 258.125 973.783 258.307 973.901 258.552ZM977.181 258.536C977.255 258.707 977.255 258.883 977.181 259.064C977.106 259.245 976.978 259.363 976.797 259.416C976.669 259.48 976.53 259.523 976.381 259.544C976.242 259.565 976.039 259.565 975.773 259.544C975.549 259.523 975.383 259.523 975.277 259.544C975.181 259.555 975.09 259.576 975.005 259.608L974.877 259.272C974.962 259.24 975.047 259.192 975.133 259.128C975.218 259.064 975.335 258.952 975.485 258.792C975.666 258.6 975.815 258.461 975.933 258.376C976.05 258.291 976.173 258.221 976.301 258.168C976.471 258.104 976.642 258.109 976.813 258.184C976.994 258.259 977.117 258.376 977.181 258.536ZM974.093 259.576L974.221 259.88C974.135 259.923 974.05 259.976 973.965 260.04C973.89 260.104 973.778 260.211 973.629 260.36C973.447 260.563 973.298 260.707 973.181 260.792C973.063 260.877 972.935 260.947 972.797 261C972.626 261.075 972.45 261.075 972.269 261C972.098 260.925 971.981 260.808 971.917 260.648C971.842 260.488 971.842 260.317 971.917 260.136C971.991 259.944 972.114 259.816 972.285 259.752C972.423 259.699 972.562 259.661 972.701 259.64C972.85 259.619 973.058 259.619 973.325 259.64C973.549 259.651 973.709 259.651 973.805 259.64C973.911 259.629 974.007 259.608 974.093 259.576ZM976.653 260.392C976.802 260.499 976.887 260.648 976.909 260.84C976.93 261.032 976.887 261.203 976.781 261.352C976.674 261.491 976.525 261.576 976.333 261.608C976.141 261.64 975.97 261.597 975.821 261.48C975.703 261.384 975.597 261.277 975.501 261.16C975.415 261.043 975.314 260.861 975.197 260.616C975.101 260.424 975.026 260.285 974.973 260.2C974.919 260.115 974.855 260.045 974.781 259.992L974.973 259.72C975.047 259.773 975.133 259.821 975.229 259.864C975.325 259.896 975.474 259.933 975.677 259.976C975.943 260.04 976.146 260.104 976.285 260.168C976.423 260.221 976.546 260.296 976.653 260.392ZM974.765 260.792C974.85 261.048 974.898 261.251 974.909 261.4C974.93 261.539 974.93 261.683 974.909 261.832C974.877 262.013 974.781 262.163 974.621 262.28C974.471 262.387 974.311 262.429 974.141 262.408C973.959 262.387 973.81 262.301 973.693 262.152C973.575 262.003 973.533 261.832 973.565 261.64C973.586 261.491 973.623 261.352 973.677 261.224C973.741 261.085 973.842 260.899 973.981 260.664C974.098 260.493 974.178 260.36 974.221 260.264C974.263 260.168 974.295 260.077 974.317 259.992L974.653 260.056C974.642 260.141 974.642 260.237 974.653 260.344C974.663 260.44 974.701 260.589 974.765 260.792ZM984.506 268.472V269H978.714V268.472H980.794V259.064H978.714V258.552C979.759 258.552 980.57 258.477 981.146 258.328C981.733 258.168 982.154 257.917 982.41 257.576L982.73 257.656C982.666 257.816 982.613 258.088 982.57 258.472C982.527 258.856 982.506 259.261 982.506 259.688V268.472H984.506ZM988.215 268.296C988.215 269.053 988.055 269.763 987.735 270.424C987.415 271.096 986.967 271.661 986.391 272.12L985.959 271.752C986.311 271.464 986.621 271.075 986.887 270.584C987.165 270.104 987.33 269.629 987.383 269.16C987.351 269.16 987.293 269.16 987.207 269.16C987.133 269.171 987.085 269.176 987.063 269.176C986.711 269.176 986.429 269.069 986.215 268.856C986.013 268.632 985.911 268.365 985.911 268.056C985.911 267.736 986.013 267.464 986.215 267.24C986.418 267.016 986.701 266.904 987.063 266.904C987.437 266.904 987.719 267.027 987.911 267.272C988.114 267.517 988.215 267.859 988.215 268.296ZM996.458 259.816C996.756 260.339 996.986 260.925 997.146 261.576C997.316 262.216 997.402 262.845 997.402 263.464C997.402 264.083 997.316 264.717 997.146 265.368C996.986 266.008 996.756 266.595 996.458 267.128C996.095 267.789 995.658 268.296 995.146 268.648C994.634 269 994.074 269.176 993.466 269.176C992.858 269.176 992.298 269 991.786 268.648C991.274 268.296 990.836 267.789 990.474 267.128C990.175 266.595 989.94 266.003 989.77 265.352C989.61 264.701 989.53 264.072 989.53 263.464C989.53 262.845 989.61 262.216 989.77 261.576C989.94 260.925 990.175 260.339 990.474 259.816C990.836 259.155 991.274 258.653 991.786 258.312C992.298 257.96 992.858 257.784 993.466 257.784C994.074 257.784 994.634 257.96 995.146 258.312C995.658 258.653 996.095 259.155 996.458 259.816ZM995.082 259.432C994.783 258.675 994.244 258.296 993.466 258.296C992.687 258.296 992.148 258.675 991.85 259.432C991.551 260.179 991.402 261.523 991.402 263.464C991.402 265.384 991.551 266.733 991.85 267.512C992.159 268.28 992.698 268.664 993.466 268.664C994.244 268.664 994.783 268.285 995.082 267.528C995.38 266.771 995.53 265.416 995.53 263.464C995.53 261.533 995.38 260.189 995.082 259.432ZM1004.1 268.472V269H998.308V268.472H1000.39V259.064H998.308V258.552C999.353 258.552 1000.16 258.477 1000.74 258.328C1001.33 258.168 1001.75 257.917 1002 257.576L1002.32 257.656C1002.26 257.816 1002.21 258.088 1002.16 258.472C1002.12 258.856 1002.1 259.261 1002.1 259.688V268.472H1004.1ZM1014.08 268.616C1014.74 268.616 1015.23 268.328 1015.54 267.752C1015.85 267.176 1016.01 266.253 1016.02 264.984C1016.03 263.736 1015.88 262.829 1015.57 262.264C1015.26 261.688 1014.77 261.4 1014.11 261.4C1013.51 261.4 1013.02 261.709 1012.66 262.328C1012.29 262.936 1012.11 263.757 1012.11 264.792V265.72C1012.11 266.723 1012.27 267.459 1012.58 267.928C1012.89 268.387 1013.39 268.616 1014.08 268.616ZM1012.11 272.408H1013.89V273H1009.22V272.408H1010.47V261.576H1009.22V260.984C1010.01 260.984 1010.57 260.973 1010.9 260.952C1011.23 260.92 1011.47 260.856 1011.62 260.76L1011.84 260.904V263.24C1011.94 262.493 1012.22 261.901 1012.69 261.464C1013.16 261.016 1013.75 260.792 1014.47 260.792C1015.38 260.792 1016.16 261.187 1016.79 261.976C1017.43 262.755 1017.75 263.747 1017.75 264.952C1017.75 266.179 1017.4 267.192 1016.72 267.992C1016.05 268.781 1015.22 269.176 1014.23 269.176C1013.73 269.176 1013.32 269.085 1012.98 268.904C1012.64 268.723 1012.35 268.445 1012.11 268.072V272.408ZM1021.64 269H1018.42V268.472H1019.59L1021.99 265.096L1019.52 261.496H1018.58V260.984H1022.34V261.496H1021.24L1023.04 264.104L1024.85 261.496H1023.73V260.984H1026.69V261.496H1025.6L1023.41 264.616L1026.08 268.472H1026.95V269H1023.08V268.472H1024.32L1022.39 265.672L1020.42 268.472H1021.64V269Z" fill="#0E008B"/>
<path d="M1133.38 269H1130.1V268.472H1131.15L1133.98 263.56L1131.2 258.488H1130.1V257.96H1134.48V258.488H1133.04L1135.1 262.248L1137.25 258.488H1136.06V257.96H1139.09V258.488H1137.94L1135.44 262.84L1138.53 268.472H1139.52V269H1134.98V268.472H1136.67L1134.32 264.184L1131.87 268.472H1133.38V269ZM1142.96 256.76C1143.14 256.792 1143.29 256.888 1143.4 257.048C1143.53 257.208 1143.58 257.373 1143.55 257.544C1143.53 257.683 1143.48 257.821 1143.42 257.96C1143.37 258.099 1143.27 258.275 1143.12 258.488C1143 258.68 1142.91 258.824 1142.86 258.92C1142.82 259.005 1142.79 259.096 1142.78 259.192L1142.44 259.128C1142.46 259.032 1142.46 258.936 1142.44 258.84C1142.43 258.733 1142.39 258.573 1142.32 258.36C1142.23 258.115 1142.18 257.923 1142.16 257.784C1142.15 257.635 1142.15 257.491 1142.17 257.352C1142.2 257.171 1142.3 257.021 1142.46 256.904C1142.62 256.787 1142.79 256.739 1142.96 256.76ZM1141.9 258.552C1142 258.744 1142.07 258.883 1142.12 258.968C1142.19 259.053 1142.26 259.128 1142.33 259.192L1142.12 259.448C1142.05 259.395 1141.96 259.347 1141.87 259.304C1141.77 259.261 1141.62 259.219 1141.4 259.176C1141.14 259.123 1140.94 259.069 1140.8 259.016C1140.67 258.952 1140.55 258.877 1140.44 258.792C1140.3 258.685 1140.21 258.536 1140.19 258.344C1140.18 258.152 1140.23 257.981 1140.33 257.832C1140.43 257.693 1140.57 257.613 1140.76 257.592C1140.97 257.56 1141.14 257.592 1141.29 257.688C1141.4 257.784 1141.5 257.891 1141.58 258.008C1141.68 258.125 1141.78 258.307 1141.9 258.552ZM1145.18 258.536C1145.26 258.707 1145.26 258.883 1145.18 259.064C1145.11 259.245 1144.98 259.363 1144.8 259.416C1144.67 259.48 1144.53 259.523 1144.38 259.544C1144.24 259.565 1144.04 259.565 1143.77 259.544C1143.55 259.523 1143.38 259.523 1143.28 259.544C1143.18 259.555 1143.09 259.576 1143 259.608L1142.88 259.272C1142.96 259.24 1143.05 259.192 1143.13 259.128C1143.22 259.064 1143.34 258.952 1143.48 258.792C1143.67 258.6 1143.82 258.461 1143.93 258.376C1144.05 258.291 1144.17 258.221 1144.3 258.168C1144.47 258.104 1144.64 258.109 1144.81 258.184C1144.99 258.259 1145.12 258.376 1145.18 258.536ZM1142.09 259.576L1142.22 259.88C1142.14 259.923 1142.05 259.976 1141.96 260.04C1141.89 260.104 1141.78 260.211 1141.63 260.36C1141.45 260.563 1141.3 260.707 1141.18 260.792C1141.06 260.877 1140.94 260.947 1140.8 261C1140.63 261.075 1140.45 261.075 1140.27 261C1140.1 260.925 1139.98 260.808 1139.92 260.648C1139.84 260.488 1139.84 260.317 1139.92 260.136C1139.99 259.944 1140.11 259.816 1140.28 259.752C1140.42 259.699 1140.56 259.661 1140.7 259.64C1140.85 259.619 1141.06 259.619 1141.32 259.64C1141.55 259.651 1141.71 259.651 1141.8 259.64C1141.91 259.629 1142.01 259.608 1142.09 259.576ZM1144.65 260.392C1144.8 260.499 1144.89 260.648 1144.91 260.84C1144.93 261.032 1144.89 261.203 1144.78 261.352C1144.67 261.491 1144.52 261.576 1144.33 261.608C1144.14 261.64 1143.97 261.597 1143.82 261.48C1143.7 261.384 1143.6 261.277 1143.5 261.16C1143.42 261.043 1143.31 260.861 1143.2 260.616C1143.1 260.424 1143.03 260.285 1142.97 260.2C1142.92 260.115 1142.86 260.045 1142.78 259.992L1142.97 259.72C1143.05 259.773 1143.13 259.821 1143.23 259.864C1143.32 259.896 1143.47 259.933 1143.68 259.976C1143.94 260.04 1144.15 260.104 1144.28 260.168C1144.42 260.221 1144.55 260.296 1144.65 260.392ZM1142.76 260.792C1142.85 261.048 1142.9 261.251 1142.91 261.4C1142.93 261.539 1142.93 261.683 1142.91 261.832C1142.88 262.013 1142.78 262.163 1142.62 262.28C1142.47 262.387 1142.31 262.429 1142.14 262.408C1141.96 262.387 1141.81 262.301 1141.69 262.152C1141.58 262.003 1141.53 261.832 1141.56 261.64C1141.59 261.491 1141.62 261.352 1141.68 261.224C1141.74 261.085 1141.84 260.899 1141.98 260.664C1142.1 260.493 1142.18 260.36 1142.22 260.264C1142.26 260.168 1142.3 260.077 1142.32 259.992L1142.65 260.056C1142.64 260.141 1142.64 260.237 1142.65 260.344C1142.66 260.44 1142.7 260.589 1142.76 260.792ZM1152.51 268.472V269H1146.71V268.472H1148.79V259.064H1146.71V258.552C1147.76 258.552 1148.57 258.477 1149.15 258.328C1149.73 258.168 1150.15 257.917 1150.41 257.576L1150.73 257.656C1150.67 257.816 1150.61 258.088 1150.57 258.472C1150.53 258.856 1150.51 259.261 1150.51 259.688V268.472H1152.51ZM1156.22 268.296C1156.22 269.053 1156.06 269.763 1155.74 270.424C1155.42 271.096 1154.97 271.661 1154.39 272.12L1153.96 271.752C1154.31 271.464 1154.62 271.075 1154.89 270.584C1155.16 270.104 1155.33 269.629 1155.38 269.16C1155.35 269.16 1155.29 269.16 1155.21 269.16C1155.13 269.171 1155.08 269.176 1155.06 269.176C1154.71 269.176 1154.43 269.069 1154.22 268.856C1154.01 268.632 1153.91 268.365 1153.91 268.056C1153.91 267.736 1154.01 267.464 1154.22 267.24C1154.42 267.016 1154.7 266.904 1155.06 266.904C1155.44 266.904 1155.72 267.027 1155.91 267.272C1156.11 267.517 1156.22 267.859 1156.22 268.296ZM1164.46 259.816C1164.76 260.339 1164.99 260.925 1165.15 261.576C1165.32 262.216 1165.4 262.845 1165.4 263.464C1165.4 264.083 1165.32 264.717 1165.15 265.368C1164.99 266.008 1164.76 266.595 1164.46 267.128C1164.09 267.789 1163.66 268.296 1163.15 268.648C1162.63 269 1162.07 269.176 1161.47 269.176C1160.86 269.176 1160.3 269 1159.79 268.648C1159.27 268.296 1158.84 267.789 1158.47 267.128C1158.17 266.595 1157.94 266.003 1157.77 265.352C1157.61 264.701 1157.53 264.072 1157.53 263.464C1157.53 262.845 1157.61 262.216 1157.77 261.576C1157.94 260.925 1158.17 260.339 1158.47 259.816C1158.84 259.155 1159.27 258.653 1159.79 258.312C1160.3 257.96 1160.86 257.784 1161.47 257.784C1162.07 257.784 1162.63 257.96 1163.15 258.312C1163.66 258.653 1164.09 259.155 1164.46 259.816ZM1163.08 259.432C1162.78 258.675 1162.24 258.296 1161.47 258.296C1160.69 258.296 1160.15 258.675 1159.85 259.432C1159.55 260.179 1159.4 261.523 1159.4 263.464C1159.4 265.384 1159.55 266.733 1159.85 267.512C1160.16 268.28 1160.7 268.664 1161.47 268.664C1162.24 268.664 1162.78 268.285 1163.08 267.528C1163.38 266.771 1163.53 265.416 1163.53 263.464C1163.53 261.533 1163.38 260.189 1163.08 259.432ZM1174.24 265.896C1174.24 266.781 1173.88 267.549 1173.15 268.2C1172.43 268.851 1171.51 269.176 1170.42 269.176C1169.32 269.176 1168.41 268.851 1167.68 268.2C1166.95 267.549 1166.59 266.781 1166.59 265.896C1166.59 265.128 1166.84 264.461 1167.34 263.896C1167.86 263.32 1168.56 262.925 1169.46 262.712C1168.68 262.531 1168.08 262.237 1167.66 261.832C1167.26 261.416 1167.06 260.915 1167.06 260.328C1167.06 259.613 1167.38 259.011 1168.02 258.52C1168.67 258.029 1169.46 257.784 1170.4 257.784C1171.34 257.784 1172.13 258.029 1172.78 258.52C1173.45 259.011 1173.78 259.613 1173.78 260.328C1173.78 260.915 1173.57 261.416 1173.15 261.832C1172.75 262.237 1172.15 262.531 1171.38 262.712C1172.27 262.925 1172.97 263.32 1173.47 263.896C1173.98 264.461 1174.24 265.128 1174.24 265.896ZM1168.86 260.328C1168.86 261 1169 261.528 1169.28 261.912C1169.56 262.285 1169.94 262.472 1170.42 262.472C1170.9 262.472 1171.27 262.285 1171.55 261.912C1171.83 261.528 1171.97 261 1171.97 260.328C1171.97 259.677 1171.83 259.176 1171.55 258.824C1171.27 258.472 1170.89 258.296 1170.4 258.296C1169.92 258.296 1169.54 258.477 1169.26 258.84C1169 259.192 1168.86 259.688 1168.86 260.328ZM1168.46 265.896C1168.45 266.76 1168.62 267.437 1168.96 267.928C1169.3 268.419 1169.79 268.664 1170.42 268.664C1171.05 268.664 1171.53 268.419 1171.87 267.928C1172.21 267.437 1172.38 266.76 1172.37 265.896C1172.36 264.968 1172.18 264.253 1171.84 263.752C1171.51 263.24 1171.03 262.984 1170.42 262.984C1169.8 262.984 1169.32 263.24 1168.98 263.752C1168.65 264.253 1168.47 264.968 1168.46 265.896ZM1184.28 268.616C1184.95 268.616 1185.43 268.328 1185.74 267.752C1186.05 267.176 1186.21 266.253 1186.22 264.984C1186.23 263.736 1186.08 262.829 1185.77 262.264C1185.46 261.688 1184.98 261.4 1184.32 261.4C1183.71 261.4 1183.22 261.709 1182.86 262.328C1182.5 262.936 1182.32 263.757 1182.32 264.792V265.72C1182.32 266.723 1182.47 267.459 1182.78 267.928C1183.09 268.387 1183.59 268.616 1184.28 268.616ZM1182.32 272.408H1184.09V273H1179.42V272.408H1180.67V261.576H1179.42V260.984C1180.21 260.984 1180.77 260.973 1181.1 260.952C1181.43 260.92 1181.67 260.856 1181.82 260.76L1182.04 260.904V263.24C1182.14 262.493 1182.42 261.901 1182.89 261.464C1183.36 261.016 1183.95 260.792 1184.67 260.792C1185.59 260.792 1186.36 261.187 1186.99 261.976C1187.63 262.755 1187.95 263.747 1187.95 264.952C1187.95 266.179 1187.61 267.192 1186.92 267.992C1186.25 268.781 1185.42 269.176 1184.43 269.176C1183.94 269.176 1183.52 269.085 1183.18 268.904C1182.84 268.723 1182.55 268.445 1182.32 268.072V272.408ZM1191.84 269H1188.62V268.472H1189.79L1192.19 265.096L1189.73 261.496H1188.78V260.984H1192.54V261.496H1191.44L1193.25 264.104L1195.06 261.496H1193.94V260.984H1196.9V261.496H1195.81L1193.62 264.616L1196.29 268.472H1197.15V269H1193.28V268.472H1194.53L1192.59 265.672L1190.62 268.472H1191.84V269Z" fill="#0E008B"/>
<path d="M235 240.667C232.054 240.667 229.667 243.054 229.667 246C229.667 248.946 232.054 251.333 235 251.333C237.946 251.333 240.333 248.946 240.333 246C240.333 243.054 237.946 240.667 235 240.667ZM407.707 246.707C408.098 246.317 408.098 245.683 407.707 245.293L401.343 238.929C400.953 238.538 400.319 238.538 399.929 238.929C399.538 239.319 399.538 239.953 399.929 240.343L405.586 246L399.929 251.657C399.538 252.047 399.538 252.681 399.929 253.071C400.319 253.462 400.953 253.462 401.343 253.071L407.707 246.707ZM235 246V247H407V246V245H235V246Z" fill="#0E008B"/>
<path d="M425 240.667C422.054 240.667 419.667 243.054 419.667 246C419.667 248.946 422.054 251.333 425 251.333C427.946 251.333 430.333 248.946 430.333 246C430.333 243.054 427.946 240.667 425 240.667ZM564.707 246.707C565.098 246.317 565.098 245.683 564.707 245.293L558.343 238.929C557.953 238.538 557.319 238.538 556.929 238.929C556.538 239.319 556.538 239.953 556.929 240.343L562.586 246L556.929 251.657C556.538 252.047 556.538 252.681 556.929 253.071C557.319 253.462 557.953 253.462 558.343 253.071L564.707 246.707ZM425 246V247H564V246V245H425V246Z" fill="#0E008B"/>
<path d="M582 240.667C579.054 240.667 576.667 243.054 576.667 246C576.667 248.946 579.054 251.333 582 251.333C584.946 251.333 587.333 248.946 587.333 246C587.333 243.054 584.946 240.667 582 240.667ZM754.707 246.707C755.098 246.317 755.098 245.683 754.707 245.293L748.343 238.929C747.953 238.538 747.319 238.538 746.929 238.929C746.538 239.319 746.538 239.953 746.929 240.343L752.586 246L746.929 251.657C746.538 252.047 746.538 252.681 746.929 253.071C747.319 253.462 747.953 253.462 748.343 253.071L754.707 246.707ZM582 246V247H754V246V245H582V246Z" fill="#0E008B"/>
<path d="M778 240.667C775.054 240.667 772.667 243.054 772.667 246C772.667 248.946 775.054 251.333 778 251.333C780.946 251.333 783.333 248.946 783.333 246C783.333 243.054 780.946 240.667 778 240.667ZM942.707 246.707C943.098 246.317 943.098 245.683 942.707 245.293L936.343 238.929C935.953 238.538 935.319 238.538 934.929 238.929C934.538 239.319 934.538 239.953 934.929 240.343L940.586 246L934.929 251.657C934.538 252.047 934.538 252.681 934.929 253.071C935.319 253.462 935.953 253.462 936.343 253.071L942.707 246.707ZM778 246V247H942V246V245H778V246Z" fill="#0E008B"/>
<path d="M962 240.667C959.054 240.667 956.667 243.054 956.667 246C956.667 248.946 959.054 251.333 962 251.333C964.946 251.333 967.333 248.946 967.333 246C967.333 243.054 964.946 240.667 962 240.667ZM1103.71 246.707C1104.1 246.317 1104.1 245.683 1103.71 245.293L1097.34 238.929C1096.95 238.538 1096.32 238.538 1095.93 238.929C1095.54 239.319 1095.54 239.953 1095.93 240.343L1101.59 246L1095.93 251.657C1095.54 252.047 1095.54 252.681 1095.93 253.071C1096.32 253.462 1096.95 253.462 1097.34 253.071L1103.71 246.707ZM962 246V247H1103V246V245H962V246Z" fill="#0E008B"/>
<path d="M1130 240.667C1127.05 240.667 1124.67 243.054 1124.67 246C1124.67 248.946 1127.05 251.333 1130 251.333C1132.95 251.333 1135.33 248.946 1135.33 246C1135.33 243.054 1132.95 240.667 1130 240.667ZM1280.71 246.707C1281.1 246.317 1281.1 245.683 1280.71 245.293L1274.34 238.929C1273.95 238.538 1273.32 238.538 1272.93 238.929C1272.54 239.319 1272.54 239.953 1272.93 240.343L1278.59 246L1272.93 251.657C1272.54 252.047 1272.54 252.681 1272.93 253.071C1273.32 253.462 1273.95 253.462 1274.34 253.071L1280.71 246.707ZM1130 246V247H1280V246V245H1130V246Z" fill="#0E008B"/>
</svg>
