<svg width="655" height="448" viewBox="0 0 655 448" fill="none" xmlns="http://www.w3.org/2000/svg">
<path d="M349.207 2.79297L342.866 27.6436L469.784 60.0244C493.452 66.0628 509.8 74.855 518.828 86.4014C527.906 97.7505 530.155 112.4 525.576 130.348C521.4 146.718 514.014 157.962 503.42 164.082C492.826 170.202 482.697 172.029 473.032 169.563C467.707 168.205 463.917 165.768 461.663 162.252C461.398 161.838 461.158 161.416 460.939 160.988V165.022L460.38 165.307C460.1 165.07 458.48 164.951 455.519 164.951V163.639H458.456V155.016C458.456 152.887 458.037 151.313 457.197 150.296C456.358 149.303 455.25 148.806 453.875 148.806C450.96 148.806 449.503 150.769 449.503 154.696V165.022L448.979 165.307C448.769 165.141 448.384 165.034 447.824 164.986C447.342 164.965 446.361 164.954 444.882 164.952L503.054 179.794C532.084 187.201 552.135 197.985 563.209 212.147C571.851 222.951 575.447 236.192 573.999 251.87H646.076C645.65 251.294 645.435 250.718 645.435 250.142C645.435 249.473 645.664 248.84 646.123 248.242C646.617 247.644 647.323 247.346 648.24 247.346C649.158 247.346 649.847 247.644 650.306 248.242C650.765 248.84 650.994 249.473 650.994 250.142C650.994 250.734 650.791 251.309 650.39 251.87H655V257.642H573.256C572.808 260.376 572.22 263.179 571.487 266.051C571.173 267.282 570.843 268.489 570.499 269.673C574.097 269.706 578.219 269.724 582.863 269.724V282.044H568.077V425.182H582.863V437.502H591.52V447.12H64.4424V437.502H75.9834V425.182H90.7705V296.34C84.9129 288.873 80.4494 279.18 77.3809 267.259H27.1777C29.577 270.175 30.7783 273.249 30.7783 276.484C30.7782 279.275 29.9547 285.184 28.3076 294.211C26.8252 303.074 25.3428 315.631 23.8604 331.88C22.3779 348.129 21.6367 366.595 21.6367 387.276H13.4834C13.4834 366.595 12.6599 348.129 11.0127 331.88C9.53028 315.467 7.96548 302.828 6.31836 293.965C4.6713 284.938 3.84775 279.111 3.84766 276.484C3.84766 273.409 4.97025 270.334 7.21289 267.259H0V261.488H76.0684C75.8133 260.191 75.5886 258.909 75.3955 257.642H0V251.87H6.46484C6.03833 251.294 5.82422 250.718 5.82422 250.142C5.82422 249.473 6.05294 248.84 6.51172 248.242C7.00586 247.644 7.7122 247.346 8.62988 247.346C9.54745 247.346 10.2355 247.644 10.6943 248.242C11.1532 248.84 11.3828 249.473 11.3828 250.142C11.3828 250.734 11.1805 251.309 10.7793 251.87H74.7227C73.5074 236.612 77.1302 223.691 85.5947 213.109C96.6683 198.947 116.721 188.162 145.751 180.756L207.628 164.969C206.994 164.958 206.074 164.951 204.868 164.951V163.639H207.526V154.235C207.526 149.433 209.52 147.031 213.507 147.031C216.631 147.031 218.636 148.569 219.522 151.645V147.315L220.047 147.031C220.467 147.339 221.819 147.493 224.104 147.493V148.806H221.446V161.443L301.425 141.038L294.855 115.292H133.68C133.108 119.388 133.465 123.958 134.751 129C136.738 136.789 139.738 143.08 143.748 147.875C144.646 147.313 145.777 147.031 147.142 147.031C150.266 147.031 152.271 148.569 153.157 151.645V147.315L153.682 147.031C154.101 147.339 155.453 147.493 157.738 147.493V148.806H155.08V156.343C156.857 156.992 158.567 157.266 160.213 157.165C160.072 148.378 163.946 142.979 171.835 140.966C175.78 139.959 179.237 140.338 182.208 142.101C185.178 143.863 187.192 146.816 188.249 150.957C189.406 155.493 188.857 159.52 186.604 163.036C184.35 166.552 180.56 168.989 175.235 170.348C165.571 172.813 155.441 170.986 144.847 164.866C144.441 164.632 144.04 164.389 143.644 164.14V165.022L143.119 165.307C142.909 165.141 142.524 165.034 141.965 164.986C141.429 164.963 140.274 164.951 138.502 164.951V163.639H141.16V162.432C132.521 155.963 126.364 145.531 122.69 131.132C118.111 113.184 120.361 98.5347 129.439 87.1855C138.468 75.6393 154.816 66.847 178.483 60.8086L305.4 28.4277L299.061 3.57617L310.007 0.78418L321.337 45.1943C322.252 45.1183 323.184 45.0791 324.134 45.0791C325.015 45.0791 325.882 45.1132 326.732 45.1787L338.261 0L349.207 2.79297ZM17.1895 411.896C21.472 411.897 24.6839 413.292 26.8252 416.082C28.9664 418.872 30.0371 421.827 30.0371 424.945C30.0371 427.9 28.9665 430.772 26.8252 433.562C24.6839 436.189 21.4719 437.502 17.1895 437.502C12.907 437.502 9.61265 436.107 7.30664 433.316C5.16537 430.526 4.09475 427.736 4.09473 424.945C4.09473 421.827 5.16534 418.872 7.30664 416.082C9.61266 413.292 12.9069 411.896 17.1895 411.896ZM155.213 306.878C152.403 310.798 147.922 313.544 141.767 315.114C133.765 317.156 125.504 316.794 116.982 314.037V425.182H131.77V437.502H140.426V425.182H155.213V334.555C151.511 336.109 149.659 340.12 149.659 346.591V368.981L148.505 369.598C148.043 369.239 147.197 369.008 145.966 368.905C144.786 368.854 142.247 368.828 138.349 368.828V365.981H144.196V345.591C144.196 336.062 147.868 330.893 155.213 330.083V306.878ZM91.4434 261.488C91.6368 262.443 91.8592 263.413 92.1104 264.397C92.4197 265.61 92.7503 266.793 93.0996 267.946L94.1309 267.26C96.0725 268.305 99.3583 268.977 103.988 269.275C108.469 269.574 117.73 269.724 131.77 269.724V281.397C133.458 280.409 135.401 279.634 137.597 279.074C142.435 277.84 146.676 278.305 150.319 280.467C152.296 281.64 153.927 283.242 155.213 285.274V269.5L158.573 267.26C160.515 268.305 163.801 268.977 168.431 269.275C172.911 269.574 182.172 269.724 196.212 269.724V282.044H181.425V425.182H196.212V437.502H204.868V425.182H219.654V333.821C213.387 333.917 210.254 338.173 210.254 346.591V368.981L209.1 369.598C208.638 369.239 207.792 369.008 206.561 368.905C205.381 368.854 202.842 368.828 198.943 368.828V365.981H204.791V345.591C204.791 335.178 209.177 329.971 217.948 329.971C218.535 329.971 219.104 329.996 219.654 330.045V269.5L223.015 267.26C224.956 268.305 228.243 268.977 232.873 269.275C237.354 269.574 246.614 269.724 260.653 269.724V282.044H245.867V425.182H259.186V402.81H254.883V400.953H267.133V402.81H262.982V416.961H280.446V402.81H276.245V400.953H284.097V369.119C282.321 368.925 279.431 368.828 275.427 368.828V365.981H281.891V347.283C281.891 342.667 280.967 339.256 279.12 337.05C277.273 334.895 274.837 333.817 271.811 333.817C265.398 333.817 262.192 338.076 262.192 346.591V368.981L261.038 369.598C260.576 369.239 259.73 369.008 258.499 368.905C257.319 368.854 254.78 368.828 250.882 368.828V365.981H256.729V345.591C256.729 335.178 261.115 329.971 269.887 329.971C276.761 329.971 281.173 333.305 283.122 339.974V330.586L284.097 330.065V269.5L287.457 267.26C289.399 268.305 292.685 268.977 297.314 269.275C301.795 269.574 311.056 269.724 325.096 269.724V282.044H310.309V365.981H313.477V345.591C313.477 335.178 317.862 329.971 326.634 329.971C333.508 329.971 337.92 333.305 339.869 339.974V330.586L341.023 329.971C341.857 330.572 344.362 330.901 348.538 330.96V269.5L351.899 267.26C353.841 268.305 357.127 268.977 361.757 269.275C366.238 269.574 375.498 269.724 389.538 269.724V282.044H374.751V331.375C376.592 330.439 378.828 329.971 381.458 329.971C388.332 329.971 392.743 333.305 394.692 339.974V330.586L395.847 329.971C396.77 330.638 399.745 330.971 404.772 330.971V333.817H398.925V368.981L397.693 369.598C397.078 369.085 393.512 368.828 386.998 368.828V365.981H393.462V347.283C393.462 342.667 392.538 339.256 390.691 337.05C388.845 334.895 386.408 333.817 383.382 333.817C379.022 333.817 376.146 335.787 374.751 339.724V400.953H379.666V402.81H375.516V416.961H392.979V402.81H388.778V400.953H401.079V402.81H396.776V433.722H398.194V425.182H412.98V269.5L416.341 267.26C418.283 268.305 421.569 268.977 426.199 269.275C430.68 269.574 439.94 269.724 453.979 269.724V282.044H439.193V330.194C444.417 331.041 447.858 334.3 449.517 339.974V330.586L450.671 329.971C451.594 330.637 454.57 330.971 459.597 330.971V333.817H453.749V368.981L452.518 369.598C451.902 369.085 448.337 368.828 441.822 368.828V365.981H448.285V347.283C448.285 342.667 447.362 339.256 445.516 337.05C443.874 335.135 441.767 334.072 439.193 333.859V425.182H453.979V437.502H462.636V425.182H477.423V269.5L480.783 267.26C482.725 268.305 486.011 268.977 490.641 269.275C495.121 269.574 504.382 269.724 518.422 269.724V281.337C523.238 284.802 525.586 290.35 525.463 297.982C530.441 298.289 535.908 295.796 541.864 290.503V269.5L545.225 267.26C547.151 268.297 550.401 268.965 554.975 269.268C555.603 267.406 556.177 265.462 556.694 263.436C556.862 262.78 557.016 262.131 557.157 261.488H91.4434ZM262.982 433.722H267.133V435.578H260.653V437.502H269.31V425.182H280.446V418.817H262.982V433.722ZM320.691 425.182H325.096V437.502H333.752V425.182H338.156V418.817H320.691V425.182ZM389.538 435.578V437.502H398.194V435.578H389.538ZM541.864 308.782C529.754 315.196 518.145 316.986 507.037 314.152C505.84 313.847 504.706 313.496 503.635 313.102V331.41C506.742 332.98 508.901 335.834 510.111 339.974V330.586L511.266 329.971C512.189 330.637 515.165 330.971 520.191 330.971V333.817H514.344V368.981L513.112 369.598C512.536 369.118 509.377 368.865 503.635 368.834V425.182H518.422V437.502H527.078V425.182H541.864V308.782ZM641.411 411.896C645.694 411.896 648.906 413.292 651.047 416.082C653.188 418.872 654.259 421.827 654.259 424.945C654.259 427.9 653.188 430.772 651.047 433.562C648.906 436.189 645.694 437.502 641.411 437.502C637.129 437.502 633.834 436.107 631.528 433.316C629.387 430.526 628.316 427.736 628.316 424.945C628.316 421.827 629.387 418.872 631.528 416.082C633.834 413.292 637.129 411.896 641.411 411.896ZM375.516 425.182H389.538V433.722H392.979V418.817H375.516V425.182ZM344.101 368.981L342.87 369.598C342.255 369.085 338.689 368.828 332.174 368.828V365.981H338.638V347.283C338.638 342.666 337.714 339.256 335.867 337.05C334.021 334.895 331.584 333.817 328.558 333.817C322.146 333.817 318.939 338.076 318.939 346.591V368.981L317.785 369.598C317.323 369.239 316.477 369.008 315.246 368.905C314.363 368.867 312.717 368.843 310.309 368.833V425.182H316.895V402.81H312.592V400.953H324.843V402.81H320.691V416.961H338.156V402.81H333.954V400.953H346.256V402.81H341.953V425.182H348.538V333.817H344.101V368.981ZM655 267.259H651.399C653.799 270.175 655 273.249 655 276.484C655 279.275 654.176 285.184 652.529 294.211C651.047 303.074 649.564 315.631 648.082 331.88C646.6 348.129 645.858 366.595 645.858 387.276H637.705C637.705 366.595 636.882 348.129 635.234 331.88C633.752 315.467 632.187 302.828 630.54 293.965C628.893 284.938 628.069 279.111 628.069 276.484C628.069 273.409 629.192 270.334 631.435 267.259H573.245V261.488H655V267.259ZM80.3701 329.971C81.2939 330.637 84.2694 330.971 89.2959 330.971V333.817H83.4473V368.981L82.2168 369.598C81.6012 369.085 78.0359 368.828 71.5215 368.828V365.981H77.9844V347.283C77.9844 342.667 77.0613 339.256 75.2148 337.05C73.3681 334.895 70.9308 333.817 67.9043 333.817C61.4923 333.818 58.2861 338.076 58.2861 346.591V368.981L57.1318 369.598C56.6701 369.239 55.8238 369.008 54.5928 368.905C53.4129 368.854 50.8738 368.828 46.9756 368.828V365.981H52.8232V345.591C52.8232 335.178 57.209 329.971 65.9805 329.971C72.8543 329.971 77.2665 333.305 79.2158 339.974V330.586L80.3701 329.971ZM602.639 329.971C603.562 330.637 606.538 330.971 611.564 330.971V333.817H605.717V368.981L604.485 369.598C603.87 369.085 600.305 368.828 593.79 368.828V365.981H600.253V347.283C600.253 342.667 599.33 339.256 597.483 337.05C595.637 334.895 593.2 333.817 590.174 333.817C583.762 333.817 580.556 338.076 580.556 346.591V368.981L579.401 369.598C578.94 369.239 578.093 369.008 576.862 368.905C575.682 368.854 573.143 368.828 569.244 368.828V365.981H575.092V345.591C575.092 335.178 579.478 329.971 588.25 329.971C595.124 329.971 599.535 333.305 601.484 339.974V330.586L602.639 329.971ZM503.635 365.981H508.88V347.283C508.88 342.667 507.957 339.256 506.11 337.05C505.378 336.196 504.552 335.513 503.635 334.997V365.981ZM116.982 297.912C119.184 298.725 121.303 299.07 123.341 298.944C123.215 291.122 125.684 285.489 130.747 282.044H116.982V297.912ZM96.0869 234.558C92.438 239.424 90.5672 245.194 90.4756 251.87H558.329C558.406 245.225 556.765 239.455 553.407 234.558H96.0869ZM8.62988 215.321C9.54754 215.321 10.2539 215.655 10.748 216.323C11.2774 216.956 11.5419 217.625 11.542 218.328C11.542 218.926 11.3656 220.193 11.0127 222.127C10.695 224.026 10.3772 226.717 10.0596 230.199C9.74192 233.681 9.58301 237.638 9.58301 242.069H7.83594C7.83593 237.638 7.65958 233.681 7.30664 230.199C6.98898 226.682 6.65374 223.974 6.30078 222.074C5.94782 220.14 5.77051 218.891 5.77051 218.328C5.77059 217.66 6.01765 216.991 6.51172 216.323C7.00586 215.655 7.71222 215.321 8.62988 215.321ZM648.24 215.321C649.158 215.321 649.864 215.655 650.358 216.323C650.888 216.956 651.152 217.625 651.152 218.328C651.152 218.926 650.976 220.193 650.623 222.127C650.305 224.026 649.988 226.717 649.67 230.199C649.352 233.681 649.193 237.638 649.193 242.069H647.446C647.446 237.638 647.27 233.681 646.917 230.199C646.599 226.682 646.264 223.974 645.911 222.074C645.558 220.14 645.382 218.891 645.382 218.328C645.382 217.66 645.629 216.991 646.123 216.323C646.617 215.655 647.323 215.321 648.24 215.321ZM331.825 201.04L326.286 199.627L316.979 202.002L308.368 168.254L305.56 168.97C305.678 170.247 305.546 171.345 305.161 172.263C304.633 173.56 303.645 174.375 302.197 174.709C301.063 174.97 300.063 174.815 299.196 174.243C298.347 173.667 297.687 172.873 297.215 171.861C297.303 173.201 297.078 174.419 296.541 175.517C296.021 176.61 295.141 177.3 293.902 177.585C292.21 177.975 290.828 177.714 289.755 176.804C289.17 176.315 288.666 175.615 288.242 174.704C288.367 175.997 288.237 177.107 287.849 178.034C287.321 179.332 286.333 180.148 284.885 180.481C283.751 180.743 282.75 180.587 281.884 180.015C281.035 179.439 280.373 178.645 279.901 177.633C279.989 178.972 279.765 180.191 279.228 181.288C278.708 182.382 277.829 183.071 276.59 183.356C274.898 183.746 273.515 183.485 272.441 182.575C271.877 182.104 271.389 181.435 270.975 180.57C270.96 181.422 270.814 182.18 270.536 182.844C270.008 184.141 269.019 184.956 267.571 185.29C266.437 185.551 265.437 185.396 264.57 184.824C263.721 184.248 263.061 183.454 262.589 182.442C262.677 183.782 262.452 185 261.915 186.098C261.395 187.191 260.516 187.88 259.277 188.165C257.585 188.555 256.202 188.295 255.129 187.385C254.565 186.913 254.076 186.245 253.662 185.381C253.647 186.232 253.501 186.989 253.223 187.652C252.695 188.95 251.707 189.765 250.259 190.099C249.125 190.36 248.124 190.205 247.258 189.633C246.409 189.057 245.748 188.263 245.276 187.251C245.364 188.59 245.14 189.809 244.603 190.906C244.083 192 243.203 192.689 241.965 192.975C240.273 193.364 238.89 193.104 237.816 192.193C237.252 191.722 236.763 191.053 236.349 190.188C236.334 191.039 236.188 191.797 235.91 192.461C235.382 193.758 234.394 194.574 232.946 194.907C231.812 195.168 230.812 195.013 229.945 194.441C229.096 193.865 228.435 193.072 227.963 192.06C228.051 193.399 227.826 194.617 227.289 195.715C226.769 196.808 225.89 197.497 224.651 197.782C222.959 198.172 221.576 197.912 220.503 197.002C219.918 196.514 219.415 195.814 218.991 194.904C219.116 196.197 218.986 197.306 218.598 198.232C218.07 199.53 217.082 200.345 215.634 200.679C214.5 200.94 213.499 200.785 212.632 200.213C211.783 199.637 211.122 198.842 210.65 197.83C210.738 199.169 210.514 200.388 209.977 201.485C209.457 202.579 208.578 203.268 207.339 203.554C205.647 203.944 204.264 203.684 203.19 202.773C202.626 202.302 202.138 201.633 201.724 200.769C201.709 201.62 201.563 202.378 201.285 203.042C200.757 204.339 199.768 205.155 198.32 205.488C197.186 205.749 196.186 205.594 195.319 205.022C194.47 204.446 193.81 203.652 193.338 202.64C193.426 203.979 193.201 205.198 192.664 206.295C192.144 207.388 191.265 208.078 190.026 208.363C188.334 208.753 186.951 208.493 185.878 207.583C185.692 207.428 185.515 207.25 185.346 207.053C185.291 207.699 185.155 208.285 184.934 208.812C184.406 210.11 183.418 210.925 181.97 211.259C180.836 211.52 179.835 211.365 178.969 210.793C178.12 210.217 177.458 209.423 176.986 208.411C177.074 209.75 176.85 210.969 176.312 212.066C175.793 213.16 174.913 213.849 173.675 214.135C171.983 214.524 170.6 214.264 169.526 213.354C169.296 213.161 169.08 212.935 168.875 212.677C168.803 213.01 168.707 213.326 168.583 213.622C168.055 214.919 167.067 215.735 165.619 216.068C164.485 216.33 163.484 216.175 162.617 215.603C161.768 215.027 161.108 214.232 160.636 213.22C160.724 214.559 160.499 215.778 159.962 216.875C159.442 217.968 158.563 218.658 157.324 218.943C155.632 219.333 154.249 219.073 153.176 218.163C152.611 217.692 152.123 217.023 151.709 216.158C151.694 217.01 151.548 217.767 151.27 218.431C150.742 219.728 149.754 220.543 148.306 220.877C147.172 221.138 146.171 220.983 145.305 220.411C144.456 219.835 143.795 219.041 143.323 218.029C143.411 219.368 143.187 220.587 142.649 221.685C142.13 222.778 141.25 223.468 140.012 223.753C138.319 224.143 136.936 223.882 135.863 222.972C134.794 222.079 133.994 220.481 133.464 218.178L132.391 213.521C132.276 213.557 132.163 213.594 132.049 213.631L133.114 218.252C133.58 220.276 133.54 221.939 132.995 223.24C132.467 224.538 131.479 225.353 130.031 225.687C128.897 225.948 127.897 225.793 127.03 225.221C126.181 224.645 125.521 223.85 125.049 222.838C125.137 224.177 124.912 225.396 124.375 226.493C123.855 227.587 122.975 228.276 121.736 228.562C120.044 228.951 118.662 228.691 117.589 227.781C116.52 226.888 115.719 225.29 115.188 222.987L114.631 220.565C109.501 223.114 105.187 225.854 101.688 228.786H548.227C545.477 226.324 542.17 223.995 538.303 221.796L538.029 222.987C537.499 225.29 536.699 226.888 535.63 227.781C534.557 228.691 533.174 228.951 531.481 228.562C530.243 228.276 529.363 227.587 528.843 226.493C528.306 225.396 528.081 224.177 528.169 222.838C527.697 223.85 527.037 224.645 526.188 225.221C525.321 225.793 524.32 225.948 523.187 225.687C521.739 225.353 520.751 224.538 520.223 223.24C519.677 221.939 519.637 220.276 520.104 218.252L521.055 214.121C520.942 214.081 520.829 214.042 520.716 214.002L519.754 218.178C519.223 220.481 518.424 222.079 517.354 222.972C516.281 223.882 514.898 224.143 513.206 223.753C511.967 223.468 511.088 222.778 510.568 221.685C510.031 220.587 509.807 219.368 509.895 218.029C509.423 219.041 508.762 219.835 507.913 220.411C507.046 220.983 506.046 221.138 504.912 220.877C503.464 220.543 502.475 219.728 501.947 218.431C501.669 217.767 501.523 217.01 501.508 216.158C501.094 217.023 500.606 217.692 500.042 218.163C498.969 219.073 497.586 219.333 495.894 218.943C494.655 218.658 493.776 217.968 493.256 216.875C492.719 215.778 492.494 214.559 492.582 213.22C492.11 214.232 491.45 215.027 490.601 215.603C489.734 216.175 488.733 216.33 487.599 216.068C486.151 215.735 485.163 214.919 484.635 213.622C484.511 213.326 484.414 213.01 484.342 212.677C484.137 212.934 483.922 213.161 483.691 213.354C482.618 214.264 481.235 214.524 479.543 214.135C478.304 213.849 477.424 213.16 476.904 212.066C476.367 210.969 476.143 209.75 476.231 208.411C475.759 209.423 475.098 210.217 474.249 210.793C473.382 211.365 472.382 211.52 471.248 211.259C469.8 210.925 468.812 210.11 468.284 208.812C468.063 208.285 467.926 207.699 467.871 207.053C467.702 207.25 467.526 207.428 467.34 207.583C466.267 208.493 464.884 208.753 463.191 208.363C461.953 208.078 461.073 207.388 460.554 206.295C460.017 205.197 459.792 203.979 459.88 202.64C459.408 203.652 458.748 204.446 457.898 205.022C457.032 205.594 456.031 205.749 454.897 205.488C453.449 205.155 452.461 204.339 451.933 203.042C451.654 202.378 451.508 201.62 451.493 200.769C451.079 201.633 450.592 202.302 450.027 202.773C448.954 203.684 447.571 203.944 445.879 203.554C444.64 203.268 443.761 202.579 443.241 201.485C442.704 200.388 442.479 199.169 442.567 197.83C442.095 198.842 441.434 199.637 440.585 200.213C439.718 200.785 438.718 200.94 437.584 200.679C436.136 200.345 435.148 199.53 434.62 198.232C434.232 197.306 434.101 196.195 434.226 194.902C433.802 195.813 433.3 196.513 432.715 197.002C431.642 197.912 430.259 198.172 428.566 197.782C427.328 197.497 426.448 196.808 425.928 195.715C425.391 194.617 425.166 193.399 425.254 192.06C424.782 193.071 424.122 193.865 423.272 194.441C422.406 195.013 421.405 195.168 420.271 194.907C418.823 194.574 417.836 193.758 417.308 192.461C417.029 191.797 416.883 191.039 416.868 190.188C416.454 191.053 415.966 191.722 415.401 192.193C414.328 193.104 412.945 193.364 411.253 192.975C410.014 192.689 409.135 192 408.615 190.906C408.078 189.809 407.853 188.59 407.941 187.251C407.469 188.263 406.809 189.057 405.96 189.633C405.093 190.205 404.093 190.36 402.959 190.099C401.511 189.765 400.522 188.95 399.994 187.652C399.716 186.989 399.57 186.231 399.555 185.38C399.14 186.244 398.653 186.913 398.089 187.385C397.016 188.295 395.633 188.555 393.94 188.165C392.702 187.88 391.823 187.191 391.303 186.098C390.766 185 390.541 183.782 390.629 182.442C390.157 183.454 389.496 184.248 388.647 184.824C387.781 185.396 386.78 185.551 385.646 185.29C384.198 184.956 383.21 184.141 382.682 182.844C382.403 182.18 382.257 181.421 382.242 180.569C381.828 181.434 381.341 182.104 380.776 182.575C379.703 183.485 378.32 183.746 376.628 183.356C375.389 183.071 374.51 182.381 373.99 181.288C373.453 180.191 373.228 178.972 373.316 177.633C372.844 178.645 372.183 179.439 371.334 180.015C370.467 180.587 369.467 180.743 368.333 180.481C366.885 180.148 365.897 179.332 365.369 178.034C364.981 177.108 364.849 175.998 364.974 174.706C364.55 175.616 364.047 176.316 363.463 176.804C362.39 177.714 361.007 177.975 359.315 177.585C358.077 177.3 357.197 176.61 356.677 175.517C356.14 174.419 355.915 173.201 356.003 171.861C355.531 172.873 354.871 173.667 354.021 174.243C353.155 174.815 352.155 174.97 351.021 174.709C349.572 174.375 348.585 173.56 348.057 172.263C347.688 171.384 347.55 170.34 347.644 169.131L340.436 167.292L331.825 201.04ZM117.857 219.037C117.07 219.393 116.3 219.752 115.547 220.116L116.151 222.738C116.525 224.361 117.165 225.463 118.07 226.044C118.98 226.643 120.028 226.805 121.214 226.532C122.418 226.255 123.26 225.602 123.739 224.573C124.223 223.562 124.297 222.331 123.964 220.883L123.253 217.795L117.857 219.037ZM529.254 220.883C528.92 222.331 528.995 223.562 529.479 224.573C529.958 225.602 530.8 226.255 532.004 226.532C533.19 226.805 534.238 226.643 535.147 226.044C536.053 225.463 536.693 224.361 537.066 222.738L537.399 221.292C535.32 220.146 533.087 219.037 530.698 217.964L529.965 217.795L529.254 220.883ZM298.118 183.779C304.099 182.077 307.646 183.183 308.76 187.097C309.27 188.89 309.15 190.533 308.399 192.024C307.679 193.463 306.251 194.884 304.118 196.284C304.682 197.313 305.15 198.48 305.521 199.784C306.612 203.616 306.471 207.249 305.097 210.681C303.681 214.124 301.527 216.962 298.636 219.195C295.691 221.399 292.274 223.056 288.385 224.163C284.495 225.27 280.739 225.656 277.117 225.32C273.442 224.956 270.116 223.677 267.141 221.483C264.123 219.301 262.069 216.295 260.979 212.463C259.888 208.631 260.036 205.019 261.422 201.628C262.796 198.196 264.949 195.357 267.882 193.112C270.815 190.867 274.227 189.192 278.116 188.085C282.675 186.787 287.124 186.534 291.464 187.326C295.762 188.13 299.24 190.027 301.899 193.016C303.691 191.845 304.888 190.887 305.49 190.143C306.081 189.358 306.23 188.456 305.94 187.437C305.337 185.317 302.944 184.852 298.762 186.042L298.118 183.779ZM340.746 187.097C341.86 183.183 345.407 182.077 351.388 183.779L350.744 186.042C346.562 184.852 344.169 185.317 343.565 187.437C343.275 188.456 343.425 189.358 344.016 190.143C344.618 190.887 345.815 191.845 347.606 193.016C350.266 190.027 353.744 188.13 358.042 187.326C362.382 186.534 366.831 186.787 371.39 188.085C375.279 189.192 378.691 190.867 381.624 193.112C384.557 195.357 386.71 198.196 388.084 201.628C389.47 205.019 389.618 208.631 388.527 212.463C387.437 216.295 385.382 219.301 382.365 221.483C379.39 223.677 376.064 224.956 372.389 225.32C368.767 225.656 365.011 225.27 361.121 224.163C357.231 223.056 353.815 221.4 350.87 219.195C347.979 216.962 345.825 214.124 344.409 210.681C343.035 207.249 342.894 203.616 343.984 199.784C344.356 198.48 344.824 197.313 345.388 196.284C343.254 194.884 341.827 193.463 341.106 192.024C340.356 190.533 340.236 188.89 340.746 187.097ZM319.898 205.79C317.395 205.79 315.369 206.674 313.819 208.441C312.27 210.239 311.494 212.463 311.494 215.113C311.494 217.398 311.986 219.105 312.97 220.232C313.953 221.36 315.235 221.923 316.814 221.923C318.603 221.923 320.078 221.329 321.24 220.141C322.402 218.952 323.386 216.85 324.19 213.834C325.114 210.422 326.187 207.923 327.409 206.339C328.661 204.755 330.554 203.963 333.087 203.963C335.501 203.963 337.498 204.831 339.077 206.567C340.657 208.304 341.446 210.696 341.446 213.742C341.446 217.276 340.492 219.79 338.585 221.283L341.446 222.426V224.025H331.388V221.969C334.189 221.969 336.26 221.192 337.602 219.639C338.973 218.115 339.658 216.165 339.658 213.788C339.658 211.655 339.137 209.979 338.094 208.761C337.051 207.542 335.694 206.933 334.025 206.933C332.953 206.933 332.029 207.116 331.254 207.481C330.509 207.878 329.853 208.518 329.287 209.401C328.751 210.285 328.318 211.153 327.99 212.006C327.662 212.889 327.275 214.078 326.828 215.57C326.381 217.124 325.948 218.374 325.531 219.318C325.144 220.293 324.607 221.253 323.922 222.197C323.266 223.142 322.432 223.827 321.419 224.254C320.406 224.711 319.199 224.939 317.798 224.939C315.503 224.939 313.581 224.148 312.031 222.563C310.482 221.01 309.706 218.526 309.706 215.113C309.706 211.457 310.735 208.654 312.791 206.704L309.706 205.333V203.779H319.898V205.79ZM212.722 209.066C214.125 208.681 215.425 208.868 216.62 209.626C217.816 210.384 218.656 211.648 219.143 213.42C219.706 215.475 219.554 217.089 218.683 218.262L220.528 218.469L220.783 219.399L214.935 221.004L214.606 219.809C216.235 219.362 217.316 218.579 217.848 217.462C218.402 216.357 218.49 215.113 218.11 213.731C217.77 212.491 217.199 211.6 216.398 211.058C215.598 210.516 214.712 210.378 213.741 210.645C213.117 210.816 212.609 211.069 212.217 211.405C211.847 211.754 211.568 212.231 211.38 212.835C211.209 213.434 211.096 214.008 211.041 214.557C210.991 215.123 210.956 215.876 210.935 216.815C210.923 217.79 210.87 218.585 210.778 219.201C210.709 219.83 210.55 220.473 210.302 221.132C210.071 221.786 209.695 222.318 209.174 222.728C208.658 223.155 207.992 223.481 207.178 223.704C205.843 224.07 204.599 223.916 203.445 223.242C202.296 222.586 201.45 221.265 200.905 219.281C200.322 217.155 200.473 215.361 201.357 213.899L199.345 213.594L199.097 212.69L205.023 211.064L205.345 212.233C203.889 212.633 202.852 213.47 202.232 214.745C201.618 216.038 201.522 217.455 201.945 218.996C202.31 220.325 202.867 221.239 203.619 221.737C204.371 222.236 205.207 222.358 206.125 222.106C207.165 221.821 207.928 221.241 208.414 220.364C208.9 219.488 209.136 218.108 209.123 216.226C209.116 214.094 209.341 212.471 209.799 211.354C210.274 210.234 211.249 209.471 212.722 209.066ZM434.243 209.626C435.439 208.868 436.738 208.681 438.142 209.066C439.615 209.471 440.589 210.234 441.064 211.354C441.522 212.471 441.747 214.094 441.74 216.226C441.727 218.108 441.963 219.488 442.449 220.364C442.935 221.241 443.699 221.821 444.738 222.106C445.657 222.358 446.492 222.236 447.244 221.737C447.996 221.239 448.554 220.325 448.919 218.996C449.342 217.455 449.245 216.038 448.631 214.745C448.012 213.47 446.974 212.633 445.519 212.233L445.84 211.064L451.767 212.69L451.519 213.594L449.506 213.899C450.39 215.361 450.541 217.155 449.958 219.281C449.414 221.265 448.567 222.586 447.418 223.242C446.264 223.916 445.02 224.07 443.686 223.704C442.871 223.481 442.206 223.155 441.689 222.728C441.168 222.318 440.792 221.786 440.562 221.132C440.314 220.473 440.155 219.83 440.085 219.201C439.993 218.585 439.941 217.79 439.929 216.815C439.907 215.876 439.872 215.123 439.822 214.557C439.768 214.008 439.654 213.434 439.483 212.835C439.295 212.231 439.016 211.754 438.646 211.405C438.254 211.069 437.746 210.816 437.122 210.645C436.152 210.378 435.266 210.515 434.465 211.058C433.664 211.6 433.093 212.491 432.753 213.731C432.374 215.113 432.461 216.357 433.016 217.462C433.548 218.579 434.628 219.362 436.257 219.809L435.929 221.004L430.08 219.399L430.335 218.469L432.181 218.262C431.31 217.089 431.157 215.475 431.721 213.42C432.207 211.648 433.048 210.384 434.243 209.626ZM124.143 217.59L124.739 220.181C125.073 221.629 125.654 222.635 126.481 223.197C127.331 223.773 128.314 223.933 129.431 223.676C130.512 223.427 131.318 222.854 131.847 221.961C132.38 221.085 132.477 219.914 132.14 218.449L131.549 215.884L124.143 217.59ZM521.078 218.449C520.741 219.914 520.838 221.085 521.371 221.961C521.9 222.854 522.706 223.427 523.787 223.676C524.904 223.933 525.887 223.773 526.736 223.197C527.564 222.635 528.145 221.629 528.479 220.181L529.075 217.59L521.669 215.884L521.078 218.449ZM243.814 198.473C246.142 197.834 248.298 198.143 250.28 199.399C252.263 200.656 253.658 202.754 254.464 205.692C255.399 209.101 255.145 211.777 253.7 213.722L256.762 214.066L257.185 215.608L247.484 218.271L246.94 216.287C249.642 215.546 251.434 214.248 252.316 212.395C253.235 210.563 253.381 208.501 252.752 206.21C252.188 204.153 251.24 202.675 249.912 201.775C248.584 200.876 247.115 200.647 245.506 201.089C244.471 201.373 243.628 201.794 242.978 202.352C242.364 202.931 241.901 203.721 241.589 204.723C241.305 205.717 241.119 206.669 241.028 207.578C240.946 208.517 240.887 209.765 240.851 211.323C240.831 212.94 240.744 214.259 240.592 215.28C240.476 216.323 240.213 217.39 239.802 218.482C239.419 219.567 238.796 220.449 237.932 221.128C237.075 221.837 235.972 222.376 234.621 222.747C232.408 223.354 230.344 223.099 228.431 221.981C226.525 220.893 225.121 218.704 224.218 215.413C223.25 211.887 223.501 208.912 224.968 206.487L221.63 205.981L221.219 204.482L231.048 201.785L231.58 203.725C229.166 204.387 227.446 205.776 226.419 207.89C225.4 210.033 225.241 212.383 225.942 214.939C226.547 217.143 227.473 218.658 228.72 219.485C229.966 220.312 231.351 220.516 232.874 220.099C234.598 219.626 235.864 218.662 236.671 217.209C237.477 215.756 237.87 213.468 237.848 210.347C237.836 206.812 238.209 204.118 238.968 202.267C239.756 200.408 241.371 199.143 243.814 198.473ZM399.569 199.399C401.552 198.143 403.707 197.834 406.035 198.473C408.478 199.143 410.094 200.408 410.882 202.267C411.641 204.118 412.014 206.812 412.002 210.347C411.98 213.468 412.372 215.756 413.179 217.209C413.985 218.662 415.251 219.626 416.976 220.099C418.499 220.516 419.883 220.312 421.13 219.485C422.377 218.658 423.303 217.143 423.907 214.939C424.609 212.383 424.45 210.033 423.431 207.89C422.404 205.776 420.684 204.387 418.27 203.725L418.802 201.785L428.631 204.482L428.22 205.981L424.882 206.487C426.349 208.912 426.599 211.887 425.632 215.413C424.729 218.704 423.324 220.893 421.419 221.981C419.505 223.099 417.442 223.354 415.229 222.747C413.878 222.376 412.774 221.837 411.918 221.128C411.054 220.449 410.43 219.567 410.048 218.482C409.637 217.39 409.373 216.323 409.258 215.28C409.105 214.259 409.019 212.94 408.999 211.323C408.963 209.765 408.904 208.517 408.821 207.578C408.731 206.669 408.544 205.717 408.261 204.723C407.949 203.721 407.486 202.931 406.872 202.352C406.222 201.794 405.378 201.373 404.344 201.089C402.734 200.647 401.266 200.876 399.938 201.775C398.609 202.675 397.662 204.153 397.098 206.21C396.469 208.501 396.614 210.563 397.533 212.395C398.415 214.248 400.208 215.546 402.909 216.287L402.365 218.271L392.665 215.608L393.088 214.066L396.149 213.722C394.705 211.777 394.451 209.101 395.386 205.692C396.192 202.754 397.587 200.656 399.569 199.399ZM133.702 214.788L134.426 217.929C134.8 219.551 135.439 220.653 136.345 221.234C137.254 221.833 138.303 221.997 139.489 221.724C140.693 221.446 141.534 220.793 142.014 219.764C142.497 218.752 142.572 217.522 142.238 216.074L141.527 212.985L133.702 214.788ZM510.979 216.074C510.645 217.522 510.721 218.752 511.204 219.764C511.684 220.793 512.525 221.446 513.729 221.724C514.915 221.997 515.963 221.833 516.873 221.234C517.778 220.653 518.418 219.551 518.792 217.929L519.516 214.788L511.69 212.985L510.979 216.074ZM299.258 194.692C294.852 190.967 288.257 190.355 279.474 192.854C273.074 194.676 268.54 197.332 265.872 200.824C263.192 204.275 262.398 207.916 263.488 211.748C264.591 215.621 267.19 218.319 271.285 219.842C275.381 221.364 280.628 221.214 287.027 219.393C293.426 217.571 298.017 214.877 300.799 211.309C296.329 211.171 293.572 209.267 292.527 205.599C291.947 203.561 292.147 201.719 293.125 200.074C294.05 198.401 296.095 196.606 299.258 194.692ZM370.032 192.854C361.249 190.355 354.654 190.967 350.248 194.692C353.411 196.606 355.456 198.401 356.381 200.074C357.359 201.719 357.559 203.561 356.979 205.599C355.934 209.267 353.177 211.171 348.707 211.309C351.489 214.877 356.08 217.571 362.479 219.393C368.878 221.214 374.125 221.364 378.221 219.842C382.316 218.319 384.915 215.621 386.018 211.748C387.108 207.916 386.314 204.275 383.634 200.824C380.965 197.332 376.431 194.676 370.032 192.854ZM142.417 212.781L143.014 215.372C143.347 216.82 143.928 217.825 144.756 218.388C145.605 218.964 146.588 219.123 147.705 218.866C148.787 218.617 149.592 218.046 150.121 217.152C150.654 216.276 150.752 215.105 150.414 213.64L149.823 211.075L142.417 212.781ZM502.803 213.64C502.465 215.105 502.564 216.276 503.097 217.152C503.626 218.046 504.431 218.617 505.513 218.866C506.629 219.123 507.613 218.964 508.462 218.388C509.289 217.825 509.87 216.82 510.203 215.372L510.801 212.781L503.394 211.075L502.803 213.64ZM151.016 209.979L151.738 213.12C152.112 214.742 152.752 215.844 153.657 216.426C154.567 217.025 155.615 217.187 156.802 216.914C158.006 216.637 158.848 215.984 159.327 214.955C159.811 213.943 159.885 212.713 159.552 211.265L158.84 208.177L151.016 209.979ZM493.666 211.265C493.332 212.713 493.407 213.943 493.891 214.955C494.37 215.984 495.212 216.637 496.416 216.914C497.602 217.187 498.651 217.025 499.561 216.426C500.466 215.844 501.106 214.742 501.479 213.12L502.202 209.979L494.378 208.177L493.666 211.265ZM81.7549 215.321H0V209.55H81.7549V215.321ZM655 215.321H573.245V209.55H655V215.321ZM159.73 207.972L160.327 210.562C160.661 212.011 161.242 213.016 162.069 213.579C162.918 214.155 163.901 214.315 165.018 214.058C166.099 213.808 166.904 213.236 167.434 212.343C167.675 211.946 167.826 211.489 167.889 210.972C167.593 210.279 167.338 209.475 167.127 208.56L166.625 206.383L159.73 207.972ZM486.091 208.56C485.88 209.475 485.624 210.279 485.328 210.972C485.391 211.489 485.543 211.946 485.784 212.343C486.313 213.236 487.118 213.808 488.2 214.058C489.317 214.315 490.299 214.155 491.148 213.579C491.976 213.016 492.557 212.011 492.891 210.562L493.487 207.972L486.592 206.383L486.091 208.56ZM167.876 205.052L168.701 208.634C168.862 209.331 168.96 209.985 169.001 210.597C169.289 211.03 169.625 211.371 170.009 211.617C170.918 212.216 171.966 212.379 173.152 212.105C174.356 211.828 175.198 211.175 175.678 210.146C176.161 209.134 176.236 207.904 175.902 206.456L175.191 203.368L167.876 205.052ZM477.315 206.456C476.982 207.904 477.057 209.134 477.54 210.146C478.02 211.175 478.862 211.828 480.065 212.105C481.252 212.379 482.3 212.216 483.209 211.617C483.593 211.371 483.928 211.03 484.216 210.597C484.256 209.985 484.356 209.331 484.517 208.634L485.341 205.052L478.026 203.368L477.315 206.456ZM144.349 210.102C142.771 210.504 141.228 210.916 139.72 211.335L149.371 209.112L149.307 208.836L144.349 210.102ZM503.846 209.112L507.869 210.039C506.75 209.735 505.612 209.435 504.456 209.14L503.873 208.99L503.846 209.112ZM176.081 203.163L176.678 205.754C177.011 207.202 177.592 208.207 178.42 208.77C179.269 209.346 180.252 209.505 181.368 209.248C182.45 208.999 183.256 208.428 183.785 207.534C184.159 206.919 184.317 206.159 184.263 205.254C183.957 204.549 183.695 203.728 183.479 202.789L183.188 201.525L176.081 203.163ZM469.739 202.789C469.523 203.729 469.259 204.551 468.953 205.256C468.899 206.16 469.059 206.92 469.433 207.534C469.962 208.428 470.767 208.999 471.849 209.248C472.965 209.505 473.949 209.346 474.798 208.77C475.626 208.207 476.206 207.202 476.54 205.754L477.137 203.163L470.029 201.525L469.739 202.789ZM301.801 197.671C298.968 199.314 297.13 200.719 296.286 201.885C295.401 203.062 295.166 204.385 295.584 205.853C296.303 208.38 298.497 209.496 302.166 209.201C303.6 206.457 303.883 203.556 303.013 200.499C302.723 199.48 302.319 198.537 301.801 197.671ZM347.705 197.671C347.187 198.537 346.783 199.48 346.493 200.499C345.623 203.556 345.905 206.457 347.34 209.201C351.008 209.496 353.202 208.38 353.922 205.853C354.34 204.385 354.105 203.062 353.22 201.885C352.376 200.719 350.538 199.314 347.705 197.671ZM184.158 199.943L185.053 203.824C185.113 204.087 185.164 204.344 185.207 204.595C185.526 205.14 185.91 205.557 186.359 205.846C187.269 206.445 188.317 206.607 189.504 206.334C190.707 206.057 191.549 205.404 192.028 204.375C192.512 203.363 192.587 202.133 192.254 200.685L191.643 198.033L184.158 199.943ZM460.964 200.685C460.63 202.133 460.706 203.363 461.189 204.375C461.669 205.404 462.51 206.057 463.714 206.334C464.9 206.607 465.949 206.445 466.858 205.846C467.307 205.557 467.69 205.141 468.008 204.597C468.051 204.345 468.104 204.088 468.165 203.824L469.022 200.099L461.539 198.188L460.964 200.685ZM192.527 197.808L193.029 199.982C193.363 201.43 193.943 202.436 194.771 202.999C195.62 203.575 196.603 203.735 197.72 203.478C198.801 203.228 199.607 202.656 200.136 201.763C200.669 200.887 200.766 199.716 200.429 198.251L199.894 195.929L192.527 197.808ZM452.788 198.251C452.451 199.716 452.549 200.887 453.082 201.763C453.611 202.656 454.416 203.228 455.498 203.478C456.615 203.735 457.598 203.575 458.447 202.999C459.275 202.436 459.855 201.43 460.188 199.982L460.653 197.963L453.287 196.084L452.788 198.251ZM201.257 195.58L201.753 197.73C202.127 199.353 202.766 200.455 203.672 201.036C204.581 201.635 205.63 201.798 206.816 201.524C208.02 201.247 208.861 200.594 209.341 199.565C209.824 198.554 209.9 197.323 209.566 195.875L209.04 193.594L201.257 195.58ZM443.651 195.875C443.318 197.323 443.392 198.554 443.876 199.565C444.355 200.594 445.198 201.247 446.401 201.524C447.588 201.798 448.635 201.635 449.545 201.036C450.451 200.455 451.091 199.353 451.465 197.73L451.924 195.735L444.14 193.75L443.651 195.875ZM209.926 193.368L210.342 195.173C210.675 196.621 211.255 197.627 212.083 198.189C212.932 198.765 213.916 198.925 215.032 198.668C216.114 198.419 216.919 197.847 217.448 196.953C217.981 196.077 218.08 194.907 217.742 193.441L217.292 191.489L209.926 193.368ZM435.476 193.441C435.138 194.907 435.236 196.077 435.77 196.953C436.299 197.847 437.104 198.419 438.186 198.668C439.302 198.925 440.285 198.765 441.134 198.189C441.962 197.627 442.542 196.621 442.876 195.173L443.255 193.523L435.889 191.645L435.476 193.441ZM218.864 191.087L219.065 191.959C219.439 193.582 220.08 194.683 220.985 195.265C221.895 195.863 222.943 196.026 224.129 195.753C225.333 195.476 226.175 194.823 226.654 193.794C227.138 192.782 227.212 191.552 226.879 190.104L226.647 189.102L218.864 191.087ZM426.339 190.104C426.005 191.553 426.08 192.782 426.563 193.794C427.043 194.823 427.885 195.476 429.089 195.753C430.275 196.026 431.323 195.863 432.232 195.265C433.138 194.683 433.778 193.582 434.151 191.959L434.315 191.242L426.533 189.257L426.339 190.104ZM227.532 188.876L227.654 189.402C227.988 190.85 228.569 191.855 229.396 192.418C230.246 192.994 231.228 193.154 232.345 192.896C233.426 192.647 234.233 192.076 234.762 191.183C235.295 190.307 235.392 189.135 235.055 187.67L234.899 186.996L227.532 188.876ZM418.163 187.67C417.826 189.135 417.923 190.307 418.456 191.183C418.985 192.076 419.791 192.647 420.872 192.896C421.989 193.154 422.972 192.994 423.821 192.418C424.649 191.855 425.23 190.85 425.563 189.402L425.648 189.031L418.282 187.151L418.163 187.67ZM236.263 186.648L236.379 187.15C236.753 188.773 237.392 189.876 238.298 190.457C239.207 191.056 240.255 191.218 241.441 190.945C242.645 190.668 243.487 190.014 243.967 188.985C244.45 187.974 244.525 186.744 244.191 185.296L244.045 184.663L236.263 186.648ZM409.025 185.296C408.692 186.744 408.767 187.974 409.251 188.985C409.73 190.014 410.572 190.668 411.775 190.945C412.962 191.219 414.01 191.056 414.92 190.457C415.826 189.876 416.465 188.773 416.839 187.15L416.918 186.804L409.135 184.818L409.025 185.296ZM113.927 178.637C115.609 178.637 116.872 179.273 117.713 180.546C118.554 181.818 118.975 183.166 118.975 184.588C118.975 185.935 118.554 187.245 117.713 188.518C116.872 189.715 115.609 190.313 113.927 190.313C112.245 190.313 110.951 189.677 110.045 188.405C109.204 187.133 108.783 185.86 108.783 184.588C108.783 183.166 109.204 181.818 110.045 180.546C110.951 179.274 112.245 178.637 113.927 178.637ZM540.014 178.637C541.696 178.637 542.959 179.273 543.8 180.546C544.641 181.818 545.062 183.166 545.062 184.588C545.061 185.935 544.641 187.245 543.8 188.518C542.959 189.715 541.696 190.313 540.014 190.313C538.331 190.313 537.037 189.678 536.131 188.405C535.29 187.133 534.869 185.86 534.869 184.588C534.869 183.166 535.29 181.818 536.131 180.546C537.037 179.273 538.331 178.637 540.014 178.637ZM244.931 184.437L244.967 184.594C245.3 186.042 245.881 187.047 246.709 187.609C247.558 188.185 248.542 188.345 249.658 188.088C250.74 187.839 251.545 187.267 252.074 186.374C252.607 185.498 252.705 184.327 252.367 182.861L252.297 182.558L244.931 184.437ZM400.851 182.861C400.513 184.327 400.61 185.498 401.144 186.374C401.673 187.267 402.478 187.839 403.56 188.088C404.676 188.345 405.66 188.185 406.509 187.609C407.336 187.047 407.917 186.042 408.251 184.594V184.593L400.884 182.713L400.851 182.861ZM253.66 182.209L253.691 182.342C254.065 183.964 254.705 185.066 255.61 185.647C256.52 186.246 257.568 186.409 258.755 186.136C259.958 185.858 260.8 185.206 261.279 184.177C261.763 183.165 261.838 181.935 261.505 180.487L261.443 180.224L253.66 182.209ZM391.713 180.487C391.379 181.935 391.454 183.165 391.938 184.177C392.417 185.206 393.259 185.858 394.463 186.136C395.649 186.409 396.698 186.246 397.607 185.647C398.508 185.069 399.145 183.975 399.52 182.365L391.737 180.38L391.713 180.487ZM262.332 179.997C262.672 181.331 263.235 182.266 264.021 182.801C264.871 183.377 265.854 183.536 266.971 183.279C268.052 183.03 268.858 182.459 269.387 181.565C269.912 180.703 270.014 179.554 269.694 178.119L262.332 179.997ZM383.489 178.275C383.211 179.637 383.325 180.734 383.831 181.565C384.36 182.459 385.166 183.03 386.247 183.279C387.364 183.536 388.346 183.377 389.195 182.801C389.951 182.287 390.5 181.404 390.844 180.151L383.489 178.275ZM271.062 177.77C271.442 179.263 272.063 180.286 272.924 180.839C273.833 181.438 274.881 181.6 276.067 181.327C277.271 181.05 278.113 180.396 278.593 179.367C279.064 178.381 279.145 177.187 278.84 175.785L271.062 177.77ZM374.343 175.941C374.077 177.276 374.171 178.418 374.625 179.367C375.104 180.396 375.947 181.05 377.15 181.327C378.337 181.6 379.384 181.438 380.294 180.839C381.125 180.305 381.73 179.333 382.113 177.924L374.343 175.941ZM279.747 175.554C280.093 176.694 280.622 177.507 281.335 177.991C282.184 178.567 283.167 178.727 284.283 178.47C285.365 178.221 286.17 177.649 286.699 176.756C287.178 175.969 287.304 174.945 287.081 173.684L279.747 175.554ZM366.108 173.841C365.923 175.031 366.059 176.002 366.518 176.756C367.047 177.649 367.853 178.221 368.935 178.47C370.051 178.727 371.034 178.567 371.883 177.991C372.563 177.529 373.075 176.767 373.422 175.707L366.108 173.841ZM288.796 173.245C289.161 174.077 289.641 174.685 290.236 175.067C291.146 175.666 292.194 175.829 293.38 175.556C294.584 175.278 295.426 174.625 295.905 173.596C296.222 172.932 296.362 172.175 296.328 171.324L288.796 173.245ZM356.885 171.487C356.874 172.272 357.016 172.975 357.312 173.596C357.792 174.625 358.634 175.278 359.838 175.556C361.024 175.829 362.072 175.666 362.981 175.067C363.541 174.708 363.998 174.15 364.354 173.394L356.885 171.487ZM324.278 174.564L339.402 115.292H309.156L324.278 174.564ZM297.57 171.007C297.865 171.527 298.224 171.932 298.647 172.22C299.497 172.796 300.48 172.955 301.597 172.698C302.678 172.449 303.484 171.878 304.013 170.984C304.31 170.495 304.472 169.913 304.498 169.24L297.57 171.007ZM348.729 169.407C348.774 170.01 348.932 170.536 349.205 170.984C349.734 171.878 350.54 172.449 351.621 172.698C352.738 172.955 353.721 172.796 354.57 172.22C354.954 171.959 355.284 171.602 355.562 171.15L348.729 169.407ZM113.927 110.482C115.609 110.482 116.904 111.194 117.81 112.616C118.78 113.964 119.266 115.386 119.266 116.883C119.266 118.155 118.942 120.85 118.295 124.967C117.713 129.009 117.13 134.735 116.548 142.146C115.965 149.556 115.675 157.977 115.675 167.408H112.472C112.472 157.977 112.148 149.556 111.501 142.146C110.919 134.66 110.303 128.897 109.656 124.854C109.009 120.738 108.686 118.081 108.686 116.883C108.686 115.461 109.139 114.038 110.045 112.616C110.951 111.194 112.245 110.483 113.927 110.482ZM540.014 110.482C541.696 110.482 542.991 111.194 543.896 112.616C544.867 113.964 545.353 115.386 545.353 116.883C545.353 118.155 545.029 120.85 544.382 124.967C543.799 129.009 543.217 134.735 542.635 142.146C542.052 149.556 541.761 157.977 541.761 167.408H538.558C538.558 157.977 538.234 149.556 537.587 142.146C537.005 134.66 536.39 128.897 535.743 124.854C535.096 120.738 534.772 118.081 534.772 116.883C534.772 115.461 535.225 114.038 536.131 112.616C537.037 111.194 538.331 110.482 540.014 110.482ZM202.734 147.031C203.154 147.339 204.507 147.493 206.792 147.493V148.806H204.134V165.022L203.574 165.307C203.294 165.07 201.673 164.951 198.712 164.951V163.639H201.65V155.016C201.65 152.887 201.23 151.313 200.391 150.296C199.551 149.303 198.444 148.806 197.068 148.806C194.154 148.806 192.696 150.769 192.696 154.696V165.022L192.172 165.307C191.962 165.141 191.577 165.034 191.018 164.986C190.481 164.963 189.327 164.951 187.555 164.951V163.639H190.213V154.235C190.213 149.433 192.207 147.031 196.194 147.031C199.319 147.031 201.324 148.569 202.21 151.645V147.315L202.734 147.031ZM214.381 148.806C211.466 148.806 210.009 150.769 210.009 154.696V164.361L218.963 162.076V155.016C218.963 152.887 218.544 151.313 217.704 150.296C216.865 149.302 215.757 148.806 214.381 148.806ZM437.523 148.806C434.609 148.806 433.151 150.769 433.151 154.696V161.959L439.732 163.639H442.105V155.016C442.105 152.887 441.685 151.313 440.846 150.296C440.006 149.303 438.899 148.806 437.523 148.806ZM347.379 140.076L430.668 161.325V154.235C430.668 149.433 432.662 147.031 436.649 147.031C439.774 147.031 441.779 148.569 442.665 151.645V147.315L443.189 147.031C443.609 147.339 444.962 147.493 447.247 147.493V148.806H444.589V163.639H447.02V154.235C447.02 149.433 449.013 147.031 453 147.031C456.124 147.031 458.13 148.569 459.016 151.645V147.315L459.541 147.031C459.759 147.191 460.229 147.308 460.95 147.385C462.102 144.677 463.805 142.654 466.06 141.316C469.03 139.553 472.488 139.175 476.433 140.182C481.277 141.418 484.603 143.932 486.42 147.722C487.272 147.262 488.316 147.031 489.55 147.031C492.674 147.031 494.679 148.569 495.565 151.645V147.315L496.09 147.031C496.51 147.339 497.862 147.493 500.147 147.493V148.806H497.489V153.338C499.096 152.28 500.751 150.948 502.454 149.342C507.514 144.331 511.202 137.288 513.517 128.216C514.722 123.493 515.111 119.185 514.686 115.292H353.702L347.379 140.076ZM490.424 148.806C489.071 148.806 488.032 149.229 487.307 150.075C487.84 151.937 488.092 154.038 488.055 156.381C490.253 156.516 492.569 155.981 495.002 154.776C494.971 152.768 494.554 151.275 493.746 150.296C492.907 149.303 491.799 148.806 490.424 148.806ZM148.016 148.806C146.916 148.806 146.023 149.085 145.338 149.645C145.495 149.807 145.653 149.968 145.812 150.126C148.165 152.346 150.428 154.041 152.598 155.214V155.016C152.598 152.887 152.177 151.313 151.338 150.296C150.499 149.303 149.391 148.806 148.016 148.806ZM294.014 55.4404C294.138 56.7329 294.007 57.8421 293.619 58.7686C293.091 60.066 292.103 60.8813 290.655 61.2148C289.521 61.4761 288.521 61.321 287.654 60.749C286.805 60.173 286.145 59.379 285.673 58.3672C285.761 59.7064 285.536 60.925 284.999 62.0225C284.479 63.1159 283.599 63.8055 282.36 64.0908C280.668 64.4805 279.286 64.2197 278.213 63.3096C277.648 62.8379 277.16 62.1689 276.745 61.3037C276.73 62.1558 276.585 62.9141 276.307 63.5781C275.779 64.8755 274.791 65.6909 273.343 66.0244C272.209 66.2856 271.208 66.1305 270.342 65.5586C269.493 64.9825 268.831 64.1878 268.359 63.1758C268.447 64.5151 268.223 65.7336 267.686 66.8311C267.166 67.9246 266.287 68.6141 265.048 68.8994C263.356 69.2892 261.973 69.0294 260.899 68.1191C260.335 67.6476 259.847 66.9782 259.433 66.1133C259.418 66.965 259.272 67.7229 258.994 68.3867C258.466 69.6841 257.478 70.4994 256.03 70.833C254.896 71.0942 253.895 70.9392 253.028 70.3672C252.179 69.7912 251.519 68.9972 251.047 67.9854C251.135 69.3245 250.91 70.5432 250.373 71.6406C249.853 72.7339 248.974 73.4227 247.735 73.708C246.043 74.0978 244.66 73.838 243.587 72.9277C243.022 72.4563 242.534 71.7875 242.12 70.9229C242.105 71.7745 241.959 72.5325 241.681 73.1963C241.153 74.4935 240.165 75.309 238.717 75.6426C237.583 75.9037 236.582 75.7487 235.716 75.1768C234.867 74.6007 234.206 73.806 233.734 72.7939C233.822 74.1331 233.598 75.3518 233.061 76.4492C232.541 77.5426 231.661 78.2322 230.423 78.5176C228.731 78.9074 227.348 78.6474 226.274 77.7373C225.69 77.2493 225.186 76.55 224.763 75.6406C224.887 76.9322 224.756 78.0408 224.368 78.9668C223.84 80.2642 222.852 81.0795 221.404 81.4131C220.27 81.6743 219.27 81.5192 218.403 80.9473C217.554 80.3713 216.894 79.5772 216.422 78.5654C216.51 79.9046 216.285 81.1233 215.748 82.2207C215.228 83.3141 214.348 84.0028 213.109 84.2881C211.417 84.6778 210.034 84.418 208.961 83.5078C208.396 83.0362 207.909 82.3669 207.494 81.502C207.479 82.3537 207.334 83.1115 207.056 83.7754C206.528 85.0728 205.54 85.8881 204.092 86.2217C202.958 86.4829 201.957 86.3278 201.091 85.7559C200.242 85.1798 199.58 84.386 199.108 83.374C199.196 84.7133 198.972 85.9318 198.435 87.0293C197.915 88.1226 197.036 88.8123 195.797 89.0977C194.105 89.4874 192.722 89.2267 191.648 88.3164C191.463 88.1612 191.286 87.9839 191.116 87.7861C191.061 88.4323 190.926 89.0194 190.705 89.5469C190.177 90.8444 189.188 91.6596 187.74 91.9932C186.606 92.2543 185.606 92.0993 184.739 91.5273C183.89 90.9514 183.23 90.1573 182.758 89.1455C182.846 90.4847 182.621 91.7034 182.084 92.8008C181.564 93.894 180.685 94.5828 179.446 94.8682C177.754 95.258 176.371 94.9981 175.298 94.0879C175.068 93.8956 174.851 93.6698 174.646 93.4121C174.574 93.7451 174.477 94.0597 174.354 94.3555C173.826 95.6529 172.838 96.4682 171.39 96.8018C170.256 97.063 169.255 96.9079 168.389 96.3359C167.54 95.76 166.879 94.966 166.407 93.9541C166.495 95.2933 166.271 96.5119 165.733 97.6094C165.214 98.7029 164.333 99.3924 163.095 99.6777C161.403 100.067 160.019 99.8067 158.946 98.8965C158.382 98.4248 157.894 97.7556 157.479 96.8906C157.465 97.7427 157.319 98.501 157.041 99.165C156.513 100.462 155.525 101.278 154.077 101.611C152.943 101.873 151.943 101.717 151.076 101.146C150.227 100.569 149.566 99.7747 149.094 98.7627C149.182 100.102 148.957 101.321 148.42 102.418C147.9 103.511 147.021 104.201 145.782 104.486C144.09 104.876 142.707 104.616 141.634 103.706C141.137 103.292 140.701 102.724 140.32 102.006C139.162 103.154 138.149 104.377 137.282 105.674H306.498C305.2 104.676 303.96 103.551 302.78 102.295C297.138 96.1953 294.317 88.1627 294.317 78.1973C294.317 70.3554 296.065 63.7376 299.559 58.3428C297.918 58.6949 296.574 58.4277 295.525 57.5381C294.941 57.0498 294.437 56.3505 294.014 55.4404ZM332.202 69.4395L332.834 68.749C334.765 66.8053 336.477 65.9664 337.969 66.2314C339.461 66.4082 340.646 67.2036 341.523 68.6172C342.489 69.8541 342.664 71.3562 342.05 73.123C341.435 74.8016 339.856 75.8619 337.311 76.3037L326.383 79.0869L325.198 77.0986L325.958 76.2666L325.67 76.1934L324.976 76.3701L324.803 76.9658H322.643L322.16 77.0879L322.17 77.0986L320.985 79.0869L310.058 76.3037C307.6 75.8619 306.021 74.8016 305.318 73.123C304.616 71.356 304.792 69.8976 305.845 68.749C306.371 67.8655 307.03 67.159 307.82 66.6289C308.698 66.0989 309.751 65.9664 310.979 66.2314C312.208 66.4965 313.393 67.3355 314.534 68.749L316.134 70.498L312.045 54.4746C311.101 55.3774 310.227 56.4121 309.421 57.5791C305.862 62.7337 304.082 69.6064 304.082 78.1973C304.082 86.7024 305.862 93.5759 309.421 98.8164C311.71 102.186 314.555 104.471 317.957 105.674H330.356C333.738 104.487 336.568 102.245 338.847 98.9453C342.406 93.7048 344.185 86.7883 344.185 78.1973C344.185 69.6064 342.405 62.7336 338.847 57.5791C337.995 56.3454 337.065 55.2607 336.059 54.3223L332.202 69.4395ZM354.395 55.4385C353.971 56.3491 353.469 57.0495 352.884 57.5381C351.811 58.4483 350.428 58.7091 348.735 58.3193C348.685 58.3077 348.635 58.2932 348.586 58.2803C352.161 63.6865 353.95 70.3249 353.95 78.1973C353.95 88.1628 351.085 96.1953 345.356 102.295C344.195 103.551 342.971 104.676 341.688 105.674H511.485C510.599 104.22 509.536 102.856 508.299 101.58C507.873 102.504 507.365 103.213 506.774 103.706C505.701 104.616 504.318 104.876 502.626 104.486C501.387 104.201 500.508 103.511 499.988 102.418C499.451 101.321 499.226 100.102 499.314 98.7627C498.842 99.7747 498.182 100.569 497.333 101.146C496.466 101.717 495.466 101.872 494.332 101.611C492.884 101.278 491.895 100.463 491.367 99.165C491.089 98.5012 490.943 97.7433 490.928 96.8916C490.513 97.7561 490.026 98.4251 489.462 98.8965C488.389 99.8068 487.006 100.068 485.313 99.6777C484.075 99.3924 483.196 98.7028 482.676 97.6094C482.139 96.5119 481.914 95.2933 482.002 93.9541C481.53 94.9659 480.87 95.7599 480.021 96.3359C479.154 96.908 478.153 97.063 477.019 96.8018C475.571 96.4681 474.583 95.6528 474.055 94.3555C473.931 94.0595 473.834 93.7445 473.763 93.4111C473.557 93.6689 473.342 93.8956 473.111 94.0879C472.038 94.9981 470.655 95.2579 468.963 94.8682C467.724 94.5828 466.844 93.8942 466.324 92.8008C465.787 91.7034 465.562 90.4847 465.65 89.1455C465.178 90.1573 464.518 90.9514 463.669 91.5273C462.802 92.0993 461.802 92.2544 460.668 91.9932C459.22 91.6596 458.232 90.8443 457.704 89.5469C457.483 89.0196 457.346 88.4329 457.291 87.7871C457.122 87.9845 456.945 88.1615 456.76 88.3164C455.687 89.2267 454.304 89.4875 452.611 89.0977C451.373 88.8123 450.493 88.1227 449.974 87.0293C449.436 85.9318 449.212 84.7133 449.3 83.374C448.828 84.3859 448.167 85.1799 447.318 85.7559C446.452 86.3278 445.451 86.4828 444.317 86.2217C442.869 85.8881 441.88 85.0729 441.353 83.7754C441.075 83.1118 440.928 82.3543 440.913 81.5029C440.499 82.3674 440.012 83.0364 439.447 83.5078C438.374 84.4181 436.991 84.6779 435.299 84.2881C434.06 84.0028 433.181 83.3139 432.661 82.2207C432.124 81.1233 431.899 79.9046 431.987 78.5654C431.515 79.5772 430.855 80.3713 430.006 80.9473C429.139 81.5193 428.138 81.6743 427.004 81.4131C425.556 81.0795 424.568 80.2641 424.04 78.9668C423.652 78.0402 423.521 76.9305 423.646 75.6377C423.222 76.5482 422.719 77.2488 422.134 77.7373C421.061 78.6472 419.678 78.9072 417.986 78.5176C416.748 78.2322 415.867 77.5427 415.348 76.4492C414.811 75.3518 414.586 74.1331 414.674 72.7939C414.202 73.806 413.542 74.6007 412.692 75.1768C411.826 75.7486 410.825 75.9037 409.691 75.6426C408.243 75.309 407.255 74.4935 406.728 73.1963C406.45 72.5328 406.302 71.7751 406.287 70.9238C405.873 71.7878 405.386 72.4565 404.821 72.9277C403.748 73.8378 402.366 74.0977 400.674 73.708C399.435 73.4227 398.555 72.734 398.035 71.6406C397.498 70.5432 397.273 69.3245 397.361 67.9854C396.889 68.9972 396.229 69.7912 395.38 70.3672C394.513 70.9392 393.513 71.0942 392.379 70.833C390.931 70.4995 389.943 69.6841 389.415 68.3867C389.137 67.7231 388.99 66.9657 388.975 66.1143C388.56 66.9787 388.073 67.6478 387.509 68.1191C386.436 69.0294 385.053 69.2892 383.36 68.8994C382.122 68.6141 381.242 67.9245 380.723 66.8311C380.186 65.7336 379.961 64.515 380.049 63.1758C379.577 64.1878 378.917 64.9826 378.067 65.5586C377.201 66.1306 376.199 66.2856 375.065 66.0244C373.618 65.6908 372.629 64.8754 372.102 63.5781C371.823 62.9143 371.677 62.1564 371.662 61.3047C371.248 62.1691 370.761 62.8382 370.196 63.3096C369.123 64.2198 367.74 64.4806 366.048 64.0908C364.809 63.8055 363.93 63.1158 363.41 62.0225C362.873 60.925 362.648 59.7064 362.736 58.3672C362.264 59.3792 361.603 60.173 360.754 60.749C359.887 61.3209 358.887 61.476 357.753 61.2148C356.305 60.8812 355.317 60.0659 354.789 58.7686C354.401 57.8417 354.27 56.7317 354.395 55.4385ZM147.862 96.167C145.318 97.7425 143.111 99.3986 141.237 101.132C141.495 101.479 141.787 101.758 142.115 101.969C143.025 102.568 144.073 102.73 145.26 102.457C146.464 102.18 147.306 101.527 147.785 100.498C148.269 99.4864 148.343 98.2557 148.01 96.8076L147.862 96.167ZM500.398 96.8076C500.065 98.2557 500.141 99.4864 500.624 100.498C501.103 101.527 501.945 102.18 503.148 102.457C504.335 102.73 505.383 102.568 506.293 101.969C506.739 101.682 507.12 101.269 507.437 100.73C505.546 98.9225 503.296 97.2001 500.686 95.5615L500.398 96.8076ZM328.095 92.8701C328.885 95.1671 328.752 96.934 327.699 98.1709C326.646 99.4078 325.286 99.9819 323.618 99.8936C321.951 99.8935 320.59 99.3195 319.537 98.1709C318.572 96.934 318.484 95.1228 319.273 92.7373L322.434 81.7373H324.803L328.095 92.8701ZM155.652 92.0596C153.113 93.212 150.79 94.4143 148.685 95.6689L148.785 96.1055C149.119 97.5536 149.7 98.5594 150.527 99.1221C151.376 99.6979 152.359 99.8577 153.476 99.6006C154.557 99.3514 155.363 98.7793 155.892 97.8857C156.425 97.0097 156.523 95.8393 156.186 94.374L155.652 92.0596ZM492.224 94.374C491.886 95.8393 491.984 97.0097 492.517 97.8857C493.046 98.7793 493.851 99.3514 494.933 99.6006C496.049 99.8578 497.033 99.6981 497.882 99.1221C498.71 98.5594 499.29 97.5535 499.624 96.1055L499.865 95.0566C498.254 94.084 496.515 93.1411 494.645 92.2295L492.814 91.8086L492.224 94.374ZM272.139 73.1982C274.467 72.5596 276.622 72.8682 278.604 74.125C280.587 75.3819 281.982 77.4798 282.788 80.418C283.723 83.8261 283.468 86.502 282.023 88.4463L285.085 88.792L285.509 90.334L275.809 92.9951L275.265 91.0117C277.966 90.2705 279.757 88.9734 280.64 87.1201C281.559 85.2883 281.704 83.2264 281.075 80.9346C280.511 78.878 279.565 77.4002 278.236 76.501C276.908 75.6017 275.439 75.3729 273.829 75.8145C272.795 76.0983 271.952 76.5187 271.302 77.0762C270.688 77.6553 270.225 78.4463 269.913 79.4482C269.63 80.4421 269.442 81.3935 269.352 82.3027C269.269 83.2416 269.21 84.4908 269.174 86.0488C269.154 87.6654 269.067 88.9847 268.915 90.0059C268.799 91.0485 268.536 92.116 268.125 93.208C267.743 94.2922 267.119 95.1741 266.255 95.8535C265.399 96.5623 264.295 97.1021 262.944 97.4727C260.732 98.0797 258.668 97.8246 256.755 96.707C254.849 95.6186 253.445 93.4285 252.542 90.1377C251.575 86.6119 251.824 83.6365 253.291 81.2119L249.954 80.7061L249.543 79.208L259.372 76.5107L259.904 78.4502C257.49 79.1126 255.769 80.501 254.742 82.6152C253.723 84.7588 253.564 87.1089 254.266 89.665C254.87 91.8686 255.796 93.384 257.043 94.2109C258.29 95.0378 259.675 95.2421 261.198 94.8242C262.922 94.3511 264.188 93.3878 264.994 91.9346C265.801 90.4811 266.193 88.193 266.171 85.0713C266.159 81.5363 266.533 78.8433 267.292 76.9922C268.08 75.1331 269.696 73.8685 272.139 73.1982ZM367.433 74.125C369.415 72.8681 371.571 72.5595 373.899 73.1982C376.342 73.8685 377.957 75.1332 378.745 76.9922C379.504 78.8433 379.878 81.5363 379.866 85.0713C379.844 88.193 380.236 90.4811 381.043 91.9346C381.849 93.3878 383.115 94.3511 384.839 94.8242C386.362 95.2421 387.747 95.0378 388.994 94.2109C390.241 93.384 391.167 91.8686 391.771 89.665C392.473 87.1089 392.314 84.7588 391.295 82.6152C390.268 80.501 388.547 79.1126 386.133 78.4502L386.665 76.5107L396.494 79.208L396.083 80.7061L392.746 81.2119C394.213 83.6364 394.463 86.612 393.496 90.1377C392.593 93.4284 391.189 95.6186 389.283 96.707C387.37 97.8248 385.306 98.0798 383.093 97.4727C381.742 97.102 380.638 96.5623 379.782 95.8535C378.918 95.1741 378.294 94.2923 377.912 93.208C377.501 92.1159 377.238 91.0485 377.122 90.0059C376.97 88.9847 376.883 87.6654 376.863 86.0488C376.827 84.4908 376.768 83.2416 376.686 82.3027C376.595 81.3935 376.408 80.442 376.125 79.4482C375.813 78.4463 375.349 77.6553 374.735 77.0762C374.085 76.5187 373.242 76.0983 372.208 75.8145C370.599 75.3729 369.129 75.6017 367.801 76.501C366.473 77.4003 365.526 78.878 364.962 80.9346C364.333 83.2264 364.478 85.2883 365.397 87.1201C366.28 88.9733 368.071 90.2704 370.772 91.0117L370.229 92.9951L360.528 90.334L360.952 88.792L364.014 88.4463C362.569 86.5019 362.315 83.8261 363.25 80.418C364.056 77.4799 365.45 75.3819 367.433 74.125ZM161.587 89.6064C159.976 90.2137 158.435 90.8378 156.962 91.4775L157.51 93.8535C157.884 95.4761 158.523 96.5787 159.429 97.1602C160.338 97.7588 161.386 97.9216 162.572 97.6484C163.776 97.3711 164.618 96.7176 165.098 95.6885C165.581 94.6769 165.656 93.4471 165.322 91.999L164.611 88.9111L161.587 89.6064ZM483.086 91.999C482.752 93.4471 482.828 94.6769 483.312 95.6885C483.791 96.7175 484.632 97.3711 485.836 97.6484C487.022 97.9217 488.071 97.759 488.98 97.1602C489.886 96.5787 490.526 95.4761 490.899 93.8535L491.597 90.8213C491.412 90.7402 491.226 90.6587 491.039 90.5781L483.798 88.9111L483.086 91.999ZM165.501 88.7061L166.098 91.2969C166.431 92.7448 167.012 93.7499 167.84 94.3125C168.689 94.8885 169.672 95.0482 170.789 94.791C171.871 94.5418 172.676 93.9706 173.205 93.0771C173.446 92.6806 173.596 92.2233 173.659 91.7061C173.363 91.0134 173.109 90.2095 172.898 89.2939L172.396 87.1172L165.501 88.7061ZM475.511 89.2939C475.3 90.2097 475.044 91.0133 474.748 91.7061C474.811 92.2234 474.963 92.6806 475.204 93.0771C475.733 93.9705 476.538 94.5419 477.62 94.791C478.737 95.0482 479.719 94.8884 480.568 94.3125C481.396 93.7499 481.977 92.7449 482.311 91.2969L482.907 88.7061L476.012 87.1172L475.511 89.2939ZM173.646 85.7861L174.473 89.3672C174.633 90.0649 174.732 90.7202 174.772 91.332C175.061 91.7648 175.396 92.1044 175.779 92.3506C176.689 92.9495 177.737 93.1122 178.924 92.8389C180.127 92.5615 180.969 91.9087 181.448 90.8799C181.932 89.8683 182.007 88.6384 181.674 87.1904L180.962 84.1016L173.646 85.7861ZM466.735 87.1904C466.402 88.6384 466.476 89.8683 466.96 90.8799C467.439 91.9089 468.282 92.5616 469.485 92.8389C470.672 93.1121 471.719 92.9494 472.629 92.3506C473.013 92.1043 473.348 91.7642 473.636 91.3311C473.676 90.7195 473.776 90.0645 473.937 89.3672L474.76 85.7861L467.446 84.1016L466.735 87.1904ZM322.17 81.4727L314.271 90.0869C312.427 91.9421 310.76 92.7377 309.268 92.4727C307.776 92.1192 306.679 91.2348 305.977 89.8213C305.011 88.5845 304.792 87.1711 305.318 85.5811C305.933 83.9023 307.469 82.7977 309.927 82.2676L320.854 79.4844L322.17 81.4727ZM337.442 82.3994C339.812 82.8412 341.304 83.9461 341.918 85.7129C342.532 87.3915 342.357 88.7611 341.392 89.8213C340.514 91.3232 339.373 92.2076 337.969 92.4727C336.564 92.7377 334.897 91.9422 332.966 90.0869L325.066 81.6045L326.383 79.6172L337.442 82.3994ZM181.852 83.8965L182.448 86.4883C182.782 87.9361 183.363 88.9413 184.19 89.5039C185.04 90.08 186.023 90.2396 187.14 89.9824C188.221 89.7333 189.027 89.1619 189.556 88.2686C189.93 87.6537 190.088 86.8934 190.033 85.9883C189.727 85.2836 189.465 84.4616 189.249 83.5225L188.958 82.2588L181.852 83.8965ZM459.159 83.5225C458.943 84.4624 458.679 85.2842 458.373 85.9893C458.319 86.8939 458.479 87.654 458.853 88.2686C459.382 89.1619 460.187 89.7332 461.269 89.9824C462.385 90.2396 463.369 90.08 464.218 89.5039C465.045 88.9413 465.626 87.9362 465.96 86.4883L466.557 83.8965L459.449 82.2588L459.159 83.5225ZM190.112 81.4736L190.823 84.5586C190.884 84.8214 190.935 85.0785 190.979 85.3291C191.297 85.8742 191.681 86.2915 192.131 86.5801C193.04 87.1787 194.088 87.3416 195.274 87.0684C196.478 86.7911 197.32 86.1375 197.8 85.1084C198.283 84.0968 198.358 82.8669 198.024 81.4189L197.597 79.5635L190.112 81.4736ZM450.384 81.4189C450.05 82.867 450.126 84.0968 450.609 85.1084C451.089 86.1374 451.93 86.791 453.134 87.0684C454.32 87.3416 455.369 87.1789 456.278 86.5801C456.727 86.2919 457.11 85.875 457.428 85.3311C457.471 85.0797 457.524 84.8222 457.585 84.5586L458.458 80.7676L450.974 78.8574L450.384 81.4189ZM198.481 79.3379L198.8 80.7168C199.133 82.1648 199.714 83.1698 200.542 83.7324C201.391 84.3084 202.374 84.4681 203.49 84.2109C204.572 83.9618 205.378 83.3906 205.907 82.4971C206.44 81.621 206.538 80.4499 206.2 78.9844L205.849 77.458L198.481 79.3379ZM442.208 78.9844C441.87 80.4499 441.969 81.621 442.502 82.4971C443.031 83.3905 443.836 83.9618 444.918 84.2109C446.035 84.4681 447.018 84.3085 447.867 83.7324C448.695 83.1698 449.275 82.1645 449.608 80.7168L450.089 78.6318L442.722 76.752L442.208 78.9844ZM207.212 77.1104L207.524 78.4648C207.898 80.0874 208.538 81.1891 209.443 81.7705C210.353 82.3694 211.401 82.532 212.587 82.2588C213.791 81.9815 214.633 81.3288 215.112 80.2998C215.596 79.2882 215.67 78.0584 215.337 76.6104L214.994 75.125L207.212 77.1104ZM433.071 76.6104C432.738 78.0583 432.812 79.2882 433.296 80.2998C433.775 81.3288 434.618 81.9815 435.821 82.2588C437.008 82.5321 438.056 82.3694 438.966 81.7705C439.871 81.189 440.511 80.0872 440.885 78.4648L441.358 76.4043L433.576 74.4189L433.071 76.6104ZM215.88 74.8984L216.112 75.9082C216.446 77.3561 217.027 78.3612 217.854 78.9238C218.704 79.4999 219.687 79.6596 220.804 79.4023C221.885 79.1531 222.691 78.5818 223.22 77.6885C223.753 76.8124 223.85 75.6413 223.513 74.1758L223.246 73.0195L215.88 74.8984ZM424.896 74.1758C424.558 75.6412 424.656 76.8124 425.189 77.6885C425.719 78.5818 426.524 79.1532 427.605 79.4023C428.722 79.6595 429.705 79.4997 430.554 78.9238C431.381 78.3613 431.962 77.3561 432.296 75.9082L432.69 74.1924L425.324 72.3135L424.896 74.1758ZM224.818 72.6172L224.837 72.6943C225.211 74.3167 225.85 75.4186 226.756 76C227.665 76.5989 228.714 76.7616 229.9 76.4883C231.104 76.211 231.945 75.558 232.425 74.5293C232.908 73.5176 232.983 72.287 232.649 70.8389L232.602 70.6318L224.818 72.6172ZM415.759 70.8389C415.425 72.287 415.5 73.5176 415.983 74.5293C416.463 75.5582 417.305 76.211 418.509 76.4883C419.695 76.7615 420.743 76.5988 421.652 76C422.558 75.4186 423.198 74.3167 423.571 72.6943L423.751 71.9111L415.969 69.9258L415.759 70.8389ZM233.49 70.4053C233.832 71.7101 234.391 72.6261 235.167 73.1533C236.016 73.7294 237 73.8881 238.116 73.6309C239.198 73.3816 240.003 72.8104 240.532 71.917C241.05 71.0654 241.156 69.9358 240.852 68.5273L233.49 70.4053ZM407.583 68.4043C407.245 69.8697 407.343 71.0409 407.876 71.917C408.405 72.8104 409.211 73.3816 410.292 73.6309C411.409 73.8881 412.392 73.7293 413.241 73.1533C414.069 72.5907 414.65 71.5848 414.983 70.1367L415.083 69.7002L407.717 67.8203L407.583 68.4043ZM242.221 68.1768C242.602 69.6401 243.218 70.6445 244.068 71.1904C244.978 71.7893 246.026 71.953 247.213 71.6797C248.417 71.4024 249.258 70.7487 249.737 69.7197C250.203 68.7463 250.288 67.571 249.997 66.1934L242.221 68.1768ZM398.446 66.0303C398.113 67.4783 398.187 68.7081 398.671 69.7197C399.15 70.7488 399.992 71.4024 401.196 71.6797C402.383 71.9528 403.43 71.7892 404.34 71.1904C405.245 70.609 405.885 69.5073 406.259 67.8848L406.354 67.4727L398.57 65.4873L398.446 66.0303ZM250.909 65.9609C251.256 67.0728 251.779 67.8672 252.48 68.3438C253.33 68.9196 254.312 69.0794 255.429 68.8223C256.51 68.5731 257.316 68.0017 257.845 67.1084C258.316 66.3335 258.446 65.3279 258.236 64.0918L250.909 65.9609ZM390.271 63.5957C389.933 65.0612 390.03 66.2323 390.563 67.1084C391.093 68.0017 391.898 68.5731 392.979 68.8223C394.096 69.0795 395.079 68.9198 395.929 68.3438C396.756 67.7812 397.337 66.776 397.671 65.3281L397.686 65.2617L390.319 63.3818L390.271 63.5957ZM259.638 63.7334C260.023 64.9999 260.604 65.8827 261.382 66.3818C262.291 66.9806 263.339 67.1433 264.525 66.8701C265.729 66.5928 266.571 65.9401 267.051 64.9111C267.473 64.0269 267.583 62.9756 267.382 61.7578L259.638 63.7334ZM381.133 61.2207C380.799 62.6688 380.874 63.8995 381.357 64.9111C381.837 65.9401 382.679 66.5928 383.883 66.8701C385.069 67.1434 386.118 66.9807 387.027 66.3818C387.933 65.8004 388.573 64.6985 388.946 63.0762L388.955 63.0342L381.172 61.0488L381.133 61.2207ZM268.344 61.5127C268.687 62.4376 269.17 63.1118 269.793 63.5352C270.642 64.1111 271.625 64.2707 272.741 64.0137C273.823 63.7645 274.629 63.1924 275.158 62.2988C275.581 61.6044 275.728 60.7249 275.604 59.6602L268.344 61.5127ZM372.923 58.9443C372.628 60.3364 372.737 61.4544 373.251 62.2988C373.78 63.1924 374.585 63.7645 375.667 64.0137C376.783 64.2708 377.766 64.111 378.615 63.5352C379.384 63.0126 379.939 62.1077 380.281 60.8213L372.923 58.9443ZM277.07 59.2861C277.453 60.3602 277.993 61.1231 278.694 61.5732C279.604 62.1719 280.652 62.3346 281.838 62.0615C283.042 61.7842 283.884 61.1307 284.363 60.1016C284.741 59.3105 284.868 58.3861 284.746 57.3281L277.07 59.2861ZM363.777 56.6104C363.495 57.9727 363.584 59.1364 364.045 60.1016C364.524 61.1307 365.366 61.7842 366.57 62.0615C367.756 62.3347 368.804 62.1718 369.714 61.5732C370.557 61.0318 371.17 60.0382 371.552 58.5938L363.777 56.6104ZM285.802 57.0586C286.131 57.8026 286.565 58.3585 287.105 58.7256C287.955 59.3016 288.938 59.4613 290.055 59.2041C291.136 58.9549 291.942 58.3836 292.471 57.4902C292.841 56.8811 293 56.1294 292.95 55.2354L285.802 57.0586ZM355.538 54.5088C355.337 55.7287 355.471 56.7228 355.938 57.4902C356.468 58.3836 357.273 58.955 358.354 59.2041C359.471 59.4612 360.454 59.3015 361.303 58.7256C361.997 58.2539 362.516 57.4709 362.862 56.377L355.538 54.5088ZM294.961 54.7217C295.258 55.1836 295.606 55.5442 296.007 55.8018C296.916 56.4006 297.965 56.5633 299.151 56.29C300.355 56.0127 301.196 55.3591 301.676 54.3301C301.883 53.8962 302.014 53.4223 302.071 52.9082L294.961 54.7217ZM346.305 52.1533C346.284 52.9659 346.427 53.6915 346.732 54.3301C347.212 55.3592 348.054 56.0127 349.258 56.29C350.444 56.5632 351.492 56.4004 352.401 55.8018C352.976 55.433 353.442 54.854 353.803 54.0664L346.305 52.1533ZM324.134 49.8477C323.592 49.8477 323.06 49.8675 322.539 49.9062L324.033 55.7617L325.53 49.8926C325.072 49.863 324.607 49.8477 324.134 49.8477ZM345.424 52.5957C345.245 52.9783 345.039 53.3292 344.807 53.6494C344.991 53.8394 345.175 54.0322 345.356 54.2285C345.406 54.2809 345.454 54.3351 345.504 54.3877C345.409 53.8166 345.383 53.2193 345.424 52.5957ZM302.988 52.6748C303.015 53.1481 303.004 53.606 302.952 54.0488C303.132 53.8605 303.313 53.6756 303.495 53.4932C303.321 53.236 303.162 52.9609 303.021 52.666L302.988 52.6748ZM341.926 51.0361C342.656 51.6165 343.366 52.2401 344.057 52.9053C344.428 52.6372 344.749 52.2779 345.018 51.8252L341.926 51.0361ZM303.85 52.4551C303.963 52.5812 304.084 52.6948 304.211 52.7979C304.429 52.5926 304.649 52.3914 304.871 52.1943L303.85 52.4551Z" fill="white"/>
</svg>
