<svg width="416" height="482" viewBox="0 0 416 482" fill="none" xmlns="http://www.w3.org/2000/svg">
<rect x="1.5" y="1.5" width="413" height="479" rx="18.5" stroke="#0E008B" stroke-width="3"/>
<path d="M162.939 404.499H194.157V422H61.717V404.499H98.138V201.582H61.717V183.608H98.138C98.138 143.561 108.859 112.973 130.302 91.846C151.745 70.7187 181.701 60.155 220.172 60.155C228.055 60.155 236.569 60.7856 245.714 62.047C255.174 63.3083 265.265 65.0426 275.986 67.25C286.707 66.9346 295.221 66.304 301.528 65.358C307.835 64.0967 311.934 62.52 313.826 60.628L318.556 64.885V404.499H356.396V422H222.537V404.499H253.755V81.913C249.971 80.3363 246.029 79.2327 241.93 78.602C237.831 77.9713 232.943 77.656 227.267 77.656C205.824 77.656 189.742 84.5933 179.021 98.468C168.3 112.027 162.939 132.366 162.939 159.485V183.608H222.537V201.582H162.939V404.499Z" fill="#0E008B"/>
</svg>
