<svg width="594" height="423" viewBox="0 0 594 423" fill="none" xmlns="http://www.w3.org/2000/svg">
<mask id="path-1-outside-1_186_34" maskUnits="userSpaceOnUse" x="0" y="21.9219" width="594" height="401" fill="black">
<rect fill="white" y="21.9219" width="594" height="401"/>
<path d="M172.329 25.9864H199.693L295.903 212.984C296.269 212.984 296.634 212.983 297 212.983C380.387 212.983 450.4 219.884 507.04 233.685C563.396 247.667 591.714 266.618 591.996 290.536H592V389.833H591.997C591.749 399.448 563.431 407.066 507.04 412.685C450.4 418.228 380.387 420.999 297 420.999C213.614 420.999 143.6 418.228 86.9605 412.685C33.4349 407.351 5.20272 400.217 2.25977 391.283H2.00071V236.902H2C2.00013 236.884 2.00056 236.867 2.00071 236.85V161.523H2.38152C5.92927 116.958 34.1202 81.3025 86.9569 54.5578C112.66 41.7798 141.117 31.9012 172.329 24.9219V25.9864ZM297 315.699C216.761 315.699 149.501 319.111 95.2208 325.937C41.1904 332.861 14.0521 342.322 13.8037 354.318H13.5977V389.833H13.8037C14.0521 399.045 41.1904 406.31 95.2208 411.627C149.501 416.867 216.761 419.488 297 419.488C378.027 419.488 445.287 416.867 498.78 411.627C552.81 406.31 579.949 399.045 580.197 389.833H580.403V354.318H580.197C579.949 342.322 552.81 332.861 498.78 325.937C445.287 319.111 378.027 315.699 297 315.699ZM244.611 339.822C258.179 339.822 264.963 348.259 264.963 365.132V406.411H272.357V410.127H253.048V406.411H260.44V365.735C260.44 351.406 255.483 344.241 245.568 344.241C240.233 344.241 236.261 346.117 233.651 349.866C231.042 353.616 229.738 358.805 229.738 365.434V406.411H237.131V410.127H215.821V409.676L198.866 408.923V405.388L205.892 405.7V367.009C205.892 353.379 201.18 346.355 191.758 345.936C186.689 345.711 182.914 347.326 180.435 350.783C177.955 354.239 176.715 359.12 176.715 365.425V404.403L183.741 404.716V408.25L163.491 407.351V407.025L151.569 406.231V402.921L158.139 403.359V367.127C158.139 354.365 153.733 347.689 144.921 347.102C140.18 346.785 136.649 348.22 134.33 351.406C132.011 354.591 130.851 359.136 130.851 365.04V401.54L137.422 401.978V405.287L125.366 404.484V404.729L111.701 403.514V400.611L116.933 401.076V369.299C116.933 358.105 113.424 352.196 106.407 351.573C102.631 351.237 99.8202 352.452 97.9736 355.217C96.1269 357.982 95.2038 361.954 95.2038 367.132V399.144L100.436 399.609V402.513L85.3544 401.172V400.866L76.675 399.902V397.272L80.7089 397.72V368.925C80.7089 358.781 78.004 353.409 72.5937 352.808C69.6828 352.484 67.5154 353.571 66.0916 356.067C64.6678 358.563 63.9554 362.157 63.9554 366.849V395.858L67.99 396.306V398.937L56.3618 397.645V397.516L50.9816 396.799V394.358L53.8002 394.734V368.02C53.8002 358.61 51.9101 353.652 48.1305 353.148C46.0971 352.877 44.583 353.907 43.5884 356.236C42.5938 358.566 42.0963 361.908 42.0963 366.262V393.174L44.9148 393.55V395.99L36.7918 394.908V394.568L32.5611 393.911V391.693L34.5997 392.01V367.734C34.5997 359.183 33.2326 354.694 30.4985 354.269C29.0275 354.04 27.9316 354.988 27.2121 357.114C26.4926 359.24 26.1334 362.281 26.1334 366.237V390.693L28.1719 391.01V393.228L22.2955 392.314V391.734L20.0262 391.331V389.426L21.0151 389.602V368.746C21.0151 361.399 20.3515 357.608 19.0254 357.372C18.3121 357.245 17.781 358.112 17.432 359.972C17.0831 361.833 16.9083 364.463 16.9083 367.861V388.872L17.8971 389.048V390.953L15.0474 390.446V388.541L16.0362 388.716V367.603C16.0362 363.552 16.2803 360.403 16.7688 358.155C17.2574 355.942 17.9674 354.918 18.898 355.083C20.7125 355.406 21.6195 359.894 21.6195 368.545V389.709L22.6084 389.885V390.144L24.3341 390.413V365.837C24.3341 361.122 24.838 357.484 25.8453 354.923C26.8526 352.403 28.3157 351.292 30.2345 351.59C33.976 352.173 35.8469 357.499 35.8469 367.568V392.204L37.8854 392.521V392.612L39.6097 392.842V365.798C39.6097 360.609 40.3061 356.613 41.6985 353.808C43.091 351.047 45.1136 349.844 47.766 350.197C52.9379 350.887 55.5237 356.772 55.5238 367.854V394.964L56.3618 395.075V395.014L60.3957 395.462V366.312C60.3957 360.719 61.393 356.422 63.3863 353.42C65.3796 350.466 68.2745 349.199 72.0713 349.621C79.4751 350.444 83.1771 356.827 83.1771 368.772V397.994L86.8961 398.406L90.5867 398.735V366.565C90.5867 360.393 91.8795 355.643 94.4649 352.316C97.0502 349.041 100.805 347.622 105.73 348.06C115.333 348.913 120.134 355.931 120.134 369.113V400.825L125.054 401.153V364.475C125.054 357.437 126.678 351.999 129.924 348.16C133.171 344.38 137.886 342.697 144.07 343.109C156.129 343.913 162.159 351.829 162.159 366.859V403.627L168.019 404.017L170.517 404.128V364.959C170.517 357.443 172.252 351.597 175.723 347.421C179.195 343.308 184.237 341.399 190.849 341.692C203.743 342.266 210.19 350.577 210.19 366.626V405.891L217.215 406.203V406.411H223.214V365.233C223.214 357.332 225.041 351.105 228.694 346.552C232.347 342.065 237.652 339.822 244.611 339.822ZM305.495 345.621C319.064 345.621 325.848 353.362 325.848 368.843V406.718H333.241V406.948H339.28V371.626C339.28 357.189 346.151 349.97 359.893 349.97C366.94 349.97 372.314 351.889 376.014 355.728C379.714 359.623 381.564 364.952 381.564 371.713V406.948H393.953V371.626C393.953 357.188 399.78 349.97 411.435 349.97C417.412 349.97 421.969 351.889 425.107 355.728C428.245 359.623 429.814 364.952 429.814 371.713V406.948H436.165V410.127H417.86V406.948H424.211V371.884C424.211 366.212 423.09 361.772 420.849 358.564C418.608 355.355 415.196 353.751 410.614 353.751C402.097 353.751 397.837 359.882 397.837 372.142V406.948H404.188V410.127H367.469V406.948H374.957V371.884C374.957 366.212 373.636 361.772 370.993 358.564C368.35 355.355 364.327 353.751 358.924 353.751C348.881 353.751 343.86 359.882 343.86 372.142V406.948H351.348V410.127H313.932V406.718H321.325V369.396C321.325 356.249 316.367 349.676 306.452 349.676C301.117 349.676 297.145 351.395 294.536 354.836C291.926 358.276 290.622 363.038 290.622 369.12V406.718H298.015V410.127H276.706V406.718H284.099V368.935C284.099 361.686 285.925 355.973 289.578 351.795C293.231 347.679 298.537 345.621 305.495 345.621ZM485.393 350.103C490.317 349.666 494.072 351.085 496.658 354.359C499.243 357.686 500.536 362.436 500.536 368.608V400.777L504.258 400.446L507.946 400.037V370.815C507.946 358.871 511.647 352.487 519.051 351.665C522.848 351.243 525.743 352.509 527.736 355.463C529.73 358.465 530.727 362.762 530.727 368.356V397.506L534.761 397.058V397.119L535.599 397.008V369.897C535.599 358.816 538.185 352.931 543.357 352.241C546.009 351.887 548.032 353.091 549.424 355.851C550.817 358.656 551.513 362.653 551.513 367.842V394.886L553.237 394.656V394.564L555.276 394.247V369.611C555.276 359.541 557.147 354.215 560.888 353.633C562.807 353.335 564.27 354.446 565.277 356.967C566.285 359.528 566.789 363.165 566.789 367.881V392.456L568.514 392.187V391.928L569.503 391.753V370.588C569.503 361.937 570.41 357.45 572.225 357.127C573.155 356.961 573.865 357.985 574.354 360.199C574.842 362.446 575.086 365.596 575.086 369.647V390.76L576.075 390.584V392.49L573.226 392.996V391.091L574.214 390.915V369.905C574.214 366.506 574.04 363.876 573.691 362.016C573.342 360.156 572.811 359.289 572.097 359.415C570.771 359.651 570.108 363.442 570.108 370.789V391.645L571.096 391.469V393.374L568.827 393.778V394.357L562.951 395.271V393.053L564.989 392.736V368.281C564.989 364.325 564.63 361.283 563.911 359.158C563.191 357.032 562.095 356.083 560.624 356.312C557.89 356.738 556.523 361.226 556.523 369.777V394.053L558.562 393.736V395.954L554.331 396.612V396.95L546.208 398.033V395.593L549.026 395.218V368.305C549.026 363.951 548.529 360.61 547.534 358.28C546.54 355.95 545.026 354.921 542.992 355.192C539.213 355.696 537.322 360.653 537.322 370.063V396.778L540.141 396.402V398.842L534.761 399.559V399.688L523.133 400.98V398.35L527.167 397.902V368.893C527.167 364.2 526.455 360.606 525.031 358.11C523.607 355.614 521.44 354.527 518.529 354.851C513.119 355.452 510.414 360.825 510.414 370.968V399.763L514.448 399.314V401.945L505.768 402.909V403.216L490.687 404.556V401.653L495.919 401.188V369.176C495.919 363.997 494.996 360.025 493.149 357.26C491.302 354.495 488.491 353.281 484.716 353.616C477.699 354.24 474.189 360.149 474.189 371.342V403.119L479.422 402.654V405.557L465.756 406.772V403.869L470.988 403.404V371.156C470.988 357.975 475.79 350.957 485.393 350.103ZM297 232.648C216.761 232.648 149.501 239.173 95.2208 252.221C41.1904 265.46 14.0521 283.547 13.8037 306.482H13.5977V341.594C26.792 334.872 51.246 329.193 86.9605 324.559C143.6 317.34 213.614 313.73 297 313.73C380.387 313.73 450.4 317.34 507.04 324.559C542.755 329.193 567.209 334.872 580.403 341.594V306.482H580.197C579.949 283.547 552.81 265.46 498.78 252.221C445.287 239.173 378.027 232.648 297 232.648ZM244.843 241.83C258.411 241.83 265.196 249.136 265.196 263.748V299.494H272.589V300.636H276.789V275.953C276.789 265.864 284.183 260.82 298.969 260.82C306.551 260.82 312.333 262.161 316.314 264.844C320.295 267.566 322.285 271.289 322.285 276.014V300.636H323.094V300.364H330.487V264.618C330.487 250.006 337.271 242.7 350.84 242.7C357.798 242.7 363.104 244.642 366.757 248.527C370.41 252.47 372.237 257.863 372.237 264.705V300.364H379.63V300.759L386.006 301.042V267.849C386.006 254.281 392.262 247.775 404.774 248.331C411.191 248.616 416.084 250.637 419.452 254.394C422.821 258.205 424.505 263.287 424.505 269.641V302.754L431.323 303.057V303.205L435.48 303.574V271.658C435.48 258.611 441.111 252.589 452.37 253.59C458.145 254.103 462.548 256.228 465.579 259.966C468.611 263.756 470.126 268.706 470.126 274.815V306.654L476.262 307.2V307.37L477.896 307.552V279.465C477.896 267.984 482.474 262.753 491.629 263.77C496.323 264.292 499.903 266.215 502.368 269.541C504.833 272.913 506.065 277.288 506.065 282.663V310.682L510.56 311.181V284.953C510.56 274.168 514.43 269.292 522.171 270.324C526.141 270.853 529.168 272.69 531.252 275.835C533.336 279.023 534.378 283.142 534.378 288.192V314.513L538.026 314.999V290.696C538.026 280.72 541.107 276.212 547.267 277.17C550.427 277.662 552.836 279.363 554.495 282.273C556.154 285.223 556.983 289.033 556.983 293.704V318.048L559.523 318.443V298.078C559.523 289.555 561.638 285.669 565.866 286.421C568.034 286.806 569.687 288.233 570.825 290.701C571.964 293.204 572.533 296.45 572.533 300.441V321.243L574.837 321.653V323.53L568.196 322.349V320.472L570.5 320.882V300.182C570.5 296.833 570.094 294.14 569.281 292.101C568.468 290.063 567.23 288.895 565.568 288.6C562.478 288.051 560.933 291.395 560.933 298.633V319.181L563.237 319.59V321.468L557.219 320.398V320.282L550.664 319.263V317.066L554.022 317.587V293.362C554.022 289.443 553.429 286.283 552.244 283.882C551.059 281.481 549.256 280.092 546.834 279.715C542.331 279.015 540.079 282.9 540.079 291.372V315.419L543.437 315.941V318.138L538.596 317.385V317.451L526.438 315.829V313.454L530.656 314.016V287.825C530.656 283.588 529.912 280.172 528.424 277.576C526.935 274.981 524.668 273.481 521.625 273.075C515.968 272.321 513.14 276.523 513.14 285.682V311.681L517.357 312.243V314.619L510.433 313.695L496.676 312.167V309.639L501.664 310.193V282.311C501.664 277.801 500.783 274.172 499.023 271.425C497.262 268.678 494.582 267.105 490.983 266.705C484.293 265.962 480.948 270.465 480.948 280.214V307.891L485.936 308.445V310.974L476.262 309.898V310.073L458.578 308.501V305.628L464.713 306.173V274.489C464.713 269.364 463.631 265.255 461.465 262.163C459.3 259.072 456.003 257.329 451.576 256.935C443.348 256.204 439.234 261.378 439.234 272.457V303.908L445.369 304.453V307.326L430.584 306.012L411.673 305.172V302.183L418.49 302.486V269.535C418.49 264.205 417.287 259.978 414.88 256.856C412.474 253.734 408.811 252.064 403.892 251.846C394.749 251.439 390.177 256.997 390.177 268.519V301.228L396.994 301.531V304.519L379.188 303.728V303.583H358.32V300.364H365.713V264.878C365.713 259.138 364.408 254.645 361.799 251.397C359.19 248.15 355.218 246.527 349.884 246.527C339.968 246.527 335.01 252.731 335.01 265.14V300.364H342.403V303.583H323.094V302.858H307.12V300.636H315.177V276.134C315.177 272.17 313.755 269.068 310.911 266.826C308.068 264.584 303.739 263.462 297.926 263.462C287.121 263.462 281.718 267.746 281.718 276.314V300.636H289.775V302.858H268.733V302.713H253.279V299.494H260.673V264.27C260.673 251.861 255.714 245.657 245.799 245.657C240.465 245.657 236.493 247.281 233.883 250.528C231.274 253.775 229.969 258.268 229.969 264.008V299.494H237.362V302.713H216.494V302.858L198.688 303.649V300.661L205.506 300.358V267.649C205.506 256.127 200.934 250.569 191.79 250.976C186.871 251.194 183.208 252.864 180.802 255.986C178.396 259.108 177.193 263.335 177.193 268.665V301.616L184.01 301.313V304.302L165.098 305.142L150.313 306.456V303.583L156.449 303.038V271.587C156.449 260.508 152.334 255.334 144.106 256.065C139.679 256.459 136.383 258.202 134.217 261.293C132.052 264.385 130.97 268.494 130.97 273.619V305.303L137.104 304.758V307.631L119.421 309.203V309.029L109.746 310.104V307.575L114.735 307.021V279.345C114.735 269.595 111.389 265.092 104.699 265.835C101.1 266.235 98.4203 267.808 96.6598 270.555C94.8993 273.302 94.0189 276.931 94.0189 281.441V309.323L99.007 308.769V311.297L85.2489 312.825L78.325 313.749V311.374L82.5429 310.812V284.812C82.5429 275.653 79.7142 271.451 74.0575 272.205C71.014 272.611 68.7475 274.111 67.2588 276.707C65.7702 279.302 65.0263 282.718 65.0263 286.955V313.147L69.2443 312.585V314.959L57.0866 316.581V316.515L52.2458 317.268V315.071L55.603 314.549V290.502C55.603 282.031 53.3513 278.145 48.8489 278.846C46.4268 279.222 44.6231 280.611 43.4383 283.012C42.2535 285.413 41.661 288.573 41.661 292.492V316.717L45.0182 316.196V318.393L38.463 319.412V319.528L32.4458 320.598V318.721L34.7497 318.311V297.763C34.7497 290.525 33.2046 287.181 30.1149 287.73C28.4527 288.026 27.2147 289.193 26.4016 291.231C25.5887 293.27 25.1821 295.964 25.182 299.312V320.012L27.486 319.602V321.48L20.8459 322.66V320.783L23.1499 320.373V299.572C23.1499 295.58 23.7189 292.334 24.8571 289.831C25.9955 287.363 27.6487 285.936 29.8169 285.551C34.0449 284.799 36.159 288.685 36.159 297.208V317.573L38.6994 317.178V292.834C38.6994 288.163 39.5287 284.353 41.1874 281.403C42.8462 278.493 45.2555 276.792 48.415 276.3C54.576 275.342 57.6564 279.851 57.6564 289.826V314.129L61.3046 313.643V287.322C61.3046 282.272 62.3464 278.153 64.4303 274.965C66.5145 271.82 69.542 269.983 73.5118 269.454C81.2526 268.422 85.123 273.298 85.123 284.083V310.311L89.6177 309.812V281.794C89.6177 276.418 90.8499 272.043 93.3146 268.672C95.7793 265.345 99.3592 263.422 104.054 262.9C113.208 261.883 117.786 267.114 117.786 278.595V306.682L119.421 306.5V306.33L125.556 305.784V273.945C125.556 267.836 127.072 262.886 130.103 259.096C133.135 255.358 137.538 253.233 143.312 252.72C154.572 251.719 160.202 257.742 160.202 270.788V302.704L164.359 302.335V302.187L171.177 301.884V268.771C171.177 262.417 172.862 257.335 176.23 253.524C179.599 249.767 184.492 247.747 190.908 247.461C203.421 246.905 209.676 253.411 209.676 266.979V300.172L216.053 299.889V299.494H223.446V263.835C223.446 256.993 225.273 251.6 228.926 247.657C232.579 243.773 237.885 241.83 244.843 241.83ZM297 216.747C216.761 216.747 149.501 223.272 95.2208 236.32C49.8208 247.444 23.4086 261.992 15.9817 279.962C29.6371 268.064 53.2965 257.939 86.9605 249.587C143.6 235.785 213.614 228.884 297 228.884C380.387 228.884 450.4 235.785 507.04 249.587C540.704 257.939 564.363 268.064 578.018 279.962C570.591 261.992 544.18 247.444 498.78 236.32C445.287 223.272 378.027 216.747 297 216.747ZM222.718 130.963C173.914 135.178 131.414 143.802 95.2173 156.838C41.2104 176.374 14.0726 203.062 13.8009 236.902H13.5977V266.254C26.7919 253.403 51.2459 242.546 86.9605 233.685C136.223 221.681 195.603 214.899 265.099 213.335L222.718 130.963ZM188.887 149.267C201.251 146.788 207.433 152.333 207.433 165.901V199.094L214.17 197.743V200.731L196.575 204.26V201.271L203.312 199.921V167.212C203.312 155.689 198.794 150.835 189.759 152.646C184.898 153.621 181.278 155.854 178.901 159.346C176.523 162.838 175.335 167.249 175.335 172.58V205.531L182.071 204.18V207.168L163.392 210.914L148.775 214.502V211.629L154.838 210.141V178.69C154.838 167.611 150.772 163.069 142.641 165.066C138.267 166.14 135.01 168.389 132.87 171.813C130.73 175.238 129.661 179.513 129.661 184.638V216.322L135.723 214.834V217.707L118.249 221.997V221.822L108.69 224.385V221.856L113.619 220.536V192.859C113.619 183.11 110.314 179.121 103.703 180.892C100.147 181.845 97.4984 183.83 95.7588 186.848C94.0192 189.865 93.1497 193.629 93.1497 198.139V226.021L98.0783 224.7V227.229L84.4845 230.871L77.6419 232.859V230.484L81.8096 229.274V203.274C81.8096 194.116 79.0144 190.348 73.4247 191.971C70.4175 192.845 68.1784 194.694 66.7074 197.518C65.2365 200.342 64.5011 203.872 64.5011 208.109V234.301L68.6688 233.091V235.466L56.6563 238.956V238.89L51.8728 240.388V238.191L55.1897 237.152V213.104C55.1897 204.633 52.9651 201.094 48.5163 202.486C46.1228 203.235 44.3408 204.901 43.17 207.484C41.9993 210.068 41.4139 213.319 41.4139 217.238V241.463L44.7308 240.425V242.622L38.2535 244.649V244.766L32.3077 246.76V244.883L34.5841 244.119V223.571C34.5841 216.333 33.058 213.226 30.0052 214.25C28.3626 214.801 27.1392 216.159 26.3358 218.322C25.5324 220.486 25.1311 223.242 25.1311 226.59V247.291L27.4074 246.527V248.404L20.8459 250.605V248.728L23.1223 247.965V227.163C23.1223 223.172 23.6849 219.837 24.8097 217.16C25.9345 214.517 27.5677 212.836 29.71 212.117C33.8878 210.716 35.9771 214.276 35.9771 222.8V243.165L38.4871 242.379V218.035C38.4871 213.364 39.3064 209.426 40.9453 206.222C42.5844 203.057 44.9653 200.985 48.0873 200.008C54.1751 198.103 57.219 202.138 57.219 212.113V236.416L60.824 235.369V209.049C60.824 203.999 61.8536 199.72 63.9129 196.211C65.9722 192.746 68.963 190.443 72.8853 189.304C80.5344 187.082 84.3592 191.363 84.3592 202.148V228.377L88.8008 227.187V199.168C88.8008 193.793 90.0185 189.229 92.4539 185.479C94.8893 181.774 98.4262 179.299 103.065 178.056C112.111 175.632 116.634 180.16 116.634 191.641V219.727L118.249 219.294V219.124L124.312 217.635V185.796C124.312 179.687 125.81 174.505 128.805 170.249C131.801 166.045 136.151 163.242 141.857 161.841C152.983 159.11 158.546 164.267 158.546 177.313V209.231L162.654 208.221V208.073L169.39 206.723V173.61C169.39 167.257 171.055 161.916 174.383 157.587C177.712 153.312 182.547 150.539 188.887 149.267ZM172.256 32.8826C144.007 39.415 118.328 48.4316 95.2173 59.9328C41.3467 86.8621 14.2086 123.625 13.8023 170.221H13.5977V201.026C26.7929 182.055 51.2455 166.028 86.9569 152.948C125.197 139.191 169.534 130.081 219.965 125.612L172.256 32.8826ZM24.55 156.829C26.6374 156.129 27.6814 157.908 27.6814 162.167V172.586L28.8189 172.204V173.142L25.8481 174.139V173.201L26.9856 172.819V162.552C26.9856 158.936 26.2226 157.383 24.6972 157.895C23.8766 158.17 23.2653 158.849 22.8639 159.93C22.4625 161.011 22.2623 162.388 22.2623 164.061V174.404L23.3997 174.022V174.96L20.1211 176.06V175.122L21.2586 174.741V164.347C21.2586 162.353 21.5396 160.686 22.1016 159.349C22.6635 158.028 23.4796 157.188 24.55 156.829ZM54.2497 129.203C57.0536 128.326 58.4555 130.184 58.4556 134.778V146.019L59.9838 145.541V146.553L55.993 147.802V146.79L57.5205 146.311V135.235C57.5205 131.333 56.4962 129.703 54.4471 130.345C53.3448 130.69 52.5239 131.457 51.9846 132.647C51.4454 133.836 51.1756 135.334 51.1756 137.139V148.298L52.7038 147.82V148.831L48.2997 150.21V149.198L49.8279 148.719V137.506C49.8279 135.355 50.2047 133.541 50.9597 132.065C51.7146 130.607 52.8117 129.653 54.2497 129.203ZM109.803 96.8676C114.152 95.7021 116.326 97.8791 116.326 103.399V116.901L118.696 116.267V117.482L112.507 119.14V117.925L114.876 117.29V103.984C114.876 99.2971 113.288 97.3794 110.11 98.2309C108.4 98.6891 107.127 99.6434 106.291 101.094C105.454 102.545 105.036 104.354 105.036 106.523V119.927L107.405 119.292V120.508L100.576 122.338V121.123L102.945 120.487V107.018C102.945 104.433 103.531 102.239 104.701 100.436C105.872 98.6546 107.573 97.4653 109.803 96.8676Z"/>
</mask>
<path d="M172.329 25.9864H199.693L295.903 212.984C296.269 212.984 296.634 212.983 297 212.983C380.387 212.983 450.4 219.884 507.04 233.685C563.396 247.667 591.714 266.618 591.996 290.536H592V389.833H591.997C591.749 399.448 563.431 407.066 507.04 412.685C450.4 418.228 380.387 420.999 297 420.999C213.614 420.999 143.6 418.228 86.9605 412.685C33.4349 407.351 5.20272 400.217 2.25977 391.283H2.00071V236.902H2C2.00013 236.884 2.00056 236.867 2.00071 236.85V161.523H2.38152C5.92927 116.958 34.1202 81.3025 86.9569 54.5578C112.66 41.7798 141.117 31.9012 172.329 24.9219V25.9864ZM297 315.699C216.761 315.699 149.501 319.111 95.2208 325.937C41.1904 332.861 14.0521 342.322 13.8037 354.318H13.5977V389.833H13.8037C14.0521 399.045 41.1904 406.31 95.2208 411.627C149.501 416.867 216.761 419.488 297 419.488C378.027 419.488 445.287 416.867 498.78 411.627C552.81 406.31 579.949 399.045 580.197 389.833H580.403V354.318H580.197C579.949 342.322 552.81 332.861 498.78 325.937C445.287 319.111 378.027 315.699 297 315.699ZM244.611 339.822C258.179 339.822 264.963 348.259 264.963 365.132V406.411H272.357V410.127H253.048V406.411H260.44V365.735C260.44 351.406 255.483 344.241 245.568 344.241C240.233 344.241 236.261 346.117 233.651 349.866C231.042 353.616 229.738 358.805 229.738 365.434V406.411H237.131V410.127H215.821V409.676L198.866 408.923V405.388L205.892 405.7V367.009C205.892 353.379 201.18 346.355 191.758 345.936C186.689 345.711 182.914 347.326 180.435 350.783C177.955 354.239 176.715 359.12 176.715 365.425V404.403L183.741 404.716V408.25L163.491 407.351V407.025L151.569 406.231V402.921L158.139 403.359V367.127C158.139 354.365 153.733 347.689 144.921 347.102C140.18 346.785 136.649 348.22 134.33 351.406C132.011 354.591 130.851 359.136 130.851 365.04V401.54L137.422 401.978V405.287L125.366 404.484V404.729L111.701 403.514V400.611L116.933 401.076V369.299C116.933 358.105 113.424 352.196 106.407 351.573C102.631 351.237 99.8202 352.452 97.9736 355.217C96.1269 357.982 95.2038 361.954 95.2038 367.132V399.144L100.436 399.609V402.513L85.3544 401.172V400.866L76.675 399.902V397.272L80.7089 397.72V368.925C80.7089 358.781 78.004 353.409 72.5937 352.808C69.6828 352.484 67.5154 353.571 66.0916 356.067C64.6678 358.563 63.9554 362.157 63.9554 366.849V395.858L67.99 396.306V398.937L56.3618 397.645V397.516L50.9816 396.799V394.358L53.8002 394.734V368.02C53.8002 358.61 51.9101 353.652 48.1305 353.148C46.0971 352.877 44.583 353.907 43.5884 356.236C42.5938 358.566 42.0963 361.908 42.0963 366.262V393.174L44.9148 393.55V395.99L36.7918 394.908V394.568L32.5611 393.911V391.693L34.5997 392.01V367.734C34.5997 359.183 33.2326 354.694 30.4985 354.269C29.0275 354.04 27.9316 354.988 27.2121 357.114C26.4926 359.24 26.1334 362.281 26.1334 366.237V390.693L28.1719 391.01V393.228L22.2955 392.314V391.734L20.0262 391.331V389.426L21.0151 389.602V368.746C21.0151 361.399 20.3515 357.608 19.0254 357.372C18.3121 357.245 17.781 358.112 17.432 359.972C17.0831 361.833 16.9083 364.463 16.9083 367.861V388.872L17.8971 389.048V390.953L15.0474 390.446V388.541L16.0362 388.716V367.603C16.0362 363.552 16.2803 360.403 16.7688 358.155C17.2574 355.942 17.9674 354.918 18.898 355.083C20.7125 355.406 21.6195 359.894 21.6195 368.545V389.709L22.6084 389.885V390.144L24.3341 390.413V365.837C24.3341 361.122 24.838 357.484 25.8453 354.923C26.8526 352.403 28.3157 351.292 30.2345 351.59C33.976 352.173 35.8469 357.499 35.8469 367.568V392.204L37.8854 392.521V392.612L39.6097 392.842V365.798C39.6097 360.609 40.3061 356.613 41.6985 353.808C43.091 351.047 45.1136 349.844 47.766 350.197C52.9379 350.887 55.5237 356.772 55.5238 367.854V394.964L56.3618 395.075V395.014L60.3957 395.462V366.312C60.3957 360.719 61.393 356.422 63.3863 353.42C65.3796 350.466 68.2745 349.199 72.0713 349.621C79.4751 350.444 83.1771 356.827 83.1771 368.772V397.994L86.8961 398.406L90.5867 398.735V366.565C90.5867 360.393 91.8795 355.643 94.4649 352.316C97.0502 349.041 100.805 347.622 105.73 348.06C115.333 348.913 120.134 355.931 120.134 369.113V400.825L125.054 401.153V364.475C125.054 357.437 126.678 351.999 129.924 348.16C133.171 344.38 137.886 342.697 144.07 343.109C156.129 343.913 162.159 351.829 162.159 366.859V403.627L168.019 404.017L170.517 404.128V364.959C170.517 357.443 172.252 351.597 175.723 347.421C179.195 343.308 184.237 341.399 190.849 341.692C203.743 342.266 210.19 350.577 210.19 366.626V405.891L217.215 406.203V406.411H223.214V365.233C223.214 357.332 225.041 351.105 228.694 346.552C232.347 342.065 237.652 339.822 244.611 339.822ZM305.495 345.621C319.064 345.621 325.848 353.362 325.848 368.843V406.718H333.241V406.948H339.28V371.626C339.28 357.189 346.151 349.97 359.893 349.97C366.94 349.97 372.314 351.889 376.014 355.728C379.714 359.623 381.564 364.952 381.564 371.713V406.948H393.953V371.626C393.953 357.188 399.78 349.97 411.435 349.97C417.412 349.97 421.969 351.889 425.107 355.728C428.245 359.623 429.814 364.952 429.814 371.713V406.948H436.165V410.127H417.86V406.948H424.211V371.884C424.211 366.212 423.09 361.772 420.849 358.564C418.608 355.355 415.196 353.751 410.614 353.751C402.097 353.751 397.837 359.882 397.837 372.142V406.948H404.188V410.127H367.469V406.948H374.957V371.884C374.957 366.212 373.636 361.772 370.993 358.564C368.35 355.355 364.327 353.751 358.924 353.751C348.881 353.751 343.86 359.882 343.86 372.142V406.948H351.348V410.127H313.932V406.718H321.325V369.396C321.325 356.249 316.367 349.676 306.452 349.676C301.117 349.676 297.145 351.395 294.536 354.836C291.926 358.276 290.622 363.038 290.622 369.12V406.718H298.015V410.127H276.706V406.718H284.099V368.935C284.099 361.686 285.925 355.973 289.578 351.795C293.231 347.679 298.537 345.621 305.495 345.621ZM485.393 350.103C490.317 349.666 494.072 351.085 496.658 354.359C499.243 357.686 500.536 362.436 500.536 368.608V400.777L504.258 400.446L507.946 400.037V370.815C507.946 358.871 511.647 352.487 519.051 351.665C522.848 351.243 525.743 352.509 527.736 355.463C529.73 358.465 530.727 362.762 530.727 368.356V397.506L534.761 397.058V397.119L535.599 397.008V369.897C535.599 358.816 538.185 352.931 543.357 352.241C546.009 351.887 548.032 353.091 549.424 355.851C550.817 358.656 551.513 362.653 551.513 367.842V394.886L553.237 394.656V394.564L555.276 394.247V369.611C555.276 359.541 557.147 354.215 560.888 353.633C562.807 353.335 564.27 354.446 565.277 356.967C566.285 359.528 566.789 363.165 566.789 367.881V392.456L568.514 392.187V391.928L569.503 391.753V370.588C569.503 361.937 570.41 357.45 572.225 357.127C573.155 356.961 573.865 357.985 574.354 360.199C574.842 362.446 575.086 365.596 575.086 369.647V390.76L576.075 390.584V392.49L573.226 392.996V391.091L574.214 390.915V369.905C574.214 366.506 574.04 363.876 573.691 362.016C573.342 360.156 572.811 359.289 572.097 359.415C570.771 359.651 570.108 363.442 570.108 370.789V391.645L571.096 391.469V393.374L568.827 393.778V394.357L562.951 395.271V393.053L564.989 392.736V368.281C564.989 364.325 564.63 361.283 563.911 359.158C563.191 357.032 562.095 356.083 560.624 356.312C557.89 356.738 556.523 361.226 556.523 369.777V394.053L558.562 393.736V395.954L554.331 396.612V396.95L546.208 398.033V395.593L549.026 395.218V368.305C549.026 363.951 548.529 360.61 547.534 358.28C546.54 355.95 545.026 354.921 542.992 355.192C539.213 355.696 537.322 360.653 537.322 370.063V396.778L540.141 396.402V398.842L534.761 399.559V399.688L523.133 400.98V398.35L527.167 397.902V368.893C527.167 364.2 526.455 360.606 525.031 358.11C523.607 355.614 521.44 354.527 518.529 354.851C513.119 355.452 510.414 360.825 510.414 370.968V399.763L514.448 399.314V401.945L505.768 402.909V403.216L490.687 404.556V401.653L495.919 401.188V369.176C495.919 363.997 494.996 360.025 493.149 357.26C491.302 354.495 488.491 353.281 484.716 353.616C477.699 354.24 474.189 360.149 474.189 371.342V403.119L479.422 402.654V405.557L465.756 406.772V403.869L470.988 403.404V371.156C470.988 357.975 475.79 350.957 485.393 350.103ZM297 232.648C216.761 232.648 149.501 239.173 95.2208 252.221C41.1904 265.46 14.0521 283.547 13.8037 306.482H13.5977V341.594C26.792 334.872 51.246 329.193 86.9605 324.559C143.6 317.34 213.614 313.73 297 313.73C380.387 313.73 450.4 317.34 507.04 324.559C542.755 329.193 567.209 334.872 580.403 341.594V306.482H580.197C579.949 283.547 552.81 265.46 498.78 252.221C445.287 239.173 378.027 232.648 297 232.648ZM244.843 241.83C258.411 241.83 265.196 249.136 265.196 263.748V299.494H272.589V300.636H276.789V275.953C276.789 265.864 284.183 260.82 298.969 260.82C306.551 260.82 312.333 262.161 316.314 264.844C320.295 267.566 322.285 271.289 322.285 276.014V300.636H323.094V300.364H330.487V264.618C330.487 250.006 337.271 242.7 350.84 242.7C357.798 242.7 363.104 244.642 366.757 248.527C370.41 252.47 372.237 257.863 372.237 264.705V300.364H379.63V300.759L386.006 301.042V267.849C386.006 254.281 392.262 247.775 404.774 248.331C411.191 248.616 416.084 250.637 419.452 254.394C422.821 258.205 424.505 263.287 424.505 269.641V302.754L431.323 303.057V303.205L435.48 303.574V271.658C435.48 258.611 441.111 252.589 452.37 253.59C458.145 254.103 462.548 256.228 465.579 259.966C468.611 263.756 470.126 268.706 470.126 274.815V306.654L476.262 307.2V307.37L477.896 307.552V279.465C477.896 267.984 482.474 262.753 491.629 263.77C496.323 264.292 499.903 266.215 502.368 269.541C504.833 272.913 506.065 277.288 506.065 282.663V310.682L510.56 311.181V284.953C510.56 274.168 514.43 269.292 522.171 270.324C526.141 270.853 529.168 272.69 531.252 275.835C533.336 279.023 534.378 283.142 534.378 288.192V314.513L538.026 314.999V290.696C538.026 280.72 541.107 276.212 547.267 277.17C550.427 277.662 552.836 279.363 554.495 282.273C556.154 285.223 556.983 289.033 556.983 293.704V318.048L559.523 318.443V298.078C559.523 289.555 561.638 285.669 565.866 286.421C568.034 286.806 569.687 288.233 570.825 290.701C571.964 293.204 572.533 296.45 572.533 300.441V321.243L574.837 321.653V323.53L568.196 322.349V320.472L570.5 320.882V300.182C570.5 296.833 570.094 294.14 569.281 292.101C568.468 290.063 567.23 288.895 565.568 288.6C562.478 288.051 560.933 291.395 560.933 298.633V319.181L563.237 319.59V321.468L557.219 320.398V320.282L550.664 319.263V317.066L554.022 317.587V293.362C554.022 289.443 553.429 286.283 552.244 283.882C551.059 281.481 549.256 280.092 546.834 279.715C542.331 279.015 540.079 282.9 540.079 291.372V315.419L543.437 315.941V318.138L538.596 317.385V317.451L526.438 315.829V313.454L530.656 314.016V287.825C530.656 283.588 529.912 280.172 528.424 277.576C526.935 274.981 524.668 273.481 521.625 273.075C515.968 272.321 513.14 276.523 513.14 285.682V311.681L517.357 312.243V314.619L510.433 313.695L496.676 312.167V309.639L501.664 310.193V282.311C501.664 277.801 500.783 274.172 499.023 271.425C497.262 268.678 494.582 267.105 490.983 266.705C484.293 265.962 480.948 270.465 480.948 280.214V307.891L485.936 308.445V310.974L476.262 309.898V310.073L458.578 308.501V305.628L464.713 306.173V274.489C464.713 269.364 463.631 265.255 461.465 262.163C459.3 259.072 456.003 257.329 451.576 256.935C443.348 256.204 439.234 261.378 439.234 272.457V303.908L445.369 304.453V307.326L430.584 306.012L411.673 305.172V302.183L418.49 302.486V269.535C418.49 264.205 417.287 259.978 414.88 256.856C412.474 253.734 408.811 252.064 403.892 251.846C394.749 251.439 390.177 256.997 390.177 268.519V301.228L396.994 301.531V304.519L379.188 303.728V303.583H358.32V300.364H365.713V264.878C365.713 259.138 364.408 254.645 361.799 251.397C359.19 248.15 355.218 246.527 349.884 246.527C339.968 246.527 335.01 252.731 335.01 265.14V300.364H342.403V303.583H323.094V302.858H307.12V300.636H315.177V276.134C315.177 272.17 313.755 269.068 310.911 266.826C308.068 264.584 303.739 263.462 297.926 263.462C287.121 263.462 281.718 267.746 281.718 276.314V300.636H289.775V302.858H268.733V302.713H253.279V299.494H260.673V264.27C260.673 251.861 255.714 245.657 245.799 245.657C240.465 245.657 236.493 247.281 233.883 250.528C231.274 253.775 229.969 258.268 229.969 264.008V299.494H237.362V302.713H216.494V302.858L198.688 303.649V300.661L205.506 300.358V267.649C205.506 256.127 200.934 250.569 191.79 250.976C186.871 251.194 183.208 252.864 180.802 255.986C178.396 259.108 177.193 263.335 177.193 268.665V301.616L184.01 301.313V304.302L165.098 305.142L150.313 306.456V303.583L156.449 303.038V271.587C156.449 260.508 152.334 255.334 144.106 256.065C139.679 256.459 136.383 258.202 134.217 261.293C132.052 264.385 130.97 268.494 130.97 273.619V305.303L137.104 304.758V307.631L119.421 309.203V309.029L109.746 310.104V307.575L114.735 307.021V279.345C114.735 269.595 111.389 265.092 104.699 265.835C101.1 266.235 98.4203 267.808 96.6598 270.555C94.8993 273.302 94.0189 276.931 94.0189 281.441V309.323L99.007 308.769V311.297L85.2489 312.825L78.325 313.749V311.374L82.5429 310.812V284.812C82.5429 275.653 79.7142 271.451 74.0575 272.205C71.014 272.611 68.7475 274.111 67.2588 276.707C65.7702 279.302 65.0263 282.718 65.0263 286.955V313.147L69.2443 312.585V314.959L57.0866 316.581V316.515L52.2458 317.268V315.071L55.603 314.549V290.502C55.603 282.031 53.3513 278.145 48.8489 278.846C46.4268 279.222 44.6231 280.611 43.4383 283.012C42.2535 285.413 41.661 288.573 41.661 292.492V316.717L45.0182 316.196V318.393L38.463 319.412V319.528L32.4458 320.598V318.721L34.7497 318.311V297.763C34.7497 290.525 33.2046 287.181 30.1149 287.73C28.4527 288.026 27.2147 289.193 26.4016 291.231C25.5887 293.27 25.1821 295.964 25.182 299.312V320.012L27.486 319.602V321.48L20.8459 322.66V320.783L23.1499 320.373V299.572C23.1499 295.58 23.7189 292.334 24.8571 289.831C25.9955 287.363 27.6487 285.936 29.8169 285.551C34.0449 284.799 36.159 288.685 36.159 297.208V317.573L38.6994 317.178V292.834C38.6994 288.163 39.5287 284.353 41.1874 281.403C42.8462 278.493 45.2555 276.792 48.415 276.3C54.576 275.342 57.6564 279.851 57.6564 289.826V314.129L61.3046 313.643V287.322C61.3046 282.272 62.3464 278.153 64.4303 274.965C66.5145 271.82 69.542 269.983 73.5118 269.454C81.2526 268.422 85.123 273.298 85.123 284.083V310.311L89.6177 309.812V281.794C89.6177 276.418 90.8499 272.043 93.3146 268.672C95.7793 265.345 99.3592 263.422 104.054 262.9C113.208 261.883 117.786 267.114 117.786 278.595V306.682L119.421 306.5V306.33L125.556 305.784V273.945C125.556 267.836 127.072 262.886 130.103 259.096C133.135 255.358 137.538 253.233 143.312 252.72C154.572 251.719 160.202 257.742 160.202 270.788V302.704L164.359 302.335V302.187L171.177 301.884V268.771C171.177 262.417 172.862 257.335 176.23 253.524C179.599 249.767 184.492 247.747 190.908 247.461C203.421 246.905 209.676 253.411 209.676 266.979V300.172L216.053 299.889V299.494H223.446V263.835C223.446 256.993 225.273 251.6 228.926 247.657C232.579 243.773 237.885 241.83 244.843 241.83ZM297 216.747C216.761 216.747 149.501 223.272 95.2208 236.32C49.8208 247.444 23.4086 261.992 15.9817 279.962C29.6371 268.064 53.2965 257.939 86.9605 249.587C143.6 235.785 213.614 228.884 297 228.884C380.387 228.884 450.4 235.785 507.04 249.587C540.704 257.939 564.363 268.064 578.018 279.962C570.591 261.992 544.18 247.444 498.78 236.32C445.287 223.272 378.027 216.747 297 216.747ZM222.718 130.963C173.914 135.178 131.414 143.802 95.2173 156.838C41.2104 176.374 14.0726 203.062 13.8009 236.902H13.5977V266.254C26.7919 253.403 51.2459 242.546 86.9605 233.685C136.223 221.681 195.603 214.899 265.099 213.335L222.718 130.963ZM188.887 149.267C201.251 146.788 207.433 152.333 207.433 165.901V199.094L214.17 197.743V200.731L196.575 204.26V201.271L203.312 199.921V167.212C203.312 155.689 198.794 150.835 189.759 152.646C184.898 153.621 181.278 155.854 178.901 159.346C176.523 162.838 175.335 167.249 175.335 172.58V205.531L182.071 204.18V207.168L163.392 210.914L148.775 214.502V211.629L154.838 210.141V178.69C154.838 167.611 150.772 163.069 142.641 165.066C138.267 166.14 135.01 168.389 132.87 171.813C130.73 175.238 129.661 179.513 129.661 184.638V216.322L135.723 214.834V217.707L118.249 221.997V221.822L108.69 224.385V221.856L113.619 220.536V192.859C113.619 183.11 110.314 179.121 103.703 180.892C100.147 181.845 97.4984 183.83 95.7588 186.848C94.0192 189.865 93.1497 193.629 93.1497 198.139V226.021L98.0783 224.7V227.229L84.4845 230.871L77.6419 232.859V230.484L81.8096 229.274V203.274C81.8096 194.116 79.0144 190.348 73.4247 191.971C70.4175 192.845 68.1784 194.694 66.7074 197.518C65.2365 200.342 64.5011 203.872 64.5011 208.109V234.301L68.6688 233.091V235.466L56.6563 238.956V238.89L51.8728 240.388V238.191L55.1897 237.152V213.104C55.1897 204.633 52.9651 201.094 48.5163 202.486C46.1228 203.235 44.3408 204.901 43.17 207.484C41.9993 210.068 41.4139 213.319 41.4139 217.238V241.463L44.7308 240.425V242.622L38.2535 244.649V244.766L32.3077 246.76V244.883L34.5841 244.119V223.571C34.5841 216.333 33.058 213.226 30.0052 214.25C28.3626 214.801 27.1392 216.159 26.3358 218.322C25.5324 220.486 25.1311 223.242 25.1311 226.59V247.291L27.4074 246.527V248.404L20.8459 250.605V248.728L23.1223 247.965V227.163C23.1223 223.172 23.6849 219.837 24.8097 217.16C25.9345 214.517 27.5677 212.836 29.71 212.117C33.8878 210.716 35.9771 214.276 35.9771 222.8V243.165L38.4871 242.379V218.035C38.4871 213.364 39.3064 209.426 40.9453 206.222C42.5844 203.057 44.9653 200.985 48.0873 200.008C54.1751 198.103 57.219 202.138 57.219 212.113V236.416L60.824 235.369V209.049C60.824 203.999 61.8536 199.72 63.9129 196.211C65.9722 192.746 68.963 190.443 72.8853 189.304C80.5344 187.082 84.3592 191.363 84.3592 202.148V228.377L88.8008 227.187V199.168C88.8008 193.793 90.0185 189.229 92.4539 185.479C94.8893 181.774 98.4262 179.299 103.065 178.056C112.111 175.632 116.634 180.16 116.634 191.641V219.727L118.249 219.294V219.124L124.312 217.635V185.796C124.312 179.687 125.81 174.505 128.805 170.249C131.801 166.045 136.151 163.242 141.857 161.841C152.983 159.11 158.546 164.267 158.546 177.313V209.231L162.654 208.221V208.073L169.39 206.723V173.61C169.39 167.257 171.055 161.916 174.383 157.587C177.712 153.312 182.547 150.539 188.887 149.267ZM172.256 32.8826C144.007 39.415 118.328 48.4316 95.2173 59.9328C41.3467 86.8621 14.2086 123.625 13.8023 170.221H13.5977V201.026C26.7929 182.055 51.2455 166.028 86.9569 152.948C125.197 139.191 169.534 130.081 219.965 125.612L172.256 32.8826ZM24.55 156.829C26.6374 156.129 27.6814 157.908 27.6814 162.167V172.586L28.8189 172.204V173.142L25.8481 174.139V173.201L26.9856 172.819V162.552C26.9856 158.936 26.2226 157.383 24.6972 157.895C23.8766 158.17 23.2653 158.849 22.8639 159.93C22.4625 161.011 22.2623 162.388 22.2623 164.061V174.404L23.3997 174.022V174.96L20.1211 176.06V175.122L21.2586 174.741V164.347C21.2586 162.353 21.5396 160.686 22.1016 159.349C22.6635 158.028 23.4796 157.188 24.55 156.829ZM54.2497 129.203C57.0536 128.326 58.4555 130.184 58.4556 134.778V146.019L59.9838 145.541V146.553L55.993 147.802V146.79L57.5205 146.311V135.235C57.5205 131.333 56.4962 129.703 54.4471 130.345C53.3448 130.69 52.5239 131.457 51.9846 132.647C51.4454 133.836 51.1756 135.334 51.1756 137.139V148.298L52.7038 147.82V148.831L48.2997 150.21V149.198L49.8279 148.719V137.506C49.8279 135.355 50.2047 133.541 50.9597 132.065C51.7146 130.607 52.8117 129.653 54.2497 129.203ZM109.803 96.8676C114.152 95.7021 116.326 97.8791 116.326 103.399V116.901L118.696 116.267V117.482L112.507 119.14V117.925L114.876 117.29V103.984C114.876 99.2971 113.288 97.3794 110.11 98.2309C108.4 98.6891 107.127 99.6434 106.291 101.094C105.454 102.545 105.036 104.354 105.036 106.523V119.927L107.405 119.292V120.508L100.576 122.338V121.123L102.945 120.487V107.018C102.945 104.433 103.531 102.239 104.701 100.436C105.872 98.6546 107.573 97.4653 109.803 96.8676Z" fill="white"/>
<path d="M172.329 25.9864H199.693L295.903 212.984C296.269 212.984 296.634 212.983 297 212.983C380.387 212.983 450.4 219.884 507.04 233.685C563.396 247.667 591.714 266.618 591.996 290.536H592V389.833H591.997C591.749 399.448 563.431 407.066 507.04 412.685C450.4 418.228 380.387 420.999 297 420.999C213.614 420.999 143.6 418.228 86.9605 412.685C33.4349 407.351 5.20272 400.217 2.25977 391.283H2.00071V236.902H2C2.00013 236.884 2.00056 236.867 2.00071 236.85V161.523H2.38152C5.92927 116.958 34.1202 81.3025 86.9569 54.5578C112.66 41.7798 141.117 31.9012 172.329 24.9219V25.9864ZM297 315.699C216.761 315.699 149.501 319.111 95.2208 325.937C41.1904 332.861 14.0521 342.322 13.8037 354.318H13.5977V389.833H13.8037C14.0521 399.045 41.1904 406.31 95.2208 411.627C149.501 416.867 216.761 419.488 297 419.488C378.027 419.488 445.287 416.867 498.78 411.627C552.81 406.31 579.949 399.045 580.197 389.833H580.403V354.318H580.197C579.949 342.322 552.81 332.861 498.78 325.937C445.287 319.111 378.027 315.699 297 315.699ZM244.611 339.822C258.179 339.822 264.963 348.259 264.963 365.132V406.411H272.357V410.127H253.048V406.411H260.44V365.735C260.44 351.406 255.483 344.241 245.568 344.241C240.233 344.241 236.261 346.117 233.651 349.866C231.042 353.616 229.738 358.805 229.738 365.434V406.411H237.131V410.127H215.821V409.676L198.866 408.923V405.388L205.892 405.7V367.009C205.892 353.379 201.18 346.355 191.758 345.936C186.689 345.711 182.914 347.326 180.435 350.783C177.955 354.239 176.715 359.12 176.715 365.425V404.403L183.741 404.716V408.25L163.491 407.351V407.025L151.569 406.231V402.921L158.139 403.359V367.127C158.139 354.365 153.733 347.689 144.921 347.102C140.18 346.785 136.649 348.22 134.33 351.406C132.011 354.591 130.851 359.136 130.851 365.04V401.54L137.422 401.978V405.287L125.366 404.484V404.729L111.701 403.514V400.611L116.933 401.076V369.299C116.933 358.105 113.424 352.196 106.407 351.573C102.631 351.237 99.8202 352.452 97.9736 355.217C96.1269 357.982 95.2038 361.954 95.2038 367.132V399.144L100.436 399.609V402.513L85.3544 401.172V400.866L76.675 399.902V397.272L80.7089 397.72V368.925C80.7089 358.781 78.004 353.409 72.5937 352.808C69.6828 352.484 67.5154 353.571 66.0916 356.067C64.6678 358.563 63.9554 362.157 63.9554 366.849V395.858L67.99 396.306V398.937L56.3618 397.645V397.516L50.9816 396.799V394.358L53.8002 394.734V368.02C53.8002 358.61 51.9101 353.652 48.1305 353.148C46.0971 352.877 44.583 353.907 43.5884 356.236C42.5938 358.566 42.0963 361.908 42.0963 366.262V393.174L44.9148 393.55V395.99L36.7918 394.908V394.568L32.5611 393.911V391.693L34.5997 392.01V367.734C34.5997 359.183 33.2326 354.694 30.4985 354.269C29.0275 354.04 27.9316 354.988 27.2121 357.114C26.4926 359.24 26.1334 362.281 26.1334 366.237V390.693L28.1719 391.01V393.228L22.2955 392.314V391.734L20.0262 391.331V389.426L21.0151 389.602V368.746C21.0151 361.399 20.3515 357.608 19.0254 357.372C18.3121 357.245 17.781 358.112 17.432 359.972C17.0831 361.833 16.9083 364.463 16.9083 367.861V388.872L17.8971 389.048V390.953L15.0474 390.446V388.541L16.0362 388.716V367.603C16.0362 363.552 16.2803 360.403 16.7688 358.155C17.2574 355.942 17.9674 354.918 18.898 355.083C20.7125 355.406 21.6195 359.894 21.6195 368.545V389.709L22.6084 389.885V390.144L24.3341 390.413V365.837C24.3341 361.122 24.838 357.484 25.8453 354.923C26.8526 352.403 28.3157 351.292 30.2345 351.59C33.976 352.173 35.8469 357.499 35.8469 367.568V392.204L37.8854 392.521V392.612L39.6097 392.842V365.798C39.6097 360.609 40.3061 356.613 41.6985 353.808C43.091 351.047 45.1136 349.844 47.766 350.197C52.9379 350.887 55.5237 356.772 55.5238 367.854V394.964L56.3618 395.075V395.014L60.3957 395.462V366.312C60.3957 360.719 61.393 356.422 63.3863 353.42C65.3796 350.466 68.2745 349.199 72.0713 349.621C79.4751 350.444 83.1771 356.827 83.1771 368.772V397.994L86.8961 398.406L90.5867 398.735V366.565C90.5867 360.393 91.8795 355.643 94.4649 352.316C97.0502 349.041 100.805 347.622 105.73 348.06C115.333 348.913 120.134 355.931 120.134 369.113V400.825L125.054 401.153V364.475C125.054 357.437 126.678 351.999 129.924 348.16C133.171 344.38 137.886 342.697 144.07 343.109C156.129 343.913 162.159 351.829 162.159 366.859V403.627L168.019 404.017L170.517 404.128V364.959C170.517 357.443 172.252 351.597 175.723 347.421C179.195 343.308 184.237 341.399 190.849 341.692C203.743 342.266 210.19 350.577 210.19 366.626V405.891L217.215 406.203V406.411H223.214V365.233C223.214 357.332 225.041 351.105 228.694 346.552C232.347 342.065 237.652 339.822 244.611 339.822ZM305.495 345.621C319.064 345.621 325.848 353.362 325.848 368.843V406.718H333.241V406.948H339.28V371.626C339.28 357.189 346.151 349.97 359.893 349.97C366.94 349.97 372.314 351.889 376.014 355.728C379.714 359.623 381.564 364.952 381.564 371.713V406.948H393.953V371.626C393.953 357.188 399.78 349.97 411.435 349.97C417.412 349.97 421.969 351.889 425.107 355.728C428.245 359.623 429.814 364.952 429.814 371.713V406.948H436.165V410.127H417.86V406.948H424.211V371.884C424.211 366.212 423.09 361.772 420.849 358.564C418.608 355.355 415.196 353.751 410.614 353.751C402.097 353.751 397.837 359.882 397.837 372.142V406.948H404.188V410.127H367.469V406.948H374.957V371.884C374.957 366.212 373.636 361.772 370.993 358.564C368.35 355.355 364.327 353.751 358.924 353.751C348.881 353.751 343.86 359.882 343.86 372.142V406.948H351.348V410.127H313.932V406.718H321.325V369.396C321.325 356.249 316.367 349.676 306.452 349.676C301.117 349.676 297.145 351.395 294.536 354.836C291.926 358.276 290.622 363.038 290.622 369.12V406.718H298.015V410.127H276.706V406.718H284.099V368.935C284.099 361.686 285.925 355.973 289.578 351.795C293.231 347.679 298.537 345.621 305.495 345.621ZM485.393 350.103C490.317 349.666 494.072 351.085 496.658 354.359C499.243 357.686 500.536 362.436 500.536 368.608V400.777L504.258 400.446L507.946 400.037V370.815C507.946 358.871 511.647 352.487 519.051 351.665C522.848 351.243 525.743 352.509 527.736 355.463C529.73 358.465 530.727 362.762 530.727 368.356V397.506L534.761 397.058V397.119L535.599 397.008V369.897C535.599 358.816 538.185 352.931 543.357 352.241C546.009 351.887 548.032 353.091 549.424 355.851C550.817 358.656 551.513 362.653 551.513 367.842V394.886L553.237 394.656V394.564L555.276 394.247V369.611C555.276 359.541 557.147 354.215 560.888 353.633C562.807 353.335 564.27 354.446 565.277 356.967C566.285 359.528 566.789 363.165 566.789 367.881V392.456L568.514 392.187V391.928L569.503 391.753V370.588C569.503 361.937 570.41 357.45 572.225 357.127C573.155 356.961 573.865 357.985 574.354 360.199C574.842 362.446 575.086 365.596 575.086 369.647V390.76L576.075 390.584V392.49L573.226 392.996V391.091L574.214 390.915V369.905C574.214 366.506 574.04 363.876 573.691 362.016C573.342 360.156 572.811 359.289 572.097 359.415C570.771 359.651 570.108 363.442 570.108 370.789V391.645L571.096 391.469V393.374L568.827 393.778V394.357L562.951 395.271V393.053L564.989 392.736V368.281C564.989 364.325 564.63 361.283 563.911 359.158C563.191 357.032 562.095 356.083 560.624 356.312C557.89 356.738 556.523 361.226 556.523 369.777V394.053L558.562 393.736V395.954L554.331 396.612V396.95L546.208 398.033V395.593L549.026 395.218V368.305C549.026 363.951 548.529 360.61 547.534 358.28C546.54 355.95 545.026 354.921 542.992 355.192C539.213 355.696 537.322 360.653 537.322 370.063V396.778L540.141 396.402V398.842L534.761 399.559V399.688L523.133 400.98V398.35L527.167 397.902V368.893C527.167 364.2 526.455 360.606 525.031 358.11C523.607 355.614 521.44 354.527 518.529 354.851C513.119 355.452 510.414 360.825 510.414 370.968V399.763L514.448 399.314V401.945L505.768 402.909V403.216L490.687 404.556V401.653L495.919 401.188V369.176C495.919 363.997 494.996 360.025 493.149 357.26C491.302 354.495 488.491 353.281 484.716 353.616C477.699 354.24 474.189 360.149 474.189 371.342V403.119L479.422 402.654V405.557L465.756 406.772V403.869L470.988 403.404V371.156C470.988 357.975 475.79 350.957 485.393 350.103ZM297 232.648C216.761 232.648 149.501 239.173 95.2208 252.221C41.1904 265.46 14.0521 283.547 13.8037 306.482H13.5977V341.594C26.792 334.872 51.246 329.193 86.9605 324.559C143.6 317.34 213.614 313.73 297 313.73C380.387 313.73 450.4 317.34 507.04 324.559C542.755 329.193 567.209 334.872 580.403 341.594V306.482H580.197C579.949 283.547 552.81 265.46 498.78 252.221C445.287 239.173 378.027 232.648 297 232.648ZM244.843 241.83C258.411 241.83 265.196 249.136 265.196 263.748V299.494H272.589V300.636H276.789V275.953C276.789 265.864 284.183 260.82 298.969 260.82C306.551 260.82 312.333 262.161 316.314 264.844C320.295 267.566 322.285 271.289 322.285 276.014V300.636H323.094V300.364H330.487V264.618C330.487 250.006 337.271 242.7 350.84 242.7C357.798 242.7 363.104 244.642 366.757 248.527C370.41 252.47 372.237 257.863 372.237 264.705V300.364H379.63V300.759L386.006 301.042V267.849C386.006 254.281 392.262 247.775 404.774 248.331C411.191 248.616 416.084 250.637 419.452 254.394C422.821 258.205 424.505 263.287 424.505 269.641V302.754L431.323 303.057V303.205L435.48 303.574V271.658C435.48 258.611 441.111 252.589 452.37 253.59C458.145 254.103 462.548 256.228 465.579 259.966C468.611 263.756 470.126 268.706 470.126 274.815V306.654L476.262 307.2V307.37L477.896 307.552V279.465C477.896 267.984 482.474 262.753 491.629 263.77C496.323 264.292 499.903 266.215 502.368 269.541C504.833 272.913 506.065 277.288 506.065 282.663V310.682L510.56 311.181V284.953C510.56 274.168 514.43 269.292 522.171 270.324C526.141 270.853 529.168 272.69 531.252 275.835C533.336 279.023 534.378 283.142 534.378 288.192V314.513L538.026 314.999V290.696C538.026 280.72 541.107 276.212 547.267 277.17C550.427 277.662 552.836 279.363 554.495 282.273C556.154 285.223 556.983 289.033 556.983 293.704V318.048L559.523 318.443V298.078C559.523 289.555 561.638 285.669 565.866 286.421C568.034 286.806 569.687 288.233 570.825 290.701C571.964 293.204 572.533 296.45 572.533 300.441V321.243L574.837 321.653V323.53L568.196 322.349V320.472L570.5 320.882V300.182C570.5 296.833 570.094 294.14 569.281 292.101C568.468 290.063 567.23 288.895 565.568 288.6C562.478 288.051 560.933 291.395 560.933 298.633V319.181L563.237 319.59V321.468L557.219 320.398V320.282L550.664 319.263V317.066L554.022 317.587V293.362C554.022 289.443 553.429 286.283 552.244 283.882C551.059 281.481 549.256 280.092 546.834 279.715C542.331 279.015 540.079 282.9 540.079 291.372V315.419L543.437 315.941V318.138L538.596 317.385V317.451L526.438 315.829V313.454L530.656 314.016V287.825C530.656 283.588 529.912 280.172 528.424 277.576C526.935 274.981 524.668 273.481 521.625 273.075C515.968 272.321 513.14 276.523 513.14 285.682V311.681L517.357 312.243V314.619L510.433 313.695L496.676 312.167V309.639L501.664 310.193V282.311C501.664 277.801 500.783 274.172 499.023 271.425C497.262 268.678 494.582 267.105 490.983 266.705C484.293 265.962 480.948 270.465 480.948 280.214V307.891L485.936 308.445V310.974L476.262 309.898V310.073L458.578 308.501V305.628L464.713 306.173V274.489C464.713 269.364 463.631 265.255 461.465 262.163C459.3 259.072 456.003 257.329 451.576 256.935C443.348 256.204 439.234 261.378 439.234 272.457V303.908L445.369 304.453V307.326L430.584 306.012L411.673 305.172V302.183L418.49 302.486V269.535C418.49 264.205 417.287 259.978 414.88 256.856C412.474 253.734 408.811 252.064 403.892 251.846C394.749 251.439 390.177 256.997 390.177 268.519V301.228L396.994 301.531V304.519L379.188 303.728V303.583H358.32V300.364H365.713V264.878C365.713 259.138 364.408 254.645 361.799 251.397C359.19 248.15 355.218 246.527 349.884 246.527C339.968 246.527 335.01 252.731 335.01 265.14V300.364H342.403V303.583H323.094V302.858H307.12V300.636H315.177V276.134C315.177 272.17 313.755 269.068 310.911 266.826C308.068 264.584 303.739 263.462 297.926 263.462C287.121 263.462 281.718 267.746 281.718 276.314V300.636H289.775V302.858H268.733V302.713H253.279V299.494H260.673V264.27C260.673 251.861 255.714 245.657 245.799 245.657C240.465 245.657 236.493 247.281 233.883 250.528C231.274 253.775 229.969 258.268 229.969 264.008V299.494H237.362V302.713H216.494V302.858L198.688 303.649V300.661L205.506 300.358V267.649C205.506 256.127 200.934 250.569 191.79 250.976C186.871 251.194 183.208 252.864 180.802 255.986C178.396 259.108 177.193 263.335 177.193 268.665V301.616L184.01 301.313V304.302L165.098 305.142L150.313 306.456V303.583L156.449 303.038V271.587C156.449 260.508 152.334 255.334 144.106 256.065C139.679 256.459 136.383 258.202 134.217 261.293C132.052 264.385 130.97 268.494 130.97 273.619V305.303L137.104 304.758V307.631L119.421 309.203V309.029L109.746 310.104V307.575L114.735 307.021V279.345C114.735 269.595 111.389 265.092 104.699 265.835C101.1 266.235 98.4203 267.808 96.6598 270.555C94.8993 273.302 94.0189 276.931 94.0189 281.441V309.323L99.007 308.769V311.297L85.2489 312.825L78.325 313.749V311.374L82.5429 310.812V284.812C82.5429 275.653 79.7142 271.451 74.0575 272.205C71.014 272.611 68.7475 274.111 67.2588 276.707C65.7702 279.302 65.0263 282.718 65.0263 286.955V313.147L69.2443 312.585V314.959L57.0866 316.581V316.515L52.2458 317.268V315.071L55.603 314.549V290.502C55.603 282.031 53.3513 278.145 48.8489 278.846C46.4268 279.222 44.6231 280.611 43.4383 283.012C42.2535 285.413 41.661 288.573 41.661 292.492V316.717L45.0182 316.196V318.393L38.463 319.412V319.528L32.4458 320.598V318.721L34.7497 318.311V297.763C34.7497 290.525 33.2046 287.181 30.1149 287.73C28.4527 288.026 27.2147 289.193 26.4016 291.231C25.5887 293.27 25.1821 295.964 25.182 299.312V320.012L27.486 319.602V321.48L20.8459 322.66V320.783L23.1499 320.373V299.572C23.1499 295.58 23.7189 292.334 24.8571 289.831C25.9955 287.363 27.6487 285.936 29.8169 285.551C34.0449 284.799 36.159 288.685 36.159 297.208V317.573L38.6994 317.178V292.834C38.6994 288.163 39.5287 284.353 41.1874 281.403C42.8462 278.493 45.2555 276.792 48.415 276.3C54.576 275.342 57.6564 279.851 57.6564 289.826V314.129L61.3046 313.643V287.322C61.3046 282.272 62.3464 278.153 64.4303 274.965C66.5145 271.82 69.542 269.983 73.5118 269.454C81.2526 268.422 85.123 273.298 85.123 284.083V310.311L89.6177 309.812V281.794C89.6177 276.418 90.8499 272.043 93.3146 268.672C95.7793 265.345 99.3592 263.422 104.054 262.9C113.208 261.883 117.786 267.114 117.786 278.595V306.682L119.421 306.5V306.33L125.556 305.784V273.945C125.556 267.836 127.072 262.886 130.103 259.096C133.135 255.358 137.538 253.233 143.312 252.72C154.572 251.719 160.202 257.742 160.202 270.788V302.704L164.359 302.335V302.187L171.177 301.884V268.771C171.177 262.417 172.862 257.335 176.23 253.524C179.599 249.767 184.492 247.747 190.908 247.461C203.421 246.905 209.676 253.411 209.676 266.979V300.172L216.053 299.889V299.494H223.446V263.835C223.446 256.993 225.273 251.6 228.926 247.657C232.579 243.773 237.885 241.83 244.843 241.83ZM297 216.747C216.761 216.747 149.501 223.272 95.2208 236.32C49.8208 247.444 23.4086 261.992 15.9817 279.962C29.6371 268.064 53.2965 257.939 86.9605 249.587C143.6 235.785 213.614 228.884 297 228.884C380.387 228.884 450.4 235.785 507.04 249.587C540.704 257.939 564.363 268.064 578.018 279.962C570.591 261.992 544.18 247.444 498.78 236.32C445.287 223.272 378.027 216.747 297 216.747ZM222.718 130.963C173.914 135.178 131.414 143.802 95.2173 156.838C41.2104 176.374 14.0726 203.062 13.8009 236.902H13.5977V266.254C26.7919 253.403 51.2459 242.546 86.9605 233.685C136.223 221.681 195.603 214.899 265.099 213.335L222.718 130.963ZM188.887 149.267C201.251 146.788 207.433 152.333 207.433 165.901V199.094L214.17 197.743V200.731L196.575 204.26V201.271L203.312 199.921V167.212C203.312 155.689 198.794 150.835 189.759 152.646C184.898 153.621 181.278 155.854 178.901 159.346C176.523 162.838 175.335 167.249 175.335 172.58V205.531L182.071 204.18V207.168L163.392 210.914L148.775 214.502V211.629L154.838 210.141V178.69C154.838 167.611 150.772 163.069 142.641 165.066C138.267 166.14 135.01 168.389 132.87 171.813C130.73 175.238 129.661 179.513 129.661 184.638V216.322L135.723 214.834V217.707L118.249 221.997V221.822L108.69 224.385V221.856L113.619 220.536V192.859C113.619 183.11 110.314 179.121 103.703 180.892C100.147 181.845 97.4984 183.83 95.7588 186.848C94.0192 189.865 93.1497 193.629 93.1497 198.139V226.021L98.0783 224.7V227.229L84.4845 230.871L77.6419 232.859V230.484L81.8096 229.274V203.274C81.8096 194.116 79.0144 190.348 73.4247 191.971C70.4175 192.845 68.1784 194.694 66.7074 197.518C65.2365 200.342 64.5011 203.872 64.5011 208.109V234.301L68.6688 233.091V235.466L56.6563 238.956V238.89L51.8728 240.388V238.191L55.1897 237.152V213.104C55.1897 204.633 52.9651 201.094 48.5163 202.486C46.1228 203.235 44.3408 204.901 43.17 207.484C41.9993 210.068 41.4139 213.319 41.4139 217.238V241.463L44.7308 240.425V242.622L38.2535 244.649V244.766L32.3077 246.76V244.883L34.5841 244.119V223.571C34.5841 216.333 33.058 213.226 30.0052 214.25C28.3626 214.801 27.1392 216.159 26.3358 218.322C25.5324 220.486 25.1311 223.242 25.1311 226.59V247.291L27.4074 246.527V248.404L20.8459 250.605V248.728L23.1223 247.965V227.163C23.1223 223.172 23.6849 219.837 24.8097 217.16C25.9345 214.517 27.5677 212.836 29.71 212.117C33.8878 210.716 35.9771 214.276 35.9771 222.8V243.165L38.4871 242.379V218.035C38.4871 213.364 39.3064 209.426 40.9453 206.222C42.5844 203.057 44.9653 200.985 48.0873 200.008C54.1751 198.103 57.219 202.138 57.219 212.113V236.416L60.824 235.369V209.049C60.824 203.999 61.8536 199.72 63.9129 196.211C65.9722 192.746 68.963 190.443 72.8853 189.304C80.5344 187.082 84.3592 191.363 84.3592 202.148V228.377L88.8008 227.187V199.168C88.8008 193.793 90.0185 189.229 92.4539 185.479C94.8893 181.774 98.4262 179.299 103.065 178.056C112.111 175.632 116.634 180.16 116.634 191.641V219.727L118.249 219.294V219.124L124.312 217.635V185.796C124.312 179.687 125.81 174.505 128.805 170.249C131.801 166.045 136.151 163.242 141.857 161.841C152.983 159.11 158.546 164.267 158.546 177.313V209.231L162.654 208.221V208.073L169.39 206.723V173.61C169.39 167.257 171.055 161.916 174.383 157.587C177.712 153.312 182.547 150.539 188.887 149.267ZM172.256 32.8826C144.007 39.415 118.328 48.4316 95.2173 59.9328C41.3467 86.8621 14.2086 123.625 13.8023 170.221H13.5977V201.026C26.7929 182.055 51.2455 166.028 86.9569 152.948C125.197 139.191 169.534 130.081 219.965 125.612L172.256 32.8826ZM24.55 156.829C26.6374 156.129 27.6814 157.908 27.6814 162.167V172.586L28.8189 172.204V173.142L25.8481 174.139V173.201L26.9856 172.819V162.552C26.9856 158.936 26.2226 157.383 24.6972 157.895C23.8766 158.17 23.2653 158.849 22.8639 159.93C22.4625 161.011 22.2623 162.388 22.2623 164.061V174.404L23.3997 174.022V174.96L20.1211 176.06V175.122L21.2586 174.741V164.347C21.2586 162.353 21.5396 160.686 22.1016 159.349C22.6635 158.028 23.4796 157.188 24.55 156.829ZM54.2497 129.203C57.0536 128.326 58.4555 130.184 58.4556 134.778V146.019L59.9838 145.541V146.553L55.993 147.802V146.79L57.5205 146.311V135.235C57.5205 131.333 56.4962 129.703 54.4471 130.345C53.3448 130.69 52.5239 131.457 51.9846 132.647C51.4454 133.836 51.1756 135.334 51.1756 137.139V148.298L52.7038 147.82V148.831L48.2997 150.21V149.198L49.8279 148.719V137.506C49.8279 135.355 50.2047 133.541 50.9597 132.065C51.7146 130.607 52.8117 129.653 54.2497 129.203ZM109.803 96.8676C114.152 95.7021 116.326 97.8791 116.326 103.399V116.901L118.696 116.267V117.482L112.507 119.14V117.925L114.876 117.29V103.984C114.876 99.2971 113.288 97.3794 110.11 98.2309C108.4 98.6891 107.127 99.6434 106.291 101.094C105.454 102.545 105.036 104.354 105.036 106.523V119.927L107.405 119.292V120.508L100.576 122.338V121.123L102.945 120.487V107.018C102.945 104.433 103.531 102.239 104.701 100.436C105.872 98.6546 107.573 97.4653 109.803 96.8676Z" stroke="white" stroke-width="3.65891" mask="url(#path-1-outside-1_186_34)"/>
<mask id="path-2-outside-2_186_34" maskUnits="userSpaceOnUse" x="218.705" y="0.078125" width="200" height="216" fill="black">
<rect fill="white" x="218.705" y="0.078125" width="200" height="216"/>
<path d="M325.346 121.52L345.014 172.545L345.255 173.177C350.239 186.397 349.589 196.911 342.919 204.455C336.276 211.966 328.044 215.527 318.28 215.089C308.126 215.084 299.899 211.546 293.678 204.452L293.662 204.433C287.334 196.765 286.998 185.83 292.231 171.906L292.232 171.905L311.249 121.52H325.346ZM311.81 122.329L292.991 172.19L292.751 172.835C287.814 186.333 288.326 196.695 294.288 203.919C300.345 210.826 308.349 214.28 318.3 214.28C327.817 214.712 335.821 211.257 342.31 203.919C348.698 196.695 349.427 186.543 344.497 173.463L344.257 172.837L324.789 122.329H311.81ZM387.214 117.645L387.221 117.646L387.226 117.647C397.295 119.394 404.851 123.127 409.771 128.93C414.624 134.652 416.695 140.48 415.799 146.375C415.358 152.064 414.039 157.33 411.837 162.164L411.809 162.224L411.773 162.278C408.256 167.542 404.067 171.727 399.204 174.815C394.231 177.973 388.169 178.841 381.098 177.518L381.073 177.514L381.05 177.507C373.905 175.725 367.063 170.845 360.509 162.998L325.739 121.757L333.465 109.142L387.214 117.645ZM310.855 121.102L276.098 163.636L276.067 163.674L276.031 163.708C264.735 174.546 254.52 179.324 245.459 177.516L245.44 177.512L245.421 177.507C236.559 175.297 229.898 169.985 225.469 161.629C219.683 154.481 218.61 145.992 222.142 136.299L222.148 136.284L222.154 136.269C226.192 126.42 235.802 120.053 250.646 117.004L250.663 117L250.679 116.998L303.133 108.492L310.855 121.102ZM326.735 121.682L361.13 162.477C367.619 170.247 374.325 174.996 381.247 176.723C387.952 177.977 393.643 177.206 398.319 174.41L398.769 174.132C403.528 171.11 407.637 167.009 411.098 161.829C413.261 157.08 414.56 151.9 414.992 146.289C415.831 140.852 414.03 135.415 409.59 129.978L409.152 129.452C404.393 123.84 397.038 120.171 387.087 118.444L333.874 110.026L326.735 121.682ZM250.809 117.797L250.124 117.941C235.811 121.015 226.737 127.227 222.904 136.576L222.594 137.462C219.516 146.584 220.701 154.49 226.149 161.181C230.475 169.383 236.965 174.564 245.617 176.723C254 178.395 263.6 174.194 274.418 164.118L275.469 163.124L309.863 121.034L302.725 109.379L250.809 117.797ZM236.746 41.9997C241.745 38.8252 248.045 38.1925 255.538 39.9517C262.884 41.6764 269.944 46.5157 276.731 54.345L277.387 55.1117L277.393 55.118L277.398 55.1236L310.848 96.3551L303.792 108.324L251.338 99.8188C236.032 97.6358 226.181 91.2617 222.146 80.5239C218.194 70.0095 219.006 61.2712 224.838 54.5126C227.922 49.259 231.891 45.0826 236.746 41.9997ZM381.061 39.9517C388.535 38.197 394.821 38.8224 399.814 41.976C405.136 44.6391 409.35 48.6304 412.448 53.93L412.476 53.9766L412.496 54.0264C414.687 59.2727 416.217 64.9489 417.092 71.0512L417.168 71.6068C417.859 77.3495 415.528 83.0115 410.396 88.5588C405.038 94.3508 396.838 98.0729 385.919 99.8164L333.456 108.324L326.4 96.3551L359.85 55.1236C366.408 46.8373 373.473 41.7333 381.061 39.9517ZM255.352 40.7398C247.997 39.0131 241.941 39.6609 237.182 42.6827L236.738 42.9688C232.18 45.9615 228.434 49.9669 225.5 54.9853C219.876 61.4606 219.011 69.8789 222.904 80.2393C226.798 90.5999 236.316 96.8596 251.458 99.0181L303.374 107.436L309.863 96.4278L276.767 55.6334C270.061 47.6876 263.153 42.7801 256.041 40.9113L255.352 40.7398ZM399.418 42.6827C394.659 39.6608 388.601 39.013 381.247 40.7398L380.558 40.9113C373.46 42.7802 366.767 47.6877 360.481 55.6334L327.385 96.4278L333.874 107.436L385.79 99.0181C396.267 97.3453 404.106 93.8493 409.305 88.5304L409.8 88.0103C414.992 82.3983 417.155 76.7857 416.29 71.1737C415.479 65.5077 414.097 60.2212 412.145 55.3141L411.748 54.3379C408.719 49.1577 404.609 45.2728 399.418 42.6827ZM318.3 1.07812C328.491 1.07816 336.728 5.07144 342.938 13.0305C349.711 20.7112 350.022 32.0953 344.366 46.8563L344.365 46.8594L325.345 95.9424H311.903L292.884 46.8642C287.218 32.5099 287.332 21.15 293.648 13.0463C299.86 5.07674 308.101 1.07812 318.3 1.07812ZM318.3 1.88755C308.349 1.88755 300.345 5.77308 294.288 13.5435L294.009 13.9095C288.226 21.6581 288.103 32.5445 293.639 46.5677L312.459 95.133H324.789L343.609 46.5677C349.233 31.8903 348.8 20.8823 342.31 13.5435C336.443 6.01586 328.748 2.13381 319.226 1.89861L318.3 1.88755Z"/>
</mask>
<path d="M325.346 121.52L345.014 172.545L345.255 173.177C350.239 186.397 349.589 196.911 342.919 204.455C336.276 211.966 328.044 215.527 318.28 215.089C308.126 215.084 299.899 211.546 293.678 204.452L293.662 204.433C287.334 196.765 286.998 185.83 292.231 171.906L292.232 171.905L311.249 121.52H325.346ZM311.81 122.329L292.991 172.19L292.751 172.835C287.814 186.333 288.326 196.695 294.288 203.919C300.345 210.826 308.349 214.28 318.3 214.28C327.817 214.712 335.821 211.257 342.31 203.919C348.698 196.695 349.427 186.543 344.497 173.463L344.257 172.837L324.789 122.329H311.81ZM387.214 117.645L387.221 117.646L387.226 117.647C397.295 119.394 404.851 123.127 409.771 128.93C414.624 134.652 416.695 140.48 415.799 146.375C415.358 152.064 414.039 157.33 411.837 162.164L411.809 162.224L411.773 162.278C408.256 167.542 404.067 171.727 399.204 174.815C394.231 177.973 388.169 178.841 381.098 177.518L381.073 177.514L381.05 177.507C373.905 175.725 367.063 170.845 360.509 162.998L325.739 121.757L333.465 109.142L387.214 117.645ZM310.855 121.102L276.098 163.636L276.067 163.674L276.031 163.708C264.735 174.546 254.52 179.324 245.459 177.516L245.44 177.512L245.421 177.507C236.559 175.297 229.898 169.985 225.469 161.629C219.683 154.481 218.61 145.992 222.142 136.299L222.148 136.284L222.154 136.269C226.192 126.42 235.802 120.053 250.646 117.004L250.663 117L250.679 116.998L303.133 108.492L310.855 121.102ZM326.735 121.682L361.13 162.477C367.619 170.247 374.325 174.996 381.247 176.723C387.952 177.977 393.643 177.206 398.319 174.41L398.769 174.132C403.528 171.11 407.637 167.009 411.098 161.829C413.261 157.08 414.56 151.9 414.992 146.289C415.831 140.852 414.03 135.415 409.59 129.978L409.152 129.452C404.393 123.84 397.038 120.171 387.087 118.444L333.874 110.026L326.735 121.682ZM250.809 117.797L250.124 117.941C235.811 121.015 226.737 127.227 222.904 136.576L222.594 137.462C219.516 146.584 220.701 154.49 226.149 161.181C230.475 169.383 236.965 174.564 245.617 176.723C254 178.395 263.6 174.194 274.418 164.118L275.469 163.124L309.863 121.034L302.725 109.379L250.809 117.797ZM236.746 41.9997C241.745 38.8252 248.045 38.1925 255.538 39.9517C262.884 41.6764 269.944 46.5157 276.731 54.345L277.387 55.1117L277.393 55.118L277.398 55.1236L310.848 96.3551L303.792 108.324L251.338 99.8188C236.032 97.6358 226.181 91.2617 222.146 80.5239C218.194 70.0095 219.006 61.2712 224.838 54.5126C227.922 49.259 231.891 45.0826 236.746 41.9997ZM381.061 39.9517C388.535 38.197 394.821 38.8224 399.814 41.976C405.136 44.6391 409.35 48.6304 412.448 53.93L412.476 53.9766L412.496 54.0264C414.687 59.2727 416.217 64.9489 417.092 71.0512L417.168 71.6068C417.859 77.3495 415.528 83.0115 410.396 88.5588C405.038 94.3508 396.838 98.0729 385.919 99.8164L333.456 108.324L326.4 96.3551L359.85 55.1236C366.408 46.8373 373.473 41.7333 381.061 39.9517ZM255.352 40.7398C247.997 39.0131 241.941 39.6609 237.182 42.6827L236.738 42.9688C232.18 45.9615 228.434 49.9669 225.5 54.9853C219.876 61.4606 219.011 69.8789 222.904 80.2393C226.798 90.5999 236.316 96.8596 251.458 99.0181L303.374 107.436L309.863 96.4278L276.767 55.6334C270.061 47.6876 263.153 42.7801 256.041 40.9113L255.352 40.7398ZM399.418 42.6827C394.659 39.6608 388.601 39.013 381.247 40.7398L380.558 40.9113C373.46 42.7802 366.767 47.6877 360.481 55.6334L327.385 96.4278L333.874 107.436L385.79 99.0181C396.267 97.3453 404.106 93.8493 409.305 88.5304L409.8 88.0103C414.992 82.3983 417.155 76.7857 416.29 71.1737C415.479 65.5077 414.097 60.2212 412.145 55.3141L411.748 54.3379C408.719 49.1577 404.609 45.2728 399.418 42.6827ZM318.3 1.07812C328.491 1.07816 336.728 5.07144 342.938 13.0305C349.711 20.7112 350.022 32.0953 344.366 46.8563L344.365 46.8594L325.345 95.9424H311.903L292.884 46.8642C287.218 32.5099 287.332 21.15 293.648 13.0463C299.86 5.07674 308.101 1.07812 318.3 1.07812ZM318.3 1.88755C308.349 1.88755 300.345 5.77308 294.288 13.5435L294.009 13.9095C288.226 21.6581 288.103 32.5445 293.639 46.5677L312.459 95.133H324.789L343.609 46.5677C349.233 31.8903 348.8 20.8823 342.31 13.5435C336.443 6.01586 328.748 2.13381 319.226 1.89861L318.3 1.88755Z" fill="white"/>
<path d="M325.346 121.52L345.014 172.545L345.255 173.177C350.239 186.397 349.589 196.911 342.919 204.455C336.276 211.966 328.044 215.527 318.28 215.089C308.126 215.084 299.899 211.546 293.678 204.452L293.662 204.433C287.334 196.765 286.998 185.83 292.231 171.906L292.232 171.905L311.249 121.52H325.346ZM311.81 122.329L292.991 172.19L292.751 172.835C287.814 186.333 288.326 196.695 294.288 203.919C300.345 210.826 308.349 214.28 318.3 214.28C327.817 214.712 335.821 211.257 342.31 203.919C348.698 196.695 349.427 186.543 344.497 173.463L344.257 172.837L324.789 122.329H311.81ZM387.214 117.645L387.221 117.646L387.226 117.647C397.295 119.394 404.851 123.127 409.771 128.93C414.624 134.652 416.695 140.48 415.799 146.375C415.358 152.064 414.039 157.33 411.837 162.164L411.809 162.224L411.773 162.278C408.256 167.542 404.067 171.727 399.204 174.815C394.231 177.973 388.169 178.841 381.098 177.518L381.073 177.514L381.05 177.507C373.905 175.725 367.063 170.845 360.509 162.998L325.739 121.757L333.465 109.142L387.214 117.645ZM310.855 121.102L276.098 163.636L276.067 163.674L276.031 163.708C264.735 174.546 254.52 179.324 245.459 177.516L245.44 177.512L245.421 177.507C236.559 175.297 229.898 169.985 225.469 161.629C219.683 154.481 218.61 145.992 222.142 136.299L222.148 136.284L222.154 136.269C226.192 126.42 235.802 120.053 250.646 117.004L250.663 117L250.679 116.998L303.133 108.492L310.855 121.102ZM326.735 121.682L361.13 162.477C367.619 170.247 374.325 174.996 381.247 176.723C387.952 177.977 393.643 177.206 398.319 174.41L398.769 174.132C403.528 171.11 407.637 167.009 411.098 161.829C413.261 157.08 414.56 151.9 414.992 146.289C415.831 140.852 414.03 135.415 409.59 129.978L409.152 129.452C404.393 123.84 397.038 120.171 387.087 118.444L333.874 110.026L326.735 121.682ZM250.809 117.797L250.124 117.941C235.811 121.015 226.737 127.227 222.904 136.576L222.594 137.462C219.516 146.584 220.701 154.49 226.149 161.181C230.475 169.383 236.965 174.564 245.617 176.723C254 178.395 263.6 174.194 274.418 164.118L275.469 163.124L309.863 121.034L302.725 109.379L250.809 117.797ZM236.746 41.9997C241.745 38.8252 248.045 38.1925 255.538 39.9517C262.884 41.6764 269.944 46.5157 276.731 54.345L277.387 55.1117L277.393 55.118L277.398 55.1236L310.848 96.3551L303.792 108.324L251.338 99.8188C236.032 97.6358 226.181 91.2617 222.146 80.5239C218.194 70.0095 219.006 61.2712 224.838 54.5126C227.922 49.259 231.891 45.0826 236.746 41.9997ZM381.061 39.9517C388.535 38.197 394.821 38.8224 399.814 41.976C405.136 44.6391 409.35 48.6304 412.448 53.93L412.476 53.9766L412.496 54.0264C414.687 59.2727 416.217 64.9489 417.092 71.0512L417.168 71.6068C417.859 77.3495 415.528 83.0115 410.396 88.5588C405.038 94.3508 396.838 98.0729 385.919 99.8164L333.456 108.324L326.4 96.3551L359.85 55.1236C366.408 46.8373 373.473 41.7333 381.061 39.9517ZM255.352 40.7398C247.997 39.0131 241.941 39.6609 237.182 42.6827L236.738 42.9688C232.18 45.9615 228.434 49.9669 225.5 54.9853C219.876 61.4606 219.011 69.8789 222.904 80.2393C226.798 90.5999 236.316 96.8596 251.458 99.0181L303.374 107.436L309.863 96.4278L276.767 55.6334C270.061 47.6876 263.153 42.7801 256.041 40.9113L255.352 40.7398ZM399.418 42.6827C394.659 39.6608 388.601 39.013 381.247 40.7398L380.558 40.9113C373.46 42.7802 366.767 47.6877 360.481 55.6334L327.385 96.4278L333.874 107.436L385.79 99.0181C396.267 97.3453 404.106 93.8493 409.305 88.5304L409.8 88.0103C414.992 82.3983 417.155 76.7857 416.29 71.1737C415.479 65.5077 414.097 60.2212 412.145 55.3141L411.748 54.3379C408.719 49.1577 404.609 45.2728 399.418 42.6827ZM318.3 1.07812C328.491 1.07816 336.728 5.07144 342.938 13.0305C349.711 20.7112 350.022 32.0953 344.366 46.8563L344.365 46.8594L325.345 95.9424H311.903L292.884 46.8642C287.218 32.5099 287.332 21.15 293.648 13.0463C299.86 5.07674 308.101 1.07812 318.3 1.07812ZM318.3 1.88755C308.349 1.88755 300.345 5.77308 294.288 13.5435L294.009 13.9095C288.226 21.6581 288.103 32.5445 293.639 46.5677L312.459 95.133H324.789L343.609 46.5677C349.233 31.8903 348.8 20.8823 342.31 13.5435C336.443 6.01586 328.748 2.13381 319.226 1.89861L318.3 1.88755Z" stroke="white" stroke-width="1.82946" mask="url(#path-2-outside-2_186_34)"/>
</svg>
