<svg width="1438" height="287" viewBox="0 0 1438 287" fill="none" xmlns="http://www.w3.org/2000/svg">
<line x1="38.5" y1="1" x2="38.5" y2="286" stroke="black"/>
<line x1="116.5" y1="1" x2="116.5" y2="286" stroke="black"/>
<line x1="166.5" y1="1" x2="166.5" y2="286" stroke="black"/>
<line x1="244.5" y1="1" x2="244.5" y2="286" stroke="black"/>
<line x1="294.5" y1="1" x2="294.5" y2="286" stroke="black"/>
<line x1="372.5" y1="1" x2="372.5" y2="286" stroke="black"/>
<line x1="422.5" y1="1" x2="422.5" y2="286" stroke="black"/>
<line x1="500.5" y1="1" x2="500.5" y2="286" stroke="black"/>
<line x1="550.5" y1="1" x2="550.5" y2="286" stroke="black"/>
<line x1="628.5" y1="1" x2="628.5" y2="286" stroke="black"/>
<line x1="678.5" y1="1" x2="678.5" y2="286" stroke="black"/>
<line x1="756.5" y1="1" x2="756.5" y2="286" stroke="black"/>
<line x1="806.5" y1="1" x2="806.5" y2="286" stroke="black"/>
<line x1="884.5" y1="1" x2="884.5" y2="286" stroke="black"/>
<line x1="934.5" y1="1" x2="934.5" y2="286" stroke="black"/>
<line x1="1012.5" y1="1" x2="1012.5" y2="286" stroke="black"/>
<line x1="1062.5" y1="1" x2="1062.5" y2="286" stroke="black"/>
<line x1="1140.5" y1="1" x2="1140.5" y2="286" stroke="black"/>
<line x1="1190.5" y1="1" x2="1190.5" y2="286" stroke="black"/>
<line x1="1268.5" y1="1" x2="1268.5" y2="286" stroke="black"/>
<line x1="1318.5" y1="1" x2="1318.5" y2="286" stroke="black"/>
<line x1="1396.5" y1="1" x2="1396.5" y2="286" stroke="black"/>
<path d="M0 1H1437.5" stroke="black"/>
<path d="M0 70H1437.5" stroke="black"/>
<path d="M0 109H1437.5" stroke="black"/>
<path d="M0 178H1437.5" stroke="black"/>
<path d="M0 217H1437.5" stroke="black"/>
<path d="M0 286H1437.5" stroke="black"/>
</svg>
