<svg width="358" height="480" viewBox="0 0 358 480" fill="none" xmlns="http://www.w3.org/2000/svg">
<path d="M175.438 466.593L175.211 467.549L183.743 469.575L183.97 468.619L185.712 469.032L184.048 476.025C183.733 477.347 183.218 478.383 182.5 479.131C181.794 479.882 180.971 480.147 180.03 479.923C179.229 479.733 178.648 479.289 178.287 478.59C177.926 477.892 177.844 476.948 178.041 475.757C177.139 478.263 175.857 479.319 174.197 478.925C171.968 478.396 171.24 476.507 172.012 473.26L173.697 466.18L175.438 466.593ZM202.689 472.414C203.462 475.661 202.734 477.549 200.505 478.078C198.845 478.472 197.564 477.417 196.661 474.911C196.858 476.101 196.776 477.046 196.415 477.744C196.054 478.442 195.472 478.887 194.671 479.077C193.731 479.3 192.908 479.036 192.202 478.285C191.484 477.536 190.968 476.501 190.653 475.179L188.99 468.186L190.732 467.772L190.959 468.729L199.492 466.704L199.264 465.747L201.006 465.333L202.689 472.414ZM155.135 451.428L154.714 453.174L170.281 456.925L170.702 455.181L173.879 455.946L170.76 468.863C169.329 474.787 166.579 477.259 162.513 476.279C159.485 475.548 158.273 472.772 158.878 467.947C158.214 470.048 157.298 471.518 156.132 472.356C154.966 473.195 153.652 473.438 152.19 473.086C150.475 472.672 149.354 471.562 148.826 469.756C148.278 467.944 148.294 465.833 148.877 463.421L151.959 450.662L155.135 451.428ZM179.274 473.513C179.163 473.977 179.201 474.415 179.385 474.826C179.567 475.249 179.942 475.528 180.51 475.663C181.137 475.812 181.633 475.74 181.997 475.446C182.359 475.165 182.597 474.78 182.713 474.293L182.816 473.858L179.386 473.043L179.274 473.513ZM230.419 462.469C231.002 464.881 231.018 466.993 230.47 468.805C229.942 470.611 228.821 471.721 227.106 472.134C225.644 472.487 224.331 472.244 223.165 471.406C221.998 470.567 221.083 469.097 220.418 466.996C221.023 471.82 219.811 474.598 216.783 475.328C212.717 476.308 209.967 473.836 208.537 467.912L205.417 454.995L208.594 454.229L209.015 455.975L224.583 452.222L224.161 450.476L227.337 449.711L230.419 462.469ZM191.886 473.012L191.989 473.447C192.105 473.934 192.344 474.318 192.705 474.6C193.069 474.893 193.565 474.966 194.192 474.817C194.761 474.682 195.136 474.403 195.317 473.98C195.501 473.569 195.539 473.131 195.429 472.667L195.316 472.198L191.886 473.012ZM174.044 472.07C173.693 473.542 174.139 474.426 175.38 474.721C176.031 474.875 176.549 474.784 176.936 474.447C177.323 474.11 177.592 473.623 177.744 472.985L177.818 472.672L174.11 471.791L174.044 472.07ZM138.473 460.231L138.114 461.146L146.281 464.34L146.641 463.425L148.307 464.076L145.684 470.77C145.188 472.035 144.532 472.989 143.717 473.63C142.913 474.276 142.061 474.423 141.161 474.071C140.394 473.771 139.881 473.25 139.621 472.508C139.361 471.766 139.411 470.819 139.773 469.668C138.529 472.023 137.113 472.891 135.524 472.269C133.391 471.435 132.933 469.464 134.151 466.356L136.807 459.579L138.473 460.231ZM196.884 471.825L196.958 472.139C197.11 472.777 197.379 473.264 197.766 473.601C198.153 473.938 198.671 474.029 199.321 473.875C200.563 473.58 201.009 472.696 200.659 471.224L200.592 470.945L196.884 471.825ZM141.307 467.618C141.133 468.062 141.108 468.5 141.233 468.933C141.354 469.377 141.686 469.706 142.23 469.918C142.831 470.153 143.332 470.15 143.733 469.911C144.13 469.682 144.42 469.335 144.603 468.868L144.766 468.452L141.483 467.168L141.307 467.618ZM161.657 463.68C161.376 464.844 161.41 465.859 161.761 466.727C162.112 467.596 162.88 468.172 164.066 468.458C166.332 469.005 167.79 467.934 168.439 465.247L168.562 464.74L161.795 463.109L161.657 463.68ZM136.328 465.46C135.776 466.869 136.094 467.807 137.283 468.272C137.905 468.515 138.431 468.497 138.861 468.217C139.291 467.937 139.626 467.492 139.865 466.882L139.983 466.582L136.432 465.193L136.328 465.46ZM210.735 463.788L210.857 464.297C211.507 466.983 212.964 468.054 215.23 467.508C216.416 467.222 217.185 466.645 217.535 465.777C217.886 464.909 217.921 463.892 217.64 462.728L217.501 462.157L210.735 463.788ZM273.082 432.961C275.364 437.68 276.344 442.032 276.022 446.017C275.741 449.982 273.923 452.774 270.566 454.394C267.707 455.773 264.886 455.859 262.103 454.649C259.321 453.439 256.773 450.813 254.462 446.772C257.869 456.462 256.61 462.737 250.684 465.596C242.728 469.436 235.948 465.56 230.343 453.969L218.122 428.695L224.338 425.695L225.989 429.111L256.447 414.412L254.795 410.998L261.011 407.997L273.082 432.961ZM187.894 410.14L185.409 413.007L210.984 435.124L213.469 432.257L218.688 436.77L200.525 457.731C197.092 461.693 193.479 464.316 189.689 465.599C185.934 466.912 182.647 466.35 179.829 463.913C177.428 461.836 176.233 459.282 176.242 456.251C176.252 453.219 177.657 449.842 180.455 446.12C172.899 453.085 166.632 454.415 161.656 450.112C154.976 444.335 155.853 436.58 164.287 426.847L182.675 405.626L187.894 410.14ZM152.485 461.705C152.271 462.593 152.341 463.416 152.696 464.173C153.046 464.951 153.793 465.478 154.937 465.754C155.974 466.004 156.816 465.86 157.462 465.321C158.102 464.804 158.524 464.122 158.729 463.276L158.935 462.419L152.677 460.911L152.485 461.705ZM135.798 412.503L132.501 414.385L149.289 443.722L152.585 441.839L156.011 447.826L131.92 461.585C127.366 464.187 123.087 465.465 119.086 465.421C115.107 465.416 112.193 463.797 110.342 460.564C108.767 457.81 108.486 455.004 109.501 452.147C110.517 449.29 112.963 446.569 116.838 443.985C107.397 448.052 101.044 447.233 97.7775 441.525C93.3924 433.862 96.7933 426.836 107.98 420.447L132.372 406.516L135.798 412.503ZM220.361 461.468L220.567 462.325C220.772 463.172 221.194 463.853 221.835 464.371C222.48 464.909 223.322 465.053 224.359 464.803C225.503 464.528 226.25 464 226.6 463.222C226.955 462.465 227.026 461.642 226.811 460.753L226.619 459.96L220.361 461.468ZM126.41 441.536C124.812 442.449 123.677 443.707 123.003 445.31C122.29 446.935 122.493 448.725 123.613 450.681C124.846 452.836 126.356 454.039 128.143 454.29C129.89 454.563 131.602 454.221 133.28 453.263L134.778 452.407L128.029 440.613L126.41 441.536ZM188.673 440.64C187.469 442.031 186.815 443.593 186.711 445.328C186.578 447.098 187.363 448.72 189.068 450.194C190.947 451.819 192.771 452.454 194.54 452.098C196.278 451.778 197.78 450.888 199.045 449.428L200.175 448.124L189.893 439.233L188.673 440.64ZM233.035 444.475L233.515 445.468C236.057 450.726 239.546 452.284 243.98 450.145C246.3 449.025 247.628 447.491 247.963 445.542C248.299 443.593 247.916 441.48 246.815 439.203L246.274 438.085L233.035 444.475ZM251.869 435.386L252.679 437.062C253.48 438.718 254.657 439.938 256.211 440.72C257.784 441.543 259.587 441.465 261.618 440.485C263.855 439.405 265.161 437.983 265.535 436.22C265.929 434.498 265.706 432.768 264.865 431.029L264.114 429.477L251.869 435.386ZM173.356 426.39C169.531 430.805 169.479 434.622 173.202 437.842C175.151 439.527 177.087 440.137 179.011 439.673C180.935 439.209 182.726 438.02 184.383 436.109L185.196 435.17L174.079 425.556L173.356 426.39ZM116.688 423.02C111.614 425.918 110.3 429.502 112.744 433.773C114.023 436.008 115.647 437.225 117.616 437.424C119.586 437.623 121.669 437.095 123.866 435.84L124.945 435.224L117.647 422.472L116.688 423.02ZM285.482 424.655C287.696 427.154 287.946 429.162 286.23 430.679C284.953 431.809 283.324 431.482 281.345 429.698C282.081 430.655 282.455 431.526 282.466 432.312C282.477 433.098 282.174 433.764 281.558 434.309C280.834 434.949 279.983 435.104 279.006 434.774C278.02 434.452 277.076 433.782 276.174 432.764L271.406 427.382L272.747 426.197L273.398 426.934L279.966 421.127L279.314 420.39L280.654 419.205L285.482 424.655ZM276.238 430.273L276.534 430.608C276.866 430.983 277.258 431.21 277.71 431.288C278.17 431.375 278.641 431.205 279.124 430.778C279.561 430.391 279.76 429.968 279.721 429.51C279.689 429.06 279.515 428.657 279.199 428.3L278.879 427.938L276.238 430.273ZM239.034 402.439C240.553 406.883 240.954 410.859 240.236 414.368C239.558 417.864 237.638 420.151 234.478 421.229C231.786 422.147 229.268 421.919 226.924 420.542C224.58 419.165 222.598 416.555 220.98 412.711C222.962 421.697 221.163 427.142 215.583 429.046C208.091 431.601 202.481 427.422 198.75 416.507L190.616 392.71L196.468 390.714L197.567 393.93L226.247 384.146L225.147 380.931L231.001 378.934L239.034 402.439ZM280.085 426.873L280.298 427.113C280.733 427.604 281.201 427.907 281.701 428.022C282.201 428.137 282.701 427.973 283.202 427.531C284.158 426.685 284.134 425.695 283.129 424.562L282.939 424.348L280.085 426.873ZM157.685 388.8L155.969 390.78L173.626 406.05L175.341 404.07L178.945 407.186L166.405 421.656C164.035 424.392 161.541 426.204 158.924 427.089C156.331 427.996 154.062 427.607 152.116 425.924C150.459 424.491 149.634 422.728 149.64 420.635C149.647 418.542 150.617 416.21 152.549 413.641C147.332 418.449 143.006 419.368 139.571 416.398C134.958 412.409 135.563 407.054 141.386 400.335L154.082 385.684L157.685 388.8ZM103.008 370.264L99.7114 372.147L116.499 401.482L119.795 399.6L123.221 405.587L99.1301 419.346C94.5755 421.948 90.2972 423.226 86.2958 423.181C82.3172 423.176 79.4026 421.557 77.5525 418.324C75.9765 415.57 75.696 412.765 76.7114 409.908C77.7269 407.05 80.1728 404.33 84.0481 401.746C74.6076 405.814 68.2537 404.994 64.9874 399.286C60.602 391.623 64.003 384.596 75.1897 378.207L99.5816 364.277L103.008 370.264ZM303.658 376.577C307.84 379.743 310.695 383.173 312.223 386.868C313.779 390.526 313.432 393.839 311.181 396.807C309.263 399.336 306.789 400.694 303.76 400.881C300.731 401.069 297.267 399.888 293.367 397.34C300.816 404.42 302.553 410.581 298.578 415.821C293.242 422.857 285.438 422.487 275.168 414.713L252.774 397.763L256.943 392.266L259.969 394.557L280.397 367.623L277.371 365.332L281.54 359.835L303.658 376.577ZM158.222 409.857C157.391 410.817 156.939 411.896 156.868 413.094C156.776 414.316 157.318 415.435 158.495 416.453C159.792 417.575 161.052 418.013 162.273 417.768C163.474 417.547 164.511 416.933 165.384 415.925L166.164 415.025L159.065 408.885L158.222 409.857ZM202.172 408.354L202.492 409.29C204.184 414.241 207.117 416.004 211.292 414.58C213.477 413.834 214.825 412.613 215.334 410.916C215.843 409.219 215.731 407.298 214.998 405.155L214.638 404.102L202.172 408.354ZM93.6202 399.298C92.0222 400.21 90.8866 401.468 90.2134 403.07C89.5002 404.696 89.7034 406.487 90.8226 408.442C92.0559 410.597 93.5662 411.8 95.3528 412.05C97.0995 412.324 98.8118 411.981 100.49 411.023L101.988 410.168L95.2387 398.373L93.6202 399.298ZM147.648 400.019C145.007 403.067 144.971 405.702 147.542 407.925C148.887 409.088 150.224 409.51 151.553 409.189C152.881 408.869 154.116 408.048 155.26 406.729L155.822 406.081L148.147 399.444L147.648 400.019ZM219.906 402.305L220.445 403.883C220.978 405.443 221.894 406.654 223.191 407.518C224.501 408.42 226.112 408.545 228.024 407.893C230.131 407.174 231.446 406.05 231.97 404.522C232.506 403.034 232.495 401.471 231.936 399.834L231.435 398.372L219.906 402.305ZM273.242 405.035L274.122 405.701C278.78 409.227 282.597 409.03 285.57 405.109C287.127 403.057 287.611 401.087 287.022 399.199C286.433 397.311 285.129 395.604 283.112 394.077L282.121 393.327L273.242 405.035ZM126.259 375.595L125.451 377.198L139.752 384.396L140.56 382.792L143.479 384.261L137.494 396.128C134.749 401.57 131.509 403.352 127.773 401.472C124.991 400.071 124.444 397.091 126.134 392.531C125.008 394.425 123.781 395.648 122.454 396.199C121.128 396.75 119.793 396.687 118.45 396.012C116.874 395.218 116.036 393.882 115.934 392.003C115.813 390.115 116.312 388.062 117.429 385.847L123.341 374.126L126.259 375.595ZM254.327 386.608C255.238 387.618 255.799 388.629 256.009 389.645C256.227 390.652 255.977 391.478 255.259 392.125C254.648 392.676 253.951 392.902 253.171 392.802C252.39 392.703 251.566 392.234 250.697 391.396C252.249 393.561 252.391 395.214 251.124 396.356C249.423 397.888 247.454 397.416 245.216 394.937L240.337 389.533L241.667 388.335L242.326 389.065L248.839 383.198L248.18 382.468L249.509 381.27L254.327 386.608ZM83.8982 380.78C78.8242 383.678 77.5096 387.262 79.9536 391.533C81.2327 393.768 82.857 394.985 84.8264 395.185C86.7956 395.384 88.8789 394.856 91.0762 393.601L92.1552 392.985L84.8569 380.233L83.8982 380.78ZM129.814 389.009C129.275 390.078 129.077 391.075 129.22 392C129.363 392.925 129.979 393.662 131.069 394.21C133.15 395.258 134.814 394.548 136.059 392.08L136.294 391.613L130.079 388.484L129.814 389.009ZM245.196 392.378L245.388 392.591C246.403 393.715 247.385 393.851 248.333 392.997C248.829 392.55 249.048 392.071 248.99 391.562C248.932 391.052 248.683 390.554 248.243 390.067L248.027 389.828L245.196 392.378ZM285.873 388.38L287.359 389.504C288.826 390.615 290.429 391.166 292.169 391.156C293.945 391.174 295.514 390.285 296.876 388.489C298.377 386.51 298.892 384.651 298.422 382.911C297.989 381.198 297.002 379.759 295.462 378.593L294.086 377.552L285.873 388.38ZM121.334 384.997C120.923 385.813 120.803 386.63 120.976 387.449C121.139 388.286 121.746 388.969 122.797 389.498C123.75 389.978 124.603 390.03 125.354 389.652C126.095 389.294 126.662 388.727 127.054 387.949L127.452 387.162L121.702 384.268L121.334 384.997ZM249.224 388.75L249.547 389.109C249.867 389.463 250.249 389.681 250.692 389.763C251.144 389.854 251.586 389.704 252.02 389.313C252.499 388.882 252.721 388.433 252.686 387.967C252.659 387.51 252.477 387.095 252.142 386.723L251.842 386.392L249.224 388.75ZM113.112 369.105L112.453 369.834L118.966 375.702L119.625 374.972L120.954 376.169L116.076 381.573C113.838 384.052 111.869 384.525 110.167 382.993C108.9 381.851 109.043 380.198 110.595 378.033C109.726 378.871 108.901 379.34 108.121 379.439C107.34 379.539 106.644 379.313 106.033 378.762C105.315 378.115 105.065 377.289 105.283 376.281C105.493 375.266 106.053 374.254 106.964 373.245L111.782 367.906L113.112 369.105ZM266.819 373.245C267.73 374.254 268.29 375.266 268.5 376.281C268.718 377.288 268.468 378.115 267.751 378.762C267.14 379.313 266.443 379.539 265.663 379.439C264.882 379.34 264.057 378.871 263.188 378.033C264.74 380.198 264.883 381.851 263.616 382.993C261.915 384.525 259.945 384.052 257.707 381.573L252.829 376.169L254.158 374.972L254.817 375.702L261.33 369.834L260.671 369.105L262 367.906L266.819 373.245ZM190.7 352.389C195.637 352.389 199.738 353.756 203.004 356.489C206.307 359.185 207.959 362.981 207.959 367.878C207.959 372.737 206.307 376.552 203.004 379.324C199.701 382.057 195.599 383.423 190.7 383.423C185.69 383.423 181.552 382.057 178.286 379.324C175.057 376.59 173.442 372.775 173.442 367.878C173.442 362.943 175.057 359.128 178.286 356.433C181.515 353.738 185.653 352.389 190.7 352.389ZM113.049 376.704C112.609 377.191 112.36 377.688 112.302 378.198C112.244 378.707 112.463 379.186 112.959 379.633C113.907 380.487 114.889 380.352 115.904 379.228L116.096 379.015L113.264 376.464L113.049 376.704ZM257.688 379.015L257.88 379.228C258.895 380.352 259.876 380.487 260.824 379.633C261.32 379.186 261.539 378.707 261.481 378.198C261.423 377.689 261.174 377.19 260.735 376.704L260.519 376.464L257.688 379.015ZM69.4157 353.601L67.9951 354.702L77.813 367.34L79.2337 366.239L81.2373 368.818L70.7292 376.965C65.91 380.701 62.2183 380.919 59.6536 377.618C57.7434 375.159 58.5319 372.233 62.019 368.841C60.1871 370.068 58.5532 370.646 57.1183 370.574C55.6834 370.502 54.505 369.873 53.5833 368.687C52.5013 367.294 52.3186 365.727 53.0351 363.987C53.7382 362.229 55.0709 360.59 57.0329 359.069L67.4121 351.022L69.4157 353.601ZM190.7 358.084C188.288 358.084 187.082 361.349 187.082 367.878C187.082 374.445 188.288 377.729 190.7 377.729C192.074 377.729 193.02 376.874 193.54 375.166C194.059 373.458 194.319 371.028 194.319 367.878C194.319 364.727 194.06 362.316 193.54 360.646C193.02 358.938 192.074 358.084 190.7 358.084ZM109.149 373.359C108.814 373.731 108.633 374.147 108.606 374.604C108.571 375.069 108.792 375.518 109.271 375.949C109.705 376.34 110.148 376.491 110.6 376.4C111.043 376.318 111.424 376.099 111.744 375.745L112.068 375.387L109.449 373.028L109.149 373.359ZM261.715 375.387L262.039 375.745C262.358 376.099 262.74 376.318 263.184 376.4C263.635 376.49 264.078 376.34 264.512 375.949C264.991 375.518 265.212 375.07 265.177 374.604C265.15 374.147 264.969 373.731 264.633 373.359L264.334 373.028L261.715 375.387ZM66.856 367.24C65.9094 367.974 65.3012 368.789 65.0328 369.686C64.7644 370.583 65.0046 371.513 65.7526 372.476C67.1819 374.316 68.9895 374.388 71.1754 372.693L71.5885 372.373L67.3205 366.879L66.856 367.24ZM315.402 353.035C317.364 354.556 318.696 356.196 319.399 357.953C320.116 359.693 319.933 361.259 318.851 362.652C317.929 363.838 316.751 364.468 315.316 364.54C313.881 364.613 312.248 364.034 310.416 362.807C313.903 366.199 314.691 369.125 312.781 371.584C310.216 374.885 306.524 374.668 301.705 370.931L291.198 362.784L293.202 360.205L294.621 361.306L304.439 348.668L303.02 347.568L305.023 344.988L315.402 353.035ZM300.846 366.339L301.259 366.66C303.445 368.354 305.253 368.282 306.682 366.442C307.43 365.479 307.67 364.549 307.402 363.652C307.133 362.756 306.526 361.94 305.579 361.206L305.114 360.845L300.846 366.339ZM60.9243 359.977C60.2014 360.538 59.7422 361.225 59.5464 362.038C59.3335 362.864 59.5877 363.742 60.309 364.67C60.9635 365.513 61.7115 365.925 62.5523 365.907C63.3758 365.902 64.1317 365.632 64.8201 365.099L65.5173 364.558L61.5701 359.478L60.9243 359.977ZM306.917 358.524L307.614 359.065C308.303 359.599 309.059 359.868 309.883 359.873C310.724 359.891 311.471 359.479 312.125 358.636C312.847 357.708 313.101 356.83 312.888 356.004C312.692 355.191 312.233 354.504 311.51 353.944L310.864 353.443L306.917 358.524ZM252.522 341.74C254.438 338.996 256.338 338.281 258.221 339.593C259.624 340.571 259.689 342.233 258.415 344.58C259.175 343.638 259.936 343.068 260.7 342.872C261.464 342.676 262.185 342.814 262.862 343.286C263.656 343.839 264.008 344.631 263.916 345.66C263.835 346.696 263.404 347.772 262.624 348.889L258.498 354.799L257.026 353.774L257.59 352.965L250.38 347.94L249.815 348.749L248.344 347.724L252.522 341.74ZM62.3632 337.363L61.3287 337.894L66.0586 347.106L67.0931 346.576L68.0587 348.456L60.3988 352.381C56.8857 354.181 54.5112 353.877 53.2756 351.471C52.3555 349.678 53.2074 347.912 55.8319 346.171C54.5197 346.733 53.4118 346.905 52.5078 346.687C51.6038 346.47 50.9299 345.928 50.4858 345.064C49.9647 344.048 50.036 343.03 50.7002 342.009C51.3581 340.976 52.4023 340.093 53.8326 339.36L61.3984 335.483L62.3632 337.363ZM122.948 338.032C124.798 336.674 126.715 337.343 128.698 340.039L133.022 345.917L131.576 346.978L130.992 346.184L123.907 351.385L124.491 352.179L123.046 353.24L118.775 347.434C117.967 346.337 117.51 345.271 117.403 344.237C117.286 343.211 117.618 342.411 118.399 341.838C119.064 341.35 119.781 341.194 120.55 341.371C121.319 341.548 122.094 342.099 122.877 343.022C121.546 340.707 121.569 339.044 122.948 338.032ZM191.425 335.149C203.819 335.149 215.079 336.636 225.206 339.61C235.333 342.584 242.815 346.562 247.651 351.546L245.611 352.329C243.797 350.601 241.492 348.974 238.696 347.447C235.976 345.879 232.461 344.332 228.153 342.805C223.921 341.238 218.631 339.992 212.283 339.067C205.935 338.143 198.982 337.681 191.425 337.681C184.623 337.681 178.237 338.063 172.266 338.826C166.296 339.55 161.308 340.434 157.303 341.479C153.298 342.524 149.632 343.769 146.307 345.216C142.981 346.623 140.449 347.889 138.711 349.014C136.898 350.139 135.349 351.264 134.064 352.389L132.023 351.606C137.54 346.663 145.702 342.685 156.509 339.671C167.316 336.657 178.955 335.149 191.425 335.149ZM59.101 345.731C58.411 346.085 57.9264 346.531 57.6482 347.07C57.37 347.608 57.4107 348.228 57.7711 348.93C58.4596 350.271 59.6011 350.534 61.1945 349.717L61.4952 349.562L59.4392 345.558L59.101 345.731ZM259.992 346.487C259.511 346.152 259.052 346.058 258.615 346.204C258.184 346.341 257.831 346.606 257.557 346.997L257.28 347.394L260.179 349.414L260.435 349.047C260.723 348.635 260.851 348.201 260.821 347.743C260.798 347.275 260.521 346.856 259.992 346.487ZM122.718 344.651C122.276 344.515 121.819 344.621 121.347 344.968C120.826 345.35 120.56 345.775 120.548 346.243C120.529 346.702 120.669 347.134 120.967 347.538L121.232 347.899L124.081 345.808L123.794 345.418C123.511 345.033 123.152 344.777 122.718 344.651ZM318.602 333.324C320.032 334.057 321.076 334.941 321.734 335.975C322.399 336.996 322.47 338.014 321.949 339.029C321.505 339.894 320.831 340.435 319.927 340.653C319.023 340.87 317.915 340.698 316.603 340.137C319.227 341.877 320.079 343.644 319.159 345.436C317.923 347.843 315.549 348.146 312.036 346.346L304.376 342.421L305.341 340.541L306.377 341.072L311.107 331.859L310.071 331.329L311.036 329.448L318.602 333.324ZM255.864 343.282C254.814 342.551 253.854 342.807 252.985 344.052L252.821 344.288L255.955 346.471L256.14 346.207C256.517 345.668 256.702 345.141 256.696 344.627C256.69 344.114 256.413 343.665 255.864 343.282ZM237.058 332.71C238.55 329.058 240.549 327.743 243.056 328.766C244.923 329.527 245.428 331.422 244.571 334.45C245.201 333.17 245.929 332.319 246.757 331.896C247.585 331.472 248.449 331.445 249.35 331.812C250.407 332.243 251.017 333.062 251.179 334.269C251.353 335.481 251.137 336.832 250.529 338.319L247.316 346.182L245.357 345.384L245.798 344.308L236.202 340.395L235.763 341.47L233.804 340.672L237.058 332.71ZM128.291 342.361C127.392 341.138 126.426 340.906 125.395 341.663C124.855 342.059 124.589 342.514 124.596 343.028C124.603 343.542 124.801 344.064 125.19 344.593L125.382 344.853L128.461 342.593L128.291 342.361ZM56.1988 340.403C55.6718 340.673 55.2973 341.055 55.0754 341.549C54.8409 342.049 54.897 342.638 55.2445 343.314C55.5597 343.928 55.9862 344.28 56.523 344.369C57.0474 344.464 57.5612 344.383 58.063 344.126L58.5711 343.866L56.6694 340.162L56.1988 340.403ZM137.841 326.836C140.322 325.753 142.353 327.018 143.934 330.631L147.383 338.511L145.446 339.358L144.979 338.293L135.483 342.441L135.949 343.506L134.011 344.352L130.605 336.569C129.961 335.098 129.712 333.754 129.856 332.538C129.988 331.327 130.577 330.493 131.624 330.036C132.515 329.647 133.38 329.653 134.218 330.056C135.056 330.459 135.805 331.292 136.466 332.556C135.535 329.55 135.994 327.643 137.841 326.836ZM310.939 343.528L311.24 343.682C312.833 344.498 313.975 344.236 314.663 342.895C315.024 342.193 315.064 341.573 314.786 341.035C314.508 340.497 314.024 340.05 313.334 339.697L312.995 339.524L310.939 343.528ZM246.88 336.236C246.24 335.975 245.687 335.986 245.222 336.268C244.762 336.537 244.425 336.932 244.212 337.453L243.996 337.982L247.854 339.555L248.054 339.066C248.278 338.518 248.313 337.984 248.16 337.465C248.011 336.933 247.585 336.523 246.88 336.236ZM313.864 337.831L314.372 338.091C314.874 338.348 315.387 338.43 315.911 338.334C316.448 338.245 316.875 337.893 317.19 337.279C317.537 336.602 317.594 336.014 317.359 335.514C317.137 335.02 316.763 334.638 316.236 334.368L315.766 334.127L313.864 337.831ZM213.191 320.777C214.411 314.806 217.071 312.239 221.17 313.075C224.222 313.698 225.531 316.431 225.097 321.273C225.687 319.15 226.549 317.649 227.685 316.77C228.821 315.891 230.126 315.602 231.598 315.902C233.327 316.255 234.488 317.325 235.079 319.112C235.691 320.903 235.748 323.014 235.251 325.445L232.623 338.304L229.42 337.651L229.78 335.891L214.09 332.69L213.731 334.449L210.529 333.795L213.191 320.777ZM135.86 334.389C135.388 334.119 134.836 334.122 134.203 334.399C133.505 334.703 133.089 335.123 132.954 335.659C132.813 336.181 132.861 336.714 133.098 337.256L133.31 337.74L137.128 336.072L136.899 335.55C136.673 335.034 136.327 334.647 135.86 334.389ZM241.301 333.619C239.905 333.049 238.868 333.593 238.191 335.249L238.063 335.562L242.234 337.263L242.378 336.911C242.671 336.194 242.748 335.54 242.608 334.951C242.468 334.361 242.032 333.917 241.301 333.619ZM159.335 310.612C163.411 309.675 166.133 312.176 167.501 318.116L170.482 331.065L167.298 331.796L166.895 330.047L151.289 333.633L151.692 335.383L148.507 336.115L145.562 323.324C145.005 320.906 145.011 318.794 145.579 316.989C146.126 315.188 147.259 314.09 148.979 313.695C150.444 313.359 151.755 313.616 152.912 314.467C154.069 315.317 154.969 316.797 155.61 318.904C155.057 314.074 156.299 311.31 159.335 310.612ZM58.9799 323.405L58.0238 323.651L60.2192 332.155L61.1753 331.91L61.6233 333.645L54.5525 335.466C51.3094 336.302 49.4008 335.609 48.8273 333.387C48.4003 331.733 49.4352 330.429 51.9317 329.478C50.7412 329.698 49.7919 329.634 49.0844 329.286C48.3769 328.938 47.9196 328.364 47.7135 327.566C47.4716 326.629 47.7211 325.8 48.4612 325.078C49.1985 324.345 50.2271 323.809 51.5474 323.468L58.5319 321.669L58.9799 323.405ZM142.865 333.197C142.148 331.558 141.097 331.041 139.715 331.645C138.992 331.961 138.567 332.415 138.442 333.008C138.317 333.601 138.409 334.252 138.72 334.962L138.872 335.31L143 333.507L142.865 333.197ZM54.718 329.722C54.0812 329.887 53.5976 330.166 53.2669 330.559C52.9362 330.953 52.8548 331.474 53.022 332.122C53.3417 333.36 54.2366 333.789 55.7072 333.411L55.9853 333.338L55.0309 329.641L54.718 329.722ZM183.886 296.167C188.674 296.246 191.426 300.005 192.141 307.445C192.431 304.07 193.309 301.558 194.777 299.909C196.244 298.26 198.133 297.455 200.443 297.493C203.156 297.537 205.211 298.826 206.61 301.359C208.041 303.892 208.727 307.065 208.664 310.878L208.331 331.049L203.308 330.967L203.354 328.207L178.743 327.802L178.698 330.562L173.675 330.479L174.011 310.057C174.166 300.691 177.457 296.061 183.886 296.167ZM320.887 317.435C322.207 317.775 323.236 318.311 323.973 319.044C324.713 319.765 324.963 320.595 324.721 321.532C324.515 322.33 324.058 322.903 323.35 323.252C322.643 323.6 321.693 323.664 320.503 323.444C322.999 324.396 324.034 325.699 323.607 327.353C323.034 329.575 321.125 330.268 317.882 329.432L310.811 327.611L311.259 325.875L312.215 326.121L314.411 317.617L313.455 317.371L313.903 315.635L320.887 317.435ZM53.3105 324.773C52.8244 324.898 52.4436 325.144 52.1679 325.511C51.8806 325.881 51.8175 326.379 51.9788 327.004C52.1252 327.571 52.4122 327.942 52.8399 328.115C53.2559 328.292 53.6954 328.32 54.1585 328.201L54.6283 328.079L53.7454 324.66L53.3105 324.773ZM229.114 323.326C228.068 323.113 227.231 323.286 226.605 323.847C225.984 324.387 225.586 325.083 225.411 325.936L225.234 326.8L231.542 328.087L231.706 327.287C231.889 326.392 231.79 325.572 231.408 324.828C231.031 324.062 230.266 323.562 229.114 323.326ZM316.449 327.305L316.727 327.376C318.198 327.755 319.093 327.325 319.412 326.087C319.58 325.44 319.498 324.919 319.168 324.525C318.837 324.132 318.353 323.853 317.716 323.689L317.404 323.608L316.449 327.305ZM26.5742 240.917C31.1199 239.68 35.0859 239.71 38.4725 241.006C41.8404 242.233 43.9371 244.36 44.7624 247.388C45.3062 249.383 45.1963 251.149 44.4321 252.687C43.649 254.157 42.2583 255.163 40.2609 255.707C38.5392 256.175 36.9618 256.088 35.5284 255.443C34.0762 254.729 33.1252 253.546 32.675 251.895C31.9811 249.349 32.7516 247.292 34.9872 245.723C33.5224 245.234 31.7911 245.262 29.7937 245.806C23.0439 247.642 21.2258 254.272 24.3396 265.693L25.4089 269.615L38.6329 266.017L40.1807 271.693L26.9559 275.292L38.042 315.956L46.8236 313.567L48.3715 319.243L20.5797 326.804L19.0327 321.128L25.9545 319.245L14.8685 278.58L7.94672 280.463L6.39886 274.787L13.3215 272.903L12.5894 270.22C10.3011 261.826 10.5446 255.255 13.3198 250.509C16.095 245.763 20.5134 242.566 26.5742 240.917ZM219.894 320.945C217.61 320.479 216.191 321.6 215.637 324.309L215.532 324.821L222.352 326.212L222.47 325.636C222.71 324.464 222.639 323.449 222.258 322.594C221.877 321.739 221.089 321.189 219.894 320.945ZM154.166 321.515C153.527 320.969 152.686 320.816 151.646 321.055C150.499 321.318 149.747 321.838 149.388 322.613C149.025 323.366 148.946 324.188 149.151 325.079L149.334 325.874L155.609 324.432L155.411 323.574C155.215 322.725 154.801 322.039 154.166 321.515ZM165.142 321.706C164.522 319.012 163.076 317.926 160.804 318.448C159.615 318.721 158.84 319.29 158.48 320.155C158.121 321.019 158.075 322.035 158.344 323.201L158.475 323.774L165.259 322.215L165.142 321.706ZM317.806 322.046L318.276 322.167C318.739 322.286 319.179 322.257 319.595 322.081C320.022 321.907 320.309 321.537 320.456 320.97C320.617 320.345 320.554 319.847 320.267 319.477C319.991 319.11 319.61 318.864 319.124 318.739L318.689 318.627L317.806 322.046ZM325.926 233.247C329.313 231.951 333.28 231.921 337.826 233.158C343.886 234.807 348.305 238.005 351.08 242.751C353.855 247.497 354.098 254.068 351.809 262.462L351.078 265.146L358 267.029L356.453 272.705L349.53 270.822L338.445 311.486L345.367 313.37L343.819 319.046L316.028 311.485L317.576 305.809L326.358 308.198L337.443 267.533L324.219 263.936L325.767 258.259L338.991 261.857L340.06 257.935C343.174 246.513 341.355 239.884 334.606 238.048C332.609 237.505 330.877 237.477 329.413 237.965C331.648 239.534 332.419 241.592 331.725 244.137C331.275 245.789 330.323 246.971 328.871 247.684C327.438 248.329 325.86 248.418 324.138 247.949C322.141 247.406 320.751 246.399 319.968 244.93C319.203 243.391 319.092 241.624 319.636 239.629C320.462 236.602 322.559 234.474 325.926 233.247ZM198.79 309.411C197.149 309.384 195.935 309.882 195.148 310.906C194.361 311.897 193.958 313.062 193.936 314.4L193.913 315.755L203.808 315.918L203.829 314.663C203.852 313.258 203.469 312.048 202.682 311.031C201.896 309.981 200.598 309.44 198.79 309.411ZM184.187 308.418C180.604 308.359 178.777 310.454 178.707 314.702L178.694 315.504L189.392 315.68L189.407 314.777C189.437 312.938 189.044 311.426 188.226 310.241C187.408 309.057 186.062 308.449 184.187 308.418ZM212.999 298.749C214.915 296.005 216.815 295.29 218.699 296.602C220.101 297.58 220.166 299.242 218.892 301.589C219.652 300.647 220.414 300.077 221.177 299.881C221.941 299.685 222.662 299.823 223.339 300.295C224.133 300.848 224.486 301.64 224.394 302.669C224.313 303.705 223.881 304.781 223.101 305.898L218.975 311.808L217.503 310.783L218.068 309.974L210.857 304.949L210.293 305.757L208.822 304.732L212.999 298.749ZM164.376 294.878C166.259 293.566 168.158 294.282 170.075 297.026L174.253 303.009L172.782 304.034L172.217 303.226L165.007 308.251L165.57 309.059L164.099 310.084L159.972 304.175C159.192 303.058 158.762 301.981 158.68 300.945C158.589 299.916 158.94 299.125 159.735 298.572C160.411 298.1 161.132 297.962 161.896 298.158C162.66 298.354 163.422 298.923 164.182 299.865C162.908 297.518 162.973 295.856 164.376 294.878ZM220.469 303.496C219.988 303.161 219.529 303.067 219.092 303.213C218.661 303.35 218.308 303.614 218.035 304.006L217.757 304.403L220.656 306.423L220.913 306.056C221.201 305.644 221.329 305.21 221.299 304.752C221.275 304.284 220.999 303.865 220.469 303.496ZM163.982 301.49C163.545 301.344 163.085 301.437 162.605 301.772C162.075 302.141 161.798 302.561 161.775 303.029C161.745 303.487 161.874 303.921 162.161 304.333L162.418 304.7L165.317 302.68L165.04 302.283C164.766 301.891 164.413 301.627 163.982 301.49ZM216.341 300.291C215.292 299.56 214.332 299.816 213.463 301.061L213.299 301.296L216.433 303.48L216.618 303.216C216.994 302.677 217.179 302.15 217.174 301.636C217.168 301.122 216.891 300.674 216.341 300.291ZM169.611 299.338C168.742 298.093 167.783 297.837 166.733 298.568C166.184 298.951 165.906 299.399 165.9 299.913C165.894 300.427 166.08 300.954 166.456 301.493L166.641 301.757L169.776 299.573L169.611 299.338ZM151.007 268.398C150.625 268.628 150.257 268.892 149.902 269.189C149.533 269.487 149.116 269.926 148.652 270.507C148.174 271.089 147.765 271.731 147.424 272.434C147.069 273.137 146.776 274.023 146.544 275.091C146.298 276.16 146.175 277.309 146.175 278.539C146.175 279.648 146.284 280.69 146.503 281.663C146.721 282.623 146.994 283.434 147.321 284.097C147.649 284.759 148.039 285.368 148.489 285.923C148.939 286.49 149.362 286.936 149.758 287.261C150.154 287.585 150.57 287.87 151.007 288.113L150.679 288.6C148.973 287.734 147.595 286.389 146.544 284.563C145.493 282.738 144.967 280.73 144.967 278.539C144.967 276.322 145.499 274.246 146.564 272.312C147.628 270.365 149 268.898 150.679 267.911L151.007 268.398ZM222.093 267.911C223.771 268.898 225.143 270.365 226.208 272.312C227.273 274.246 227.805 276.322 227.805 278.539C227.805 280.73 227.279 282.738 226.228 284.563C225.177 286.389 223.799 287.734 222.093 288.6L221.765 288.113C222.202 287.87 222.618 287.585 223.014 287.261C223.41 286.936 223.833 286.49 224.284 285.923C224.734 285.368 225.123 284.759 225.451 284.097C225.778 283.434 226.051 282.623 226.269 281.663C226.487 280.69 226.597 279.648 226.597 278.539C226.597 277.309 226.474 276.16 226.228 275.091C225.996 274.023 225.703 273.137 225.348 272.434C225.007 271.731 224.597 271.089 224.12 270.507C223.656 269.926 223.239 269.487 222.871 269.189C222.516 268.892 222.147 268.628 221.765 268.398L222.093 267.911ZM171.678 273.387L170.979 274.057L169.984 273.021L165.269 282.467L175.066 278.309L173.827 277.019L174.525 276.35L178.035 280.002L177.336 280.672L176.306 279.601L164.439 284.624L163.531 283.68L169.251 272.257L168.325 271.294L169.023 270.624L171.678 273.387ZM208.305 269.571L207.379 270.534L213.099 281.956L212.191 282.901L200.323 277.877L199.293 278.949L198.594 278.279L202.105 274.626L202.804 275.296L201.563 276.586L211.36 280.744L206.645 271.298L205.65 272.333L204.951 271.664L207.606 268.901L208.305 269.571ZM185.987 246.36C190.948 246.36 194.988 247.743 198.105 250.509C201.222 253.231 202.781 256.722 202.781 260.981C202.781 265.241 201.222 268.754 198.105 271.52C194.988 274.286 190.948 275.669 185.987 275.669C181.026 275.669 176.986 274.286 173.869 271.52C170.708 268.754 169.128 265.241 169.128 260.981C169.128 256.722 170.708 253.231 173.869 250.509C176.986 247.743 181.026 246.36 185.987 246.36ZM185.987 250.048C181.553 250.048 177.953 251.014 175.187 252.946C172.421 254.878 171.038 257.557 171.038 260.981C171.038 264.406 172.421 267.107 175.187 269.083C177.953 271.015 181.553 271.98 185.987 271.981C190.378 271.981 193.956 271.015 196.722 269.083C199.488 267.107 200.871 264.406 200.871 260.981C200.871 257.557 199.51 254.878 196.788 252.946C194.022 251.014 190.422 250.048 185.987 250.048ZM154.021 263.563C154.323 263.387 154.669 263.375 155.06 263.525C155.468 263.681 155.717 263.922 155.806 264.247C155.92 264.561 155.924 264.855 155.82 265.127C155.722 265.38 155.522 265.595 155.22 265.77C154.925 265.927 154.583 265.931 154.192 265.781C153.802 265.632 153.55 265.4 153.436 265.086C153.348 264.761 153.352 264.471 153.45 264.218C153.554 263.946 153.744 263.727 154.021 263.563ZM216.536 262.661C216.882 262.426 217.221 262.358 217.555 262.459C217.862 262.555 218.098 262.724 218.262 262.965C218.416 263.189 218.487 263.47 218.476 263.807C218.437 264.138 218.246 264.422 217.9 264.657C217.555 264.893 217.221 264.968 216.897 264.883C216.563 264.782 216.319 264.619 216.166 264.394C216.002 264.154 215.939 263.868 215.977 263.536C215.988 263.199 216.175 262.908 216.536 262.661ZM216.203 156.309L216.226 163.937L267.714 169.167C276.971 170.087 283.94 172.37 288.619 176.016C293.216 179.595 295.525 184.673 295.545 191.249C295.561 196.198 294.14 200.202 291.283 203.262C290.419 204.188 289.473 204.974 288.45 205.621C290.589 210.31 291.659 215.527 291.659 221.274C291.659 232.548 287.543 241.846 279.31 249.168C271.077 256.491 260.41 260.152 247.307 260.152C234.204 260.152 223.537 256.491 215.304 249.168C211.182 245.553 208.078 241.456 205.991 236.877H188.549V232.411H194.556V210.485H170.53V232.411H176.456V236.877H159.232C157.233 242.512 153.828 247.472 149.013 251.755C140.78 259.077 130.112 262.738 117.01 262.738C103.907 262.738 93.2386 259.077 85.0059 251.755C76.6573 244.432 72.4836 235.134 72.4836 223.859C72.4836 217.585 73.7766 211.94 76.3628 206.925C75.1376 206.229 74.0189 205.345 73.0074 204.269C70.1391 201.221 68.7034 197.221 68.7002 192.272C68.6961 185.697 70.9853 180.611 75.5688 177.015C80.2345 173.351 87.1948 171.041 96.4484 170.086L147.916 164.664L147.911 157.037L154.667 156.321L154.683 180.845H176.456V185.311H170.53V206.019H194.556V185.311H188.549V180.845H209.522L209.444 155.619L216.203 156.309ZM160.57 246.513C160.898 246.327 161.257 246.308 161.648 246.458C162.019 246.6 162.265 246.851 162.383 247.208C162.52 247.573 162.529 247.909 162.411 248.217C162.327 248.435 162.044 248.95 161.561 249.763C161.097 250.583 160.428 251.908 159.555 253.737C158.689 255.547 157.751 257.766 156.742 260.395L156.017 260.117C157.026 257.488 157.816 255.212 158.385 253.287C158.96 251.345 159.341 249.91 159.526 248.983C159.719 248.037 159.853 247.465 159.93 247.266C160.048 246.958 160.262 246.707 160.57 246.513ZM206.19 247.57C206.535 247.334 206.888 247.27 207.249 247.375C207.595 247.493 207.86 247.688 208.047 247.96C208.167 248.137 208.43 248.663 208.836 249.538C209.23 250.398 209.931 251.706 210.939 253.464C211.937 255.206 213.23 257.239 214.819 259.565L214.177 260.002C212.588 257.676 211.164 255.732 209.904 254.17C208.633 252.592 207.677 251.457 207.036 250.766C206.379 250.086 205.984 249.65 205.852 249.457C205.666 249.185 205.597 248.854 205.647 248.468C205.68 248.093 205.861 247.794 206.19 247.57ZM117.01 194.918C108.163 194.918 100.573 196.378 94.2399 199.297C94.4143 199.88 94.5018 200.517 94.5022 201.206C94.5035 203.375 93.5225 205.206 91.5581 206.699C89.5936 208.124 87.1366 208.837 84.1884 208.839C83.4808 208.839 82.7939 208.802 82.1272 208.73C79.0617 212.944 77.5272 217.987 77.5272 223.859C77.5272 232.925 81.18 240.074 88.4851 245.304C95.7901 250.418 105.299 252.975 117.01 252.975C128.605 252.975 138.055 250.418 145.36 245.304C149.657 242.227 152.689 238.487 154.458 234.083V232.411H155.059C155.897 229.781 156.318 226.93 156.318 223.859C156.318 214.794 152.723 207.704 145.535 202.59C138.229 197.476 128.721 194.919 117.01 194.918ZM247.307 192.333C235.596 192.333 226.087 194.889 218.782 200.003C211.477 205.117 207.825 212.208 207.825 221.274C207.825 225.38 208.577 229.092 210.076 232.411H210.547V233.399C212.373 236.987 215.118 240.094 218.782 242.717C226.088 247.831 235.596 250.389 247.307 250.389C258.902 250.389 268.352 247.831 275.658 242.717C282.963 237.487 286.615 230.339 286.615 221.274C286.615 216.077 285.432 211.531 283.07 207.633C282.13 207.789 281.146 207.869 280.119 207.872C277.171 207.881 274.712 207.177 272.742 205.76C270.772 204.275 269.783 202.447 269.776 200.277C269.772 199 270.069 197.903 270.664 196.987C264.215 193.884 256.43 192.333 247.307 192.333ZM35.4726 217.264H63.7603V213.603H66.4429V237.74H56.0541V234.56H56.9814C59.5171 234.56 61.289 234.143 62.297 233.308C63.2724 232.473 63.7603 230.851 63.7603 228.442V223.142H35.4726V227.237H32.79V213.603H35.4726V217.264ZM22.6 207.051L19.5443 230.654L22.2235 232.019L21.7241 232.996L15.2625 229.702L15.761 228.725L18.4819 230.112L21.2412 208.661L4.91986 223.198L7.93888 224.737L7.43949 225.714L0 221.921L0.498522 220.944L3.30489 222.374L21.324 206.401L22.6 207.051ZM160.628 231.743C160.584 231.966 160.538 232.189 160.49 232.411H160.628V231.743ZM351.984 218.927L354.789 217.497L355.289 218.474L347.848 222.267L347.35 221.29L350.368 219.751L334.047 205.214L336.807 226.665L339.527 225.278L340.026 226.255L333.564 229.549L333.065 228.572L335.743 227.207L332.689 203.604L333.964 202.954L351.984 218.927ZM296.931 207.782H325.219V204.12H327.901V217.754H325.219V213.659H296.931V218.958C296.931 221.367 297.418 222.99 298.393 223.825C299.401 224.66 301.174 225.078 303.71 225.078H304.636V228.257H294.248V204.12H296.931V207.782ZM120.565 200.372C122.76 200.71 124.445 201.562 125.62 202.927C126.794 204.292 127.458 205.989 127.611 208.018C127.823 210.825 127.058 213.258 125.318 215.317C123.576 217.349 121.025 218.491 117.665 218.744C114.251 219.001 111.526 218.214 109.493 216.383C107.43 214.526 106.292 212.193 106.081 209.386C105.915 207.191 106.314 205.372 107.276 203.93C108.212 202.49 109.376 201.718 110.769 201.613C111.615 201.549 112.303 201.735 112.83 202.17C113.355 202.578 113.648 203.185 113.709 203.991C113.762 204.686 113.602 205.299 113.23 205.83C112.828 206.335 112.258 206.615 111.521 206.671C111.029 206.708 110.567 206.589 110.134 206.315C109.672 206.014 109.354 205.619 109.18 205.129C108.467 205.881 108.167 206.994 108.278 208.467C108.412 210.245 109.256 211.607 110.811 212.552C112.365 213.497 114.523 213.866 117.282 213.659C120.068 213.449 122.132 212.777 123.475 211.641C124.818 210.506 125.425 209.077 125.295 207.353C125.091 204.658 123.37 202.957 120.13 202.25L120.565 200.372ZM92.7713 182.8C87.1209 183.414 82.8625 184.468 79.9971 185.961C77.2138 187.386 75.8229 189.828 75.8251 193.285C75.8271 196.404 76.9344 198.844 79.1465 200.605C80.4805 197.519 82.7514 195.757 85.9585 195.319C94.056 188.544 104.406 185.156 117.01 185.156C130.112 185.156 140.78 188.817 149.013 196.139C155.241 201.591 159.111 208.206 160.628 215.986V185.311H154.458V184.92L147.93 185.612L147.924 177.07L92.7713 182.8ZM103.245 206.759L102.346 207.12L101.809 205.788L93.9052 212.792L104.548 212.59L103.879 210.93L104.779 210.569L106.67 215.267L105.771 215.628L105.216 214.249L92.3286 214.484L91.8397 213.269L101.414 204.806L100.916 203.567L101.814 203.205L103.245 206.759ZM133.326 202.757L132.827 203.996L142.402 212.459L141.913 213.674L129.026 213.439L128.471 214.818L127.572 214.457L129.463 209.759L130.362 210.12L129.694 211.78L140.337 211.983L132.433 204.978L131.896 206.31L130.997 205.949L132.427 202.397L133.326 202.757ZM240.605 197.059C237.361 197.747 235.63 199.438 235.411 202.133C235.271 203.855 235.869 205.288 237.205 206.43C238.541 207.573 240.602 208.258 243.387 208.484C246.145 208.708 248.304 208.351 249.864 207.415C251.424 206.479 252.277 205.122 252.421 203.345C252.541 201.873 252.246 200.758 251.538 200.001C251.361 200.49 251.04 200.883 250.576 201.181C250.142 201.453 249.679 201.57 249.188 201.53C248.451 201.471 247.883 201.186 247.484 200.679C247.115 200.146 246.96 199.532 247.016 198.837C247.082 198.032 247.378 197.427 247.905 197.022C248.435 196.59 249.123 196.407 249.97 196.476C251.362 196.589 252.522 197.368 253.449 198.814C254.403 200.261 254.791 202.083 254.612 204.277C254.384 207.083 253.234 209.409 251.16 211.254C249.116 213.074 246.387 213.845 242.974 213.568C239.616 213.296 237.071 212.139 235.341 210.097C233.613 208.027 232.863 205.589 233.091 202.783C233.255 200.755 233.929 199.062 235.111 197.704C236.293 196.346 237.983 195.504 240.181 195.179L240.605 197.059ZM230.228 204.173L229.329 204.533L228.792 203.201L220.888 210.206L231.53 210.003L230.863 208.343L231.761 207.983L233.653 212.681L232.754 213.041L232.199 211.662L219.311 211.898L218.823 210.683L228.397 202.22L227.899 200.981L228.797 200.62L230.228 204.173ZM259.446 200.171L258.947 201.41L268.522 209.873L268.033 211.089L255.146 210.853L254.591 212.233L253.692 211.871L255.583 207.173L256.482 207.534L255.814 209.194L266.457 209.396L258.553 202.391L258.016 203.724L257.117 203.363L258.547 199.81L259.446 200.171ZM216.292 184.885L210.547 184.298V185.311H204.46V209.711C206.397 203.508 210.011 198.121 215.304 193.552C223.537 186.23 234.205 182.569 247.307 182.569C260.41 182.569 271.078 186.23 279.31 193.552C279.903 194.071 280.472 194.603 281.022 195.142C282.833 196.005 284.203 197.497 285.13 199.62C287.336 197.851 288.434 195.406 288.424 192.288C288.413 188.831 287.014 186.394 284.225 184.979C281.354 183.496 277.092 182.459 271.439 181.866L216.265 176.343L216.292 184.885ZM107.617 74.4918C125.328 67.1195 142.424 64.6248 158.906 67.0067L158.523 72.1489C154.743 71.6414 150.822 71.398 146.76 71.4184C142.788 71.5122 137.631 72.2303 131.29 73.5733C124.949 74.9163 118.678 76.9984 112.477 79.8195C106.366 82.7139 99.5668 87.093 92.0793 92.9553C84.6819 98.8909 77.6031 105.995 70.8425 114.268C64.7503 121.723 59.7487 129.31 55.838 137.029C52.0016 144.657 49.3418 151.579 47.859 157.793C46.3763 164.007 45.5947 170.188 45.5154 176.335C45.3619 182.573 45.6971 187.846 46.5212 192.154C47.3453 196.462 48.5279 200.608 50.0675 204.591L45.2348 206.104C38.7518 191.12 37.0639 174.669 40.1711 156.75C43.3683 138.904 50.9846 122.617 63.0204 107.889C75.2047 92.9792 90.0706 81.8467 107.617 74.4918ZM24.8738 170.839L27.8693 199.267L31.3781 200.12L31.067 201.4L22.6 199.343L22.9111 198.063L26.4766 198.93L23.7347 173.097L8.70584 194.615L12.6609 195.575L12.3498 196.855L2.60068 194.488L2.91269 193.208L6.58886 194.101L23.2022 170.434L24.8738 170.839ZM200.813 64.5462C216.776 62.2394 233.334 64.6567 250.487 71.7971C267.482 78.9205 281.879 89.7021 293.68 104.142C305.337 118.407 312.714 134.182 315.81 151.466C318.82 168.821 317.185 184.755 310.906 199.267L306.226 197.801C307.717 193.944 308.862 189.928 309.66 185.756C310.458 181.583 310.783 176.476 310.634 170.434C310.557 164.481 309.801 158.495 308.365 152.476C306.929 146.457 304.353 139.753 300.637 132.365C296.849 124.889 292.005 117.541 286.105 110.321C279.557 102.308 272.7 95.4269 265.535 89.6781C258.284 84.0002 251.698 79.7601 245.779 76.9567C239.774 74.2244 233.7 72.208 227.559 70.9073C221.417 69.6065 216.422 68.9102 212.575 68.8194C208.641 68.7997 204.844 69.0358 201.182 69.5273L200.813 64.5462ZM348.7 190.654L352.376 189.761L352.687 191.041L342.939 193.408L342.628 192.128L346.583 191.168L331.554 169.65L328.812 195.483L332.378 194.617L332.689 195.897L324.222 197.953L323.91 196.673L327.419 195.82L330.415 167.392L332.086 166.987L348.7 190.654ZM30.0046 143.44L33.0001 171.868L36.5098 172.721L36.1978 174.001L27.7307 171.945L28.0419 170.665L31.6074 171.531L28.8655 145.698L13.8366 167.215L17.7925 168.176L17.4805 169.456L7.73232 167.089L8.04346 165.809L11.7205 166.702L28.3338 143.034L30.0046 143.44ZM343.568 163.255L347.245 162.362L347.556 163.642L337.808 166.01L337.496 164.73L341.451 163.769L326.423 142.252L323.681 168.084L327.246 167.218L327.558 168.498L319.09 170.554L318.779 169.274L322.289 168.421L325.284 139.994L326.955 139.587L343.568 163.255ZM38.6207 111.476L35.5441 139.896L38.7941 141.468L38.2197 142.654L30.3767 138.859L30.952 137.674L34.2542 139.271L37.031 113.443L17.7952 131.307L21.4582 133.08L20.8839 134.266L11.8547 129.897L12.4291 128.711L15.8342 130.359L37.0728 110.727L38.6207 111.476ZM339.454 126.912L342.86 125.264L343.434 126.45L334.405 130.819L333.83 129.633L337.493 127.86L318.258 109.996L321.034 135.824L324.337 134.227L324.911 135.413L317.069 139.207L316.494 138.021L319.745 136.449L316.667 108.029L318.215 107.28L339.454 126.912ZM58.2966 88.6637L46.8532 114.864L49.4836 117.336L48.5806 118.295L42.2332 112.331L43.1361 111.372L45.8091 113.883L56.1901 90.0655L32.4867 101.366L35.4526 104.152L34.5488 105.112L27.2409 98.2454L28.1438 97.286L30.9005 99.8753L57.0442 87.4866L58.2966 88.6637ZM324.388 96.4284L327.145 93.839L328.048 94.7985L320.74 101.665L319.836 100.705L322.801 97.9198L299.099 86.6185L309.479 110.436L312.152 107.925L313.055 108.884L306.708 114.848L305.805 113.889L308.435 111.417L296.992 85.2168L298.244 84.0405L324.388 96.4284ZM80.4512 61.0348L66.8813 92.102L70.0014 95.0327L68.9294 96.1706L61.4028 89.0982L62.4739 87.9611L65.6437 90.9388L77.9534 62.6969L49.847 76.0965L53.3628 79.3998L52.2917 80.5378L43.6259 72.3961L44.6971 71.2582L47.9653 74.329L78.9652 59.6391L80.4512 61.0348ZM307.323 70.882L310.592 67.8112L311.663 68.9492L302.997 77.0908L301.926 75.9528L305.442 72.6495L277.334 59.2499L289.645 87.4918L292.814 84.5141L293.885 85.6521L286.358 92.7237L285.287 91.5857L288.406 88.655L274.837 57.5878L276.323 56.1921L307.323 70.882ZM95.3921 31.1665L94.4857 37.1445L134.571 60.2573L134.159 62.9746L89.2398 71.7431L88.3753 77.4495L86.2897 77.1343L88.377 63.3664L90.4626 63.6825L89.5832 69.4794L130.398 61.4788L93.9636 40.5862L92.9892 47.017L90.9036 46.701L93.3065 30.8513L95.3921 31.1665ZM269.183 46.4737L267.097 46.7898L266.123 40.359L229.688 61.2516L270.503 69.2513L269.624 63.4552L271.709 63.1392L273.797 76.9062L271.711 77.2223L270.846 71.5159L225.927 62.7474L225.515 60.03L265.601 36.9172L264.694 30.9392L266.78 30.6232L269.183 46.4737ZM157.772 2.07393L152.085 6.32628L168.671 60.0509L165.963 62.0752L117.6 32.1077L111.642 36.562L110.088 34.4881L125.886 22.6766L127.44 24.7514L121.03 29.5427L164.864 56.8477L149.828 8.01364L144.05 12.333L142.496 10.2582L156.218 0L157.772 2.07393ZM222.546 24.6112L220.878 25.9007L216.893 20.7568L195.242 56.7215L234.794 43.8678L231.203 39.2315L232.871 37.942L241.402 48.9542L239.733 50.2437L236.198 45.6788L192.685 59.8568L191.001 57.6836L214.76 18.0037L211.057 13.222L212.724 11.9325L222.546 24.6112ZM175.306 10.0432L175.102 12.286L168.169 11.653L180.565 54.779L199.314 14.4975L193.065 13.9264L193.271 11.6835L208.11 13.0383L207.905 15.282L201.754 14.7204L181.158 59.0627L178.229 58.7945L164.46 11.3143L158.016 10.7258L158.222 8.48293L175.306 10.0432Z" fill="#0E008B"/>
</svg>
