<svg width="1370" height="514" viewBox="0 0 1370 514" fill="none" xmlns="http://www.w3.org/2000/svg">
<path d="M616.831 34.24C621.151 42.16 624.751 51.04 627.151 60.64C629.551 70.24 630.991 79.84 630.991 88.96C630.991 98.32 629.551 107.92 627.151 117.52C624.751 127.12 621.151 136 616.831 143.92C611.311 154 604.831 161.44 597.151 166.72C589.471 172 581.071 174.64 571.951 174.64C562.831 174.64 554.431 172 546.751 166.72C539.071 161.44 532.351 154 527.071 143.92C522.511 136 518.911 127.12 516.511 117.28C514.111 107.68 512.911 98.08 512.911 88.96C512.911 79.84 514.111 70.24 516.511 60.64C518.911 51.04 522.511 42.16 527.071 34.24C532.351 24.4 539.071 16.96 546.751 11.68C554.431 6.39999 562.831 3.75999 571.951 3.75999C581.071 3.75999 589.471 6.39999 597.151 11.68C604.831 16.96 611.311 24.4 616.831 34.24ZM571.951 11.44C560.191 11.44 552.031 17.2 547.711 28.48C543.151 39.76 540.991 59.92 540.991 88.96C540.991 117.76 543.151 138.16 547.711 149.68C552.271 161.2 560.431 166.96 571.951 166.96C583.471 166.96 591.631 161.44 596.191 149.92C600.511 138.64 602.911 118.24 602.911 88.96C602.911 60.16 600.511 40 596.191 28.48C591.631 17.2 583.471 11.44 571.951 11.44Z" fill="white"/>
<path d="M793.981 164.08V172H707.101V164.08H738.301V22.96H707.101V15.28C722.701 15.28 734.941 14.32 743.581 11.92C752.221 9.51999 758.701 5.91999 762.541 0.639989L767.341 1.83999C766.381 4.23999 765.421 8.31999 764.941 14.08C764.221 19.84 763.981 26.08 763.981 32.32V164.08H793.981Z" fill="white"/>
<path d="M971.682 172H870.402V162.64C901.602 129.52 921.522 108.16 930.162 98.56C938.562 88.96 944.562 81.28 948.162 75.52C944.802 79.36 940.482 82.48 935.682 84.4C930.642 86.56 925.122 87.52 919.362 87.52C905.442 87.52 893.202 83.68 883.122 75.76C873.042 67.84 868.002 57.76 868.002 45.52C868.002 33.28 873.282 23.2 884.322 15.52C895.362 7.84 908.802 3.75999 924.642 3.75999C939.282 3.75999 951.282 7.59999 960.642 15.28C969.762 22.96 974.562 33.04 974.562 45.52C974.562 51.04 972.882 56.8 969.762 62.56C966.642 68.32 961.362 75.52 954.162 83.68C951.762 86.8 948.402 90.64 944.562 94.96C940.722 99.52 933.522 107.44 923.202 118.48C915.522 126.64 909.762 133.12 905.682 137.68C901.602 142.24 897.762 146.56 894.162 150.4H938.082C950.802 150.4 958.722 149.2 962.082 146.56C965.442 143.92 967.602 138.64 968.562 130.48L970.002 117.52H977.922L971.682 172ZM921.282 11.44C913.122 11.44 906.882 14.56 902.082 20.56C897.282 26.8 894.642 35.2 894.642 45.76C894.402 56.56 896.802 64.96 901.602 70.96C906.402 77.2 913.122 80.08 921.762 80.08C929.682 80.08 936.162 77.2 940.962 70.96C945.762 64.72 948.162 56.32 948.162 45.76C948.162 35.2 945.522 27.04 940.722 20.8C935.682 14.56 929.202 11.44 921.282 11.44Z" fill="white"/>
<path d="M1160.54 123.04C1160.54 138.16 1155.5 150.64 1145.66 160.24C1135.58 169.84 1122.14 174.64 1104.86 174.64C1089.26 174.64 1077.02 170.8 1068.38 163.12C1059.5 155.44 1055.18 145.36 1055.18 132.64C1055.18 127.36 1056.62 123.04 1059.74 119.68C1062.86 116.32 1066.94 114.4 1072.22 114.4C1077.02 114.4 1080.86 116.08 1083.74 119.2C1086.62 122.32 1088.06 126.16 1088.06 130.96C1088.06 136.24 1086.14 140.08 1082.78 142.96C1079.18 145.84 1074.14 147.28 1067.9 147.28C1070.3 153.76 1074.14 158.56 1079.9 161.92C1085.66 165.28 1092.62 166.72 1100.78 166.72C1110.86 166.72 1118.54 162.88 1124.3 155.2C1130.06 147.52 1132.7 136.72 1132.7 123.04C1132.46 110.08 1129.58 99.76 1124.06 92.08C1118.3 84.4 1111.34 80.32 1102.7 80.32C1099.34 80.32 1096.7 80.8 1094.54 81.52C1092.38 82.24 1089.98 83.44 1087.58 85.36L1084.22 81.52L1132.22 28H1100.06C1092.14 28 1086.62 28.24 1083.74 28.48C1080.62 28.96 1078.22 29.44 1076.54 30.4C1073.9 31.6 1072.22 33.76 1071.26 36.64C1070.3 39.76 1069.82 44.8 1069.82 51.52V58H1061.9V6.39999H1155.26V14.56L1103.66 71.92C1122.62 74.08 1136.78 79.36 1146.38 87.76C1155.74 96.16 1160.54 107.92 1160.54 123.04Z" fill="white"/>
<path d="M1349.85 164.08V172H1280.01V164.08H1303.53V127.12H1234.89V122.8L1320.81 3.51999H1329.45V119.2H1349.85V127.12H1329.45V164.08H1349.85ZM1247.85 119.2H1303.53V40.48L1247.85 119.2Z" fill="white"/>
<path d="M616.145 343.76C616.145 359.6 610.865 373.04 600.545 384.08C589.985 395.12 576.305 400.64 559.025 400.64C544.385 400.64 533.105 397.28 524.945 390.32C516.785 383.6 512.945 374.24 512.945 362.72C512.945 357.44 514.385 353.12 517.505 349.76C520.625 346.4 524.705 344.72 529.985 344.72C534.785 344.72 538.625 346.4 541.505 349.52C544.385 352.64 545.825 356.48 545.825 361.04C545.825 365.84 543.905 369.92 540.305 372.8C536.465 375.92 531.665 377.6 525.905 377.6C527.825 382.4 531.425 386 536.945 388.64C542.465 391.52 548.945 392.72 556.625 392.72C567.425 392.72 575.345 388.88 580.625 380.96C585.665 373.28 588.305 361.04 588.305 344.24C588.305 328.88 585.665 317.12 580.385 309.44C575.105 301.76 566.945 297.92 556.385 297.92C549.185 297.92 542.705 299.84 537.425 303.68C532.145 307.52 528.305 313.04 526.385 320H519.905L529.505 232.4H583.505C589.265 232.4 593.825 231.44 596.705 229.04C599.585 226.64 601.265 222.32 602.225 216.08L602.705 212H610.385L604.865 254H535.505L530.225 303.2C533.585 298.4 538.145 294.8 543.665 292.4C548.945 290 555.425 288.8 562.625 288.8C578.945 288.8 592.145 294.08 601.745 304.64C611.345 315.2 616.145 328.4 616.145 343.76Z" fill="white"/>
<path d="M759.616 297.44C772.336 297.44 783.616 302.72 793.696 312.8C803.776 322.88 808.816 335.12 808.816 349.04C808.816 362.96 803.296 374.96 792.496 385.28C781.696 395.6 769.216 400.64 755.056 400.64C738.256 400.64 724.576 393.92 714.256 380.24C703.936 366.56 698.896 347.84 698.896 323.84C698.896 313.28 700.096 302.48 702.736 291.92C705.136 281.36 708.736 272 713.536 263.36C719.296 252.56 726.256 244.16 734.656 238.4C743.056 232.64 752.416 229.76 762.496 229.76C773.536 229.76 782.656 232.64 789.856 238.4C797.056 244.16 800.656 251.6 800.656 260.48C800.656 265.76 799.216 269.84 796.336 272.72C793.456 275.84 789.616 277.28 784.816 277.28C779.536 277.28 775.456 275.84 772.576 272.96C769.456 270.08 768.016 266.24 768.016 261.44C768.016 256.64 769.456 252.8 772.336 249.92C775.216 247.04 779.536 245.6 785.056 245.36C782.416 242.72 779.056 240.56 775.216 239.12C771.136 237.68 766.576 236.96 761.296 236.96C749.296 236.96 740.416 242.72 734.656 254C728.896 265.28 726.256 282.56 726.256 306.08V320C729.376 312.56 733.696 307.04 739.456 303.2C744.976 299.36 751.696 297.44 759.616 297.44ZM755.056 305.84C746.176 305.84 739.456 309.68 734.896 317.36C730.096 325.04 727.936 335.6 727.936 349.04C727.936 363.2 730.096 374 734.896 381.68C739.456 389.36 746.176 392.96 755.056 392.96C763.216 392.96 769.936 389.12 774.736 380.96C779.536 373.04 781.936 362.48 781.936 349.04C781.936 335.6 779.536 325.04 774.976 317.36C770.176 309.68 763.696 305.84 755.056 305.84Z" fill="white"/>
<path d="M937.553 388.4C936.353 392.72 934.673 395.84 932.273 397.76C929.873 399.68 926.753 400.64 923.153 400.64C918.593 400.64 915.233 399.68 912.833 397.28C910.433 394.88 909.473 391.52 909.473 387.2C909.473 384.8 909.953 381.92 911.153 379.04C912.113 376.16 914.993 370.88 919.553 363.44C923.873 356.24 927.233 350 929.633 345.2C932.033 340.4 934.433 335.6 936.593 330.8C949.073 299.84 956.513 280.88 958.913 273.92C961.313 267.2 963.713 260.48 965.633 254H924.113C916.193 254 910.673 254.24 907.793 254.72C904.673 255.2 902.273 255.68 900.593 256.4C897.953 257.84 896.273 260 895.313 262.88C894.353 265.76 893.873 270.8 893.873 277.52V284H885.953V232.4H980.033V239.36C978.113 245.12 975.713 251.6 973.313 258.32C970.913 265.28 967.553 274.64 963.233 286.64C960.833 293.6 959.153 298.4 958.193 301.04C957.233 303.68 956.513 305.84 956.033 307.28C951.713 319.76 948.113 331.28 945.473 341.6C942.833 352.16 940.913 363.44 939.473 375.68C938.993 379.52 938.753 382.4 938.513 384.08C938.033 385.76 937.793 387.2 937.553 388.4Z" fill="white"/>
<path d="M1171.89 351.44C1171.89 364.88 1166.37 376.4 1155.57 386C1144.53 395.84 1130.85 400.64 1114.53 400.64C1097.97 400.64 1084.29 395.84 1073.49 386C1062.45 376.4 1057.17 364.88 1057.17 351.44C1057.17 339.92 1060.77 330.08 1068.45 321.44C1076.13 312.8 1086.69 307.04 1100.13 303.68C1088.37 301.04 1079.49 296.72 1073.25 290.48C1067.01 284.24 1064.13 276.8 1064.13 267.92C1064.13 257.36 1068.93 248.24 1078.53 240.8C1088.13 233.6 1100.13 229.76 1114.29 229.76C1128.21 229.76 1140.21 233.6 1150.05 240.8C1159.89 248.24 1164.93 257.36 1164.93 267.92C1164.93 276.8 1161.81 284.24 1155.57 290.48C1149.33 296.72 1140.45 301.04 1128.93 303.68C1142.37 307.04 1152.69 312.8 1160.37 321.44C1168.05 330.08 1171.89 339.92 1171.89 351.44ZM1091.25 267.92C1091.25 278 1093.17 285.92 1097.49 291.68C1101.57 297.44 1107.33 300.08 1114.53 300.08C1121.73 300.08 1127.25 297.44 1131.57 291.68C1135.65 285.92 1137.81 278 1137.81 267.92C1137.81 258.32 1135.65 250.64 1131.57 245.36C1127.25 240.08 1121.49 237.44 1114.29 237.44C1107.09 237.44 1101.33 240.32 1097.25 245.6C1093.17 250.88 1091.25 258.32 1091.25 267.92ZM1085.25 351.44C1085.01 364.4 1087.41 374.72 1092.69 381.92C1097.73 389.36 1104.93 392.96 1114.53 392.96C1123.89 392.96 1131.09 389.36 1136.37 381.92C1141.41 374.72 1143.81 364.4 1143.81 351.44C1143.57 337.52 1140.93 326.96 1135.89 319.28C1130.85 311.6 1123.65 307.76 1114.53 307.76C1105.17 307.76 1097.97 311.6 1092.93 319.28C1087.89 326.96 1085.25 337.52 1085.25 351.44Z" fill="white"/>
<path d="M1304.89 237.44C1296.73 237.44 1290.01 241.76 1285.21 249.92C1280.41 258.08 1278.01 268.64 1278.01 281.36C1278.01 294.56 1280.41 305.12 1285.21 312.8C1290.01 320.72 1296.49 324.56 1304.89 324.56C1313.53 324.56 1320.25 320.96 1325.05 313.28C1329.61 305.84 1332.01 295.28 1332.01 281.36C1332.01 267.92 1329.61 257.36 1324.81 249.44C1320.01 241.52 1313.53 237.44 1304.89 237.44ZM1360.81 310.88C1360.81 338.48 1355.29 360.32 1344.73 376.4C1334.17 392.72 1319.29 400.64 1300.33 400.64C1286.89 400.64 1276.33 397.76 1268.65 391.76C1260.97 386 1257.37 377.84 1257.37 367.28C1257.37 362.48 1258.81 358.4 1261.93 355.28C1264.81 352.16 1268.89 350.48 1273.93 350.48C1278.73 350.48 1282.57 352.16 1285.45 355.04C1288.33 357.92 1289.77 361.76 1289.77 366.56C1289.77 371.36 1288.09 375.2 1284.97 378.08C1281.61 380.96 1277.29 382.64 1272.01 382.64C1274.41 386.24 1277.77 388.88 1282.33 390.8C1286.65 392.72 1292.17 393.44 1298.41 393.44C1311.13 393.44 1320.01 388.64 1325.05 379.04C1329.85 369.44 1332.49 352.64 1332.49 328.64V311.36C1329.61 319.04 1325.53 324.56 1320.01 327.92C1314.49 331.28 1307.29 332.96 1298.65 332.96C1285.69 332.96 1274.65 328.16 1265.29 318.08C1255.69 308.24 1251.13 296 1251.13 281.36C1251.13 267.68 1256.41 255.68 1267.21 245.36C1278.01 235.04 1290.49 229.76 1304.89 229.76C1322.65 229.76 1336.33 236.72 1346.17 250.64C1355.77 264.56 1360.81 284.72 1360.81 310.88Z" fill="white"/>
<path d="M97.98 326.259V329.811H94.428C88.212 329.811 83.92 330.958 81.552 333.252C79.184 335.546 78 339.801 78 346.017V397.854H74.337V388.752H5.073L5.073 397.854H1.40999L1.40999 368.994H5.073V376.875H74.337V349.347H5.073L5.073 357.117H1.40999L1.40999 328.257H5.073V337.359H74.337V326.259H97.98ZM74.337 290.955H78V321.702H74.337V312.6H5.073V321.702H1.40999L1.40999 290.955H5.073L5.073 300.723H58.686L11.733 269.532H5.073V279.3H1.40999L1.40999 248.442H5.073L5.073 257.544H74.337V248.442H78V279.3H74.337V269.532H19.059L66.012 300.723H74.337V290.955ZM79.11 185.268V219.456H75.447V208.356H64.125C63.533 219.012 60.98 227.448 56.466 233.664C51.878 239.88 45.884 242.988 38.484 242.988C31.084 242.988 25.164 239.917 20.724 233.775C16.284 227.633 13.731 219.16 13.065 208.356H3.96299L3.96299 219.456H0.299995L0.299995 185.268H3.96299L3.96299 196.368H13.065C13.657 185.638 16.21 177.202 20.724 171.06C25.164 164.918 31.084 161.847 38.484 161.847C45.884 161.847 51.878 164.955 56.466 171.171C60.98 177.313 63.533 185.712 64.125 196.368H75.447V185.268H79.11ZM38.484 230.001C45.514 230.001 50.842 228.299 54.468 224.895C58.02 221.417 59.981 215.904 60.351 208.356H16.728C17.098 216.274 19.022 221.861 22.5 225.117C25.978 228.373 31.306 230.001 38.484 230.001ZM54.579 179.829C50.953 176.425 45.588 174.723 38.484 174.723C31.38 174.723 26.089 176.388 22.611 179.718C19.059 183.048 17.135 188.598 16.839 196.368H60.351C60.055 188.672 58.131 183.159 54.579 179.829ZM78 122.205V156.282H74.337V147.18H5.073L5.073 156.282H1.40999L1.40999 131.862C1.40999 121.502 3.29699 113.584 7.07099 108.108C10.845 102.558 16.247 99.7831 23.277 99.7831C30.381 99.7831 35.968 102.558 40.038 108.108C44.108 113.658 46.143 121.465 46.143 131.529V135.303H74.337V122.205H78ZM23.388 112.548C16.95 112.548 12.288 114.102 9.402 117.21C6.516 120.244 5.073 124.98 5.073 131.418L5.073 135.303H42.48V131.196C42.48 124.832 40.963 120.133 37.929 117.099C34.895 114.065 30.048 112.548 23.388 112.548ZM78 66.8074V94.1134H74.337V85.0114H5.073L5.073 94.1134H1.40999L1.40999 61.0354H5.073L5.073 73.1344H34.377V66.5854C34.377 58.2234 36.375 51.2304 40.371 45.6064C44.293 39.9824 49.51 37.1704 56.022 37.1704C63.2 37.1704 68.676 39.6864 72.45 44.7184C76.15 49.7504 78 57.1134 78 66.8074ZM38.04 67.4734V73.1344H74.337V67.8064C74.337 61.6644 72.894 57.1874 70.008 54.3754C67.048 51.4894 62.386 50.0464 56.022 50.0464C50.324 50.0464 45.921 51.6004 42.813 54.7084C39.631 57.7424 38.04 61.9974 38.04 67.4734ZM74.337 5.64639H78V36.7264H74.337V27.1804H5.073L5.073 36.7264H1.40999L1.40999 5.64639H5.073V15.1924H74.337V5.64639Z" fill="white"/>
<path d="M10.024 475.176C9.352 478.68 8.872 481.656 8.632 484.152C8.392 486.648 8.296 489.144 8.296 491.688H6.856C6.856 489.144 6.712 486.6 6.472 484.104C6.184 481.608 5.704 478.632 5.032 475.08C4.744 473.736 4.552 472.776 4.456 472.248C4.36 471.768 4.36 471.336 4.36 470.952C4.36 469.944 4.6 469.08 5.176 468.408C5.752 467.736 6.52 467.352 7.48 467.352C8.44 467.352 9.208 467.736 9.784 468.408C10.36 469.128 10.648 469.992 10.648 470.952C10.648 471.336 10.6 471.768 10.504 472.296C10.408 472.872 10.264 473.832 10.024 475.176ZM7.528 494.904C8.536 494.904 9.352 495.24 9.976 495.912C10.552 496.584 10.888 497.4 10.888 498.264C10.888 499.128 10.552 499.896 9.976 500.568C9.352 501.24 8.536 501.528 7.528 501.528C6.472 501.528 5.608 501.24 5.032 500.616C4.456 499.992 4.168 499.224 4.168 498.264C4.168 497.304 4.456 496.536 5.032 495.864C5.608 495.24 6.472 494.904 7.528 494.904Z" fill="white"/>
<path d="M49.16 489.864C48.824 490.728 48.296 491.352 47.528 491.832C46.76 492.312 45.848 492.552 44.888 492.552C43.16 492.552 41.768 492.12 40.808 491.16C39.848 490.248 39.368 489 39.368 487.368C39.368 485.928 39.704 484.632 40.376 483.48C41.048 482.328 42.488 480.936 44.648 479.304C46.424 478.008 47.576 476.952 48.152 476.088C48.68 475.272 48.968 474.36 48.968 473.4C48.968 471.96 48.536 470.808 47.672 470.04C46.808 469.272 45.608 468.888 43.976 468.888C42.776 468.888 41.72 469.128 40.808 469.512C39.848 469.944 39.224 470.52 38.84 471.24C39.944 471.432 40.808 471.768 41.432 472.344C42.008 472.92 42.344 473.688 42.344 474.552C42.344 475.512 42.056 476.232 41.528 476.808C40.952 477.384 40.232 477.624 39.272 477.624C38.216 477.624 37.448 477.336 36.872 476.76C36.296 476.184 36.008 475.32 36.008 474.264C36.008 472.248 36.776 470.568 38.36 469.272C39.896 468.024 41.96 467.352 44.456 467.352C47.144 467.352 49.208 468.024 50.696 469.272C52.136 470.568 52.904 472.392 52.904 474.696C52.904 476.04 52.52 477.24 51.8 478.392C51.08 479.544 49.592 480.984 47.336 482.664C45.416 484.104 44.216 485.208 43.64 485.976C43.064 486.792 42.824 487.608 42.824 488.472C42.824 489.288 43.016 489.912 43.448 490.296C43.88 490.728 44.504 490.92 45.368 490.92C46.616 490.92 47.48 490.392 47.864 489.288C48.248 488.232 47.912 487.032 46.952 485.736L47.864 485.016C48.632 485.64 49.112 486.408 49.352 487.272C49.544 488.136 49.496 489 49.16 489.864ZM44.312 494.904C45.32 494.904 46.136 495.24 46.76 495.912C47.336 496.584 47.672 497.352 47.672 498.264C47.672 499.176 47.336 499.944 46.76 500.568C46.136 501.24 45.32 501.528 44.312 501.528C43.256 501.528 42.392 501.24 41.816 500.616C41.24 499.992 40.952 499.224 40.952 498.264C40.952 497.304 41.24 496.536 41.816 495.864C42.392 495.24 43.256 494.904 44.312 494.904Z" fill="white"/>
<path d="M83.552 498.888C83.552 501.192 83.072 503.304 82.112 505.32C81.152 507.336 79.808 509.016 78.08 510.36L76.784 509.256C77.84 508.392 78.752 507.24 79.568 505.8C80.384 504.36 80.864 502.92 81.056 501.48C80.96 501.48 80.768 501.528 80.528 501.528C80.288 501.528 80.144 501.528 80.096 501.528C79.04 501.528 78.176 501.24 77.552 500.568C76.928 499.896 76.64 499.128 76.64 498.168C76.64 497.208 76.928 496.392 77.552 495.72C78.128 495.048 78.992 494.712 80.096 494.712C81.2 494.712 82.064 495.096 82.64 495.816C83.216 496.584 83.552 497.592 83.552 498.888Z" fill="white"/>
<path d="M113.096 494.712C114.152 494.712 114.968 495.048 115.592 495.72C116.216 496.392 116.552 497.208 116.552 498.168C116.552 499.08 116.216 499.848 115.592 500.52C114.968 501.192 114.152 501.528 113.096 501.528C112.04 501.528 111.176 501.24 110.552 500.568C109.928 499.896 109.64 499.128 109.64 498.168C109.64 497.208 109.928 496.392 110.552 495.72C111.128 495.048 111.992 494.712 113.096 494.712Z" fill="white"/>
<path d="M158.624 499.032C158.624 501.048 158.24 502.776 157.52 504.216C156.8 505.656 155.696 506.856 154.208 507.816L153.152 506.616C154.112 505.896 154.88 505.128 155.36 504.264C155.84 503.448 156.176 502.536 156.272 501.48C156.176 501.48 156.032 501.528 155.84 501.528C155.6 501.528 155.456 501.528 155.36 501.528C154.304 501.528 153.488 501.24 152.912 500.616C152.336 499.992 152.048 499.224 152.048 498.312C152.048 497.4 152.336 496.632 152.912 495.96C153.488 495.336 154.304 495 155.36 495C156.416 495 157.184 495.384 157.76 496.104C158.336 496.824 158.624 497.784 158.624 499.032ZM149.36 499.032C149.36 501.048 148.976 502.776 148.256 504.216C147.536 505.656 146.432 506.856 144.944 507.816L143.888 506.616C144.848 505.896 145.616 505.128 146.096 504.264C146.576 503.448 146.912 502.536 147.008 501.48C146.912 501.48 146.768 501.528 146.576 501.528C146.336 501.528 146.192 501.528 146.096 501.528C145.04 501.528 144.224 501.24 143.648 500.616C143.072 499.992 142.784 499.224 142.784 498.312C142.784 497.4 143.072 496.632 143.648 495.96C144.224 495.336 145.04 495 146.096 495C147.152 495 147.92 495.384 148.496 496.104C149.072 496.824 149.36 497.784 149.36 499.032Z" fill="white"/>
<path d="M200.624 499.032C200.624 501.048 200.24 502.776 199.52 504.216C198.8 505.656 197.696 506.856 196.208 507.816L195.152 506.616C196.112 505.896 196.88 505.128 197.36 504.264C197.84 503.448 198.176 502.536 198.272 501.48C198.176 501.48 198.032 501.528 197.84 501.528C197.6 501.528 197.456 501.528 197.36 501.528C196.304 501.528 195.488 501.24 194.912 500.616C194.336 499.992 194.048 499.224 194.048 498.312C194.048 497.4 194.336 496.632 194.912 495.96C195.488 495.336 196.304 495 197.36 495C198.416 495 199.184 495.384 199.76 496.104C200.336 496.824 200.624 497.784 200.624 499.032ZM191.36 499.032C191.36 501.048 190.976 502.776 190.256 504.216C189.536 505.656 188.432 506.856 186.944 507.816L185.888 506.616C186.848 505.896 187.616 505.128 188.096 504.264C188.576 503.448 188.912 502.536 189.008 501.48C188.912 501.48 188.768 501.528 188.576 501.528C188.336 501.528 188.192 501.528 188.096 501.528C187.04 501.528 186.224 501.24 185.648 500.616C185.072 499.992 184.784 499.224 184.784 498.312C184.784 497.4 185.072 496.632 185.648 495.96C186.224 495.336 187.04 495 188.096 495C189.152 495 189.92 495.384 190.496 496.104C191.072 496.824 191.36 497.784 191.36 499.032Z" fill="white"/>
<path d="M237.92 508.104C238.304 508.536 238.688 508.968 239.12 509.352C239.504 509.736 240.752 510.696 242.768 512.136L241.904 513.48C237.728 511.608 234.272 508.488 231.536 504.072C228.752 499.704 227.408 495.048 227.408 490.152C227.408 484.968 228.848 479.832 231.728 474.648C234.608 469.464 238.016 466.056 241.904 464.328L242.768 465.672C240.56 467.064 238.88 468.6 237.632 470.328C236.384 472.056 235.424 474.072 234.704 476.472C234.128 478.344 233.744 480.408 233.456 482.664C233.168 484.968 233.024 487.464 233.024 490.152C233.024 491.304 233.024 492.408 233.12 493.464C233.168 494.52 233.264 495.576 233.408 496.536C233.552 497.688 233.744 498.792 233.984 499.8C234.176 500.808 234.464 501.768 234.8 502.632C235.184 503.736 235.616 504.744 236.144 505.608C236.672 506.52 237.248 507.336 237.92 508.104Z" fill="white"/>
<path d="M279.552 489.48C279.552 494.376 278.16 499.128 275.376 503.64C272.592 508.2 269.184 511.464 265.104 513.48L264.24 512.136C266.112 510.744 267.264 509.832 267.744 509.352C268.224 508.92 268.656 508.44 269.088 507.96C269.712 507.192 270.288 506.328 270.816 505.368C271.344 504.408 271.824 503.4 272.208 502.296C272.496 501.384 272.784 500.376 273.024 499.32C273.264 498.264 273.456 497.16 273.6 495.96C273.696 495 273.792 493.944 273.888 492.888C273.936 491.832 273.984 490.68 273.984 489.48C273.984 486.84 273.84 484.392 273.552 482.184C273.264 479.976 272.88 477.912 272.304 476.088C271.584 473.976 270.672 472.104 269.568 470.52C268.416 468.984 266.64 467.352 264.24 465.672L265.104 464.328C269.04 466.056 272.4 469.416 275.28 474.36C278.112 479.304 279.552 484.344 279.552 489.48Z" fill="white"/>
<path d="M314.368 508.776C314.56 510.072 315.04 511.032 315.76 511.656C316.48 512.28 317.488 512.568 318.784 512.568V513.48C316.384 513.48 314.416 513.144 312.88 512.472C311.344 511.8 310.288 510.792 309.616 509.4C309.136 508.44 308.848 507.24 308.8 505.8C308.704 504.36 308.896 502.104 309.376 499.032C309.664 497.112 309.856 495.672 309.904 494.808C309.952 493.944 309.952 493.224 309.856 492.552C309.664 491.304 309.184 490.392 308.416 489.816C307.648 489.24 306.592 488.952 305.248 488.952V487.8C306.592 487.8 307.648 487.56 308.416 486.984C309.136 486.456 309.616 485.592 309.808 484.44C309.904 483.864 309.904 483.144 309.856 482.28C309.808 481.464 309.616 480.12 309.328 478.2C308.8 475.176 308.608 472.968 308.704 471.576C308.8 470.184 309.088 468.984 309.616 468.024C310.288 466.776 311.392 465.864 312.928 465.24C314.464 464.664 316.384 464.328 318.784 464.328V465.48C317.44 465.48 316.384 465.768 315.616 466.344C314.848 466.92 314.368 467.832 314.176 469.032C314.032 469.704 313.984 470.424 313.984 471.288C313.984 472.152 314.08 473.592 314.272 475.512C314.464 477.912 314.56 479.688 314.56 480.792C314.512 481.944 314.368 482.904 314.176 483.72C313.792 485.16 313.072 486.216 312.064 486.984C311.056 487.752 309.712 488.184 308.08 488.376C309.76 488.616 311.104 489.144 312.16 490.008C313.216 490.872 313.936 492.024 314.32 493.512C314.56 494.424 314.704 495.48 314.752 496.68C314.752 497.88 314.656 499.752 314.464 502.248C314.272 504.216 314.224 505.608 314.224 506.472C314.224 507.336 314.272 508.104 314.368 508.776Z" fill="white"/>
<path d="M354.304 487.8V488.952C352.912 488.952 351.856 489.24 351.088 489.816C350.32 490.392 349.888 491.304 349.696 492.552C349.6 493.176 349.552 493.944 349.6 494.808C349.648 495.672 349.84 497.112 350.128 499.032C350.56 502.104 350.752 504.36 350.704 505.8C350.608 507.24 350.368 508.44 349.888 509.4C349.216 510.792 348.112 511.8 346.576 512.472C345.04 513.144 343.12 513.48 340.72 513.48V512.568C341.968 512.568 342.976 512.28 343.696 511.656C344.416 511.08 344.896 510.12 345.136 508.776C345.232 508.152 345.232 507.384 345.232 506.52C345.232 505.656 345.136 504.264 344.992 502.296C344.752 499.8 344.656 497.928 344.704 496.728C344.704 495.528 344.848 494.472 345.136 493.512C345.52 492.024 346.24 490.872 347.296 490.008C348.352 489.144 349.744 488.616 351.472 488.376C349.84 488.184 348.496 487.752 347.488 486.984C346.48 486.216 345.808 485.16 345.424 483.72C345.184 482.904 345.04 481.944 345.04 480.792C344.992 479.688 345.088 477.96 345.28 475.56C345.472 473.64 345.568 472.2 345.568 471.336C345.568 470.472 345.472 469.704 345.376 469.08C345.088 467.832 344.608 466.92 343.84 466.344C343.072 465.768 342.064 465.48 340.72 465.48V464.328C343.12 464.328 345.04 464.664 346.576 465.24C348.064 465.864 349.168 466.776 349.888 468.024C350.416 468.984 350.704 470.184 350.8 471.576C350.896 472.968 350.704 475.176 350.224 478.2C349.888 480.12 349.696 481.464 349.648 482.328C349.6 483.192 349.648 483.912 349.744 484.488C349.936 485.64 350.368 486.456 351.136 486.984C351.856 487.56 352.912 487.8 354.304 487.8Z" fill="white"/>
<path d="M389.728 511.416V513H378.688V465H389.728V466.584H383.44V511.416H389.728Z" fill="white"/>
<path d="M424.624 465V513H413.584V511.416H419.872V466.584H413.584V465H424.624Z" fill="white"/>
<path d="M469.312 482.808H470.56C470.56 485.592 470.08 487.608 469.216 488.76C468.352 489.912 466.96 490.488 465.04 490.488C463.984 490.488 462.928 490.296 461.92 489.816C460.912 489.384 459.664 488.472 458.128 487.128C457.024 486.216 456.208 485.64 455.68 485.352C455.152 485.064 454.672 484.92 454.192 484.92C453.04 484.92 452.224 485.352 451.696 486.168C451.168 487.032 450.928 488.328 450.928 490.104H449.632C449.632 487.464 450.064 485.544 451.024 484.296C451.936 483.048 453.376 482.424 455.296 482.424C456.352 482.424 457.36 482.664 458.32 483.096C459.28 483.528 460.528 484.392 462.064 485.688C463.168 486.648 463.984 487.272 464.56 487.56C465.088 487.848 465.616 487.992 466.192 487.992C467.248 487.992 468.016 487.608 468.544 486.744C469.024 485.928 469.312 484.632 469.312 482.808Z" fill="white"/>
<path d="M515.464 510.264C509.32 510.264 504.328 508.584 500.584 505.128C496.84 501.72 494.968 497.064 494.968 491.16C494.968 488.472 495.496 485.928 496.552 483.528C497.608 481.128 499.192 479.016 501.208 477.192C503.08 475.464 505.288 474.168 507.784 473.208C510.28 472.296 512.872 471.816 515.608 471.816C521.416 471.816 526.024 473.4 529.48 476.568C532.888 479.736 534.616 484.008 534.616 489.288C534.616 492.84 533.752 495.768 532.072 498.072C530.392 500.376 528.136 501.528 525.304 501.528C523.144 501.528 521.464 501.048 520.312 500.088C519.16 499.128 518.584 497.736 518.584 495.96C517.912 497.832 517 499.224 515.848 500.136C514.696 501.096 513.256 501.528 511.624 501.528C509.08 501.528 507.064 500.52 505.624 498.504C504.136 496.488 503.56 493.848 503.896 490.68C504.232 487.704 505.384 485.208 507.304 483.192C509.224 481.224 511.528 480.216 514.216 480.216C515.608 480.216 516.808 480.6 517.864 481.368C518.92 482.136 519.64 483.144 520.024 484.392L523.672 480.216H524.152L522.376 494.472C522.088 496.584 522.232 498.072 522.808 498.84C523.384 499.656 524.392 500.04 525.928 500.04C527.848 500.04 529.336 499.08 530.44 497.112C531.544 495.144 532.12 492.6 532.12 489.48C532.12 484.44 530.632 480.504 527.752 477.672C524.872 474.84 520.792 473.4 515.608 473.4C510.472 473.4 506.152 475.128 502.696 478.488C499.192 481.848 497.464 486.072 497.464 491.16C497.464 496.632 499.096 500.952 502.36 504.072C505.624 507.192 509.992 508.728 515.464 508.728C518.344 508.728 520.696 508.488 522.568 508.008C524.392 507.528 525.88 506.808 527.032 505.8L527.704 506.664C526.648 507.816 525.016 508.68 522.856 509.304C520.648 509.976 518.2 510.264 515.464 510.264ZM508.696 490.632C508.408 493.512 508.552 495.768 509.224 497.352C509.896 498.936 510.952 499.704 512.44 499.704C513.976 499.704 515.224 498.936 516.28 497.352C517.336 495.816 518.056 493.56 518.44 490.68C518.824 487.944 518.632 485.736 517.864 484.104C517.096 482.472 515.896 481.608 514.264 481.608C512.824 481.608 511.576 482.424 510.616 484.056C509.608 485.688 508.984 487.896 508.696 490.632Z" fill="white"/>
<path d="M571.352 486.696L573.368 479.016H567.848L565.832 486.696H571.352ZM562.04 501H559.736L563 488.616H557.96V486.696H563.528L565.544 479.016H559.4V477.096H566.072L569.288 465H571.592L568.376 477.096H573.896L577.112 465H579.368L576.152 477.096H581.48V479.016H575.624L573.608 486.696H580.04V488.616H573.08L569.816 501H567.56L570.824 488.616H565.304L562.04 501Z" fill="white"/>
<path d="M610.968 499.416H615.192V501H605.016V499.416H608.952V469.464H605.016V467.88H613.416L629.304 492.312V469.464H625.128V467.88H635.256V469.464H631.368V501.432H629.544L610.968 473.016V499.416ZM647.208 471.528C649.704 471.528 651.816 472.44 653.592 474.264C655.32 476.088 656.232 478.344 656.232 481.08C656.232 483.864 655.32 486.12 653.592 487.896C651.816 489.72 649.704 490.584 647.208 490.584C644.616 490.584 642.504 489.72 640.824 487.944C639.144 486.216 638.328 483.912 638.328 481.08C638.328 478.296 639.144 475.992 640.824 474.216C642.504 472.44 644.616 471.528 647.208 471.528ZM647.208 472.872C645.528 472.872 644.28 473.544 643.512 474.84C642.744 476.136 642.36 478.2 642.36 481.08C642.36 483.96 642.744 486.072 643.512 487.32C644.28 488.616 645.528 489.24 647.208 489.24C648.84 489.24 650.04 488.568 650.904 487.176C651.72 485.832 652.152 483.768 652.152 481.08C652.152 478.392 651.72 476.376 650.904 474.984C650.04 473.592 648.84 472.872 647.208 472.872ZM656.76 495.72H637.272V494.04H656.76V495.72ZM656.76 501H637.272V499.272H656.76V501Z" fill="white"/>
<path d="M692.336 468.936C692.144 468.936 691.904 468.984 691.712 468.984C691.52 468.984 691.28 469.032 691.04 469.032V481.272L693.536 482.136V468.984C693.392 468.984 693.248 468.936 693.104 468.936H692.336ZM685.376 474.984C685.376 476.424 685.712 477.576 686.384 478.488C687.056 479.448 688.16 480.216 689.744 480.792V469.272C688.352 469.704 687.296 470.424 686.528 471.432C685.76 472.44 685.376 473.64 685.376 474.984ZM692.336 499.992H693.104C693.248 499.992 693.392 499.992 693.536 499.944V487.656L691.04 486.936V499.944C691.136 499.992 691.28 499.992 691.472 499.992H692.336ZM699.2 493.848C699.2 492.408 698.864 491.256 698.192 490.344C697.52 489.48 696.416 488.712 694.784 488.088V499.752C696.32 499.464 697.424 498.888 698.144 497.976C698.816 497.064 699.2 495.672 699.2 493.848ZM691.04 501.48V506.76H689.744V501.336C687.344 501 685.424 500.232 684.032 498.984C682.592 497.736 681.92 496.248 681.92 494.424C681.92 493.416 682.16 492.6 682.688 491.976C683.216 491.4 683.936 491.064 684.896 491.064C685.856 491.064 686.624 491.352 687.2 491.88C687.776 492.456 688.064 493.176 688.064 494.136C688.064 495 687.776 495.72 687.248 496.296C686.72 496.872 686 497.256 685.088 497.4C685.568 498.072 686.24 498.6 687.056 498.984C687.824 499.368 688.736 499.656 689.744 499.752V486.6C687.056 485.736 685.136 484.488 683.984 482.856C682.832 481.224 682.256 479.112 682.256 476.52C682.256 474.36 682.928 472.44 684.32 470.808C685.664 469.176 687.488 468.12 689.744 467.592V463.032H691.04V467.448C691.28 467.448 691.52 467.4 691.76 467.4C691.952 467.4 692.192 467.352 692.384 467.352H693.056C693.248 467.352 693.392 467.4 693.536 467.4V463.032H694.784V467.496C697.04 467.88 698.864 468.648 700.256 469.896C701.6 471.144 702.32 472.632 702.32 474.36C702.32 475.368 702.032 476.184 701.504 476.76C700.976 477.336 700.256 477.624 699.344 477.624C698.336 477.624 697.568 477.384 696.992 476.808C696.416 476.232 696.176 475.512 696.176 474.552C696.176 473.688 696.416 473.016 696.944 472.44C697.472 471.864 698.192 471.528 699.152 471.336C698.624 470.664 698 470.184 697.232 469.8C696.464 469.416 695.648 469.224 694.784 469.128V482.568C697.568 483.624 699.536 484.872 700.688 486.408C701.792 487.944 702.368 489.96 702.368 492.456C702.368 494.904 701.696 496.92 700.4 498.456C699.104 499.992 697.232 500.952 694.784 501.336V506.76H693.536V501.48C693.152 501.576 692.768 501.576 692.288 501.576C691.808 501.576 691.376 501.576 691.04 501.48Z" fill="white"/>
<path d="M754.472 473.544L735.8 501.528L733.832 500.232L751.736 473.448C751.88 473.256 751.976 473.064 752.072 472.92L752.264 472.536C750.632 472.92 749 473.064 747.368 472.92C745.736 472.824 744.296 472.44 743.048 471.816C743.288 472.44 743.48 473.112 743.624 473.784C743.72 474.504 743.816 475.272 743.816 476.088C743.816 478.728 743.144 480.84 741.8 482.424C740.456 484.008 738.728 484.776 736.568 484.776C734.456 484.776 732.584 483.96 730.904 482.232C729.224 480.504 728.408 478.488 728.408 476.088C728.408 473.736 729.224 471.672 730.904 469.944C732.584 468.216 734.456 467.352 736.568 467.352C737.432 467.352 738.296 467.496 739.064 467.784C739.832 468.072 740.552 468.504 741.224 469.08C742.712 470.232 744.488 470.952 746.552 471.192C748.616 471.48 750.824 471.24 753.128 470.568C753.608 469.224 754.088 468.312 754.52 467.928C754.904 467.544 755.432 467.352 756.104 467.352C756.68 467.352 757.16 467.544 757.544 467.832C757.928 468.12 758.12 468.552 758.12 469.08C758.12 469.656 757.976 470.136 757.688 470.616C757.4 471.096 756.776 471.624 755.912 472.248C755.432 472.584 755.144 472.824 754.952 473.016C754.76 473.208 754.568 473.4 754.472 473.544ZM737.528 468.984C736.184 468.984 735.176 469.608 734.504 470.856C733.784 472.104 733.448 473.832 733.448 476.088C733.448 478.392 733.784 480.12 734.504 481.32C735.176 482.568 736.232 483.144 737.576 483.144C738.872 483.144 739.88 482.52 740.648 481.272C741.416 480.024 741.8 478.296 741.8 476.088C741.8 473.88 741.416 472.152 740.648 470.904C739.88 469.656 738.872 468.984 737.528 468.984ZM755.72 484.104C757.88 484.104 759.608 484.92 760.952 486.504C762.296 488.136 762.968 490.248 762.968 492.84C762.968 495.48 762.296 497.592 760.952 499.176C759.608 500.76 757.88 501.528 755.72 501.528C753.608 501.528 751.736 500.712 750.056 498.984C748.376 497.256 747.56 495.24 747.56 492.84C747.56 490.488 748.376 488.424 750.056 486.696C751.736 484.968 753.608 484.104 755.72 484.104ZM756.68 485.736C755.336 485.736 754.328 486.36 753.656 487.608C752.936 488.856 752.6 490.584 752.6 492.84C752.6 495.144 752.936 496.872 753.656 498.072C754.328 499.32 755.384 499.896 756.728 499.896C758.024 499.896 759.032 499.272 759.8 498.024C760.568 496.776 760.952 495.048 760.952 492.84C760.952 490.632 760.568 488.904 759.8 487.656C759.032 486.408 758.024 485.736 756.68 485.736Z" fill="white"/>
<path d="M802.368 482.616H799.968L795.12 470.952L790.368 482.616H788.16L794.496 467.928H796.08L802.368 482.616Z" fill="white"/>
<path d="M852.6 501.528C851.016 501.528 849.624 501.24 848.472 500.616C847.272 500.04 845.976 498.936 844.536 497.4C843.192 498.84 841.8 499.896 840.456 500.52C839.112 501.144 837.384 501.432 835.368 501.432C832.584 501.432 830.328 500.664 828.648 499.08C826.968 497.544 826.152 495.48 826.152 492.936C826.152 490.824 826.728 488.952 827.928 487.368C829.128 485.832 831 484.488 833.496 483.336C832.2 481.512 831.336 480.024 830.856 478.824C830.376 477.624 830.184 476.328 830.184 474.888C830.184 472.68 830.952 470.904 832.488 469.512C834.024 468.12 835.992 467.4 838.488 467.4C840.792 467.4 842.616 468.024 844.056 469.176C845.496 470.376 846.216 471.96 846.216 473.88C846.216 475.416 845.64 476.808 844.488 478.152C843.336 479.496 841.464 480.84 838.872 482.184C839.688 483.336 841.08 485.112 843.096 487.512C845.064 489.912 846.36 491.496 847.032 492.264C848.088 491.064 849.192 489.384 850.392 487.224C851.592 485.112 852.504 483.096 853.176 481.272H849.24V479.688H858.36V481.272H855.144C854.184 483.432 853.128 485.544 851.976 487.56C850.824 489.624 849.528 491.592 848.136 493.512C849.72 495.672 850.968 497.112 851.832 497.832C852.696 498.552 853.56 498.888 854.52 498.888C855.576 498.888 856.44 498.264 857.064 496.968C857.64 495.72 857.976 494.04 857.976 492.024H859.368C859.368 495.24 858.792 497.64 857.64 499.176C856.488 500.76 854.808 501.528 852.6 501.528ZM838.344 468.936C837.096 468.936 836.088 469.32 835.32 470.04C834.552 470.808 834.168 471.768 834.168 472.968C834.168 474.168 834.408 475.32 834.936 476.472C835.464 477.624 836.472 479.16 837.912 480.984C839.304 480.12 840.36 479.112 841.08 477.912C841.752 476.712 842.136 475.32 842.136 473.784C842.136 472.2 841.8 471 841.176 470.184C840.504 469.368 839.592 468.936 838.344 468.936ZM830.712 491.496C830.712 493.8 831.288 495.528 832.488 496.776C833.688 498.024 835.416 498.6 837.624 498.6C838.824 498.6 839.928 498.408 840.888 497.976C841.848 497.592 842.712 496.968 843.432 496.104L834.552 484.728C833.208 485.496 832.2 486.456 831.624 487.512C831 488.616 830.712 489.96 830.712 491.496Z" fill="white"/>
<path d="M893.432 464.28C893.96 464.376 894.392 464.664 894.776 465.144C895.16 465.624 895.304 466.152 895.208 466.632C895.112 467.064 895.016 467.496 894.824 467.88C894.632 468.312 894.344 468.84 893.912 469.464C893.528 470.04 893.288 470.472 893.144 470.76C893 471.048 892.904 471.288 892.904 471.576L891.896 471.384C891.896 471.096 891.896 470.808 891.896 470.52C891.848 470.232 891.704 469.752 891.512 469.08C891.224 468.36 891.08 467.784 891.032 467.352C890.984 466.92 890.984 466.488 891.08 466.056C891.176 465.528 891.464 465.096 891.944 464.712C892.424 464.376 892.904 464.232 893.432 464.28ZM890.264 469.656C890.552 470.232 890.744 470.664 890.936 470.904C891.128 471.192 891.32 471.384 891.56 471.576L890.936 472.344C890.696 472.2 890.456 472.056 890.168 471.912C889.88 471.816 889.4 471.672 888.776 471.528C887.96 471.384 887.336 471.24 886.952 471.048C886.568 470.856 886.184 470.664 885.896 470.376C885.416 470.088 885.176 469.608 885.128 469.032C885.08 468.456 885.224 467.976 885.56 467.496C885.848 467.112 886.28 466.872 886.856 466.776C887.432 466.68 887.96 466.776 888.44 467.064C888.728 467.352 889.016 467.688 889.304 468.024C889.592 468.408 889.88 468.936 890.264 469.656ZM900.104 469.608C900.296 470.136 900.296 470.664 900.104 471.192C899.864 471.768 899.48 472.104 898.952 472.248C898.568 472.44 898.136 472.584 897.704 472.632C897.272 472.728 896.648 472.728 895.88 472.632C895.208 472.584 894.68 472.584 894.392 472.632C894.104 472.68 893.816 472.728 893.576 472.824L893.192 471.816C893.432 471.72 893.672 471.576 893.96 471.384C894.2 471.192 894.536 470.856 895.016 470.376C895.544 469.8 895.976 469.416 896.36 469.128C896.696 468.888 897.08 468.696 897.464 468.504C897.944 468.312 898.472 468.36 899 468.552C899.528 468.792 899.912 469.128 900.104 469.608ZM890.84 472.728L891.224 473.64C890.936 473.784 890.696 473.928 890.456 474.12C890.216 474.312 889.88 474.648 889.448 475.08C888.872 475.704 888.44 476.136 888.104 476.376C887.72 476.664 887.336 476.856 886.952 477C886.424 477.24 885.896 477.24 885.368 477C884.84 476.808 884.504 476.424 884.312 475.944C884.072 475.464 884.072 474.984 884.312 474.408C884.504 473.832 884.888 473.448 885.416 473.256C885.8 473.112 886.232 473.016 886.664 472.92C887.096 472.872 887.72 472.872 888.536 472.92C889.208 472.968 889.688 472.968 889.976 472.92C890.264 472.92 890.552 472.824 890.84 472.728ZM898.52 475.176C898.952 475.512 899.192 475.944 899.288 476.52C899.336 477.096 899.192 477.624 898.904 478.056C898.568 478.488 898.136 478.728 897.56 478.824C896.984 478.92 896.456 478.824 896.024 478.44C895.64 478.152 895.352 477.864 895.064 477.48C894.776 477.144 894.488 476.616 894.152 475.848C893.864 475.272 893.624 474.888 893.48 474.6C893.288 474.36 893.096 474.168 892.904 473.976L893.48 473.16C893.672 473.352 893.96 473.496 894.248 473.592C894.536 473.688 894.968 473.832 895.592 473.928C896.36 474.12 896.984 474.312 897.416 474.504C897.8 474.696 898.184 474.888 898.52 475.176ZM892.856 476.376C893.096 477.144 893.24 477.768 893.288 478.2C893.336 478.632 893.336 479.064 893.288 479.496C893.192 480.072 892.904 480.504 892.424 480.84C891.944 481.176 891.464 481.32 890.984 481.224C890.408 481.176 889.976 480.936 889.64 480.456C889.256 480.024 889.16 479.496 889.256 478.92C889.304 478.488 889.4 478.056 889.592 477.672C889.784 477.288 890.072 476.712 890.504 475.992C890.84 475.512 891.08 475.08 891.224 474.792C891.32 474.504 891.416 474.264 891.512 473.976L892.52 474.168C892.472 474.456 892.472 474.744 892.52 475.032C892.52 475.32 892.664 475.8 892.856 476.376Z" fill="white"/>
<path d="M940.464 487.08H926.16V485.352H940.464V487.08Z" fill="white"/>
<path d="M984.888 505.608H963V503.88H984.888V505.608Z" fill="white"/>
<path d="M1025.02 485.304V486.984H1017V494.808H1015.18V486.984H1007.16V485.304H1015.18V477.432H1017V485.304H1025.02Z" fill="white"/>
<path d="M1067.25 482.904H1050.16V481.224H1067.25V482.904ZM1067.25 491.064H1050.16V489.384H1067.25V491.064Z" fill="white"/>
<path d="M1110.06 464.184L1111.94 465.048L1091.39 506.184L1089.52 505.32L1110.06 464.184Z" fill="white"/>
<path d="M1133.39 464.184L1153.94 505.32L1152.06 506.184L1131.52 465.048L1133.39 464.184Z" fill="white"/>
<path d="M1180.05 479.448C1181.1 479.448 1181.92 479.784 1182.5 480.456C1183.07 481.128 1183.41 481.896 1183.41 482.856C1183.41 483.816 1183.07 484.584 1182.5 485.208C1181.92 485.88 1181.1 486.168 1180.05 486.168C1178.99 486.168 1178.13 485.88 1177.55 485.208C1176.93 484.584 1176.64 483.816 1176.64 482.856C1176.64 481.896 1176.93 481.128 1177.55 480.456C1178.13 479.784 1178.99 479.448 1180.05 479.448ZM1183.41 498.984C1183.41 501.24 1182.93 503.352 1181.97 505.32C1181.01 507.336 1179.66 509.016 1177.94 510.36L1176.69 509.256C1177.74 508.44 1178.66 507.288 1179.47 505.848C1180.24 504.408 1180.77 502.92 1180.96 501.48C1180.86 501.48 1180.67 501.528 1180.48 501.528C1180.24 501.528 1180.1 501.528 1180.05 501.528C1178.99 501.528 1178.13 501.24 1177.55 500.568C1176.93 499.944 1176.64 499.176 1176.64 498.216C1176.64 497.256 1176.93 496.488 1177.55 495.816C1178.13 495.144 1178.99 494.808 1180.05 494.808C1181.1 494.808 1181.97 495.192 1182.54 495.912C1183.12 496.68 1183.41 497.688 1183.41 498.984Z" fill="white"/>
<path d="M1223.85 494.52V496.968L1209.16 486.936V485.352L1223.85 475.32V477.72L1211.42 486.12L1223.85 494.52Z" fill="white"/>
<path d="M1252.08 477.768V475.32L1266.77 485.352V486.936L1252.08 496.968V494.568L1264.51 486.168L1252.08 477.768Z" fill="white"/>
<path d="M1307.62 499.032C1307.62 501.048 1307.24 502.776 1306.52 504.216C1305.8 505.656 1304.7 506.856 1303.21 507.816L1302.15 506.616C1303.11 505.896 1303.88 505.128 1304.36 504.264C1304.84 503.448 1305.18 502.536 1305.27 501.48C1305.18 501.48 1305.03 501.528 1304.84 501.528C1304.6 501.528 1304.46 501.528 1304.36 501.528C1303.3 501.528 1302.49 501.24 1301.91 500.616C1301.34 499.992 1301.05 499.224 1301.05 498.312C1301.05 497.4 1301.34 496.632 1301.91 495.96C1302.49 495.336 1303.3 495 1304.36 495C1305.42 495 1306.18 495.384 1306.76 496.104C1307.34 496.824 1307.62 497.784 1307.62 499.032ZM1298.36 499.032C1298.36 501.048 1297.98 502.776 1297.26 504.216C1296.54 505.656 1295.43 506.856 1293.94 507.816L1292.89 506.616C1293.85 505.896 1294.62 505.128 1295.1 504.264C1295.58 503.448 1295.91 502.536 1296.01 501.48C1295.91 501.48 1295.77 501.528 1295.58 501.528C1295.34 501.528 1295.19 501.528 1295.1 501.528C1294.04 501.528 1293.22 501.24 1292.65 500.616C1292.07 499.992 1291.78 499.224 1291.78 498.312C1291.78 497.4 1292.07 496.632 1292.65 495.96C1293.22 495.336 1294.04 495 1295.1 495C1296.15 495 1296.92 495.384 1297.5 496.104C1298.07 496.824 1298.36 497.784 1298.36 499.032Z" fill="white"/>
<path d="M1349.62 499.032C1349.62 501.048 1349.24 502.776 1348.52 504.216C1347.8 505.656 1346.7 506.856 1345.21 507.816L1344.15 506.616C1345.11 505.896 1345.88 505.128 1346.36 504.264C1346.84 503.448 1347.18 502.536 1347.27 501.48C1347.18 501.48 1347.03 501.528 1346.84 501.528C1346.6 501.528 1346.46 501.528 1346.36 501.528C1345.3 501.528 1344.49 501.24 1343.91 500.616C1343.34 499.992 1343.05 499.224 1343.05 498.312C1343.05 497.4 1343.34 496.632 1343.91 495.96C1344.49 495.336 1345.3 495 1346.36 495C1347.42 495 1348.18 495.384 1348.76 496.104C1349.34 496.824 1349.62 497.784 1349.62 499.032ZM1340.36 499.032C1340.36 501.048 1339.98 502.776 1339.26 504.216C1338.54 505.656 1337.43 506.856 1335.94 507.816L1334.89 506.616C1335.85 505.896 1336.62 505.128 1337.1 504.264C1337.58 503.448 1337.91 502.536 1338.01 501.48C1337.91 501.48 1337.77 501.528 1337.58 501.528C1337.34 501.528 1337.19 501.528 1337.1 501.528C1336.04 501.528 1335.22 501.24 1334.65 500.616C1334.07 499.992 1333.78 499.224 1333.78 498.312C1333.78 497.4 1334.07 496.632 1334.65 495.96C1335.22 495.336 1336.04 495 1337.1 495C1338.15 495 1338.92 495.384 1339.5 496.104C1340.07 496.824 1340.36 497.784 1340.36 499.032Z" fill="white"/>
</svg>
